G75*
G70*
%OFA0B0*%
%FSLAX24Y24*%
%IPPOS*%
%LPD*%
%AMOC8*
5,1,8,0,0,1.08239X$1,22.5*
%
%ADD10OC8,0.0520*%
%ADD11C,0.0520*%
%ADD12OC8,0.1000*%
%ADD13R,0.0900X0.0700*%
%ADD14R,0.0700X0.0900*%
%ADD15C,0.0356*%
%ADD16C,0.0160*%
%ADD17C,0.0500*%
D10*
X015855Y005568D03*
X023255Y007255D03*
X024255Y007255D03*
X024255Y010130D03*
X023255Y010130D03*
D11*
X016655Y005568D03*
X013630Y005130D03*
X011630Y005130D03*
D12*
X006630Y004505D03*
X002630Y004505D03*
X004630Y011505D03*
D13*
X004630Y013255D03*
X004630Y015005D03*
X008630Y015005D03*
X010630Y015005D03*
X010630Y013255D03*
X008630Y013255D03*
X014630Y013255D03*
X014630Y015005D03*
X022630Y015005D03*
X022630Y013255D03*
X026630Y013255D03*
X026630Y015005D03*
X011630Y009255D03*
X011630Y007505D03*
X007630Y007505D03*
X005630Y007505D03*
X005630Y009255D03*
X007630Y009255D03*
X001630Y009255D03*
X001630Y007505D03*
X004630Y003505D03*
X004630Y001755D03*
X008630Y001755D03*
X010630Y001755D03*
X010630Y003505D03*
X008630Y003505D03*
X014630Y003505D03*
X014630Y001755D03*
X023130Y001755D03*
X023130Y003505D03*
X027130Y003505D03*
X027130Y001755D03*
D14*
X019505Y003630D03*
X017755Y003630D03*
X016505Y006380D03*
X014755Y006380D03*
X017755Y007630D03*
X019505Y007630D03*
X020755Y006380D03*
X022505Y006380D03*
X019505Y009130D03*
X017755Y009130D03*
X016505Y010380D03*
X014755Y010380D03*
X017755Y013130D03*
X019505Y013130D03*
X020755Y010380D03*
X022505Y010380D03*
D15*
X018380Y011505D03*
X017943Y012036D03*
X018380Y012380D03*
X016755Y011505D03*
X015818Y012036D03*
X016380Y012380D03*
X018630Y013505D03*
X015380Y013755D03*
X013130Y013630D03*
X011568Y013849D03*
X011630Y011755D03*
X012130Y011755D03*
X011130Y011755D03*
X010630Y011755D03*
X010130Y011755D03*
X007880Y012130D03*
X012630Y008880D03*
X012630Y006505D03*
X013130Y006505D03*
X010130Y006505D03*
X009630Y006505D03*
D16*
X009630Y004505D01*
X008630Y003505D01*
X009880Y004005D02*
X010130Y004255D01*
X010130Y006505D01*
X012630Y006505D02*
X012630Y003630D01*
X014505Y003630D01*
X014630Y003505D01*
X010630Y001755D02*
X009880Y002505D01*
X009880Y004005D01*
X013130Y006505D02*
X013130Y008255D01*
X012630Y008880D02*
X017005Y008880D01*
X017130Y008755D01*
X017130Y008380D01*
X017755Y008380D01*
X017755Y007630D01*
X017755Y008380D02*
X023380Y008380D01*
X023755Y008005D01*
X023755Y005005D01*
X024380Y004380D01*
X024380Y002005D01*
X024130Y001755D01*
X023130Y001755D01*
X011630Y009255D02*
X010505Y009255D01*
X010130Y009630D01*
X010130Y011755D01*
X010130Y012005D01*
X010005Y012130D01*
X007880Y012130D01*
X005880Y012130D01*
X005630Y011880D01*
X005630Y009255D01*
X005630Y009130D01*
X003505Y007505D02*
X001630Y007505D01*
X003505Y007505D02*
X003525Y007503D01*
X003544Y007499D01*
X003562Y007491D01*
X003578Y007481D01*
X003593Y007468D01*
X003606Y007453D01*
X003616Y007437D01*
X003624Y007419D01*
X003628Y007400D01*
X003630Y007380D01*
X010630Y010630D02*
X010630Y011755D01*
X010630Y012380D01*
X010380Y012630D01*
X009661Y012630D01*
X009661Y013630D01*
X009880Y013849D01*
X011568Y013849D01*
X012005Y013630D02*
X013130Y013630D01*
X012005Y013630D02*
X011130Y012755D01*
X011130Y011755D01*
X011630Y011755D02*
X011630Y012380D01*
X011880Y012630D01*
X015130Y012630D01*
X015380Y012880D01*
X015380Y013130D01*
X015380Y013755D01*
X015380Y013130D02*
X016130Y013880D01*
X019880Y013880D01*
X020380Y013380D01*
X022380Y013380D01*
X022630Y013130D01*
X022630Y013255D01*
X025130Y014880D02*
X025132Y014900D01*
X025136Y014919D01*
X025144Y014937D01*
X025154Y014953D01*
X025167Y014968D01*
X025182Y014981D01*
X025198Y014991D01*
X025216Y014999D01*
X025235Y015003D01*
X025255Y015005D01*
X026630Y015005D01*
X020755Y010380D02*
X019380Y010380D01*
X018880Y010880D01*
X018880Y012880D01*
X018630Y013130D01*
X018630Y013505D01*
X018630Y013130D02*
X017755Y013130D01*
X016130Y013130D01*
X015880Y012880D01*
X015880Y012630D01*
X015380Y012130D01*
X012380Y012130D01*
X012130Y011880D01*
X012130Y011755D01*
X011130Y012755D02*
X010630Y013255D01*
X009661Y012630D02*
X005255Y012630D01*
X004630Y013255D01*
X008630Y015005D02*
X008630Y016130D01*
X014630Y016130D02*
X014630Y015005D01*
X016380Y012380D02*
X018380Y012380D01*
X017943Y012036D02*
X015818Y012036D01*
X016755Y011505D02*
X018380Y011505D01*
X014755Y010380D02*
X010880Y010380D01*
X010630Y010630D01*
X004630Y001755D02*
X004630Y000580D01*
D17*
X003630Y001380D02*
X003630Y007380D01*
X003630Y015380D01*
X003632Y015434D01*
X003638Y015487D01*
X003647Y015539D01*
X003660Y015591D01*
X003677Y015642D01*
X003698Y015692D01*
X003722Y015739D01*
X003749Y015785D01*
X003780Y015829D01*
X003813Y015871D01*
X003850Y015910D01*
X003889Y015947D01*
X003931Y015980D01*
X003975Y016011D01*
X004021Y016038D01*
X004068Y016062D01*
X004118Y016083D01*
X004169Y016100D01*
X004221Y016113D01*
X004273Y016122D01*
X004326Y016128D01*
X004380Y016130D01*
X008630Y016130D01*
X014630Y016130D01*
X024630Y016130D01*
X024674Y016128D01*
X024717Y016122D01*
X024759Y016113D01*
X024801Y016100D01*
X024841Y016083D01*
X024880Y016063D01*
X024917Y016040D01*
X024951Y016013D01*
X024984Y015984D01*
X025013Y015951D01*
X025040Y015917D01*
X025063Y015880D01*
X025083Y015841D01*
X025100Y015801D01*
X025113Y015759D01*
X025122Y015717D01*
X025128Y015674D01*
X025130Y015630D01*
X025130Y014880D01*
X025130Y012630D01*
X025128Y012586D01*
X025122Y012543D01*
X025113Y012501D01*
X025100Y012459D01*
X025083Y012419D01*
X025063Y012380D01*
X025040Y012343D01*
X025013Y012309D01*
X024984Y012276D01*
X024951Y012247D01*
X024917Y012220D01*
X024880Y012197D01*
X024841Y012177D01*
X024801Y012160D01*
X024759Y012147D01*
X024717Y012138D01*
X024674Y012132D01*
X024630Y012130D01*
X022130Y012130D01*
X022086Y012128D01*
X022043Y012122D01*
X022001Y012113D01*
X021959Y012100D01*
X021919Y012083D01*
X021880Y012063D01*
X021843Y012040D01*
X021809Y012013D01*
X021776Y011984D01*
X021747Y011951D01*
X021720Y011917D01*
X021697Y011880D01*
X021677Y011841D01*
X021660Y011801D01*
X021647Y011759D01*
X021638Y011717D01*
X021632Y011674D01*
X021630Y011630D01*
X021630Y009880D01*
X021628Y009826D01*
X021622Y009773D01*
X021613Y009721D01*
X021600Y009669D01*
X021583Y009618D01*
X021562Y009568D01*
X021538Y009521D01*
X021511Y009475D01*
X021480Y009431D01*
X021447Y009389D01*
X021410Y009350D01*
X021371Y009313D01*
X021329Y009280D01*
X021285Y009249D01*
X021239Y009222D01*
X021192Y009198D01*
X021142Y009177D01*
X021091Y009160D01*
X021039Y009147D01*
X020987Y009138D01*
X020934Y009132D01*
X020880Y009130D01*
X019505Y009130D01*
X016505Y008255D02*
X013130Y008255D01*
X008505Y008255D01*
X008506Y008256D02*
X008450Y008258D01*
X008394Y008257D01*
X008339Y008251D01*
X008284Y008242D01*
X008230Y008230D01*
X008177Y008213D01*
X008125Y008193D01*
X008074Y008170D01*
X008025Y008143D01*
X007979Y008113D01*
X007934Y008080D01*
X007892Y008043D01*
X007852Y008004D01*
X007815Y007963D01*
X007781Y007919D01*
X007750Y007872D01*
X007723Y007824D01*
X007698Y007774D01*
X007677Y007722D01*
X007660Y007670D01*
X007646Y007616D01*
X007637Y007561D01*
X007630Y007506D01*
X012630Y003630D02*
X012643Y000580D01*
X024643Y000580D01*
X024642Y000580D02*
X024685Y000584D01*
X024727Y000592D01*
X024769Y000604D01*
X024809Y000618D01*
X024848Y000636D01*
X024886Y000657D01*
X024921Y000682D01*
X024954Y000709D01*
X024986Y000738D01*
X025014Y000770D01*
X025040Y000805D01*
X025063Y000841D01*
X025082Y000879D01*
X025099Y000919D01*
X025112Y000960D01*
X025122Y001002D01*
X025128Y001044D01*
X025131Y001087D01*
X025130Y001130D01*
X025130Y003130D01*
X025132Y003167D01*
X025137Y003203D01*
X025146Y003239D01*
X025159Y003274D01*
X025174Y003307D01*
X025193Y003338D01*
X025215Y003368D01*
X025240Y003395D01*
X025267Y003420D01*
X025297Y003442D01*
X025328Y003461D01*
X025361Y003476D01*
X025396Y003489D01*
X025432Y003498D01*
X025468Y003503D01*
X025505Y003505D01*
X027130Y003505D01*
X022505Y005755D02*
X022505Y006380D01*
X022505Y005755D02*
X022503Y005718D01*
X022498Y005682D01*
X022489Y005646D01*
X022476Y005611D01*
X022461Y005578D01*
X022442Y005547D01*
X022420Y005517D01*
X022395Y005490D01*
X022368Y005465D01*
X022338Y005443D01*
X022307Y005424D01*
X022274Y005409D01*
X022239Y005396D01*
X022203Y005387D01*
X022167Y005382D01*
X022130Y005380D01*
X019505Y005380D01*
X019505Y006380D01*
X016505Y006380D01*
X016505Y008255D01*
X019505Y005380D02*
X019505Y003630D01*
X012643Y000580D02*
X004630Y000580D01*
X004405Y000580D01*
X004352Y000583D01*
X004298Y000589D01*
X004245Y000599D01*
X004193Y000613D01*
X004142Y000630D01*
X004093Y000650D01*
X004044Y000674D01*
X003998Y000701D01*
X003953Y000732D01*
X003911Y000765D01*
X003871Y000801D01*
X003834Y000839D01*
X003799Y000880D01*
X003767Y000924D01*
X003738Y000969D01*
X003713Y001017D01*
X003690Y001066D01*
X003671Y001116D01*
X003656Y001167D01*
X003644Y001220D01*
X003636Y001273D01*
X003631Y001327D01*
X003630Y001381D01*
M02*
