%
M48
M72
T01C0.0236
T02C0.0320
T03C0.0440
T04C0.1260
%
T01
X9630Y6505
X10130Y6505
X12630Y6505
X13130Y6505
X12630Y8880
X16755Y11505
X15818Y12036
X16380Y12380
X17943Y12036
X18380Y12380
X18380Y11505
X18630Y13505
X15380Y13755
X13130Y13630
X11568Y13849
X11630Y11755
X12130Y11755
X11130Y11755
X10630Y11755
X10130Y11755
X7880Y12130
T02
X15855Y5568
X16655Y5568
X13630Y5130
X11630Y5130
X23255Y7255
X24255Y7255
X24255Y10130
X23255Y10130
T03
X6630Y4505
X2630Y4505
X4630Y11505
T04
X1130Y1130
X1130Y3630
X1130Y13130
X1130Y15630
X20880Y14630
X20880Y2380
M30
