G04 CAM350 V10.1.0 (Build 363) Date:  Thu Mar 05 20:02:41 2015 *
G04 Database: c:\users\faame\desktop\telecommande ugs\telco itead\telco.gto *
G04 Layer 1: telco.gto *
%FSLAX24Y24*%
%MOIN*%
%SFA1.000B1.000*%

%MIA0B0*%
%IPPOS*%
%ADD10C,0.00600*%
%ADD11C,0.00000*%
%ADD12C,0.00400*%
%ADD13C,0.00300*%
%ADD14C,0.00700*%
%ADD15C,0.00500*%
%ADD16C,0.01600*%
%ADD17C,0.01200*%
%ADD18C,0.00800*%
%ADD19C,0.01000*%
%LNtelco.gto*%
%LPD*%
G54D10*
X130Y130D02*
G01Y16625D01*
X28122*
X28116Y130*
X130*
X2499Y2160D02*
G01Y2801D01*
X2712D02*
G01X2285D01*
X2930Y2480D02*
G01X3036Y2587D01*
X3250*
X3357Y2480*
Y2374*
X2930*
Y2480D02*
G01Y2267D01*
X3036Y2160*
X3250*
X3574D02*
G01X3788D01*
X3681D02*
G01Y2801D01*
X3574*
X4004Y2480D02*
G01X4111Y2587D01*
X4324*
X4431Y2480*
Y2374*
X4004*
Y2480D02*
G01Y2267D01*
X4111Y2160*
X4324*
X4648Y2267D02*
G01X4755Y2160D01*
X5075*
X5293Y2267D02*
G01X5400Y2160D01*
X5613*
X5720Y2267*
Y2480*
X5613Y2587*
X5400*
X5293Y2480*
Y2267*
X5075Y2587D02*
G01X4755D01*
X4648Y2480*
Y2267*
X5937Y2160D02*
G01Y2587D01*
X6044*
X6151Y2480*
X6258Y2587*
X6364Y2480*
Y2160*
X6151D02*
G01Y2480D01*
X6582Y2587D02*
G01Y2160D01*
X6796D02*
G01Y2480D01*
X6902Y2587*
X7009Y2480*
Y2160*
X7227Y2267D02*
G01X7333Y2374D01*
X7654*
Y2480D02*
G01Y2160D01*
X7333*
X7227Y2267*
X6796Y2480D02*
G01X6689Y2587D01*
X6582*
X7333D02*
G01X7547D01*
X7654Y2480*
X7871Y2587D02*
G01X8191D01*
X8298Y2480*
Y2160*
X8516Y2267D02*
G01Y2480D01*
X8622Y2587*
X8943*
Y2801D02*
G01Y2160D01*
X8622*
X8516Y2267*
X9160D02*
G01X9267Y2160D01*
X9480*
X9160Y2267D02*
G01Y2480D01*
X9267Y2587*
X9480*
X9587Y2480*
Y2374*
X9160*
X10449D02*
G01X10770D01*
X10876Y2480*
Y2694*
X10770Y2801*
X10449*
Y2160*
X10663Y2374D02*
G01X10876Y2160D01*
X11094Y2267D02*
G01X11201Y2160D01*
X11414*
X11521Y2267*
X11738D02*
G01X11845Y2160D01*
X12059*
X12165Y2267*
Y2480*
X12059Y2587*
X11952*
X11738Y2480*
Y2801*
X12165*
X11521Y2694D02*
G01X11414Y2801D01*
X11201*
X11094Y2694*
Y2267*
X7871Y2160D02*
G01Y2587D01*
X10880Y4430D02*
G01X10930Y4380D01*
X14330*
X14380Y4430*
Y5830*
X14330Y5880*
X10930*
X10880Y5830*
Y4430*
X12030Y5130D02*
G01X12260D01*
X13000D02*
G01X13230D01*
X15255Y5161D02*
G01Y974D01*
X17255*
Y5161*
X15255*
Y5568D02*
G01X15257Y5631D01*
X15263Y5693*
X15273Y5755*
X15286Y5817*
X15304Y5877*
X15325Y5936*
X15350Y5994*
X15379Y6050*
X15411Y6104*
X15446Y6156*
X15484Y6205*
X15526Y6253*
X15570Y6297*
X15618Y6339*
X15667Y6377*
X15719Y6412*
X15773Y6444*
X15829Y6473*
X15887Y6498*
X15946Y6519*
X16006Y6537*
X16068Y6550*
X16130Y6560*
X16192Y6566*
X16255Y6568*
X16318Y6566*
X16380Y6560*
X16442Y6550*
X16504Y6537*
X16564Y6519*
X16623Y6498*
X16681Y6473*
X16737Y6444*
X16791Y6412*
X16843Y6377*
X16892Y6339*
X16940Y6297*
X16984Y6253*
X17026Y6205*
X17064Y6156*
X17099Y6104*
X17131Y6050*
X17160Y5994*
X17185Y5936*
X17206Y5877*
X17224Y5817*
X17237Y5755*
X17247Y5693*
X17253Y5631*
X17255Y5568*
X17253Y5505*
X17247Y5443*
X17237Y5381*
X17224Y5319*
X17206Y5259*
X17185Y5200*
X17160Y5142*
X17131Y5086*
X17099Y5032*
X17064Y4980*
X17026Y4931*
X16984Y4883*
X16940Y4839*
X16892Y4797*
X16843Y4759*
X16791Y4724*
X16737Y4692*
X16681Y4663*
X16623Y4638*
X16564Y4617*
X16504Y4599*
X16442Y4586*
X16380Y4576*
X16318Y4570*
X16255Y4568*
X16192Y4570*
X16130Y4576*
X16068Y4586*
X16006Y4599*
X15946Y4617*
X15887Y4638*
X15829Y4663*
X15773Y4692*
X15719Y4724*
X15667Y4759*
X15618Y4797*
X15570Y4839*
X15526Y4883*
X15484Y4931*
X15446Y4980*
X15411Y5032*
X15379Y5086*
X15350Y5142*
X15325Y5200*
X15304Y5259*
X15286Y5319*
X15273Y5381*
X15263Y5443*
X15257Y5505*
X15255Y5568*
X16555Y4868D02*
G01X16755D01*
X16655Y4968D02*
G01Y4768D01*
X16350Y7668D02*
G01Y10592D01*
X9400*
Y7668*
X16350*
X15770Y10370D02*
G01X15772Y10399D01*
X15778Y10427*
X15787Y10454*
X15801Y10479*
X15817Y10503*
X15837Y10523*
X15859Y10542*
X15883Y10556*
X15910Y10568*
X15937Y10576*
X15966Y10580*
X15994*
X16023Y10576*
X16050Y10568*
X16077Y10556*
X16101Y10542*
X16123Y10523*
X16143Y10503*
X16159Y10479*
X16173Y10454*
X16182Y10427*
X16188Y10399*
X16190Y10370*
X16188Y10341*
X16182Y10313*
X16173Y10286*
X16159Y10261*
X16143Y10237*
X16123Y10217*
X16101Y10198*
X16077Y10184*
X16050Y10172*
X16023Y10164*
X15994Y10160*
X15966*
X15937Y10164*
X15910Y10172*
X15883Y10184*
X15859Y10198*
X15837Y10217*
X15817Y10237*
X15801Y10261*
X15787Y10286*
X15778Y10313*
X15772Y10341*
X15770Y10370*
X15180Y14230D02*
G01X14580D01*
X14563Y14232*
X14546Y14236*
X14530Y14243*
X14516Y14253*
X14503Y14266*
X14493Y14280*
X14486Y14296*
X14482Y14313*
X14480Y14330*
Y15430*
X14405D02*
G01Y14330D01*
X14403Y14313*
X14399Y14296*
X14392Y14280*
X14382Y14266*
X14369Y14253*
X14355Y14243*
X14339Y14236*
X14322Y14232*
X14305Y14230*
X13705*
X13688Y14232*
X13671Y14236*
X13655Y14243*
X13641Y14253*
X13628Y14266*
X13618Y14280*
X13611Y14296*
X13607Y14313*
X13605Y14330*
Y15430*
X13530D02*
G01Y14330D01*
X13528Y14313*
X13524Y14296*
X13517Y14280*
X13507Y14266*
X13494Y14253*
X13480Y14243*
X13464Y14236*
X13447Y14232*
X13430Y14230*
X12830*
X12813Y14232*
X12796Y14236*
X12780Y14243*
X12766Y14253*
X12753Y14266*
X12743Y14280*
X12736Y14296*
X12732Y14313*
X12730Y14330*
Y15430*
X12655D02*
G01Y14330D01*
X12653Y14313*
X12649Y14296*
X12642Y14280*
X12632Y14266*
X12619Y14253*
X12605Y14243*
X12589Y14236*
X12572Y14232*
X12555Y14230*
X11955*
X11938Y14232*
X11921Y14236*
X11905Y14243*
X11891Y14253*
X11878Y14266*
X11868Y14280*
X11861Y14296*
X11857Y14313*
X11855Y14330*
Y15430*
X11780D02*
G01Y14330D01*
X11778Y14313*
X11774Y14296*
X11767Y14280*
X11757Y14266*
X11744Y14253*
X11730Y14243*
X11714Y14236*
X11697Y14232*
X11680Y14230*
X11080*
X11063Y14232*
X11046Y14236*
X11030Y14243*
X11016Y14253*
X11003Y14266*
X10993Y14280*
X10986Y14296*
X10982Y14313*
X10980Y14330*
Y15430*
X10982Y15447*
X10986Y15464*
X10993Y15480*
X11003Y15494*
X11016Y15507*
X11030Y15517*
X11046Y15524*
X11063Y15528*
X11080Y15530*
X11680*
X11697Y15528*
X11714Y15524*
X11730Y15517*
X11744Y15507*
X11757Y15494*
X11767Y15480*
X11774Y15464*
X11778Y15447*
X11780Y15430*
X11855D02*
G01X11857Y15447D01*
X11861Y15464*
X11868Y15480*
X11878Y15494*
X11891Y15507*
X11905Y15517*
X11921Y15524*
X11938Y15528*
X11955Y15530*
X12555*
X12572Y15528*
X12589Y15524*
X12605Y15517*
X12619Y15507*
X12632Y15494*
X12642Y15480*
X12649Y15464*
X12653Y15447*
X12655Y15430*
X12730D02*
G01X12732Y15447D01*
X12736Y15464*
X12743Y15480*
X12753Y15494*
X12766Y15507*
X12780Y15517*
X12796Y15524*
X12813Y15528*
X12830Y15530*
X13430*
X13447Y15528*
X13464Y15524*
X13480Y15517*
X13494Y15507*
X13507Y15494*
X13517Y15480*
X13524Y15464*
X13528Y15447*
X13530Y15430*
X13605D02*
G01X13607Y15447D01*
X13611Y15464*
X13618Y15480*
X13628Y15494*
X13641Y15507*
X13655Y15517*
X13671Y15524*
X13688Y15528*
X13705Y15530*
X14305*
X14322Y15528*
X14339Y15524*
X14355Y15517*
X14369Y15507*
X14382Y15494*
X14392Y15480*
X14399Y15464*
X14403Y15447*
X14405Y15430*
X14480D02*
G01X14482Y15447D01*
X14486Y15464*
X14493Y15480*
X14503Y15494*
X14516Y15507*
X14530Y15517*
X14546Y15524*
X14563Y15528*
X14580Y15530*
X15180*
X15197Y15528*
X15214Y15524*
X15230Y15517*
X15244Y15507*
X15257Y15494*
X15267Y15480*
X15274Y15464*
X15278Y15447*
X15280Y15430*
Y14330*
X15278Y14313*
X15274Y14296*
X15267Y14280*
X15257Y14266*
X15244Y14253*
X15230Y14243*
X15214Y14236*
X15197Y14232*
X15180Y14230*
X17230Y14330D02*
G01Y15430D01*
X17232Y15447*
X17236Y15464*
X17243Y15480*
X17253Y15494*
X17266Y15507*
X17280Y15517*
X17296Y15524*
X17313Y15528*
X17330Y15530*
X17930*
X17947Y15528*
X17964Y15524*
X17980Y15517*
X17994Y15507*
X18007Y15494*
X18017Y15480*
X18024Y15464*
X18028Y15447*
X18030Y15430*
Y14330*
X18105D02*
G01Y15430D01*
X18107Y15447*
X18111Y15464*
X18118Y15480*
X18128Y15494*
X18141Y15507*
X18155Y15517*
X18171Y15524*
X18188Y15528*
X18205Y15530*
X18805*
X18822Y15528*
X18839Y15524*
X18855Y15517*
X18869Y15507*
X18882Y15494*
X18892Y15480*
X18899Y15464*
X18903Y15447*
X18905Y15430*
Y14330*
X18903Y14313*
X18899Y14296*
X18892Y14280*
X18882Y14266*
X18869Y14253*
X18855Y14243*
X18839Y14236*
X18822Y14232*
X18805Y14230*
X18205*
X18188Y14232*
X18171Y14236*
X18155Y14243*
X18141Y14253*
X18128Y14266*
X18118Y14280*
X18111Y14296*
X18107Y14313*
X18105Y14330*
X18030D02*
G01X18028Y14313D01*
X18024Y14296*
X18017Y14280*
X18007Y14266*
X17994Y14253*
X17980Y14243*
X17964Y14236*
X17947Y14232*
X17930Y14230*
X17330*
X17313Y14232*
X17296Y14236*
X17280Y14243*
X17266Y14253*
X17253Y14266*
X17243Y14280*
X17236Y14296*
X17232Y14313*
X17230Y14330*
X17212Y15660D02*
G01X16785D01*
X16999D02*
G01Y16301D01*
X16785Y16087*
X17430Y15980D02*
G01Y15767D01*
X17536Y15660*
X17750*
X17857Y15767*
Y15874*
X17750Y15980*
X17430*
X17643Y16194*
X17857Y16301*
X18285Y16194D02*
G01Y16087D01*
X18392Y15980*
X18605*
X18712Y15874*
Y15767*
X18605Y15660*
X18392*
X18285Y15767*
Y15874*
X18392Y15980*
X18605D02*
G01X18712Y16087D01*
Y16194*
X18605Y16301*
X18392*
X18285Y16194*
X15087D02*
G01X14660Y15767D01*
Y15660*
X14212Y15767D02*
G01Y15874D01*
X14105Y15980*
X13785*
Y15767*
X13892Y15660*
X14105*
X14212Y15767*
X13999Y16194D02*
G01X13785Y15980D01*
X13999Y16194D02*
G01X14212Y16301D01*
X14660D02*
G01X15087D01*
Y16194*
X13337Y16301D02*
G01X12910D01*
Y15980*
X13124Y16087*
X13230*
X13337Y15980*
Y15767*
X13230Y15660*
X13017*
X12910Y15767*
X12462Y15980D02*
G01X12035D01*
X12355Y16301*
Y15660*
X11587Y15767D02*
G01X11480Y15660D01*
X11267*
X11160Y15767*
X11374Y15980D02*
G01X11480D01*
X11587Y15874*
Y15767*
X11480Y15980D02*
G01X11587Y16087D01*
Y16194*
X11480Y16301*
X11267*
X11160Y16194*
X680Y8755D02*
G01X682Y8566D01*
X694Y8377*
X714Y8188*
X743Y8001*
X781Y7816*
X828Y7632*
X884Y7451*
X949Y7273*
X1021Y7099*
X1102Y6928*
X1192Y6761*
X1289Y6598*
X1394Y6440*
X1506Y6288*
X1625Y6141*
X1752Y6000*
X1885Y5865*
X2024Y5737*
X680Y8755D02*
G01X688Y8948D01*
X704Y9141*
X730Y9333*
X766Y9523*
X810Y9711*
X864Y9897*
X927Y10080*
X999Y10260*
X1080Y10436*
X1169Y10608*
X1266Y10775*
X1371Y10937*
X1485Y11094*
X1605Y11246*
X1733Y11391*
X1868Y11529*
X2010Y11661*
X2158Y11786*
X2312Y11903*
X2471Y12013*
X2636Y12115*
X2805Y12208*
X2979Y12293*
X3157Y12370*
X3338Y12438*
X3522Y12497*
X3710Y12546*
X3899Y12587*
X4090Y12618*
X4282Y12640*
X4475Y12652*
X4669Y12655*
X4862Y12648*
X5055Y12632*
X5247Y12607*
X5437Y12572*
X5626Y12527*
X5812Y12474*
X5995Y12412*
X6175Y12340*
X6351Y12260*
X6523Y12172*
X6690Y12075*
X6853Y11970*
X7010Y11857*
X7162Y11737*
X7307Y11609*
X7446Y11475*
X7579Y11333*
X7704Y11186*
X7822Y11032*
X7932Y10873*
X8034Y10709*
X8128Y10540*
X8214Y10366*
X8291Y10189*
X8359Y10008*
X8418Y9823*
X8469Y9636*
X8510Y9447*
X8541Y9256*
X8564Y9064*
X8577Y8871*
X8580Y8678*
X8574Y8484*
X8558Y8291*
X8533Y8099*
X8499Y7909*
X8455Y7720*
X8403Y7534*
X8341Y7351*
X8270Y7171*
X8190Y6994*
X8102Y6822*
X8006Y6654*
X7901Y6491*
X7789Y6334*
X7669Y6182*
X7542Y6036*
X7408Y5897*
X7267Y5764*
X22755Y7255D02*
G01X22757Y7318D01*
X22763Y7380*
X22773Y7442*
X22786Y7504*
X22804Y7564*
X22825Y7623*
X22850Y7681*
X22879Y7737*
X22911Y7791*
X22946Y7843*
X22984Y7892*
X23026Y7940*
X23070Y7984*
X23118Y8026*
X23167Y8064*
X23219Y8099*
X23273Y8131*
X23329Y8160*
X23387Y8185*
X23446Y8206*
X23506Y8224*
X23568Y8237*
X23630Y8247*
X23692Y8253*
X23755Y8255*
X23818Y8253*
X23880Y8247*
X23942Y8237*
X24004Y8224*
X24064Y8206*
X24123Y8185*
X24181Y8160*
X24237Y8131*
X24291Y8099*
X24343Y8064*
X24392Y8026*
X24440Y7984*
X24484Y7940*
X24526Y7892*
X24564Y7843*
X24599Y7791*
X24631Y7737*
X24660Y7681*
X24685Y7623*
X24706Y7564*
X24724Y7504*
X24737Y7442*
X24747Y7380*
X24753Y7318*
X24755Y7255*
X24753Y7192*
X24747Y7130*
X24737Y7068*
X24724Y7006*
X24706Y6946*
X24685Y6887*
X24660Y6829*
X24631Y6773*
X24599Y6719*
X24564Y6667*
X24526Y6618*
X24484Y6570*
X24440Y6526*
X24392Y6484*
X24343Y6446*
X24291Y6411*
X24237Y6379*
X24181Y6350*
X24123Y6325*
X24064Y6304*
X24004Y6286*
X23942Y6273*
X23880Y6263*
X23818Y6257*
X23755Y6255*
X23692Y6257*
X23630Y6263*
X23568Y6273*
X23506Y6286*
X23446Y6304*
X23387Y6325*
X23329Y6350*
X23273Y6379*
X23219Y6411*
X23167Y6446*
X23118Y6484*
X23070Y6526*
X23026Y6570*
X22984Y6618*
X22946Y6667*
X22911Y6719*
X22879Y6773*
X22850Y6829*
X22825Y6887*
X22804Y6946*
X22786Y7006*
X22773Y7068*
X22763Y7130*
X22757Y7192*
X22755Y7255*
X24661Y5630D02*
G01X28099D01*
X24661D02*
G01Y11630D01*
X28099*
X22755Y10130D02*
G01X22757Y10193D01*
X22763Y10255*
X22773Y10317*
X22786Y10379*
X22804Y10439*
X22825Y10498*
X22850Y10556*
X22879Y10612*
X22911Y10666*
X22946Y10718*
X22984Y10767*
X23026Y10815*
X23070Y10859*
X23118Y10901*
X23167Y10939*
X23219Y10974*
X23273Y11006*
X23329Y11035*
X23387Y11060*
X23446Y11081*
X23506Y11099*
X23568Y11112*
X23630Y11122*
X23692Y11128*
X23755Y11130*
X23818Y11128*
X23880Y11122*
X23942Y11112*
X24004Y11099*
X24064Y11081*
X24123Y11060*
X24181Y11035*
X24237Y11006*
X24291Y10974*
X24343Y10939*
X24392Y10901*
X24440Y10859*
X24484Y10815*
X24526Y10767*
X24564Y10718*
X24599Y10666*
X24631Y10612*
X24660Y10556*
X24685Y10498*
X24706Y10439*
X24724Y10379*
X24737Y10317*
X24747Y10255*
X24753Y10193*
X24755Y10130*
X24753Y10067*
X24747Y10005*
X24737Y9943*
X24724Y9881*
X24706Y9821*
X24685Y9762*
X24660Y9704*
X24631Y9648*
X24599Y9594*
X24564Y9542*
X24526Y9493*
X24484Y9445*
X24440Y9401*
X24392Y9359*
X24343Y9321*
X24291Y9286*
X24237Y9254*
X24181Y9225*
X24123Y9200*
X24064Y9179*
X24004Y9161*
X23942Y9148*
X23880Y9138*
X23818Y9132*
X23755Y9130*
X23692Y9132*
X23630Y9138*
X23568Y9148*
X23506Y9161*
X23446Y9179*
X23387Y9200*
X23329Y9225*
X23273Y9254*
X23219Y9286*
X23167Y9321*
X23118Y9359*
X23070Y9401*
X23026Y9445*
X22984Y9493*
X22946Y9542*
X22911Y9594*
X22879Y9648*
X22850Y9704*
X22825Y9762*
X22804Y9821*
X22786Y9881*
X22773Y9943*
X22763Y10005*
X22757Y10067*
X22755Y10130*
G54D11*
X20250Y14630D02*
G01X20252Y14680D01*
X20258Y14730*
X20268Y14779*
X20282Y14827*
X20299Y14874*
X20320Y14919*
X20345Y14963*
X20373Y15004*
X20405Y15043*
X20439Y15080*
X20476Y15114*
X20516Y15144*
X20558Y15171*
X20602Y15195*
X20648Y15216*
X20695Y15232*
X20743Y15245*
X20793Y15254*
X20842Y15259*
X20893Y15260*
X20943Y15257*
X20992Y15250*
X21041Y15239*
X21089Y15224*
X21135Y15206*
X21180Y15184*
X21223Y15158*
X21264Y15129*
X21303Y15097*
X21339Y15062*
X21371Y15024*
X21401Y14984*
X21428Y14941*
X21451Y14897*
X21470Y14851*
X21486Y14803*
X21498Y14754*
X21506Y14705*
X21510Y14655*
Y14605*
X21506Y14555*
X21498Y14506*
X21486Y14457*
X21470Y14409*
X21451Y14363*
X21428Y14319*
X21401Y14276*
X21371Y14236*
X21339Y14198*
X21303Y14163*
X21264Y14131*
X21223Y14102*
X21180Y14076*
X21135Y14054*
X21089Y14036*
X21041Y14021*
X20992Y14010*
X20943Y14003*
X20893Y14000*
X20842Y14001*
X20793Y14006*
X20743Y14015*
X20695Y14028*
X20648Y14044*
X20602Y14065*
X20558Y14089*
X20516Y14116*
X20476Y14146*
X20439Y14180*
X20405Y14217*
X20373Y14256*
X20345Y14297*
X20320Y14341*
X20299Y14386*
X20282Y14433*
X20268Y14481*
X20258Y14530*
X20252Y14580*
X20250Y14630*
X500Y15630D02*
G01X502Y15680D01*
X508Y15730*
X518Y15779*
X532Y15827*
X549Y15874*
X570Y15919*
X595Y15963*
X623Y16004*
X655Y16043*
X689Y16080*
X726Y16114*
X766Y16144*
X808Y16171*
X852Y16195*
X898Y16216*
X945Y16232*
X993Y16245*
X1043Y16254*
X1092Y16259*
X1143Y16260*
X1193Y16257*
X1242Y16250*
X1291Y16239*
X1339Y16224*
X1385Y16206*
X1430Y16184*
X1473Y16158*
X1514Y16129*
X1553Y16097*
X1589Y16062*
X1621Y16024*
X1651Y15984*
X1678Y15941*
X1701Y15897*
X1720Y15851*
X1736Y15803*
X1748Y15754*
X1756Y15705*
X1760Y15655*
Y15605*
X1756Y15555*
X1748Y15506*
X1736Y15457*
X1720Y15409*
X1701Y15363*
X1678Y15319*
X1651Y15276*
X1621Y15236*
X1589Y15198*
X1553Y15163*
X1514Y15131*
X1473Y15102*
X1430Y15076*
X1385Y15054*
X1339Y15036*
X1291Y15021*
X1242Y15010*
X1193Y15003*
X1143Y15000*
X1092Y15001*
X1043Y15006*
X993Y15015*
X945Y15028*
X898Y15044*
X852Y15065*
X808Y15089*
X766Y15116*
X726Y15146*
X689Y15180*
X655Y15217*
X623Y15256*
X595Y15297*
X570Y15341*
X549Y15386*
X532Y15433*
X518Y15481*
X508Y15530*
X502Y15580*
X500Y15630*
Y13130D02*
G01X502Y13180D01*
X508Y13230*
X518Y13279*
X532Y13327*
X549Y13374*
X570Y13419*
X595Y13463*
X623Y13504*
X655Y13543*
X689Y13580*
X726Y13614*
X766Y13644*
X808Y13671*
X852Y13695*
X898Y13716*
X945Y13732*
X993Y13745*
X1043Y13754*
X1092Y13759*
X1143Y13760*
X1193Y13757*
X1242Y13750*
X1291Y13739*
X1339Y13724*
X1385Y13706*
X1430Y13684*
X1473Y13658*
X1514Y13629*
X1553Y13597*
X1589Y13562*
X1621Y13524*
X1651Y13484*
X1678Y13441*
X1701Y13397*
X1720Y13351*
X1736Y13303*
X1748Y13254*
X1756Y13205*
X1760Y13155*
Y13105*
X1756Y13055*
X1748Y13006*
X1736Y12957*
X1720Y12909*
X1701Y12863*
X1678Y12819*
X1651Y12776*
X1621Y12736*
X1589Y12698*
X1553Y12663*
X1514Y12631*
X1473Y12602*
X1430Y12576*
X1385Y12554*
X1339Y12536*
X1291Y12521*
X1242Y12510*
X1193Y12503*
X1143Y12500*
X1092Y12501*
X1043Y12506*
X993Y12515*
X945Y12528*
X898Y12544*
X852Y12565*
X808Y12589*
X766Y12616*
X726Y12646*
X689Y12680*
X655Y12717*
X623Y12756*
X595Y12797*
X570Y12841*
X549Y12886*
X532Y12933*
X518Y12981*
X508Y13030*
X502Y13080*
X500Y13130*
Y3630D02*
G01X502Y3680D01*
X508Y3730*
X518Y3779*
X532Y3827*
X549Y3874*
X570Y3919*
X595Y3963*
X623Y4004*
X655Y4043*
X689Y4080*
X726Y4114*
X766Y4144*
X808Y4171*
X852Y4195*
X898Y4216*
X945Y4232*
X993Y4245*
X1043Y4254*
X1092Y4259*
X1143Y4260*
X1193Y4257*
X1242Y4250*
X1291Y4239*
X1339Y4224*
X1385Y4206*
X1430Y4184*
X1473Y4158*
X1514Y4129*
X1553Y4097*
X1589Y4062*
X1621Y4024*
X1651Y3984*
X1678Y3941*
X1701Y3897*
X1720Y3851*
X1736Y3803*
X1748Y3754*
X1756Y3705*
X1760Y3655*
Y3605*
X1756Y3555*
X1748Y3506*
X1736Y3457*
X1720Y3409*
X1701Y3363*
X1678Y3319*
X1651Y3276*
X1621Y3236*
X1589Y3198*
X1553Y3163*
X1514Y3131*
X1473Y3102*
X1430Y3076*
X1385Y3054*
X1339Y3036*
X1291Y3021*
X1242Y3010*
X1193Y3003*
X1143Y3000*
X1092Y3001*
X1043Y3006*
X993Y3015*
X945Y3028*
X898Y3044*
X852Y3065*
X808Y3089*
X766Y3116*
X726Y3146*
X689Y3180*
X655Y3217*
X623Y3256*
X595Y3297*
X570Y3341*
X549Y3386*
X532Y3433*
X518Y3481*
X508Y3530*
X502Y3580*
X500Y3630*
Y1130D02*
G01X502Y1180D01*
X508Y1230*
X518Y1279*
X532Y1327*
X549Y1374*
X570Y1419*
X595Y1463*
X623Y1504*
X655Y1543*
X689Y1580*
X726Y1614*
X766Y1644*
X808Y1671*
X852Y1695*
X898Y1716*
X945Y1732*
X993Y1745*
X1043Y1754*
X1092Y1759*
X1143Y1760*
X1193Y1757*
X1242Y1750*
X1291Y1739*
X1339Y1724*
X1385Y1706*
X1430Y1684*
X1473Y1658*
X1514Y1629*
X1553Y1597*
X1589Y1562*
X1621Y1524*
X1651Y1484*
X1678Y1441*
X1701Y1397*
X1720Y1351*
X1736Y1303*
X1748Y1254*
X1756Y1205*
X1760Y1155*
Y1105*
X1756Y1055*
X1748Y1006*
X1736Y957*
X1720Y909*
X1701Y863*
X1678Y819*
X1651Y776*
X1621Y736*
X1589Y698*
X1553Y663*
X1514Y631*
X1473Y602*
X1430Y576*
X1385Y554*
X1339Y536*
X1291Y521*
X1242Y510*
X1193Y503*
X1143Y500*
X1092Y501*
X1043Y506*
X993Y515*
X945Y528*
X898Y544*
X852Y565*
X808Y589*
X766Y616*
X726Y646*
X689Y680*
X655Y717*
X623Y756*
X595Y797*
X570Y841*
X549Y886*
X532Y933*
X518Y981*
X508Y1030*
X502Y1080*
X500Y1130*
X20250Y2380D02*
G01X20252Y2430D01*
X20258Y2480*
X20268Y2529*
X20282Y2577*
X20299Y2624*
X20320Y2669*
X20345Y2713*
X20373Y2754*
X20405Y2793*
X20439Y2830*
X20476Y2864*
X20516Y2894*
X20558Y2921*
X20602Y2945*
X20648Y2966*
X20695Y2982*
X20743Y2995*
X20793Y3004*
X20842Y3009*
X20893Y3010*
X20943Y3007*
X20992Y3000*
X21041Y2989*
X21089Y2974*
X21135Y2956*
X21180Y2934*
X21223Y2908*
X21264Y2879*
X21303Y2847*
X21339Y2812*
X21371Y2774*
X21401Y2734*
X21428Y2691*
X21451Y2647*
X21470Y2601*
X21486Y2553*
X21498Y2504*
X21506Y2455*
X21510Y2405*
Y2355*
X21506Y2305*
X21498Y2256*
X21486Y2207*
X21470Y2159*
X21451Y2113*
X21428Y2069*
X21401Y2026*
X21371Y1986*
X21339Y1948*
X21303Y1913*
X21264Y1881*
X21223Y1852*
X21180Y1826*
X21135Y1804*
X21089Y1786*
X21041Y1771*
X20992Y1760*
X20943Y1753*
X20893Y1750*
X20842Y1751*
X20793Y1756*
X20743Y1765*
X20695Y1778*
X20648Y1794*
X20602Y1815*
X20558Y1839*
X20516Y1866*
X20476Y1896*
X20439Y1930*
X20405Y1967*
X20373Y2006*
X20345Y2047*
X20320Y2091*
X20299Y2136*
X20282Y2183*
X20268Y2231*
X20258Y2280*
X20252Y2330*
X20250Y2380*
G54D12*
X18420Y5650D02*
G01X18266D01*
X18190Y5727*
X18497Y6034*
Y5727*
X18420Y5650*
X18190Y5727D02*
G01Y6034D01*
X18266Y6110*
X18420*
X18497Y6034*
X18036D02*
G01Y5727D01*
X17959Y5650*
X17806*
X17729Y5727*
X18036Y6034*
X17959Y6110*
X17806*
X17729Y6034*
Y5727*
X17576Y5650D02*
G01X17269D01*
X17422D02*
G01Y6110D01*
X17269Y5957*
X17499Y7150D02*
G01X17806D01*
X17959D02*
G01X18036D01*
Y7227*
X17959*
Y7150*
X18190Y7227D02*
G01X18266Y7150D01*
X18420*
X18497Y7227*
Y7380*
X18420Y7457*
X18343*
X18190Y7380*
Y7610*
X18497*
X17652D02*
G01Y7150D01*
X17499Y7457D02*
G01X17652Y7610D01*
Y8650D02*
G01Y9110D01*
X17499Y8957*
Y8650D02*
G01X17806D01*
X17959D02*
G01X18036D01*
Y8727*
X17959*
Y8650*
X18190Y8727D02*
G01X18266Y8650D01*
X18420*
X18497Y8727*
Y8880*
X18420Y8957*
X18343*
X18190Y8880*
Y9110*
X18497*
X14997Y12150D02*
G01X14766Y12303D01*
X14997Y12457*
X14766Y12610D02*
G01Y12150D01*
X14613D02*
G01X14306D01*
X14459D02*
G01Y12610D01*
X14306Y12457*
X18098Y12650D02*
G01X18328D01*
X18405Y12727*
Y12803*
X18328Y12880*
X18098*
Y12650D02*
G01Y13110D01*
X18328*
X18405Y13034*
Y12957*
X18328Y12880*
X18558Y12727D02*
G01X18635Y12650D01*
X18789*
X18865Y12727*
X19019Y12803D02*
G01X19172Y12650D01*
X19326Y12803*
Y13110*
X19479Y13034D02*
G01X19556Y13110D01*
X19709*
X19786Y13034*
Y12957*
X19479Y12650*
X19786*
X19940D02*
G01Y12727D01*
X20247Y13034*
Y13110*
X19940*
X19019D02*
G01Y12803D01*
X18865Y13034D02*
G01X18789Y13110D01*
X18635*
X18558Y13034*
Y12727*
X8414Y15775D02*
G01X8260D01*
X8337D02*
G01Y16235D01*
X8260*
X8107Y16005D02*
G01Y15775D01*
X7876*
X7800Y15852*
X7876Y15928*
X8107*
Y16005D02*
G01X8030Y16082D01*
X7876*
X7646Y16005D02*
G01Y15775D01*
Y16005D02*
G01X7570Y16082D01*
X7339*
Y15775*
X7186D02*
G01X6956D01*
X6879Y15852*
X6956Y15928*
X7186*
Y16005D02*
G01Y15775D01*
Y16005D02*
G01X7109Y16082D01*
X6956*
X6725D02*
G01X6495D01*
X6419Y16005*
Y15852*
X6495Y15775*
X6725*
X5805D02*
G01Y16005D01*
X5728Y16082*
X5498*
Y15775*
X5344Y15852D02*
G01Y16005D01*
X5268Y16082*
X5114*
X5037Y16005*
Y15852*
X5114Y15775*
X5268*
X5344Y15852*
X4884Y15775D02*
G01X4730D01*
X4807D02*
G01Y16082D01*
X4730*
X4577D02*
G01X4423D01*
X4500Y16159D02*
G01Y15852D01*
X4577Y15775*
X4270D02*
G01X4040D01*
X3963Y15852*
Y16005*
X4040Y16082*
X4270*
X3810Y16005D02*
G01Y15928D01*
X3503*
Y15852D02*
G01Y16005D01*
X3579Y16082*
X3733*
X3810Y16005*
X3733Y15775D02*
G01X3579D01*
X3503Y15852*
X3349Y15775D02*
G01X3196D01*
X3273D02*
G01Y16235D01*
X3196*
X3042Y16005D02*
G01Y15928D01*
X2735*
Y15852D02*
G01Y16005D01*
X2812Y16082*
X2966*
X3042Y16005*
X2966Y15775D02*
G01X2812D01*
X2735Y15852*
X2582D02*
G01X2505Y15775D01*
X2352*
X2275Y15852*
X2352Y16005D02*
G01X2505D01*
X2582Y15928*
Y15852*
X2352Y16005D02*
G01X2275Y16082D01*
Y16159*
X2352Y16235*
X2505*
X2582Y16159*
X4807Y16235D02*
G01Y16312D01*
X8402Y5485D02*
G01X8249Y5409D01*
X8096Y5255*
X8326*
X8402Y5178*
Y5102*
X8326Y5025*
X8172*
X8096Y5102*
Y5255*
X8556Y5178D02*
G01X8786Y5332D01*
X8940D02*
G01Y5409D01*
X9016Y5485*
X9170*
X9247Y5409*
Y5332*
X9170Y5255*
X9016*
X8940Y5332*
X9016Y5255D02*
G01X8940Y5178D01*
Y5102*
X9016Y5025*
X9170*
X9247Y5102*
Y5178*
X9170Y5255*
X8786Y5025D02*
G01X8556Y5178D01*
Y5025D02*
G01Y5485D01*
G54D13*
X5830Y1935D02*
G01X5636D01*
Y1790*
X5733Y1838*
X5781*
X5830Y1790*
Y1693*
X5781Y1645*
X5685*
X5636Y1693*
X5535Y1645D02*
G01X5342D01*
X5438D02*
G01Y1935D01*
X5342Y1838*
X5240Y1887D02*
G01Y1693D01*
X5192Y1645*
X5095*
X5047Y1693*
X5240Y1887*
X5192Y1935*
X5095*
X5047Y1887*
Y1693*
X4946Y1645D02*
G01X4752D01*
X4946Y1838*
Y1887*
X4897Y1935*
X4801*
X4752Y1887*
X4356Y1790D02*
G01X4163D01*
X3767D02*
G01Y1742D01*
X3574*
Y1790D02*
G01X3622Y1838D01*
X3719*
X3767Y1790*
X3719Y1645D02*
G01X3622D01*
X3574Y1693*
Y1790*
X3472D02*
G01Y1645D01*
X3376D02*
G01Y1790D01*
X3424Y1838*
X3472Y1790*
X3376D02*
G01X3327Y1838D01*
X3279*
Y1645*
X3178D02*
G01X3033D01*
X2984Y1693*
X3033Y1742*
X3178*
Y1790D02*
G01Y1645D01*
Y1790D02*
G01X3129Y1838D01*
X3033*
X2883Y1790D02*
G01Y1645D01*
X2738*
X2690Y1693*
X2738Y1742*
X2883*
Y1790D02*
G01X2835Y1838D01*
X2738*
X2588Y1935D02*
G01X2395D01*
Y1645*
Y1790D02*
G01X2492D01*
X2463Y14270D02*
G01X2318D01*
X2270Y14318*
Y14415*
X2318Y14463*
X2463*
Y14560D02*
G01Y14270D01*
X2565Y14318D02*
G01Y14415D01*
X2613Y14463*
X2710*
X2758Y14415*
Y14367*
X2565*
Y14318D02*
G01X2613Y14270D01*
X2710*
X2859D02*
G01X3004D01*
X3053Y14318*
X3004Y14367*
X2908*
X2859Y14415*
X2908Y14463*
X3053*
X2955Y14770D02*
G01X3004Y14818D01*
Y14915*
X2955Y14963*
X2859*
X2810Y14915*
Y14818*
X2859Y14770*
X2955*
X3105Y14818D02*
G01X3153Y14770D01*
X3298*
Y14963*
X3399D02*
G01X3545D01*
X3593Y14915*
Y14818*
X3545Y14770*
X3399*
Y14673D02*
G01Y14963D01*
X3301Y15173D02*
G01Y15463D01*
X3446*
X3495Y15415*
Y15318*
X3446Y15270*
X3301*
X3200D02*
G01X3055D01*
X3007Y15318*
X3055Y15367*
X3200*
Y15415D02*
G01Y15270D01*
Y15415D02*
G01X3152Y15463D01*
X3055*
X2906D02*
G01X2858D01*
X2761Y15367*
Y15463D02*
G01Y15270D01*
X2661D02*
G01X2613Y15318D01*
Y15512*
X2565Y15463D02*
G01X2661D01*
X2463Y15512D02*
G01X2415Y15560D01*
X2318*
X2270Y15512*
Y15463*
X2318Y15415*
X2415*
X2463Y15367*
Y15318*
X2415Y15270*
X2318*
X2270Y15318*
X2318Y14963D02*
G01X2270Y14915D01*
Y14818*
X2318Y14770*
X2463*
Y14722D02*
G01Y14963D01*
X2318*
X2565D02*
G01Y14770D01*
Y14867D02*
G01X2661Y14963D01*
X2710*
X3105D02*
G01Y14818D01*
X3449Y14512D02*
G01X3497Y14560D01*
X3594*
X3642Y14512*
Y14463*
X3449Y14270*
X3642*
X4038Y14463D02*
G01X4135Y14270D01*
X4231Y14463*
X4381D02*
G01X4478D01*
X4526Y14415*
Y14270*
X4381*
X4333Y14318*
X4381Y14367*
X4526*
X4627Y14270D02*
G01X4724D01*
X4676D02*
G01Y14560D01*
X4627*
X4824Y14415D02*
G01Y14318D01*
X4872Y14270*
X4969*
X5017Y14367D02*
G01X4824D01*
Y14415D02*
G01X4872Y14463D01*
X4969*
X5017Y14415*
Y14367*
X5118Y14318D02*
G01Y14463D01*
Y14318D02*
G01X5167Y14270D01*
X5312*
Y14463*
X5413D02*
G01Y14270D01*
Y14367D02*
G01X5510Y14463D01*
X5558*
X5658Y14415D02*
G01X5707Y14367D01*
X5804*
X5852Y14318*
X5804Y14270*
X5658*
Y14415D02*
G01X5707Y14463D01*
X5852*
X5855Y14770D02*
G01Y14963D01*
X6000*
X6048Y14915*
Y14770*
X6150Y14818D02*
G01X6198Y14867D01*
X6343*
Y14915D02*
G01Y14770D01*
X6198*
X6150Y14818*
X6198Y14963D02*
G01X6295D01*
X6343Y14915*
X6444Y14770D02*
G01X6541D01*
X6493D02*
G01Y15060D01*
X6444*
X6100Y15173D02*
G01Y15463D01*
X6246*
X6294Y15415*
Y15318*
X6246Y15270*
X6100*
X5999D02*
G01Y15415D01*
X5951Y15463*
X5903Y15415*
Y15270*
X5806D02*
G01Y15463D01*
X5854*
X5903Y15415*
X5705Y15463D02*
G01Y15270D01*
X5560*
X5511Y15318*
Y15463*
X5411D02*
G01Y15222D01*
X5363Y15173*
X5315*
X5314Y14963D02*
G01X5266Y14915D01*
Y14818*
X5314Y14770*
X5459*
X5560Y14818D02*
G01X5609Y14867D01*
X5754*
Y14915D02*
G01Y14770D01*
X5609*
X5560Y14818*
X5609Y14963D02*
G01X5705D01*
X5754Y14915*
X5459Y14963D02*
G01X5314D01*
X4870Y14915D02*
G01Y14867D01*
X4676*
Y14915D02*
G01Y14818D01*
X4725Y14770*
X4821*
X4870Y14915D02*
G01X4821Y14963D01*
X4725*
X4676Y14915*
X4577Y14770D02*
G01X4480D01*
X4528D02*
G01Y15060D01*
X4480*
X4086Y14818D02*
G01X4037D01*
Y14770*
X4086*
Y14818*
Y14770D02*
G01X3989Y14673D01*
X3839Y14770D02*
G01X3743D01*
X3694Y14818*
Y14915*
X3743Y14963*
X3839*
X3888Y14915*
Y14867*
X3694*
X3741Y15270D02*
G01X3644D01*
X3596Y15318*
Y15415*
X3644Y15463*
X3741*
X3789Y15415*
Y15367*
X3596*
X3891D02*
G01X3987Y15463D01*
X4036*
X3891D02*
G01Y15270D01*
X4431Y15318D02*
G01X4479Y15270D01*
X4624*
Y15463*
X4725D02*
G01X4871D01*
X4919Y15415*
Y15270*
X4725D02*
G01Y15463D01*
X4431D02*
G01Y15318D01*
X5411Y15560D02*
G01Y15609D01*
X6395Y15415D02*
G01Y15318D01*
X6443Y15270*
X6540*
X6589Y15367D02*
G01X6395D01*
Y15415D02*
G01X6443Y15463D01*
X6540*
X6589Y15415*
Y15367*
X6690D02*
G01X6787Y15463D01*
X6835*
X6690D02*
G01Y15270D01*
X6984Y14963D02*
G01X7080D01*
X7129Y14915*
Y14867*
X6935*
Y14915D02*
G01Y14818D01*
X6984Y14770*
X7080*
X7230D02*
G01X7375D01*
X7423Y14818*
X7375Y14867*
X7278*
X7230Y14915*
X7278Y14963*
X7423*
X7525D02*
G01X7621D01*
X7573Y15012D02*
G01Y14818D01*
X7621Y14770*
X7769Y14609D02*
G01Y14560D01*
Y14463D02*
G01Y14270D01*
X7721D02*
G01X7818D01*
X7917Y14318D02*
G01Y14415D01*
X7966Y14463*
X8063*
X8111Y14415*
Y14367*
X7917*
Y14318D02*
G01X7966Y14270D01*
X8063*
X8212Y14318D02*
G01Y14415D01*
X8261Y14463*
X8357*
X8406Y14415*
Y14367*
X8212*
Y14318D02*
G01X8261Y14270D01*
X8357*
X8507D02*
G01X8652D01*
X8700Y14318*
X8652Y14367*
X8555*
X8507Y14415*
X8555Y14463*
X8700*
X8801Y14318D02*
G01X8850D01*
Y14270*
X8801*
Y14318*
Y14770D02*
G01X8947D01*
X8995Y14818*
X8947Y14867*
X8850*
X8801Y14915*
X8850Y14963*
X8995*
X9096Y14915D02*
G01Y14818D01*
X9144Y14770*
X9241*
X9290Y14818*
Y14915*
X9241Y14963*
X9144*
X9096Y14915*
X9191Y15173D02*
G01Y15463D01*
X9046*
X8998Y15415*
Y15318*
X9046Y15270*
X9191*
X9293Y15318D02*
G01X9341Y15270D01*
X9486*
Y15463*
X9587Y15415D02*
G01X9636Y15463D01*
X9732*
X9781Y15415*
Y15367*
X9587*
Y15415D02*
G01Y15318D01*
X9636Y15270*
X9732*
X9734Y14963D02*
G01X9782Y14915D01*
X9831Y14963*
X9879Y14915*
Y14770*
X9782D02*
G01Y14915D01*
X9734Y14963D02*
G01X9685D01*
Y14770*
X9584D02*
G01Y14915D01*
X9536Y14963*
X9488Y14915*
Y14770*
X9391D02*
G01Y14963D01*
X9439*
X9488Y14915*
X9293Y15318D02*
G01Y15463D01*
X8897Y15415D02*
G01Y15270D01*
X8752*
X8703Y15318*
X8752Y15367*
X8897*
Y15415D02*
G01X8848Y15463D01*
X8752*
X8602Y15415D02*
G01Y15270D01*
Y15415D02*
G01X8554Y15463D01*
X8457*
X8409Y15415*
X8307Y15463D02*
G01X8162D01*
X8114Y15415*
Y15318*
X8162Y15270*
X8307*
X8409D02*
G01Y15560D01*
X7718Y15415D02*
G01Y15367D01*
X7525*
Y15415D02*
G01Y15318D01*
X7573Y15270*
X7670*
X7718Y15415D02*
G01X7670Y15463D01*
X7573*
X7525Y15415*
X7423Y15463D02*
G01X7278D01*
X7230Y15415*
Y15318*
X7278Y15270*
X7423*
Y15560*
X6984Y14963D02*
G01X6935Y14915D01*
X6885Y14463D02*
G01X7031D01*
X6982Y14367D02*
G01X6885D01*
X6837Y14415*
X6885Y14463*
X6982Y14367D02*
G01X7031Y14318D01*
X6982Y14270*
X6837*
X6736Y14318D02*
G01X6688Y14367D01*
X6591*
X6542Y14415*
X6591Y14463*
X6736*
Y14318D02*
G01X6688Y14270D01*
X6542*
X6441D02*
G01Y14415D01*
X6393Y14463*
X6296*
Y14367D02*
G01X6441D01*
Y14270D02*
G01X6296D01*
X6248Y14318*
X6296Y14367*
X7132Y14415D02*
G01Y14318D01*
X7180Y14270*
X7277*
X7325Y14318*
Y14415*
X7277Y14463*
X7180*
X7132Y14415*
X7426D02*
G01Y14318D01*
X7475Y14270*
X7620*
Y14463D02*
G01X7475D01*
X7426Y14415*
X7721Y14463D02*
G01X7769D01*
X7966Y14560D02*
G01X8063Y14609D01*
X8064Y14770D02*
G01Y15060D01*
X8016*
X8261Y14963D02*
G01X8357D01*
X8406Y14915*
Y14770*
X8261*
X8212Y14818*
X8261Y14867*
X8406*
X8112Y14770D02*
G01X8016D01*
X9980Y14818D02*
G01Y14915D01*
X10028Y14963*
X10125*
X10174Y14915*
Y14867*
X9980*
Y14818D02*
G01X10028Y14770D01*
X10125*
X2463Y14722D02*
G01X2415Y14673D01*
X2367*
G54D14*
X10815Y10015D02*
G01Y9910D01*
X10920Y9805*
X11130*
X11235Y9700*
Y9595*
X11130Y9490*
X10920*
X10815Y9595*
Y10015D02*
G01X10920Y10121D01*
X11130*
X11235Y10015*
X11460Y9910D02*
G01X11670Y10121D01*
X11880Y9910*
Y9490*
X12104D02*
G01Y9910D01*
X12314Y10121*
X12524Y9910*
Y9490*
X12749Y9595D02*
G01X12854Y9490D01*
X13064*
X13169Y9595*
Y9700*
X13064Y9805*
X12959*
X13064D02*
G01X13169Y9910D01*
Y10015*
X13064Y10121*
X12854*
X12749Y10015*
X12524Y9805D02*
G01X12104D01*
X11880D02*
G01X11460D01*
Y9910D02*
G01Y9490D01*
X13393Y9595D02*
G01X13498Y9490D01*
X13708*
X13814Y9595*
Y10015*
X13393Y9595*
Y10015*
X13498Y10121*
X13708*
X13814Y10015*
X14038Y9910D02*
G01X14248Y10121D01*
Y9490*
X14038D02*
G01X14458D01*
X14682Y9595D02*
G01X15103Y10015D01*
Y9595*
X14998Y9490*
X14787*
X14682Y9595*
Y10015*
X14787Y10121*
X14998*
X15103Y10015*
G54D15*
X21990Y10070D02*
G01Y10295D01*
X22065Y10370*
X22215*
X22290Y10295*
Y10070*
Y10220D02*
G01X22440Y10370D01*
Y10070D02*
G01X21990D01*
Y9913D02*
G01Y9763D01*
Y9838D02*
G01X22440D01*
Y9763D02*
G01Y9913D01*
X22365Y8370D02*
G01X22290D01*
X22215Y8295*
Y8145*
X22140Y8070*
X22065*
X21990Y8145*
Y8295*
X22065Y8370*
X22365D02*
G01X22440Y8295D01*
Y8145*
X22365Y8070*
Y7909D02*
G01X21990D01*
Y7609D02*
G01X22365D01*
X22440Y7684*
Y7834*
X22365Y7909*
X21990Y7449D02*
G01Y7149D01*
Y7299D02*
G01X22440D01*
Y6989D02*
G01X22140D01*
X21990Y6839*
X22140Y6688*
X22440*
X22215D02*
G01Y6989D01*
X21990Y6528D02*
G01Y6228D01*
Y6378D02*
G01X22440D01*
X22365Y6068D02*
G01X22290D01*
X22215Y5993*
Y5843*
X22140Y5768*
X22065*
X21990Y5843*
Y5993*
X22065Y6068*
X22365D02*
G01X22440Y5993D01*
Y5843*
X22365Y5768*
X16932Y680D02*
G01Y380D01*
X16707*
X16632Y455*
Y680*
X16472Y755D02*
G01X16172Y455D01*
X16247Y380*
X16397*
X16472Y455*
Y755*
X16397Y830*
X16247*
X16172Y755*
Y455*
X16012D02*
G01X15937Y380D01*
X15786*
X15711Y455*
X16012Y755*
Y455*
X15711D02*
G01Y755D01*
X15786Y830*
X15937*
X16012Y755*
X15551Y380D02*
G01X15251D01*
X15401D02*
G01Y830D01*
X15251Y680*
X13930Y3460D02*
G01X13630D01*
X13930Y3760*
X13630*
X13470Y3685D02*
G01X13170D01*
X13011Y3760D02*
G01X12786Y3610D01*
X13011Y3460*
X13170D02*
G01Y3910D01*
X13470D02*
G01Y3460D01*
X12786D02*
G01Y3910D01*
X12626Y3835D02*
G01X12551Y3910D01*
X12401*
X12326Y3835*
Y3760*
X12401Y3685*
X12626*
Y3535D02*
G01Y3835D01*
Y3535D02*
G01X12551Y3460D01*
X12401*
X12326Y3535*
X12166Y3460D02*
G01X11865D01*
X12166Y3760*
Y3835*
X12091Y3910*
X11940*
X11865Y3835*
X11705Y3685D02*
G01X11405D01*
X11630Y3910*
Y3460*
X1012Y5520D02*
G01X1162Y5670D01*
Y5970*
X862D02*
G01Y5670D01*
X1012Y5520*
X701Y5595D02*
G01Y5670D01*
X626Y5745*
X551*
X626D02*
G01X701Y5820D01*
Y5895*
X626Y5970*
X476*
X401Y5895*
Y5595D02*
G01X476Y5520D01*
X626*
X701Y5595*
G54D16*
X10880Y6130D02*
G01X14380D01*
X14410Y6128*
X14440Y6123*
X14469Y6114*
X14496Y6101*
X14522Y6086*
X14546Y6067*
X14567Y6046*
X14586Y6022*
X14601Y5996*
X14614Y5969*
X14623Y5940*
X14628Y5910*
X14630Y5880*
Y4380*
X14628Y4350*
X14623Y4320*
X14614Y4291*
X14601Y4264*
X14586Y4238*
X14567Y4214*
X14546Y4193*
X14522Y4174*
X14496Y4159*
X14469Y4146*
X14440Y4137*
X14410Y4132*
X14380Y4130*
X10880*
X10850Y4132*
X10820Y4137*
X10791Y4146*
X10764Y4159*
X10738Y4174*
X10714Y4193*
X10693Y4214*
X10674Y4238*
X10659Y4264*
X10646Y4291*
X10637Y4320*
X10632Y4350*
X10630Y4380*
Y5880*
X10632Y5910*
X10637Y5940*
X10646Y5969*
X10659Y5996*
X10674Y6022*
X10693Y6046*
X10714Y6067*
X10738Y6086*
X10764Y6101*
X10791Y6114*
X10820Y6123*
X10850Y6128*
X10880Y6130*
G54D17*
X12260Y5630D02*
G01Y5130D01*
Y4630*
X12510D02*
G01X12760D01*
Y5630*
X12510*
Y4630*
X13000D02*
G01Y5130D01*
Y5630*
G54D18*
X22755Y6505D02*
G01Y8005D01*
Y9380D02*
G01Y10880D01*
G54D19*
Y10880D02*
G01X22798Y10934D01*
X22844Y10986*
X22893Y11035*
X22945Y11082*
X22999Y11125*
X23055Y11166*
X23114Y11203*
X23174Y11237*
X23237Y11267*
X23300Y11294*
X23366Y11318*
X23432Y11338*
X23500Y11354*
X23568Y11366*
X23637Y11374*
X23706Y11379*
X23776Y11380*
X23845Y11377*
X23914Y11370*
X23982Y11359*
X24050Y11345*
X24117Y11326*
X24183Y11304*
X24248Y11279*
X24311Y11250*
X24372Y11217*
X24431Y11181*
X24488Y11142*
X24544Y11100*
X24596Y11055*
X24646Y11007*
X24693Y10956*
X24738Y10902*
X24779Y10847*
X24817Y10789*
X24852Y10729*
X24884Y10667*
X24912Y10604*
X24936Y10539*
X24957Y10473*
X24974Y10405*
X24988Y10337*
X24997Y10268*
X25003Y10199*
X25005Y10130*
X25003Y10061*
X24997Y9992*
X24988Y9923*
X24974Y9855*
X24957Y9787*
X24936Y9721*
X24912Y9656*
X24884Y9593*
X24852Y9531*
X24817Y9471*
X24779Y9413*
X24738Y9358*
X24693Y9304*
X24646Y9253*
X24596Y9205*
X24544Y9160*
X24488Y9118*
X24431Y9079*
X24372Y9043*
X24311Y9010*
X24248Y8981*
X24183Y8956*
X24117Y8934*
X24050Y8915*
X23982Y8901*
X23914Y8890*
X23845Y8883*
X23776Y8880*
X23706Y8881*
X23637Y8886*
X23568Y8894*
X23500Y8906*
X23432Y8922*
X23366Y8942*
X23300Y8966*
X23237Y8993*
X23174Y9023*
X23114Y9057*
X23055Y9094*
X22999Y9135*
X22945Y9178*
X22893Y9225*
X22844Y9274*
X22798Y9326*
X22755Y9380*
Y8005D02*
G01X22798Y8059D01*
X22844Y8111*
X22893Y8160*
X22945Y8207*
X22999Y8250*
X23055Y8291*
X23114Y8328*
X23174Y8362*
X23237Y8392*
X23300Y8419*
X23366Y8443*
X23432Y8463*
X23500Y8479*
X23568Y8491*
X23637Y8499*
X23706Y8504*
X23776Y8505*
X23845Y8502*
X23914Y8495*
X23982Y8484*
X24050Y8470*
X24117Y8451*
X24183Y8429*
X24248Y8404*
X24311Y8375*
X24372Y8342*
X24431Y8306*
X24488Y8267*
X24544Y8225*
X24596Y8180*
X24646Y8132*
X24693Y8081*
X24738Y8027*
X24779Y7972*
X24817Y7914*
X24852Y7854*
X24884Y7792*
X24912Y7729*
X24936Y7664*
X24957Y7598*
X24974Y7530*
X24988Y7462*
X24997Y7393*
X25003Y7324*
X25005Y7255*
X25003Y7186*
X24997Y7117*
X24988Y7048*
X24974Y6980*
X24957Y6912*
X24936Y6846*
X24912Y6781*
X24884Y6718*
X24852Y6656*
X24817Y6596*
X24779Y6538*
X24738Y6483*
X24693Y6429*
X24646Y6378*
X24596Y6330*
X24544Y6285*
X24488Y6243*
X24431Y6204*
X24372Y6168*
X24311Y6135*
X24248Y6106*
X24183Y6081*
X24117Y6059*
X24050Y6040*
X23982Y6026*
X23914Y6015*
X23845Y6008*
X23776Y6005*
X23706Y6006*
X23637Y6011*
X23568Y6019*
X23500Y6031*
X23432Y6047*
X23366Y6067*
X23300Y6091*
X23237Y6118*
X23174Y6148*
X23114Y6182*
X23055Y6219*
X22999Y6260*
X22945Y6303*
X22893Y6350*
X22844Y6399*
X22798Y6451*
X22755Y6505*
X1063Y5092D02*
G01X563D01*
X813Y4842D02*
G01Y5342D01*
X1129Y11229D02*
G01X629D01*
M02*
