%TF.GenerationSoftware,KiCad,Pcbnew,(6.0.6-0)*%
%TF.CreationDate,2022-12-31T16:02:41+01:00*%
%TF.ProjectId,rc5_remote,7263355f-7265-46d6-9f74-652e6b696361,rev?*%
%TF.SameCoordinates,Original*%
%TF.FileFunction,Legend,Top*%
%TF.FilePolarity,Positive*%
%FSLAX46Y46*%
G04 Gerber Fmt 4.6, Leading zero omitted, Abs format (unit mm)*
G04 Created by KiCad (PCBNEW (6.0.6-0)) date 2022-12-31 16:02:41*
%MOMM*%
%LPD*%
G01*
G04 APERTURE LIST*
%ADD10C,0.150000*%
%ADD11C,0.500000*%
%ADD12C,0.200000*%
%ADD13C,0.300000*%
%ADD14C,0.120000*%
G04 APERTURE END LIST*
D10*
X137795000Y-92710000D02*
X150495000Y-92710000D01*
X137795000Y-90805000D02*
X150495000Y-90805000D01*
X150495000Y-90805000D02*
X150495000Y-98425000D01*
X150495000Y-98425000D02*
X137795000Y-98425000D01*
X137795000Y-98425000D02*
X137795000Y-90805000D01*
X130810000Y-92710000D02*
X135890000Y-92710000D01*
X130810000Y-90805000D02*
X135890000Y-90805000D01*
X135890000Y-90805000D02*
X135890000Y-98425000D01*
X135890000Y-98425000D02*
X130810000Y-98425000D01*
X130810000Y-98425000D02*
X130810000Y-90805000D01*
X150495000Y-92710000D02*
X137795000Y-92710000D01*
D11*
X166512857Y-91313095D02*
X166512857Y-92836904D01*
X167131904Y-65547857D02*
X165608095Y-65547857D01*
X166370000Y-66309761D02*
X166370000Y-64785952D01*
D10*
X142549761Y-91194000D02*
X142454523Y-91146380D01*
X142311666Y-91146380D01*
X142168809Y-91194000D01*
X142073571Y-91289238D01*
X142025952Y-91384476D01*
X141978333Y-91574952D01*
X141978333Y-91717809D01*
X142025952Y-91908285D01*
X142073571Y-92003523D01*
X142168809Y-92098761D01*
X142311666Y-92146380D01*
X142406904Y-92146380D01*
X142549761Y-92098761D01*
X142597380Y-92051142D01*
X142597380Y-91717809D01*
X142406904Y-91717809D01*
X143597380Y-92146380D02*
X143264047Y-91670190D01*
X143025952Y-92146380D02*
X143025952Y-91146380D01*
X143406904Y-91146380D01*
X143502142Y-91194000D01*
X143549761Y-91241619D01*
X143597380Y-91336857D01*
X143597380Y-91479714D01*
X143549761Y-91574952D01*
X143502142Y-91622571D01*
X143406904Y-91670190D01*
X143025952Y-91670190D01*
X144025952Y-92146380D02*
X144025952Y-91146380D01*
X144406904Y-91146380D01*
X144502142Y-91194000D01*
X144549761Y-91241619D01*
X144597380Y-91336857D01*
X144597380Y-91479714D01*
X144549761Y-91574952D01*
X144502142Y-91622571D01*
X144406904Y-91670190D01*
X144025952Y-91670190D01*
X145740238Y-91241619D02*
X145787857Y-91194000D01*
X145883095Y-91146380D01*
X146121190Y-91146380D01*
X146216428Y-91194000D01*
X146264047Y-91241619D01*
X146311666Y-91336857D01*
X146311666Y-91432095D01*
X146264047Y-91574952D01*
X145692619Y-92146380D01*
X146311666Y-92146380D01*
D12*
X103591428Y-69757857D02*
X103591428Y-68557857D01*
X104048571Y-68557857D01*
X104162857Y-68615000D01*
X104220000Y-68672142D01*
X104277142Y-68786428D01*
X104277142Y-68957857D01*
X104220000Y-69072142D01*
X104162857Y-69129285D01*
X104048571Y-69186428D01*
X103591428Y-69186428D01*
X104734285Y-69700714D02*
X104848571Y-69757857D01*
X105077142Y-69757857D01*
X105191428Y-69700714D01*
X105248571Y-69586428D01*
X105248571Y-69529285D01*
X105191428Y-69415000D01*
X105077142Y-69357857D01*
X104905714Y-69357857D01*
X104791428Y-69300714D01*
X104734285Y-69186428D01*
X104734285Y-69129285D01*
X104791428Y-69015000D01*
X104905714Y-68957857D01*
X105077142Y-68957857D01*
X105191428Y-69015000D01*
X105648571Y-68957857D02*
X105934285Y-69757857D01*
X106220000Y-68957857D02*
X105934285Y-69757857D01*
X105820000Y-70043571D01*
X105762857Y-70100714D01*
X105648571Y-70157857D01*
X106677142Y-69757857D02*
X106677142Y-68557857D01*
X106791428Y-69300714D02*
X107134285Y-69757857D01*
X107134285Y-68957857D02*
X106677142Y-69415000D01*
X107820000Y-69757857D02*
X107705714Y-69700714D01*
X107648571Y-69643571D01*
X107591428Y-69529285D01*
X107591428Y-69186428D01*
X107648571Y-69072142D01*
X107705714Y-69015000D01*
X107820000Y-68957857D01*
X107991428Y-68957857D01*
X108105714Y-69015000D01*
X108162857Y-69072142D01*
X108220000Y-69186428D01*
X108220000Y-69529285D01*
X108162857Y-69643571D01*
X108105714Y-69700714D01*
X107991428Y-69757857D01*
X107820000Y-69757857D01*
X108734285Y-69757857D02*
X108734285Y-68557857D01*
X109420000Y-69757857D02*
X108905714Y-69072142D01*
X109420000Y-68557857D02*
X108734285Y-69243571D01*
X110791428Y-68672142D02*
X110848571Y-68615000D01*
X110962857Y-68557857D01*
X111248571Y-68557857D01*
X111362857Y-68615000D01*
X111420000Y-68672142D01*
X111477142Y-68786428D01*
X111477142Y-68900714D01*
X111420000Y-69072142D01*
X110734285Y-69757857D01*
X111477142Y-69757857D01*
X112220000Y-68557857D02*
X112334285Y-68557857D01*
X112448571Y-68615000D01*
X112505714Y-68672142D01*
X112562857Y-68786428D01*
X112620000Y-69015000D01*
X112620000Y-69300714D01*
X112562857Y-69529285D01*
X112505714Y-69643571D01*
X112448571Y-69700714D01*
X112334285Y-69757857D01*
X112220000Y-69757857D01*
X112105714Y-69700714D01*
X112048571Y-69643571D01*
X111991428Y-69529285D01*
X111934285Y-69300714D01*
X111934285Y-69015000D01*
X111991428Y-68786428D01*
X112048571Y-68672142D01*
X112105714Y-68615000D01*
X112220000Y-68557857D01*
X113077142Y-68672142D02*
X113134285Y-68615000D01*
X113248571Y-68557857D01*
X113534285Y-68557857D01*
X113648571Y-68615000D01*
X113705714Y-68672142D01*
X113762857Y-68786428D01*
X113762857Y-68900714D01*
X113705714Y-69072142D01*
X113020000Y-69757857D01*
X113762857Y-69757857D01*
X114220000Y-68672142D02*
X114277142Y-68615000D01*
X114391428Y-68557857D01*
X114677142Y-68557857D01*
X114791428Y-68615000D01*
X114848571Y-68672142D01*
X114905714Y-68786428D01*
X114905714Y-68900714D01*
X114848571Y-69072142D01*
X114162857Y-69757857D01*
X114905714Y-69757857D01*
D13*
X103569285Y-67353571D02*
X103069285Y-66639285D01*
X102712142Y-67353571D02*
X102712142Y-65853571D01*
X103283571Y-65853571D01*
X103426428Y-65925000D01*
X103497857Y-65996428D01*
X103569285Y-66139285D01*
X103569285Y-66353571D01*
X103497857Y-66496428D01*
X103426428Y-66567857D01*
X103283571Y-66639285D01*
X102712142Y-66639285D01*
X105069285Y-67210714D02*
X104997857Y-67282142D01*
X104783571Y-67353571D01*
X104640714Y-67353571D01*
X104426428Y-67282142D01*
X104283571Y-67139285D01*
X104212142Y-66996428D01*
X104140714Y-66710714D01*
X104140714Y-66496428D01*
X104212142Y-66210714D01*
X104283571Y-66067857D01*
X104426428Y-65925000D01*
X104640714Y-65853571D01*
X104783571Y-65853571D01*
X104997857Y-65925000D01*
X105069285Y-65996428D01*
X106426428Y-65853571D02*
X105712142Y-65853571D01*
X105640714Y-66567857D01*
X105712142Y-66496428D01*
X105855000Y-66425000D01*
X106212142Y-66425000D01*
X106355000Y-66496428D01*
X106426428Y-66567857D01*
X106497857Y-66710714D01*
X106497857Y-67067857D01*
X106426428Y-67210714D01*
X106355000Y-67282142D01*
X106212142Y-67353571D01*
X105855000Y-67353571D01*
X105712142Y-67282142D01*
X105640714Y-67210714D01*
X109140714Y-67353571D02*
X108640714Y-66639285D01*
X108283571Y-67353571D02*
X108283571Y-65853571D01*
X108855000Y-65853571D01*
X108997857Y-65925000D01*
X109069285Y-65996428D01*
X109140714Y-66139285D01*
X109140714Y-66353571D01*
X109069285Y-66496428D01*
X108997857Y-66567857D01*
X108855000Y-66639285D01*
X108283571Y-66639285D01*
X110355000Y-67282142D02*
X110212142Y-67353571D01*
X109926428Y-67353571D01*
X109783571Y-67282142D01*
X109712142Y-67139285D01*
X109712142Y-66567857D01*
X109783571Y-66425000D01*
X109926428Y-66353571D01*
X110212142Y-66353571D01*
X110355000Y-66425000D01*
X110426428Y-66567857D01*
X110426428Y-66710714D01*
X109712142Y-66853571D01*
X111069285Y-67353571D02*
X111069285Y-66353571D01*
X111069285Y-66496428D02*
X111140714Y-66425000D01*
X111283571Y-66353571D01*
X111497857Y-66353571D01*
X111640714Y-66425000D01*
X111712142Y-66567857D01*
X111712142Y-67353571D01*
X111712142Y-66567857D02*
X111783571Y-66425000D01*
X111926428Y-66353571D01*
X112140714Y-66353571D01*
X112283571Y-66425000D01*
X112355000Y-66567857D01*
X112355000Y-67353571D01*
X113283571Y-67353571D02*
X113140714Y-67282142D01*
X113069285Y-67210714D01*
X112997857Y-67067857D01*
X112997857Y-66639285D01*
X113069285Y-66496428D01*
X113140714Y-66425000D01*
X113283571Y-66353571D01*
X113497857Y-66353571D01*
X113640714Y-66425000D01*
X113712142Y-66496428D01*
X113783571Y-66639285D01*
X113783571Y-67067857D01*
X113712142Y-67210714D01*
X113640714Y-67282142D01*
X113497857Y-67353571D01*
X113283571Y-67353571D01*
X114212142Y-66353571D02*
X114783571Y-66353571D01*
X114426428Y-65853571D02*
X114426428Y-67139285D01*
X114497857Y-67282142D01*
X114640714Y-67353571D01*
X114783571Y-67353571D01*
X115855000Y-67282142D02*
X115712142Y-67353571D01*
X115426428Y-67353571D01*
X115283571Y-67282142D01*
X115212142Y-67139285D01*
X115212142Y-66567857D01*
X115283571Y-66425000D01*
X115426428Y-66353571D01*
X115712142Y-66353571D01*
X115855000Y-66425000D01*
X115926428Y-66567857D01*
X115926428Y-66710714D01*
X115212142Y-66853571D01*
D10*
X134912857Y-86021809D02*
X135027142Y-86059904D01*
X135217619Y-86059904D01*
X135293809Y-86021809D01*
X135331904Y-85983714D01*
X135370000Y-85907523D01*
X135370000Y-85831333D01*
X135331904Y-85755142D01*
X135293809Y-85717047D01*
X135217619Y-85678952D01*
X135065238Y-85640857D01*
X134989047Y-85602761D01*
X134950952Y-85564666D01*
X134912857Y-85488476D01*
X134912857Y-85412285D01*
X134950952Y-85336095D01*
X134989047Y-85298000D01*
X135065238Y-85259904D01*
X135255714Y-85259904D01*
X135370000Y-85298000D01*
X136017619Y-86021809D02*
X135941428Y-86059904D01*
X135789047Y-86059904D01*
X135712857Y-86021809D01*
X135674761Y-85945619D01*
X135674761Y-85640857D01*
X135712857Y-85564666D01*
X135789047Y-85526571D01*
X135941428Y-85526571D01*
X136017619Y-85564666D01*
X136055714Y-85640857D01*
X136055714Y-85717047D01*
X135674761Y-85793238D01*
X136512857Y-86059904D02*
X136436666Y-86021809D01*
X136398571Y-85945619D01*
X136398571Y-85259904D01*
X137122380Y-86021809D02*
X137046190Y-86059904D01*
X136893809Y-86059904D01*
X136817619Y-86021809D01*
X136779523Y-85945619D01*
X136779523Y-85640857D01*
X136817619Y-85564666D01*
X136893809Y-85526571D01*
X137046190Y-85526571D01*
X137122380Y-85564666D01*
X137160476Y-85640857D01*
X137160476Y-85717047D01*
X136779523Y-85793238D01*
X137846190Y-86021809D02*
X137770000Y-86059904D01*
X137617619Y-86059904D01*
X137541428Y-86021809D01*
X137503333Y-85983714D01*
X137465238Y-85907523D01*
X137465238Y-85678952D01*
X137503333Y-85602761D01*
X137541428Y-85564666D01*
X137617619Y-85526571D01*
X137770000Y-85526571D01*
X137846190Y-85564666D01*
X138074761Y-85526571D02*
X138379523Y-85526571D01*
X138189047Y-85259904D02*
X138189047Y-85945619D01*
X138227142Y-86021809D01*
X138303333Y-86059904D01*
X138379523Y-86059904D01*
X139370000Y-86059904D02*
X139293809Y-86021809D01*
X139255714Y-85983714D01*
X139217619Y-85907523D01*
X139217619Y-85678952D01*
X139255714Y-85602761D01*
X139293809Y-85564666D01*
X139370000Y-85526571D01*
X139484285Y-85526571D01*
X139560476Y-85564666D01*
X139598571Y-85602761D01*
X139636666Y-85678952D01*
X139636666Y-85907523D01*
X139598571Y-85983714D01*
X139560476Y-86021809D01*
X139484285Y-86059904D01*
X139370000Y-86059904D01*
X139979523Y-85526571D02*
X139979523Y-86059904D01*
X139979523Y-85602761D02*
X140017619Y-85564666D01*
X140093809Y-85526571D01*
X140208095Y-85526571D01*
X140284285Y-85564666D01*
X140322380Y-85640857D01*
X140322380Y-86059904D01*
X141008095Y-86021809D02*
X140931904Y-86059904D01*
X140779523Y-86059904D01*
X140703333Y-86021809D01*
X140665238Y-85945619D01*
X140665238Y-85640857D01*
X140703333Y-85564666D01*
X140779523Y-85526571D01*
X140931904Y-85526571D01*
X141008095Y-85564666D01*
X141046190Y-85640857D01*
X141046190Y-85717047D01*
X140665238Y-85793238D01*
X141998571Y-85526571D02*
X141998571Y-86326571D01*
X141998571Y-85564666D02*
X142074761Y-85526571D01*
X142227142Y-85526571D01*
X142303333Y-85564666D01*
X142341428Y-85602761D01*
X142379523Y-85678952D01*
X142379523Y-85907523D01*
X142341428Y-85983714D01*
X142303333Y-86021809D01*
X142227142Y-86059904D01*
X142074761Y-86059904D01*
X141998571Y-86021809D01*
X142836666Y-86059904D02*
X142760476Y-86021809D01*
X142722380Y-85983714D01*
X142684285Y-85907523D01*
X142684285Y-85678952D01*
X142722380Y-85602761D01*
X142760476Y-85564666D01*
X142836666Y-85526571D01*
X142950952Y-85526571D01*
X143027142Y-85564666D01*
X143065238Y-85602761D01*
X143103333Y-85678952D01*
X143103333Y-85907523D01*
X143065238Y-85983714D01*
X143027142Y-86021809D01*
X142950952Y-86059904D01*
X142836666Y-86059904D01*
X143408095Y-86021809D02*
X143484285Y-86059904D01*
X143636666Y-86059904D01*
X143712857Y-86021809D01*
X143750952Y-85945619D01*
X143750952Y-85907523D01*
X143712857Y-85831333D01*
X143636666Y-85793238D01*
X143522380Y-85793238D01*
X143446190Y-85755142D01*
X143408095Y-85678952D01*
X143408095Y-85640857D01*
X143446190Y-85564666D01*
X143522380Y-85526571D01*
X143636666Y-85526571D01*
X143712857Y-85564666D01*
X144093809Y-86059904D02*
X144093809Y-85526571D01*
X144093809Y-85259904D02*
X144055714Y-85298000D01*
X144093809Y-85336095D01*
X144131904Y-85298000D01*
X144093809Y-85259904D01*
X144093809Y-85336095D01*
X144360476Y-85526571D02*
X144665238Y-85526571D01*
X144474761Y-85259904D02*
X144474761Y-85945619D01*
X144512857Y-86021809D01*
X144589047Y-86059904D01*
X144665238Y-86059904D01*
X144931904Y-86059904D02*
X144931904Y-85526571D01*
X144931904Y-85259904D02*
X144893809Y-85298000D01*
X144931904Y-85336095D01*
X144970000Y-85298000D01*
X144931904Y-85259904D01*
X144931904Y-85336095D01*
X145427142Y-86059904D02*
X145350952Y-86021809D01*
X145312857Y-85983714D01*
X145274761Y-85907523D01*
X145274761Y-85678952D01*
X145312857Y-85602761D01*
X145350952Y-85564666D01*
X145427142Y-85526571D01*
X145541428Y-85526571D01*
X145617619Y-85564666D01*
X145655714Y-85602761D01*
X145693809Y-85678952D01*
X145693809Y-85907523D01*
X145655714Y-85983714D01*
X145617619Y-86021809D01*
X145541428Y-86059904D01*
X145427142Y-86059904D01*
X146036666Y-85526571D02*
X146036666Y-86059904D01*
X146036666Y-85602761D02*
X146074761Y-85564666D01*
X146150952Y-85526571D01*
X146265238Y-85526571D01*
X146341428Y-85564666D01*
X146379523Y-85640857D01*
X146379523Y-86059904D01*
X135770000Y-86814571D02*
X136074761Y-86814571D01*
X135884285Y-87347904D02*
X135884285Y-86662190D01*
X135922380Y-86586000D01*
X135998571Y-86547904D01*
X136074761Y-86547904D01*
X136341428Y-87347904D02*
X136341428Y-86814571D01*
X136341428Y-86966952D02*
X136379523Y-86890761D01*
X136417619Y-86852666D01*
X136493809Y-86814571D01*
X136570000Y-86814571D01*
X136950952Y-87347904D02*
X136874761Y-87309809D01*
X136836666Y-87271714D01*
X136798571Y-87195523D01*
X136798571Y-86966952D01*
X136836666Y-86890761D01*
X136874761Y-86852666D01*
X136950952Y-86814571D01*
X137065238Y-86814571D01*
X137141428Y-86852666D01*
X137179523Y-86890761D01*
X137217619Y-86966952D01*
X137217619Y-87195523D01*
X137179523Y-87271714D01*
X137141428Y-87309809D01*
X137065238Y-87347904D01*
X136950952Y-87347904D01*
X137560476Y-87347904D02*
X137560476Y-86814571D01*
X137560476Y-86890761D02*
X137598571Y-86852666D01*
X137674761Y-86814571D01*
X137789047Y-86814571D01*
X137865238Y-86852666D01*
X137903333Y-86928857D01*
X137903333Y-87347904D01*
X137903333Y-86928857D02*
X137941428Y-86852666D01*
X138017619Y-86814571D01*
X138131904Y-86814571D01*
X138208095Y-86852666D01*
X138246190Y-86928857D01*
X138246190Y-87347904D01*
X139541428Y-87309809D02*
X139465238Y-87347904D01*
X139312857Y-87347904D01*
X139236666Y-87309809D01*
X139198571Y-87233619D01*
X139198571Y-86928857D01*
X139236666Y-86852666D01*
X139312857Y-86814571D01*
X139465238Y-86814571D01*
X139541428Y-86852666D01*
X139579523Y-86928857D01*
X139579523Y-87005047D01*
X139198571Y-87081238D01*
X140265238Y-87347904D02*
X140265238Y-86928857D01*
X140227142Y-86852666D01*
X140150952Y-86814571D01*
X139998571Y-86814571D01*
X139922380Y-86852666D01*
X140265238Y-87309809D02*
X140189047Y-87347904D01*
X139998571Y-87347904D01*
X139922380Y-87309809D01*
X139884285Y-87233619D01*
X139884285Y-87157428D01*
X139922380Y-87081238D01*
X139998571Y-87043142D01*
X140189047Y-87043142D01*
X140265238Y-87005047D01*
X140989047Y-87309809D02*
X140912857Y-87347904D01*
X140760476Y-87347904D01*
X140684285Y-87309809D01*
X140646190Y-87271714D01*
X140608095Y-87195523D01*
X140608095Y-86966952D01*
X140646190Y-86890761D01*
X140684285Y-86852666D01*
X140760476Y-86814571D01*
X140912857Y-86814571D01*
X140989047Y-86852666D01*
X141331904Y-87347904D02*
X141331904Y-86547904D01*
X141674761Y-87347904D02*
X141674761Y-86928857D01*
X141636666Y-86852666D01*
X141560476Y-86814571D01*
X141446190Y-86814571D01*
X141370000Y-86852666D01*
X141331904Y-86890761D01*
X143008095Y-86814571D02*
X143008095Y-87462190D01*
X142970000Y-87538380D01*
X142931904Y-87576476D01*
X142855714Y-87614571D01*
X142741428Y-87614571D01*
X142665238Y-87576476D01*
X143008095Y-87309809D02*
X142931904Y-87347904D01*
X142779523Y-87347904D01*
X142703333Y-87309809D01*
X142665238Y-87271714D01*
X142627142Y-87195523D01*
X142627142Y-86966952D01*
X142665238Y-86890761D01*
X142703333Y-86852666D01*
X142779523Y-86814571D01*
X142931904Y-86814571D01*
X143008095Y-86852666D01*
X143389047Y-87347904D02*
X143389047Y-86814571D01*
X143389047Y-86966952D02*
X143427142Y-86890761D01*
X143465238Y-86852666D01*
X143541428Y-86814571D01*
X143617619Y-86814571D01*
X143998571Y-87347904D02*
X143922380Y-87309809D01*
X143884285Y-87271714D01*
X143846190Y-87195523D01*
X143846190Y-86966952D01*
X143884285Y-86890761D01*
X143922380Y-86852666D01*
X143998571Y-86814571D01*
X144112857Y-86814571D01*
X144189047Y-86852666D01*
X144227142Y-86890761D01*
X144265238Y-86966952D01*
X144265238Y-87195523D01*
X144227142Y-87271714D01*
X144189047Y-87309809D01*
X144112857Y-87347904D01*
X143998571Y-87347904D01*
X144950952Y-86814571D02*
X144950952Y-87347904D01*
X144608095Y-86814571D02*
X144608095Y-87233619D01*
X144646190Y-87309809D01*
X144722380Y-87347904D01*
X144836666Y-87347904D01*
X144912857Y-87309809D01*
X144950952Y-87271714D01*
X145331904Y-86814571D02*
X145331904Y-87614571D01*
X145331904Y-86852666D02*
X145408095Y-86814571D01*
X145560476Y-86814571D01*
X145636666Y-86852666D01*
X145674761Y-86890761D01*
X145712857Y-86966952D01*
X145712857Y-87195523D01*
X145674761Y-87271714D01*
X145636666Y-87309809D01*
X145560476Y-87347904D01*
X145408095Y-87347904D01*
X145331904Y-87309809D01*
X146055714Y-87271714D02*
X146093809Y-87309809D01*
X146055714Y-87347904D01*
X146017619Y-87309809D01*
X146055714Y-87271714D01*
X146055714Y-87347904D01*
X132817619Y-88559714D02*
X132779523Y-88597809D01*
X132665238Y-88635904D01*
X132589047Y-88635904D01*
X132474761Y-88597809D01*
X132398571Y-88521619D01*
X132360476Y-88445428D01*
X132322380Y-88293047D01*
X132322380Y-88178761D01*
X132360476Y-88026380D01*
X132398571Y-87950190D01*
X132474761Y-87874000D01*
X132589047Y-87835904D01*
X132665238Y-87835904D01*
X132779523Y-87874000D01*
X132817619Y-87912095D01*
X133160476Y-88635904D02*
X133160476Y-87835904D01*
X133503333Y-88635904D02*
X133503333Y-88216857D01*
X133465238Y-88140666D01*
X133389047Y-88102571D01*
X133274761Y-88102571D01*
X133198571Y-88140666D01*
X133160476Y-88178761D01*
X134227142Y-88635904D02*
X134227142Y-88216857D01*
X134189047Y-88140666D01*
X134112857Y-88102571D01*
X133960476Y-88102571D01*
X133884285Y-88140666D01*
X134227142Y-88597809D02*
X134150952Y-88635904D01*
X133960476Y-88635904D01*
X133884285Y-88597809D01*
X133846190Y-88521619D01*
X133846190Y-88445428D01*
X133884285Y-88369238D01*
X133960476Y-88331142D01*
X134150952Y-88331142D01*
X134227142Y-88293047D01*
X134608095Y-88102571D02*
X134608095Y-88635904D01*
X134608095Y-88178761D02*
X134646190Y-88140666D01*
X134722380Y-88102571D01*
X134836666Y-88102571D01*
X134912857Y-88140666D01*
X134950952Y-88216857D01*
X134950952Y-88635904D01*
X135331904Y-88102571D02*
X135331904Y-88635904D01*
X135331904Y-88178761D02*
X135370000Y-88140666D01*
X135446190Y-88102571D01*
X135560476Y-88102571D01*
X135636666Y-88140666D01*
X135674761Y-88216857D01*
X135674761Y-88635904D01*
X136360476Y-88597809D02*
X136284285Y-88635904D01*
X136131904Y-88635904D01*
X136055714Y-88597809D01*
X136017619Y-88521619D01*
X136017619Y-88216857D01*
X136055714Y-88140666D01*
X136131904Y-88102571D01*
X136284285Y-88102571D01*
X136360476Y-88140666D01*
X136398571Y-88216857D01*
X136398571Y-88293047D01*
X136017619Y-88369238D01*
X136855714Y-88635904D02*
X136779523Y-88597809D01*
X136741428Y-88521619D01*
X136741428Y-87835904D01*
X137770000Y-88102571D02*
X137770000Y-88635904D01*
X137770000Y-88178761D02*
X137808095Y-88140666D01*
X137884285Y-88102571D01*
X137998571Y-88102571D01*
X138074761Y-88140666D01*
X138112857Y-88216857D01*
X138112857Y-88635904D01*
X138836666Y-88102571D02*
X138836666Y-88635904D01*
X138493809Y-88102571D02*
X138493809Y-88521619D01*
X138531904Y-88597809D01*
X138608095Y-88635904D01*
X138722380Y-88635904D01*
X138798571Y-88597809D01*
X138836666Y-88559714D01*
X139217619Y-88635904D02*
X139217619Y-88102571D01*
X139217619Y-88178761D02*
X139255714Y-88140666D01*
X139331904Y-88102571D01*
X139446190Y-88102571D01*
X139522380Y-88140666D01*
X139560476Y-88216857D01*
X139560476Y-88635904D01*
X139560476Y-88216857D02*
X139598571Y-88140666D01*
X139674761Y-88102571D01*
X139789047Y-88102571D01*
X139865238Y-88140666D01*
X139903333Y-88216857D01*
X139903333Y-88635904D01*
X140284285Y-88635904D02*
X140284285Y-87835904D01*
X140284285Y-88140666D02*
X140360476Y-88102571D01*
X140512857Y-88102571D01*
X140589047Y-88140666D01*
X140627142Y-88178761D01*
X140665238Y-88254952D01*
X140665238Y-88483523D01*
X140627142Y-88559714D01*
X140589047Y-88597809D01*
X140512857Y-88635904D01*
X140360476Y-88635904D01*
X140284285Y-88597809D01*
X141312857Y-88597809D02*
X141236666Y-88635904D01*
X141084285Y-88635904D01*
X141008095Y-88597809D01*
X140970000Y-88521619D01*
X140970000Y-88216857D01*
X141008095Y-88140666D01*
X141084285Y-88102571D01*
X141236666Y-88102571D01*
X141312857Y-88140666D01*
X141350952Y-88216857D01*
X141350952Y-88293047D01*
X140970000Y-88369238D01*
X141693809Y-88635904D02*
X141693809Y-88102571D01*
X141693809Y-88254952D02*
X141731904Y-88178761D01*
X141770000Y-88140666D01*
X141846190Y-88102571D01*
X141922380Y-88102571D01*
X142798571Y-88635904D02*
X142798571Y-88102571D01*
X142798571Y-87835904D02*
X142760476Y-87874000D01*
X142798571Y-87912095D01*
X142836666Y-87874000D01*
X142798571Y-87835904D01*
X142798571Y-87912095D01*
X143141428Y-88597809D02*
X143217619Y-88635904D01*
X143370000Y-88635904D01*
X143446190Y-88597809D01*
X143484285Y-88521619D01*
X143484285Y-88483523D01*
X143446190Y-88407333D01*
X143370000Y-88369238D01*
X143255714Y-88369238D01*
X143179523Y-88331142D01*
X143141428Y-88254952D01*
X143141428Y-88216857D01*
X143179523Y-88140666D01*
X143255714Y-88102571D01*
X143370000Y-88102571D01*
X143446190Y-88140666D01*
X144322380Y-88102571D02*
X144627142Y-88102571D01*
X144436666Y-87835904D02*
X144436666Y-88521619D01*
X144474761Y-88597809D01*
X144550952Y-88635904D01*
X144627142Y-88635904D01*
X144893809Y-88635904D02*
X144893809Y-87835904D01*
X145236666Y-88635904D02*
X145236666Y-88216857D01*
X145198571Y-88140666D01*
X145122380Y-88102571D01*
X145008095Y-88102571D01*
X144931904Y-88140666D01*
X144893809Y-88178761D01*
X145922380Y-88597809D02*
X145846190Y-88635904D01*
X145693809Y-88635904D01*
X145617619Y-88597809D01*
X145579523Y-88521619D01*
X145579523Y-88216857D01*
X145617619Y-88140666D01*
X145693809Y-88102571D01*
X145846190Y-88102571D01*
X145922380Y-88140666D01*
X145960476Y-88216857D01*
X145960476Y-88293047D01*
X145579523Y-88369238D01*
X146874761Y-88597809D02*
X146950952Y-88635904D01*
X147103333Y-88635904D01*
X147179523Y-88597809D01*
X147217619Y-88521619D01*
X147217619Y-88483523D01*
X147179523Y-88407333D01*
X147103333Y-88369238D01*
X146989047Y-88369238D01*
X146912857Y-88331142D01*
X146874761Y-88254952D01*
X146874761Y-88216857D01*
X146912857Y-88140666D01*
X146989047Y-88102571D01*
X147103333Y-88102571D01*
X147179523Y-88140666D01*
X147903333Y-88102571D02*
X147903333Y-88635904D01*
X147560476Y-88102571D02*
X147560476Y-88521619D01*
X147598571Y-88597809D01*
X147674761Y-88635904D01*
X147789047Y-88635904D01*
X147865238Y-88597809D01*
X147903333Y-88559714D01*
X148284285Y-88635904D02*
X148284285Y-88102571D01*
X148284285Y-88178761D02*
X148322380Y-88140666D01*
X148398571Y-88102571D01*
X148512857Y-88102571D01*
X148589047Y-88140666D01*
X148627142Y-88216857D01*
X148627142Y-88635904D01*
X148627142Y-88216857D02*
X148665238Y-88140666D01*
X148741428Y-88102571D01*
X148855714Y-88102571D01*
X148931904Y-88140666D01*
X148970000Y-88216857D01*
X148970000Y-88635904D01*
X133122380Y-89923904D02*
X133046190Y-89885809D01*
X133008095Y-89847714D01*
X132970000Y-89771523D01*
X132970000Y-89542952D01*
X133008095Y-89466761D01*
X133046190Y-89428666D01*
X133122380Y-89390571D01*
X133236666Y-89390571D01*
X133312857Y-89428666D01*
X133350952Y-89466761D01*
X133389047Y-89542952D01*
X133389047Y-89771523D01*
X133350952Y-89847714D01*
X133312857Y-89885809D01*
X133236666Y-89923904D01*
X133122380Y-89923904D01*
X133617619Y-89390571D02*
X133922380Y-89390571D01*
X133731904Y-89923904D02*
X133731904Y-89238190D01*
X133770000Y-89162000D01*
X133846190Y-89123904D01*
X133922380Y-89123904D01*
X134684285Y-89390571D02*
X134989047Y-89390571D01*
X134798571Y-89123904D02*
X134798571Y-89809619D01*
X134836666Y-89885809D01*
X134912857Y-89923904D01*
X134989047Y-89923904D01*
X135255714Y-89923904D02*
X135255714Y-89123904D01*
X135598571Y-89923904D02*
X135598571Y-89504857D01*
X135560476Y-89428666D01*
X135484285Y-89390571D01*
X135370000Y-89390571D01*
X135293809Y-89428666D01*
X135255714Y-89466761D01*
X136284285Y-89885809D02*
X136208095Y-89923904D01*
X136055714Y-89923904D01*
X135979523Y-89885809D01*
X135941428Y-89809619D01*
X135941428Y-89504857D01*
X135979523Y-89428666D01*
X136055714Y-89390571D01*
X136208095Y-89390571D01*
X136284285Y-89428666D01*
X136322380Y-89504857D01*
X136322380Y-89581047D01*
X135941428Y-89657238D01*
X137160476Y-89390571D02*
X137465238Y-89390571D01*
X137274761Y-89123904D02*
X137274761Y-89809619D01*
X137312857Y-89885809D01*
X137389047Y-89923904D01*
X137465238Y-89923904D01*
X137655714Y-89390571D02*
X137808095Y-89923904D01*
X137960476Y-89542952D01*
X138112857Y-89923904D01*
X138265238Y-89390571D01*
X138684285Y-89923904D02*
X138608095Y-89885809D01*
X138570000Y-89847714D01*
X138531904Y-89771523D01*
X138531904Y-89542952D01*
X138570000Y-89466761D01*
X138608095Y-89428666D01*
X138684285Y-89390571D01*
X138798571Y-89390571D01*
X138874761Y-89428666D01*
X138912857Y-89466761D01*
X138950952Y-89542952D01*
X138950952Y-89771523D01*
X138912857Y-89847714D01*
X138874761Y-89885809D01*
X138798571Y-89923904D01*
X138684285Y-89923904D01*
X139865238Y-89885809D02*
X139941428Y-89923904D01*
X140093809Y-89923904D01*
X140170000Y-89885809D01*
X140208095Y-89809619D01*
X140208095Y-89771523D01*
X140170000Y-89695333D01*
X140093809Y-89657238D01*
X139979523Y-89657238D01*
X139903333Y-89619142D01*
X139865238Y-89542952D01*
X139865238Y-89504857D01*
X139903333Y-89428666D01*
X139979523Y-89390571D01*
X140093809Y-89390571D01*
X140170000Y-89428666D01*
X140855714Y-89885809D02*
X140779523Y-89923904D01*
X140627142Y-89923904D01*
X140550952Y-89885809D01*
X140512857Y-89809619D01*
X140512857Y-89504857D01*
X140550952Y-89428666D01*
X140627142Y-89390571D01*
X140779523Y-89390571D01*
X140855714Y-89428666D01*
X140893809Y-89504857D01*
X140893809Y-89581047D01*
X140512857Y-89657238D01*
X141350952Y-89923904D02*
X141274761Y-89885809D01*
X141236666Y-89809619D01*
X141236666Y-89123904D01*
X141960476Y-89885809D02*
X141884285Y-89923904D01*
X141731904Y-89923904D01*
X141655714Y-89885809D01*
X141617619Y-89809619D01*
X141617619Y-89504857D01*
X141655714Y-89428666D01*
X141731904Y-89390571D01*
X141884285Y-89390571D01*
X141960476Y-89428666D01*
X141998571Y-89504857D01*
X141998571Y-89581047D01*
X141617619Y-89657238D01*
X142684285Y-89885809D02*
X142608095Y-89923904D01*
X142455714Y-89923904D01*
X142379523Y-89885809D01*
X142341428Y-89847714D01*
X142303333Y-89771523D01*
X142303333Y-89542952D01*
X142341428Y-89466761D01*
X142379523Y-89428666D01*
X142455714Y-89390571D01*
X142608095Y-89390571D01*
X142684285Y-89428666D01*
X142912857Y-89390571D02*
X143217619Y-89390571D01*
X143027142Y-89123904D02*
X143027142Y-89809619D01*
X143065238Y-89885809D01*
X143141428Y-89923904D01*
X143217619Y-89923904D01*
X143789047Y-89885809D02*
X143712857Y-89923904D01*
X143560476Y-89923904D01*
X143484285Y-89885809D01*
X143446190Y-89809619D01*
X143446190Y-89504857D01*
X143484285Y-89428666D01*
X143560476Y-89390571D01*
X143712857Y-89390571D01*
X143789047Y-89428666D01*
X143827142Y-89504857D01*
X143827142Y-89581047D01*
X143446190Y-89657238D01*
X144512857Y-89923904D02*
X144512857Y-89123904D01*
X144512857Y-89885809D02*
X144436666Y-89923904D01*
X144284285Y-89923904D01*
X144208095Y-89885809D01*
X144170000Y-89847714D01*
X144131904Y-89771523D01*
X144131904Y-89542952D01*
X144170000Y-89466761D01*
X144208095Y-89428666D01*
X144284285Y-89390571D01*
X144436666Y-89390571D01*
X144512857Y-89428666D01*
X145427142Y-89390571D02*
X145617619Y-89923904D01*
X145808095Y-89390571D01*
X146455714Y-89923904D02*
X146455714Y-89504857D01*
X146417619Y-89428666D01*
X146341428Y-89390571D01*
X146189047Y-89390571D01*
X146112857Y-89428666D01*
X146455714Y-89885809D02*
X146379523Y-89923904D01*
X146189047Y-89923904D01*
X146112857Y-89885809D01*
X146074761Y-89809619D01*
X146074761Y-89733428D01*
X146112857Y-89657238D01*
X146189047Y-89619142D01*
X146379523Y-89619142D01*
X146455714Y-89581047D01*
X146950952Y-89923904D02*
X146874761Y-89885809D01*
X146836666Y-89809619D01*
X146836666Y-89123904D01*
X147598571Y-89390571D02*
X147598571Y-89923904D01*
X147255714Y-89390571D02*
X147255714Y-89809619D01*
X147293809Y-89885809D01*
X147370000Y-89923904D01*
X147484285Y-89923904D01*
X147560476Y-89885809D01*
X147598571Y-89847714D01*
X148284285Y-89885809D02*
X148208095Y-89923904D01*
X148055714Y-89923904D01*
X147979523Y-89885809D01*
X147941428Y-89809619D01*
X147941428Y-89504857D01*
X147979523Y-89428666D01*
X148055714Y-89390571D01*
X148208095Y-89390571D01*
X148284285Y-89428666D01*
X148322380Y-89504857D01*
X148322380Y-89581047D01*
X147941428Y-89657238D01*
X148627142Y-89885809D02*
X148703333Y-89923904D01*
X148855714Y-89923904D01*
X148931904Y-89885809D01*
X148970000Y-89809619D01*
X148970000Y-89771523D01*
X148931904Y-89695333D01*
X148855714Y-89657238D01*
X148741428Y-89657238D01*
X148665238Y-89619142D01*
X148627142Y-89542952D01*
X148627142Y-89504857D01*
X148665238Y-89428666D01*
X148741428Y-89390571D01*
X148855714Y-89390571D01*
X148931904Y-89428666D01*
X131754761Y-91194000D02*
X131659523Y-91146380D01*
X131516666Y-91146380D01*
X131373809Y-91194000D01*
X131278571Y-91289238D01*
X131230952Y-91384476D01*
X131183333Y-91574952D01*
X131183333Y-91717809D01*
X131230952Y-91908285D01*
X131278571Y-92003523D01*
X131373809Y-92098761D01*
X131516666Y-92146380D01*
X131611904Y-92146380D01*
X131754761Y-92098761D01*
X131802380Y-92051142D01*
X131802380Y-91717809D01*
X131611904Y-91717809D01*
X132802380Y-92146380D02*
X132469047Y-91670190D01*
X132230952Y-92146380D02*
X132230952Y-91146380D01*
X132611904Y-91146380D01*
X132707142Y-91194000D01*
X132754761Y-91241619D01*
X132802380Y-91336857D01*
X132802380Y-91479714D01*
X132754761Y-91574952D01*
X132707142Y-91622571D01*
X132611904Y-91670190D01*
X132230952Y-91670190D01*
X133230952Y-92146380D02*
X133230952Y-91146380D01*
X133611904Y-91146380D01*
X133707142Y-91194000D01*
X133754761Y-91241619D01*
X133802380Y-91336857D01*
X133802380Y-91479714D01*
X133754761Y-91574952D01*
X133707142Y-91622571D01*
X133611904Y-91670190D01*
X133230952Y-91670190D01*
X135516666Y-92146380D02*
X134945238Y-92146380D01*
X135230952Y-92146380D02*
X135230952Y-91146380D01*
X135135714Y-91289238D01*
X135040476Y-91384476D01*
X134945238Y-91432095D01*
%TO.C,TP-1*%
X172172380Y-88399761D02*
X172172380Y-87828333D01*
X173172380Y-88114047D02*
X172172380Y-88114047D01*
X173172380Y-87495000D02*
X172172380Y-87495000D01*
X172172380Y-87114047D01*
X172220000Y-87018809D01*
X172267619Y-86971190D01*
X172362857Y-86923571D01*
X172505714Y-86923571D01*
X172600952Y-86971190D01*
X172648571Y-87018809D01*
X172696190Y-87114047D01*
X172696190Y-87495000D01*
X172791428Y-86495000D02*
X172791428Y-85733095D01*
%TO.C,TP+1*%
X172172380Y-71224434D02*
X172172380Y-70653005D01*
X173172380Y-71063720D02*
X172172380Y-70938720D01*
X173172380Y-70444672D02*
X172172380Y-70319672D01*
X172172380Y-69938720D01*
X172220000Y-69849434D01*
X172267619Y-69807767D01*
X172362857Y-69772053D01*
X172505714Y-69789910D01*
X172600952Y-69849434D01*
X172648571Y-69903005D01*
X172696190Y-70004196D01*
X172696190Y-70385148D01*
X172791428Y-69397053D02*
X172791428Y-68635148D01*
X173172380Y-69063720D02*
X172410476Y-68968482D01*
%TO.C,JP4*%
X141795476Y-96622380D02*
X141605000Y-96622380D01*
X141509761Y-96670000D01*
X141462142Y-96717619D01*
X141366904Y-96860476D01*
X141319285Y-97050952D01*
X141319285Y-97431904D01*
X141366904Y-97527142D01*
X141414523Y-97574761D01*
X141509761Y-97622380D01*
X141700238Y-97622380D01*
X141795476Y-97574761D01*
X141843095Y-97527142D01*
X141890714Y-97431904D01*
X141890714Y-97193809D01*
X141843095Y-97098571D01*
X141795476Y-97050952D01*
X141700238Y-97003333D01*
X141509761Y-97003333D01*
X141414523Y-97050952D01*
X141366904Y-97098571D01*
X141319285Y-97193809D01*
%TO.C,JP7*%
X131984761Y-97035952D02*
X131889523Y-96988333D01*
X131841904Y-96940714D01*
X131794285Y-96845476D01*
X131794285Y-96797857D01*
X131841904Y-96702619D01*
X131889523Y-96655000D01*
X131984761Y-96607380D01*
X132175238Y-96607380D01*
X132270476Y-96655000D01*
X132318095Y-96702619D01*
X132365714Y-96797857D01*
X132365714Y-96845476D01*
X132318095Y-96940714D01*
X132270476Y-96988333D01*
X132175238Y-97035952D01*
X131984761Y-97035952D01*
X131889523Y-97083571D01*
X131841904Y-97131190D01*
X131794285Y-97226428D01*
X131794285Y-97416904D01*
X131841904Y-97512142D01*
X131889523Y-97559761D01*
X131984761Y-97607380D01*
X132175238Y-97607380D01*
X132270476Y-97559761D01*
X132318095Y-97512142D01*
X132365714Y-97416904D01*
X132365714Y-97226428D01*
X132318095Y-97131190D01*
X132270476Y-97083571D01*
X132175238Y-97035952D01*
%TO.C,JP2*%
X146875476Y-96940714D02*
X146875476Y-97607380D01*
X146637380Y-96559761D02*
X146399285Y-97274047D01*
X147018333Y-97274047D01*
%TO.C,JP1*%
X148891666Y-96607380D02*
X149510714Y-96607380D01*
X149177380Y-96988333D01*
X149320238Y-96988333D01*
X149415476Y-97035952D01*
X149463095Y-97083571D01*
X149510714Y-97178809D01*
X149510714Y-97416904D01*
X149463095Y-97512142D01*
X149415476Y-97559761D01*
X149320238Y-97607380D01*
X149034523Y-97607380D01*
X148939285Y-97559761D01*
X148891666Y-97512142D01*
%TO.C,R5*%
X144682380Y-67349666D02*
X144206190Y-67683000D01*
X144682380Y-67921095D02*
X143682380Y-67921095D01*
X143682380Y-67540142D01*
X143730000Y-67444904D01*
X143777619Y-67397285D01*
X143872857Y-67349666D01*
X144015714Y-67349666D01*
X144110952Y-67397285D01*
X144158571Y-67444904D01*
X144206190Y-67540142D01*
X144206190Y-67921095D01*
X143682380Y-66444904D02*
X143682380Y-66921095D01*
X144158571Y-66968714D01*
X144110952Y-66921095D01*
X144063333Y-66825857D01*
X144063333Y-66587761D01*
X144110952Y-66492523D01*
X144158571Y-66444904D01*
X144253809Y-66397285D01*
X144491904Y-66397285D01*
X144587142Y-66444904D01*
X144634761Y-66492523D01*
X144682380Y-66587761D01*
X144682380Y-66825857D01*
X144634761Y-66921095D01*
X144587142Y-66968714D01*
%TO.C,C1*%
X123102142Y-72924166D02*
X123149761Y-72971785D01*
X123197380Y-73114642D01*
X123197380Y-73209880D01*
X123149761Y-73352738D01*
X123054523Y-73447976D01*
X122959285Y-73495595D01*
X122768809Y-73543214D01*
X122625952Y-73543214D01*
X122435476Y-73495595D01*
X122340238Y-73447976D01*
X122245000Y-73352738D01*
X122197380Y-73209880D01*
X122197380Y-73114642D01*
X122245000Y-72971785D01*
X122292619Y-72924166D01*
X123197380Y-71971785D02*
X123197380Y-72543214D01*
X123197380Y-72257500D02*
X122197380Y-72257500D01*
X122340238Y-72352738D01*
X122435476Y-72447976D01*
X122483095Y-72543214D01*
%TO.C,BT1*%
X167568571Y-79525714D02*
X167616190Y-79382857D01*
X167663809Y-79335238D01*
X167759047Y-79287619D01*
X167901904Y-79287619D01*
X167997142Y-79335238D01*
X168044761Y-79382857D01*
X168092380Y-79478095D01*
X168092380Y-79859047D01*
X167092380Y-79859047D01*
X167092380Y-79525714D01*
X167140000Y-79430476D01*
X167187619Y-79382857D01*
X167282857Y-79335238D01*
X167378095Y-79335238D01*
X167473333Y-79382857D01*
X167520952Y-79430476D01*
X167568571Y-79525714D01*
X167568571Y-79859047D01*
X167092380Y-79001904D02*
X167092380Y-78430476D01*
X168092380Y-78716190D02*
X167092380Y-78716190D01*
X168092380Y-77573333D02*
X168092380Y-78144761D01*
X168092380Y-77859047D02*
X167092380Y-77859047D01*
X167235238Y-77954285D01*
X167330476Y-78049523D01*
X167378095Y-78144761D01*
%TO.C,R2*%
X116038333Y-77922380D02*
X115705000Y-77446190D01*
X115466904Y-77922380D02*
X115466904Y-76922380D01*
X115847857Y-76922380D01*
X115943095Y-76970000D01*
X115990714Y-77017619D01*
X116038333Y-77112857D01*
X116038333Y-77255714D01*
X115990714Y-77350952D01*
X115943095Y-77398571D01*
X115847857Y-77446190D01*
X115466904Y-77446190D01*
X116419285Y-77017619D02*
X116466904Y-76970000D01*
X116562142Y-76922380D01*
X116800238Y-76922380D01*
X116895476Y-76970000D01*
X116943095Y-77017619D01*
X116990714Y-77112857D01*
X116990714Y-77208095D01*
X116943095Y-77350952D01*
X116371666Y-77922380D01*
X116990714Y-77922380D01*
%TO.C,R1*%
X123727380Y-82716666D02*
X123251190Y-83050000D01*
X123727380Y-83288095D02*
X122727380Y-83288095D01*
X122727380Y-82907142D01*
X122775000Y-82811904D01*
X122822619Y-82764285D01*
X122917857Y-82716666D01*
X123060714Y-82716666D01*
X123155952Y-82764285D01*
X123203571Y-82811904D01*
X123251190Y-82907142D01*
X123251190Y-83288095D01*
X123727380Y-81764285D02*
X123727380Y-82335714D01*
X123727380Y-82050000D02*
X122727380Y-82050000D01*
X122870238Y-82145238D01*
X122965476Y-82240476D01*
X123013095Y-82335714D01*
%TO.C,U1*%
X129252380Y-79501904D02*
X130061904Y-79501904D01*
X130157142Y-79454285D01*
X130204761Y-79406666D01*
X130252380Y-79311428D01*
X130252380Y-79120952D01*
X130204761Y-79025714D01*
X130157142Y-78978095D01*
X130061904Y-78930476D01*
X129252380Y-78930476D01*
X130252380Y-77930476D02*
X130252380Y-78501904D01*
X130252380Y-78216190D02*
X129252380Y-78216190D01*
X129395238Y-78311428D01*
X129490476Y-78406666D01*
X129538095Y-78501904D01*
%TO.C,R3*%
X116042333Y-80462380D02*
X115709000Y-79986190D01*
X115470904Y-80462380D02*
X115470904Y-79462380D01*
X115851857Y-79462380D01*
X115947095Y-79510000D01*
X115994714Y-79557619D01*
X116042333Y-79652857D01*
X116042333Y-79795714D01*
X115994714Y-79890952D01*
X115947095Y-79938571D01*
X115851857Y-79986190D01*
X115470904Y-79986190D01*
X116375666Y-79462380D02*
X116994714Y-79462380D01*
X116661380Y-79843333D01*
X116804238Y-79843333D01*
X116899476Y-79890952D01*
X116947095Y-79938571D01*
X116994714Y-80033809D01*
X116994714Y-80271904D01*
X116947095Y-80367142D01*
X116899476Y-80414761D01*
X116804238Y-80462380D01*
X116518523Y-80462380D01*
X116423285Y-80414761D01*
X116375666Y-80367142D01*
%TO.C,JP5*%
X138731666Y-96607380D02*
X139398333Y-96607380D01*
X138969761Y-97607380D01*
%TO.C,R4*%
X116038333Y-83002380D02*
X115705000Y-82526190D01*
X115466904Y-83002380D02*
X115466904Y-82002380D01*
X115847857Y-82002380D01*
X115943095Y-82050000D01*
X115990714Y-82097619D01*
X116038333Y-82192857D01*
X116038333Y-82335714D01*
X115990714Y-82430952D01*
X115943095Y-82478571D01*
X115847857Y-82526190D01*
X115466904Y-82526190D01*
X116895476Y-82335714D02*
X116895476Y-83002380D01*
X116657380Y-81954761D02*
X116419285Y-82669047D01*
X117038333Y-82669047D01*
%TO.C,JP3*%
X144383095Y-96607380D02*
X143906904Y-96607380D01*
X143859285Y-97083571D01*
X143906904Y-97035952D01*
X144002142Y-96988333D01*
X144240238Y-96988333D01*
X144335476Y-97035952D01*
X144383095Y-97083571D01*
X144430714Y-97178809D01*
X144430714Y-97416904D01*
X144383095Y-97512142D01*
X144335476Y-97559761D01*
X144240238Y-97607380D01*
X144002142Y-97607380D01*
X143906904Y-97559761D01*
X143859285Y-97512142D01*
%TO.C,JP6*%
X134429523Y-97607380D02*
X133858095Y-97607380D01*
X134143809Y-97607380D02*
X134143809Y-96607380D01*
X134048571Y-96750238D01*
X133953333Y-96845476D01*
X133858095Y-96893095D01*
X135286666Y-96607380D02*
X135096190Y-96607380D01*
X135000952Y-96655000D01*
X134953333Y-96702619D01*
X134858095Y-96845476D01*
X134810476Y-97035952D01*
X134810476Y-97416904D01*
X134858095Y-97512142D01*
X134905714Y-97559761D01*
X135000952Y-97607380D01*
X135191428Y-97607380D01*
X135286666Y-97559761D01*
X135334285Y-97512142D01*
X135381904Y-97416904D01*
X135381904Y-97178809D01*
X135334285Y-97083571D01*
X135286666Y-97035952D01*
X135191428Y-96988333D01*
X135000952Y-96988333D01*
X134905714Y-97035952D01*
X134858095Y-97083571D01*
X134810476Y-97178809D01*
%TO.C,Q1*%
X135269119Y-67278238D02*
X135221500Y-67373476D01*
X135126261Y-67468714D01*
X134983404Y-67611571D01*
X134935785Y-67706809D01*
X134935785Y-67802047D01*
X135173880Y-67754428D02*
X135126261Y-67849666D01*
X135031023Y-67944904D01*
X134840547Y-67992523D01*
X134507214Y-67992523D01*
X134316738Y-67944904D01*
X134221500Y-67849666D01*
X134173880Y-67754428D01*
X134173880Y-67563952D01*
X134221500Y-67468714D01*
X134316738Y-67373476D01*
X134507214Y-67325857D01*
X134840547Y-67325857D01*
X135031023Y-67373476D01*
X135126261Y-67468714D01*
X135173880Y-67563952D01*
X135173880Y-67754428D01*
X135173880Y-66373476D02*
X135173880Y-66944904D01*
X135173880Y-66659190D02*
X134173880Y-66659190D01*
X134316738Y-66754428D01*
X134411976Y-66849666D01*
X134459595Y-66944904D01*
%TO.C,U2*%
X126238095Y-76922380D02*
X126238095Y-77731904D01*
X126285714Y-77827142D01*
X126333333Y-77874761D01*
X126428571Y-77922380D01*
X126619047Y-77922380D01*
X126714285Y-77874761D01*
X126761904Y-77827142D01*
X126809523Y-77731904D01*
X126809523Y-76922380D01*
X127238095Y-77017619D02*
X127285714Y-76970000D01*
X127380952Y-76922380D01*
X127619047Y-76922380D01*
X127714285Y-76970000D01*
X127761904Y-77017619D01*
X127809523Y-77112857D01*
X127809523Y-77208095D01*
X127761904Y-77350952D01*
X127190476Y-77922380D01*
X127809523Y-77922380D01*
D14*
%TO.C,TP-1*%
X174170000Y-83820000D02*
G75*
G03*
X174170000Y-83820000I-1450000J0D01*
G01*
%TO.C,TP+1*%
X174170000Y-73660000D02*
G75*
G03*
X174170000Y-73660000I-1450000J0D01*
G01*
%TO.C,JP4*%
X142605000Y-93915000D02*
X142605000Y-95315000D01*
X141305000Y-93215000D02*
X141905000Y-93215000D01*
X141905000Y-96015000D02*
X141305000Y-96015000D01*
X140605000Y-95315000D02*
X140605000Y-93915000D01*
X141305000Y-93215000D02*
G75*
G03*
X140605000Y-93915000I0J-700000D01*
G01*
X142605000Y-93915000D02*
G75*
G03*
X141905000Y-93215000I-700000J0D01*
G01*
X141905000Y-96015000D02*
G75*
G03*
X142605000Y-95315000I1J699999D01*
G01*
X140605000Y-95315000D02*
G75*
G03*
X141305000Y-96015000I699999J-1D01*
G01*
%TO.C,JP7*%
X131080000Y-95315000D02*
X131080000Y-93915000D01*
X133080000Y-93915000D02*
X133080000Y-95315000D01*
X132380000Y-96015000D02*
X131780000Y-96015000D01*
X131780000Y-93215000D02*
X132380000Y-93215000D01*
X132380000Y-96015000D02*
G75*
G03*
X133080000Y-95315000I1J699999D01*
G01*
X133080000Y-93915000D02*
G75*
G03*
X132380000Y-93215000I-700000J0D01*
G01*
X131080000Y-95315000D02*
G75*
G03*
X131780000Y-96015000I699999J-1D01*
G01*
X131780000Y-93215000D02*
G75*
G03*
X131080000Y-93915000I0J-700000D01*
G01*
%TO.C,JP2*%
X145685000Y-95315000D02*
X145685000Y-93915000D01*
X147685000Y-93915000D02*
X147685000Y-95315000D01*
X146985000Y-96015000D02*
X146385000Y-96015000D01*
X146385000Y-93215000D02*
X146985000Y-93215000D01*
X146985000Y-96015000D02*
G75*
G03*
X147685000Y-95315000I1J699999D01*
G01*
X147685000Y-93915000D02*
G75*
G03*
X146985000Y-93215000I-700000J0D01*
G01*
X145685000Y-95315000D02*
G75*
G03*
X146385000Y-96015000I699999J-1D01*
G01*
X146385000Y-93215000D02*
G75*
G03*
X145685000Y-93915000I0J-700000D01*
G01*
%TO.C,JP1*%
X148925000Y-93215000D02*
X149525000Y-93215000D01*
X148225000Y-95315000D02*
X148225000Y-93915000D01*
X149525000Y-96015000D02*
X148925000Y-96015000D01*
X150225000Y-93915000D02*
X150225000Y-95315000D01*
X148225000Y-95315000D02*
G75*
G03*
X148925000Y-96015000I699999J-1D01*
G01*
X150225000Y-93915000D02*
G75*
G03*
X149525000Y-93215000I-700000J0D01*
G01*
X149525000Y-96015000D02*
G75*
G03*
X150225000Y-95315000I1J699999D01*
G01*
X148925000Y-93215000D02*
G75*
G03*
X148225000Y-93915000I0J-700000D01*
G01*
%TO.C,R5*%
X146960000Y-67910064D02*
X146960000Y-66455936D01*
X145140000Y-67910064D02*
X145140000Y-66455936D01*
%TO.C,C1*%
X123585000Y-75217500D02*
X126605000Y-75217500D01*
X123585000Y-71007500D02*
X123585000Y-75217500D01*
X126605000Y-75217500D02*
X126605000Y-71007500D01*
%TO.C,BT1*%
X156805000Y-64190000D02*
X158355000Y-64190000D01*
X164505000Y-93290000D02*
X162955000Y-93290000D01*
X156805000Y-93290000D02*
X158355000Y-93290000D01*
X156805000Y-67390000D02*
X156805000Y-64190000D01*
X169005000Y-67390000D02*
X164505000Y-67390000D01*
X164505000Y-90090000D02*
X164505000Y-93290000D01*
X164505000Y-67390000D02*
X164505000Y-64190000D01*
X154655000Y-66740000D02*
X154655000Y-64740000D01*
X156805000Y-90090000D02*
X156805000Y-93290000D01*
X155655000Y-65740000D02*
X153655000Y-65740000D01*
X152305000Y-90090000D02*
X152305000Y-69190000D01*
X169005000Y-90090000D02*
X164505000Y-90090000D01*
X154105000Y-67390000D02*
X156805000Y-67390000D01*
X164505000Y-64190000D02*
X162955000Y-64190000D01*
X152305000Y-90090000D02*
X156805000Y-90090000D01*
X152305000Y-69190000D02*
X154105000Y-67390000D01*
X169005000Y-67390000D02*
X169005000Y-90090000D01*
%TO.C,R2*%
X118464436Y-76560000D02*
X119918564Y-76560000D01*
X118464436Y-78380000D02*
X119918564Y-78380000D01*
%TO.C,R1*%
X124185000Y-83277064D02*
X124185000Y-81822936D01*
X126005000Y-83277064D02*
X126005000Y-81822936D01*
%TO.C,U1*%
X148760000Y-78740000D02*
X148760000Y-74880000D01*
X148760000Y-82600000D02*
X148515000Y-82600000D01*
X130640000Y-74880000D02*
X130885000Y-74880000D01*
X148760000Y-74880000D02*
X148515000Y-74880000D01*
X130640000Y-78740000D02*
X130640000Y-74880000D01*
X130885000Y-82600000D02*
X130885000Y-84415000D01*
X148760000Y-78740000D02*
X148760000Y-82600000D01*
X130640000Y-82600000D02*
X130885000Y-82600000D01*
X130640000Y-78740000D02*
X130640000Y-82600000D01*
%TO.C,R3*%
X118464436Y-80920000D02*
X119918564Y-80920000D01*
X118464436Y-79100000D02*
X119918564Y-79100000D01*
%TO.C,JP5*%
X138065000Y-95315000D02*
X138065000Y-93915000D01*
X140065000Y-93915000D02*
X140065000Y-95315000D01*
X138765000Y-93215000D02*
X139365000Y-93215000D01*
X139365000Y-96015000D02*
X138765000Y-96015000D01*
X140065000Y-93915000D02*
G75*
G03*
X139365000Y-93215000I-700000J0D01*
G01*
X139365000Y-96015000D02*
G75*
G03*
X140065000Y-95315000I1J699999D01*
G01*
X138765000Y-93215000D02*
G75*
G03*
X138065000Y-93915000I0J-700000D01*
G01*
X138065000Y-95315000D02*
G75*
G03*
X138765000Y-96015000I699999J-1D01*
G01*
%TO.C,R4*%
X118460436Y-83460000D02*
X119914564Y-83460000D01*
X118460436Y-81640000D02*
X119914564Y-81640000D01*
%TO.C,JP3*%
X143145000Y-95315000D02*
X143145000Y-93915000D01*
X144445000Y-96015000D02*
X143845000Y-96015000D01*
X145145000Y-93915000D02*
X145145000Y-95315000D01*
X143845000Y-93215000D02*
X144445000Y-93215000D01*
X143845000Y-93215000D02*
G75*
G03*
X143145000Y-93915000I0J-700000D01*
G01*
X145145000Y-93915000D02*
G75*
G03*
X144445000Y-93215000I-700000J0D01*
G01*
X143145000Y-95315000D02*
G75*
G03*
X143845000Y-96015000I699999J-1D01*
G01*
X144445000Y-96015000D02*
G75*
G03*
X145145000Y-95315000I1J699999D01*
G01*
%TO.C,JP6*%
X135620000Y-93930000D02*
X135620000Y-95330000D01*
X134320000Y-93230000D02*
X134920000Y-93230000D01*
X133620000Y-95330000D02*
X133620000Y-93930000D01*
X134920000Y-96030000D02*
X134320000Y-96030000D01*
X133620000Y-95330000D02*
G75*
G03*
X134320000Y-96030000I699999J-1D01*
G01*
X134920000Y-96030000D02*
G75*
G03*
X135620000Y-95330000I1J699999D01*
G01*
X134320000Y-93230000D02*
G75*
G03*
X133620000Y-93930000I0J-700000D01*
G01*
X135620000Y-93930000D02*
G75*
G03*
X134920000Y-93230000I-700000J0D01*
G01*
%TO.C,Q1*%
X131665500Y-70993000D02*
X140301500Y-70993000D01*
X140301500Y-70993000D02*
X140301500Y-63373000D01*
X140301500Y-63373000D02*
X131665500Y-63373000D01*
X131665500Y-63373000D02*
X131665500Y-70993000D01*
%TO.C,G\u002A\u002A\u002A*%
G36*
X107250368Y-93618669D02*
G01*
X107229726Y-93598496D01*
X107227497Y-93596220D01*
X109491324Y-93596220D01*
X109969495Y-93770870D01*
X110264090Y-93895017D01*
X110638117Y-94075780D01*
X111026683Y-94281213D01*
X111165572Y-94359632D01*
X111472644Y-94532965D01*
X111719618Y-94665204D01*
X111873884Y-94739291D01*
X111908801Y-94748421D01*
X111891837Y-94663915D01*
X111829030Y-94445378D01*
X111728505Y-94119281D01*
X111598390Y-93712095D01*
X111475078Y-93335548D01*
X111303291Y-92801482D01*
X111134112Y-92249289D01*
X110982559Y-91729788D01*
X110863650Y-91293801D01*
X110820682Y-91121111D01*
X110730956Y-90777571D01*
X110644579Y-90509757D01*
X110573355Y-90351165D01*
X110539403Y-90322866D01*
X110488202Y-90410764D01*
X110405755Y-90632969D01*
X110301949Y-90959524D01*
X110186670Y-91360474D01*
X110140481Y-91531506D01*
X110012839Y-91999107D01*
X109883704Y-92448662D01*
X109766530Y-92834800D01*
X109674772Y-93112150D01*
X109659407Y-93153862D01*
X109491324Y-93596220D01*
X107227497Y-93596220D01*
X107138879Y-93505748D01*
X107117160Y-93403949D01*
X107172197Y-93251850D01*
X107191567Y-93218000D01*
X107795011Y-93218000D01*
X108317005Y-93313497D01*
X108699894Y-93381519D01*
X108951690Y-93410032D01*
X109108161Y-93388367D01*
X109205075Y-93305852D01*
X109278198Y-93151818D01*
X109328706Y-93011692D01*
X109409428Y-92764587D01*
X109507677Y-92434443D01*
X109614258Y-92056095D01*
X109719973Y-91664383D01*
X109815627Y-91294143D01*
X109892021Y-90980212D01*
X109939960Y-90757427D01*
X109950247Y-90660627D01*
X109949598Y-90659709D01*
X109876568Y-90697737D01*
X109712473Y-90832165D01*
X109483929Y-91037640D01*
X109217557Y-91288809D01*
X108939974Y-91560316D01*
X108677799Y-91826809D01*
X108457650Y-92062933D01*
X108367443Y-92166702D01*
X108159030Y-92444672D01*
X107985576Y-92727044D01*
X107903404Y-92904741D01*
X107795011Y-93218000D01*
X107191567Y-93218000D01*
X107311620Y-93008202D01*
X107350763Y-92944105D01*
X107511180Y-92648945D01*
X107684800Y-92278221D01*
X107820065Y-91948000D01*
X107960274Y-91616392D01*
X108158166Y-91205082D01*
X108393990Y-90749628D01*
X108647998Y-90285588D01*
X108900442Y-89848519D01*
X109131573Y-89473978D01*
X109321642Y-89197522D01*
X109402136Y-89099500D01*
X109608465Y-88930189D01*
X109798800Y-88860493D01*
X109935622Y-88895472D01*
X109982000Y-89021294D01*
X109914662Y-89179334D01*
X109832957Y-89232226D01*
X109695486Y-89332629D01*
X109507942Y-89565849D01*
X109266010Y-89938330D01*
X108965372Y-90456517D01*
X108751085Y-90847333D01*
X108340073Y-91609333D01*
X109001096Y-90994738D01*
X109300830Y-90723449D01*
X109579922Y-90483885D01*
X109800293Y-90308080D01*
X109895908Y-90242040D01*
X110051908Y-90110535D01*
X110159050Y-89906050D01*
X110234607Y-89628969D01*
X110305870Y-89350842D01*
X110378842Y-89135168D01*
X110420949Y-89053199D01*
X110550074Y-88981522D01*
X110674017Y-89058100D01*
X110767004Y-89263115D01*
X110782187Y-89331006D01*
X110837018Y-89623283D01*
X111362009Y-89333467D01*
X111723014Y-89151956D01*
X112148768Y-88963336D01*
X112515504Y-88820187D01*
X112841968Y-88709875D01*
X113049596Y-88658675D01*
X113176111Y-88661173D01*
X113259237Y-88711959D01*
X113260587Y-88713301D01*
X113321779Y-88807251D01*
X113285597Y-88892521D01*
X113132353Y-88984194D01*
X112842361Y-89097351D01*
X112691333Y-89149420D01*
X112221778Y-89328863D01*
X111748985Y-89544879D01*
X111337851Y-89766438D01*
X111155259Y-89883816D01*
X110931518Y-90041581D01*
X111179860Y-91037124D01*
X111358028Y-91709491D01*
X111563566Y-92416005D01*
X111783207Y-93115727D01*
X112003687Y-93767714D01*
X112211738Y-94331026D01*
X112372132Y-94716718D01*
X112519754Y-95097202D01*
X112572705Y-95368085D01*
X112529936Y-95518427D01*
X112451805Y-95546333D01*
X112340900Y-95502309D01*
X112150930Y-95391540D01*
X112065436Y-95335377D01*
X111641686Y-95064629D01*
X111149741Y-94776496D01*
X110644725Y-94501283D01*
X110181763Y-94269292D01*
X109891817Y-94140477D01*
X109607690Y-94029264D01*
X109438910Y-93981131D01*
X109345604Y-93991473D01*
X109287901Y-94055687D01*
X109279779Y-94069812D01*
X109177080Y-94215591D01*
X109006562Y-94424240D01*
X108903118Y-94541929D01*
X108680902Y-94754568D01*
X108484003Y-94851957D01*
X108327661Y-94869000D01*
X108036573Y-94791292D01*
X107762270Y-94583029D01*
X107543943Y-94281498D01*
X107443458Y-94027749D01*
X107371891Y-93834373D01*
X107776571Y-93834373D01*
X107827185Y-94033278D01*
X107923926Y-94193994D01*
X108119414Y-94435290D01*
X108291309Y-94521555D01*
X108473380Y-94454395D01*
X108699393Y-94235416D01*
X108703229Y-94231054D01*
X108859074Y-94039602D01*
X108953272Y-93896961D01*
X108966000Y-93860637D01*
X108888499Y-93793534D01*
X108684660Y-93735794D01*
X108397476Y-93696293D01*
X108108750Y-93683667D01*
X107869579Y-93720174D01*
X107776571Y-93834373D01*
X107371891Y-93834373D01*
X107355695Y-93790612D01*
X107250368Y-93618669D01*
G37*
G36*
X113428606Y-93788669D02*
G01*
X113453333Y-93891272D01*
X113389003Y-94018359D01*
X113249301Y-94055209D01*
X113119813Y-93986201D01*
X113080131Y-93861750D01*
X113152247Y-93772278D01*
X113311476Y-93714022D01*
X113428606Y-93788669D01*
G37*
%TO.C,U2*%
X123825000Y-75910000D02*
X124475000Y-75910000D01*
X123825000Y-75910000D02*
X123175000Y-75910000D01*
X123825000Y-79030000D02*
X125500000Y-79030000D01*
X123825000Y-79030000D02*
X123175000Y-79030000D01*
%TD*%
M02*
