%TF.GenerationSoftware,KiCad,Pcbnew,(6.0.6-0)*%
%TF.CreationDate,2022-12-31T16:02:41+01:00*%
%TF.ProjectId,rc5_remote,7263355f-7265-46d6-9f74-652e6b696361,rev?*%
%TF.SameCoordinates,Original*%
%TF.FileFunction,Legend,Bot*%
%TF.FilePolarity,Positive*%
%FSLAX46Y46*%
G04 Gerber Fmt 4.6, Leading zero omitted, Abs format (unit mm)*
G04 Created by KiCad (PCBNEW (6.0.6-0)) date 2022-12-31 16:02:41*
%MOMM*%
%LPD*%
G01*
G04 APERTURE LIST*
%ADD10C,0.150000*%
%ADD11C,0.010000*%
%ADD12C,0.120000*%
G04 APERTURE END LIST*
D10*
%TO.C,SW11*%
X153384761Y-90265476D02*
X153432380Y-90408333D01*
X153432380Y-90646428D01*
X153384761Y-90741666D01*
X153337142Y-90789285D01*
X153241904Y-90836904D01*
X153146666Y-90836904D01*
X153051428Y-90789285D01*
X153003809Y-90741666D01*
X152956190Y-90646428D01*
X152908571Y-90455952D01*
X152860952Y-90360714D01*
X152813333Y-90313095D01*
X152718095Y-90265476D01*
X152622857Y-90265476D01*
X152527619Y-90313095D01*
X152480000Y-90360714D01*
X152432380Y-90455952D01*
X152432380Y-90694047D01*
X152480000Y-90836904D01*
X152432380Y-91170238D02*
X153432380Y-91408333D01*
X152718095Y-91598809D01*
X153432380Y-91789285D01*
X152432380Y-92027380D01*
X153432380Y-92932142D02*
X153432380Y-92360714D01*
X153432380Y-92646428D02*
X152432380Y-92646428D01*
X152575238Y-92551190D01*
X152670476Y-92455952D01*
X152718095Y-92360714D01*
X153432380Y-93884523D02*
X153432380Y-93313095D01*
X153432380Y-93598809D02*
X152432380Y-93598809D01*
X152575238Y-93503571D01*
X152670476Y-93408333D01*
X152718095Y-93313095D01*
%TO.C,SW10*%
X153384761Y-63595476D02*
X153432380Y-63738333D01*
X153432380Y-63976428D01*
X153384761Y-64071666D01*
X153337142Y-64119285D01*
X153241904Y-64166904D01*
X153146666Y-64166904D01*
X153051428Y-64119285D01*
X153003809Y-64071666D01*
X152956190Y-63976428D01*
X152908571Y-63785952D01*
X152860952Y-63690714D01*
X152813333Y-63643095D01*
X152718095Y-63595476D01*
X152622857Y-63595476D01*
X152527619Y-63643095D01*
X152480000Y-63690714D01*
X152432380Y-63785952D01*
X152432380Y-64024047D01*
X152480000Y-64166904D01*
X152432380Y-64500238D02*
X153432380Y-64738333D01*
X152718095Y-64928809D01*
X153432380Y-65119285D01*
X152432380Y-65357380D01*
X153432380Y-66262142D02*
X153432380Y-65690714D01*
X153432380Y-65976428D02*
X152432380Y-65976428D01*
X152575238Y-65881190D01*
X152670476Y-65785952D01*
X152718095Y-65690714D01*
X152432380Y-66881190D02*
X152432380Y-66976428D01*
X152480000Y-67071666D01*
X152527619Y-67119285D01*
X152622857Y-67166904D01*
X152813333Y-67214523D01*
X153051428Y-67214523D01*
X153241904Y-67166904D01*
X153337142Y-67119285D01*
X153384761Y-67071666D01*
X153432380Y-66976428D01*
X153432380Y-66881190D01*
X153384761Y-66785952D01*
X153337142Y-66738333D01*
X153241904Y-66690714D01*
X153051428Y-66643095D01*
X152813333Y-66643095D01*
X152622857Y-66690714D01*
X152527619Y-66738333D01*
X152480000Y-66785952D01*
X152432380Y-66881190D01*
%TO.C,SW7*%
X142009761Y-90741666D02*
X142057380Y-90884523D01*
X142057380Y-91122619D01*
X142009761Y-91217857D01*
X141962142Y-91265476D01*
X141866904Y-91313095D01*
X141771666Y-91313095D01*
X141676428Y-91265476D01*
X141628809Y-91217857D01*
X141581190Y-91122619D01*
X141533571Y-90932142D01*
X141485952Y-90836904D01*
X141438333Y-90789285D01*
X141343095Y-90741666D01*
X141247857Y-90741666D01*
X141152619Y-90789285D01*
X141105000Y-90836904D01*
X141057380Y-90932142D01*
X141057380Y-91170238D01*
X141105000Y-91313095D01*
X141057380Y-91646428D02*
X142057380Y-91884523D01*
X141343095Y-92075000D01*
X142057380Y-92265476D01*
X141057380Y-92503571D01*
X141057380Y-92789285D02*
X141057380Y-93455952D01*
X142057380Y-93027380D01*
%TO.C,DIR1*%
X110392380Y-77268809D02*
X109392380Y-77268809D01*
X109392380Y-77506904D01*
X109440000Y-77649761D01*
X109535238Y-77745000D01*
X109630476Y-77792619D01*
X109820952Y-77840238D01*
X109963809Y-77840238D01*
X110154285Y-77792619D01*
X110249523Y-77745000D01*
X110344761Y-77649761D01*
X110392380Y-77506904D01*
X110392380Y-77268809D01*
X110392380Y-78268809D02*
X109392380Y-78268809D01*
X110392380Y-79316428D02*
X109916190Y-78983095D01*
X110392380Y-78745000D02*
X109392380Y-78745000D01*
X109392380Y-79125952D01*
X109440000Y-79221190D01*
X109487619Y-79268809D01*
X109582857Y-79316428D01*
X109725714Y-79316428D01*
X109820952Y-79268809D01*
X109868571Y-79221190D01*
X109916190Y-79125952D01*
X109916190Y-78745000D01*
X110392380Y-80268809D02*
X110392380Y-79697380D01*
X110392380Y-79983095D02*
X109392380Y-79983095D01*
X109535238Y-79887857D01*
X109630476Y-79792619D01*
X109678095Y-79697380D01*
%TO.C,SW5*%
X106394761Y-90741666D02*
X106442380Y-90884523D01*
X106442380Y-91122619D01*
X106394761Y-91217857D01*
X106347142Y-91265476D01*
X106251904Y-91313095D01*
X106156666Y-91313095D01*
X106061428Y-91265476D01*
X106013809Y-91217857D01*
X105966190Y-91122619D01*
X105918571Y-90932142D01*
X105870952Y-90836904D01*
X105823333Y-90789285D01*
X105728095Y-90741666D01*
X105632857Y-90741666D01*
X105537619Y-90789285D01*
X105490000Y-90836904D01*
X105442380Y-90932142D01*
X105442380Y-91170238D01*
X105490000Y-91313095D01*
X105442380Y-91646428D02*
X106442380Y-91884523D01*
X105728095Y-92075000D01*
X106442380Y-92265476D01*
X105442380Y-92503571D01*
X105442380Y-93360714D02*
X105442380Y-92884523D01*
X105918571Y-92836904D01*
X105870952Y-92884523D01*
X105823333Y-92979761D01*
X105823333Y-93217857D01*
X105870952Y-93313095D01*
X105918571Y-93360714D01*
X106013809Y-93408333D01*
X106251904Y-93408333D01*
X106347142Y-93360714D01*
X106394761Y-93313095D01*
X106442380Y-93217857D01*
X106442380Y-92979761D01*
X106394761Y-92884523D01*
X106347142Y-92836904D01*
%TO.C,SW8*%
X141954761Y-77406666D02*
X142002380Y-77549523D01*
X142002380Y-77787619D01*
X141954761Y-77882857D01*
X141907142Y-77930476D01*
X141811904Y-77978095D01*
X141716666Y-77978095D01*
X141621428Y-77930476D01*
X141573809Y-77882857D01*
X141526190Y-77787619D01*
X141478571Y-77597142D01*
X141430952Y-77501904D01*
X141383333Y-77454285D01*
X141288095Y-77406666D01*
X141192857Y-77406666D01*
X141097619Y-77454285D01*
X141050000Y-77501904D01*
X141002380Y-77597142D01*
X141002380Y-77835238D01*
X141050000Y-77978095D01*
X141002380Y-78311428D02*
X142002380Y-78549523D01*
X141288095Y-78740000D01*
X142002380Y-78930476D01*
X141002380Y-79168571D01*
X141430952Y-79692380D02*
X141383333Y-79597142D01*
X141335714Y-79549523D01*
X141240476Y-79501904D01*
X141192857Y-79501904D01*
X141097619Y-79549523D01*
X141050000Y-79597142D01*
X141002380Y-79692380D01*
X141002380Y-79882857D01*
X141050000Y-79978095D01*
X141097619Y-80025714D01*
X141192857Y-80073333D01*
X141240476Y-80073333D01*
X141335714Y-80025714D01*
X141383333Y-79978095D01*
X141430952Y-79882857D01*
X141430952Y-79692380D01*
X141478571Y-79597142D01*
X141526190Y-79549523D01*
X141621428Y-79501904D01*
X141811904Y-79501904D01*
X141907142Y-79549523D01*
X141954761Y-79597142D01*
X142002380Y-79692380D01*
X142002380Y-79882857D01*
X141954761Y-79978095D01*
X141907142Y-80025714D01*
X141811904Y-80073333D01*
X141621428Y-80073333D01*
X141526190Y-80025714D01*
X141478571Y-79978095D01*
X141430952Y-79882857D01*
%TO.C,SW2*%
X106394761Y-64071666D02*
X106442380Y-64214523D01*
X106442380Y-64452619D01*
X106394761Y-64547857D01*
X106347142Y-64595476D01*
X106251904Y-64643095D01*
X106156666Y-64643095D01*
X106061428Y-64595476D01*
X106013809Y-64547857D01*
X105966190Y-64452619D01*
X105918571Y-64262142D01*
X105870952Y-64166904D01*
X105823333Y-64119285D01*
X105728095Y-64071666D01*
X105632857Y-64071666D01*
X105537619Y-64119285D01*
X105490000Y-64166904D01*
X105442380Y-64262142D01*
X105442380Y-64500238D01*
X105490000Y-64643095D01*
X105442380Y-64976428D02*
X106442380Y-65214523D01*
X105728095Y-65405000D01*
X106442380Y-65595476D01*
X105442380Y-65833571D01*
X105537619Y-66166904D02*
X105490000Y-66214523D01*
X105442380Y-66309761D01*
X105442380Y-66547857D01*
X105490000Y-66643095D01*
X105537619Y-66690714D01*
X105632857Y-66738333D01*
X105728095Y-66738333D01*
X105870952Y-66690714D01*
X106442380Y-66119285D01*
X106442380Y-66738333D01*
%TO.C,SW4*%
X122904761Y-90741666D02*
X122952380Y-90884523D01*
X122952380Y-91122619D01*
X122904761Y-91217857D01*
X122857142Y-91265476D01*
X122761904Y-91313095D01*
X122666666Y-91313095D01*
X122571428Y-91265476D01*
X122523809Y-91217857D01*
X122476190Y-91122619D01*
X122428571Y-90932142D01*
X122380952Y-90836904D01*
X122333333Y-90789285D01*
X122238095Y-90741666D01*
X122142857Y-90741666D01*
X122047619Y-90789285D01*
X122000000Y-90836904D01*
X121952380Y-90932142D01*
X121952380Y-91170238D01*
X122000000Y-91313095D01*
X121952380Y-91646428D02*
X122952380Y-91884523D01*
X122238095Y-92075000D01*
X122952380Y-92265476D01*
X121952380Y-92503571D01*
X122285714Y-93313095D02*
X122952380Y-93313095D01*
X121904761Y-93075000D02*
X122619047Y-92836904D01*
X122619047Y-93455952D01*
%TO.C,SW3*%
X124229761Y-77406666D02*
X124277380Y-77549523D01*
X124277380Y-77787619D01*
X124229761Y-77882857D01*
X124182142Y-77930476D01*
X124086904Y-77978095D01*
X123991666Y-77978095D01*
X123896428Y-77930476D01*
X123848809Y-77882857D01*
X123801190Y-77787619D01*
X123753571Y-77597142D01*
X123705952Y-77501904D01*
X123658333Y-77454285D01*
X123563095Y-77406666D01*
X123467857Y-77406666D01*
X123372619Y-77454285D01*
X123325000Y-77501904D01*
X123277380Y-77597142D01*
X123277380Y-77835238D01*
X123325000Y-77978095D01*
X123277380Y-78311428D02*
X124277380Y-78549523D01*
X123563095Y-78740000D01*
X124277380Y-78930476D01*
X123277380Y-79168571D01*
X123277380Y-79454285D02*
X123277380Y-80073333D01*
X123658333Y-79740000D01*
X123658333Y-79882857D01*
X123705952Y-79978095D01*
X123753571Y-80025714D01*
X123848809Y-80073333D01*
X124086904Y-80073333D01*
X124182142Y-80025714D01*
X124229761Y-79978095D01*
X124277380Y-79882857D01*
X124277380Y-79597142D01*
X124229761Y-79501904D01*
X124182142Y-79454285D01*
%TO.C,SW12*%
X153384761Y-76930476D02*
X153432380Y-77073333D01*
X153432380Y-77311428D01*
X153384761Y-77406666D01*
X153337142Y-77454285D01*
X153241904Y-77501904D01*
X153146666Y-77501904D01*
X153051428Y-77454285D01*
X153003809Y-77406666D01*
X152956190Y-77311428D01*
X152908571Y-77120952D01*
X152860952Y-77025714D01*
X152813333Y-76978095D01*
X152718095Y-76930476D01*
X152622857Y-76930476D01*
X152527619Y-76978095D01*
X152480000Y-77025714D01*
X152432380Y-77120952D01*
X152432380Y-77359047D01*
X152480000Y-77501904D01*
X152432380Y-77835238D02*
X153432380Y-78073333D01*
X152718095Y-78263809D01*
X153432380Y-78454285D01*
X152432380Y-78692380D01*
X153432380Y-79597142D02*
X153432380Y-79025714D01*
X153432380Y-79311428D02*
X152432380Y-79311428D01*
X152575238Y-79216190D01*
X152670476Y-79120952D01*
X152718095Y-79025714D01*
X152527619Y-79978095D02*
X152480000Y-80025714D01*
X152432380Y-80120952D01*
X152432380Y-80359047D01*
X152480000Y-80454285D01*
X152527619Y-80501904D01*
X152622857Y-80549523D01*
X152718095Y-80549523D01*
X152860952Y-80501904D01*
X153432380Y-79930476D01*
X153432380Y-80549523D01*
%TO.C,SW1*%
X122904761Y-64071666D02*
X122952380Y-64214523D01*
X122952380Y-64452619D01*
X122904761Y-64547857D01*
X122857142Y-64595476D01*
X122761904Y-64643095D01*
X122666666Y-64643095D01*
X122571428Y-64595476D01*
X122523809Y-64547857D01*
X122476190Y-64452619D01*
X122428571Y-64262142D01*
X122380952Y-64166904D01*
X122333333Y-64119285D01*
X122238095Y-64071666D01*
X122142857Y-64071666D01*
X122047619Y-64119285D01*
X122000000Y-64166904D01*
X121952380Y-64262142D01*
X121952380Y-64500238D01*
X122000000Y-64643095D01*
X121952380Y-64976428D02*
X122952380Y-65214523D01*
X122238095Y-65405000D01*
X122952380Y-65595476D01*
X121952380Y-65833571D01*
X122952380Y-66738333D02*
X122952380Y-66166904D01*
X122952380Y-66452619D02*
X121952380Y-66452619D01*
X122095238Y-66357380D01*
X122190476Y-66262142D01*
X122238095Y-66166904D01*
%TO.C,DSTATUS1*%
X114918380Y-75340238D02*
X113918380Y-75340238D01*
X113918380Y-75578333D01*
X113966000Y-75721190D01*
X114061238Y-75816428D01*
X114156476Y-75864047D01*
X114346952Y-75911666D01*
X114489809Y-75911666D01*
X114680285Y-75864047D01*
X114775523Y-75816428D01*
X114870761Y-75721190D01*
X114918380Y-75578333D01*
X114918380Y-75340238D01*
X114870761Y-76292619D02*
X114918380Y-76435476D01*
X114918380Y-76673571D01*
X114870761Y-76768809D01*
X114823142Y-76816428D01*
X114727904Y-76864047D01*
X114632666Y-76864047D01*
X114537428Y-76816428D01*
X114489809Y-76768809D01*
X114442190Y-76673571D01*
X114394571Y-76483095D01*
X114346952Y-76387857D01*
X114299333Y-76340238D01*
X114204095Y-76292619D01*
X114108857Y-76292619D01*
X114013619Y-76340238D01*
X113966000Y-76387857D01*
X113918380Y-76483095D01*
X113918380Y-76721190D01*
X113966000Y-76864047D01*
X113918380Y-77149761D02*
X113918380Y-77721190D01*
X114918380Y-77435476D02*
X113918380Y-77435476D01*
X114632666Y-78006904D02*
X114632666Y-78483095D01*
X114918380Y-77911666D02*
X113918380Y-78245000D01*
X114918380Y-78578333D01*
X113918380Y-78768809D02*
X113918380Y-79340238D01*
X114918380Y-79054523D02*
X113918380Y-79054523D01*
X113918380Y-79673571D02*
X114727904Y-79673571D01*
X114823142Y-79721190D01*
X114870761Y-79768809D01*
X114918380Y-79864047D01*
X114918380Y-80054523D01*
X114870761Y-80149761D01*
X114823142Y-80197380D01*
X114727904Y-80245000D01*
X113918380Y-80245000D01*
X114870761Y-80673571D02*
X114918380Y-80816428D01*
X114918380Y-81054523D01*
X114870761Y-81149761D01*
X114823142Y-81197380D01*
X114727904Y-81245000D01*
X114632666Y-81245000D01*
X114537428Y-81197380D01*
X114489809Y-81149761D01*
X114442190Y-81054523D01*
X114394571Y-80864047D01*
X114346952Y-80768809D01*
X114299333Y-80721190D01*
X114204095Y-80673571D01*
X114108857Y-80673571D01*
X114013619Y-80721190D01*
X113966000Y-80768809D01*
X113918380Y-80864047D01*
X113918380Y-81102142D01*
X113966000Y-81245000D01*
X114918380Y-82197380D02*
X114918380Y-81625952D01*
X114918380Y-81911666D02*
X113918380Y-81911666D01*
X114061238Y-81816428D01*
X114156476Y-81721190D01*
X114204095Y-81625952D01*
%TO.C,SW9*%
X141954761Y-64071666D02*
X142002380Y-64214523D01*
X142002380Y-64452619D01*
X141954761Y-64547857D01*
X141907142Y-64595476D01*
X141811904Y-64643095D01*
X141716666Y-64643095D01*
X141621428Y-64595476D01*
X141573809Y-64547857D01*
X141526190Y-64452619D01*
X141478571Y-64262142D01*
X141430952Y-64166904D01*
X141383333Y-64119285D01*
X141288095Y-64071666D01*
X141192857Y-64071666D01*
X141097619Y-64119285D01*
X141050000Y-64166904D01*
X141002380Y-64262142D01*
X141002380Y-64500238D01*
X141050000Y-64643095D01*
X141002380Y-64976428D02*
X142002380Y-65214523D01*
X141288095Y-65405000D01*
X142002380Y-65595476D01*
X141002380Y-65833571D01*
X142002380Y-66262142D02*
X142002380Y-66452619D01*
X141954761Y-66547857D01*
X141907142Y-66595476D01*
X141764285Y-66690714D01*
X141573809Y-66738333D01*
X141192857Y-66738333D01*
X141097619Y-66690714D01*
X141050000Y-66643095D01*
X141002380Y-66547857D01*
X141002380Y-66357380D01*
X141050000Y-66262142D01*
X141097619Y-66214523D01*
X141192857Y-66166904D01*
X141430952Y-66166904D01*
X141526190Y-66214523D01*
X141573809Y-66262142D01*
X141621428Y-66357380D01*
X141621428Y-66547857D01*
X141573809Y-66643095D01*
X141526190Y-66690714D01*
X141430952Y-66738333D01*
%TO.C,SW6*%
X130524761Y-77406666D02*
X130572380Y-77549523D01*
X130572380Y-77787619D01*
X130524761Y-77882857D01*
X130477142Y-77930476D01*
X130381904Y-77978095D01*
X130286666Y-77978095D01*
X130191428Y-77930476D01*
X130143809Y-77882857D01*
X130096190Y-77787619D01*
X130048571Y-77597142D01*
X130000952Y-77501904D01*
X129953333Y-77454285D01*
X129858095Y-77406666D01*
X129762857Y-77406666D01*
X129667619Y-77454285D01*
X129620000Y-77501904D01*
X129572380Y-77597142D01*
X129572380Y-77835238D01*
X129620000Y-77978095D01*
X129572380Y-78311428D02*
X130572380Y-78549523D01*
X129858095Y-78740000D01*
X130572380Y-78930476D01*
X129572380Y-79168571D01*
X129572380Y-79978095D02*
X129572380Y-79787619D01*
X129620000Y-79692380D01*
X129667619Y-79644761D01*
X129810476Y-79549523D01*
X130000952Y-79501904D01*
X130381904Y-79501904D01*
X130477142Y-79549523D01*
X130524761Y-79597142D01*
X130572380Y-79692380D01*
X130572380Y-79882857D01*
X130524761Y-79978095D01*
X130477142Y-80025714D01*
X130381904Y-80073333D01*
X130143809Y-80073333D01*
X130048571Y-80025714D01*
X130000952Y-79978095D01*
X129953333Y-79882857D01*
X129953333Y-79692380D01*
X130000952Y-79597142D01*
X130048571Y-79549523D01*
X130143809Y-79501904D01*
%TO.C,REF\u002A\u002A*%
G36*
X164101974Y-82253808D02*
G01*
X164134655Y-82257681D01*
X164161181Y-82270065D01*
X164192029Y-82295230D01*
X164214169Y-82316442D01*
X164236715Y-82342838D01*
X164255083Y-82372555D01*
X164270339Y-82408785D01*
X164283551Y-82454717D01*
X164295786Y-82513544D01*
X164308111Y-82588456D01*
X164321594Y-82682645D01*
X164328604Y-82727957D01*
X164343163Y-82795911D01*
X164359663Y-82845047D01*
X164377561Y-82874614D01*
X164396315Y-82883864D01*
X164415385Y-82872048D01*
X164434229Y-82838416D01*
X164435443Y-82835370D01*
X164447521Y-82789011D01*
X164455721Y-82726361D01*
X164459881Y-82652927D01*
X164459839Y-82574217D01*
X164455431Y-82495739D01*
X164446495Y-82423000D01*
X164445846Y-82419073D01*
X164438139Y-82370257D01*
X164434527Y-82338005D01*
X164435124Y-82317008D01*
X164440046Y-82301954D01*
X164449404Y-82287534D01*
X164450275Y-82286364D01*
X164480649Y-82261847D01*
X164516150Y-82257054D01*
X164550731Y-82272860D01*
X164555187Y-82277406D01*
X164570327Y-82307020D01*
X164583450Y-82354002D01*
X164594250Y-82414306D01*
X164602419Y-82483888D01*
X164607649Y-82558703D01*
X164609633Y-82634706D01*
X164608064Y-82707853D01*
X164602634Y-82774100D01*
X164593036Y-82829400D01*
X164578175Y-82880283D01*
X164545042Y-82951595D01*
X164502360Y-83002752D01*
X164450295Y-83033575D01*
X164389017Y-83043889D01*
X164357768Y-83042952D01*
X164332971Y-83037160D01*
X164311301Y-83022353D01*
X164283951Y-82994380D01*
X164276622Y-82986402D01*
X164255719Y-82962692D01*
X164238749Y-82940298D01*
X164224795Y-82916265D01*
X164212944Y-82887637D01*
X164202280Y-82851460D01*
X164191889Y-82804780D01*
X164180854Y-82744641D01*
X164168262Y-82668090D01*
X164153196Y-82572171D01*
X164150162Y-82553808D01*
X164136542Y-82491478D01*
X164120808Y-82446260D01*
X164103737Y-82419976D01*
X164086103Y-82414447D01*
X164081832Y-82417068D01*
X164066767Y-82435000D01*
X164050133Y-82463126D01*
X164044143Y-82475926D01*
X164036950Y-82497224D01*
X164032173Y-82523610D01*
X164029354Y-82559454D01*
X164028036Y-82609128D01*
X164027763Y-82677000D01*
X164027836Y-82694785D01*
X164028947Y-82762406D01*
X164031172Y-82827345D01*
X164034238Y-82882970D01*
X164037873Y-82922651D01*
X164041941Y-82958162D01*
X164042724Y-82987415D01*
X164038124Y-83006315D01*
X164027449Y-83021429D01*
X164023856Y-83025085D01*
X163992082Y-83041427D01*
X163956428Y-83040107D01*
X163925810Y-83021150D01*
X163914204Y-83000780D01*
X163901509Y-82964796D01*
X163891459Y-82922372D01*
X163890860Y-82918922D01*
X163885644Y-82876252D01*
X163881270Y-82818866D01*
X163878182Y-82753849D01*
X163876823Y-82688289D01*
X163876782Y-82672057D01*
X163879259Y-82573744D01*
X163887265Y-82493692D01*
X163901797Y-82428513D01*
X163923851Y-82374817D01*
X163954424Y-82329216D01*
X163994514Y-82288323D01*
X164020741Y-82268202D01*
X164050288Y-82256576D01*
X164090005Y-82253667D01*
X164101974Y-82253808D01*
G37*
D11*
X164101974Y-82253808D02*
X164134655Y-82257681D01*
X164161181Y-82270065D01*
X164192029Y-82295230D01*
X164214169Y-82316442D01*
X164236715Y-82342838D01*
X164255083Y-82372555D01*
X164270339Y-82408785D01*
X164283551Y-82454717D01*
X164295786Y-82513544D01*
X164308111Y-82588456D01*
X164321594Y-82682645D01*
X164328604Y-82727957D01*
X164343163Y-82795911D01*
X164359663Y-82845047D01*
X164377561Y-82874614D01*
X164396315Y-82883864D01*
X164415385Y-82872048D01*
X164434229Y-82838416D01*
X164435443Y-82835370D01*
X164447521Y-82789011D01*
X164455721Y-82726361D01*
X164459881Y-82652927D01*
X164459839Y-82574217D01*
X164455431Y-82495739D01*
X164446495Y-82423000D01*
X164445846Y-82419073D01*
X164438139Y-82370257D01*
X164434527Y-82338005D01*
X164435124Y-82317008D01*
X164440046Y-82301954D01*
X164449404Y-82287534D01*
X164450275Y-82286364D01*
X164480649Y-82261847D01*
X164516150Y-82257054D01*
X164550731Y-82272860D01*
X164555187Y-82277406D01*
X164570327Y-82307020D01*
X164583450Y-82354002D01*
X164594250Y-82414306D01*
X164602419Y-82483888D01*
X164607649Y-82558703D01*
X164609633Y-82634706D01*
X164608064Y-82707853D01*
X164602634Y-82774100D01*
X164593036Y-82829400D01*
X164578175Y-82880283D01*
X164545042Y-82951595D01*
X164502360Y-83002752D01*
X164450295Y-83033575D01*
X164389017Y-83043889D01*
X164357768Y-83042952D01*
X164332971Y-83037160D01*
X164311301Y-83022353D01*
X164283951Y-82994380D01*
X164276622Y-82986402D01*
X164255719Y-82962692D01*
X164238749Y-82940298D01*
X164224795Y-82916265D01*
X164212944Y-82887637D01*
X164202280Y-82851460D01*
X164191889Y-82804780D01*
X164180854Y-82744641D01*
X164168262Y-82668090D01*
X164153196Y-82572171D01*
X164150162Y-82553808D01*
X164136542Y-82491478D01*
X164120808Y-82446260D01*
X164103737Y-82419976D01*
X164086103Y-82414447D01*
X164081832Y-82417068D01*
X164066767Y-82435000D01*
X164050133Y-82463126D01*
X164044143Y-82475926D01*
X164036950Y-82497224D01*
X164032173Y-82523610D01*
X164029354Y-82559454D01*
X164028036Y-82609128D01*
X164027763Y-82677000D01*
X164027836Y-82694785D01*
X164028947Y-82762406D01*
X164031172Y-82827345D01*
X164034238Y-82882970D01*
X164037873Y-82922651D01*
X164041941Y-82958162D01*
X164042724Y-82987415D01*
X164038124Y-83006315D01*
X164027449Y-83021429D01*
X164023856Y-83025085D01*
X163992082Y-83041427D01*
X163956428Y-83040107D01*
X163925810Y-83021150D01*
X163914204Y-83000780D01*
X163901509Y-82964796D01*
X163891459Y-82922372D01*
X163890860Y-82918922D01*
X163885644Y-82876252D01*
X163881270Y-82818866D01*
X163878182Y-82753849D01*
X163876823Y-82688289D01*
X163876782Y-82672057D01*
X163879259Y-82573744D01*
X163887265Y-82493692D01*
X163901797Y-82428513D01*
X163923851Y-82374817D01*
X163954424Y-82329216D01*
X163994514Y-82288323D01*
X164020741Y-82268202D01*
X164050288Y-82256576D01*
X164090005Y-82253667D01*
X164101974Y-82253808D01*
G36*
X166234533Y-77594755D02*
G01*
X166200637Y-77594261D01*
X166125798Y-77590632D01*
X166063599Y-77583022D01*
X166007016Y-77570688D01*
X165880924Y-77526313D01*
X165766321Y-77463400D01*
X165665432Y-77383238D01*
X165579076Y-77286740D01*
X165508068Y-77174822D01*
X165453224Y-77048397D01*
X165415362Y-76908378D01*
X165409649Y-76872149D01*
X165403687Y-76793155D01*
X165403354Y-76704841D01*
X165408341Y-76615075D01*
X165418334Y-76531722D01*
X165423453Y-76507648D01*
X165966617Y-76507648D01*
X165969460Y-76583011D01*
X165981380Y-76643743D01*
X166003963Y-76695452D01*
X166038789Y-76743746D01*
X166043202Y-76748803D01*
X166098840Y-76797272D01*
X166162667Y-76825459D01*
X166237718Y-76834752D01*
X166309307Y-76827520D01*
X166372355Y-76802796D01*
X166430242Y-76758249D01*
X166477192Y-76703319D01*
X166517039Y-76630894D01*
X166544737Y-76544340D01*
X166560904Y-76441670D01*
X166566158Y-76320894D01*
X166566143Y-76312007D01*
X166565345Y-76256660D01*
X166563512Y-76209736D01*
X166560889Y-76175953D01*
X166557726Y-76160028D01*
X166551259Y-76155943D01*
X166529125Y-76151572D01*
X166490012Y-76148604D01*
X166432061Y-76146914D01*
X166353414Y-76146378D01*
X166157538Y-76146378D01*
X166101027Y-76191048D01*
X166085788Y-76203785D01*
X166043156Y-76250604D01*
X166007328Y-76311255D01*
X166002150Y-76321897D01*
X165985255Y-76360676D01*
X165975091Y-76395692D01*
X165969675Y-76435722D01*
X165967022Y-76489541D01*
X165966617Y-76507648D01*
X165423453Y-76507648D01*
X165433022Y-76462651D01*
X165463251Y-76376187D01*
X165517943Y-76266286D01*
X165585457Y-76168956D01*
X165636444Y-76106867D01*
X165540378Y-76103605D01*
X165444311Y-76100343D01*
X165444311Y-75677450D01*
X165444314Y-75666543D01*
X165444620Y-75572056D01*
X165445384Y-75485331D01*
X165446549Y-75408837D01*
X165448058Y-75345043D01*
X165449853Y-75296418D01*
X165451879Y-75265433D01*
X165454078Y-75254556D01*
X165454537Y-75254578D01*
X165470090Y-75261614D01*
X165492929Y-75277434D01*
X165498362Y-75281734D01*
X165512394Y-75292777D01*
X165525814Y-75302311D01*
X165540278Y-75310461D01*
X165557444Y-75317352D01*
X165578966Y-75323111D01*
X165606502Y-75327862D01*
X165641708Y-75331731D01*
X165686240Y-75334844D01*
X165741754Y-75337325D01*
X165809907Y-75339300D01*
X165892355Y-75340894D01*
X165990754Y-75342234D01*
X166106761Y-75343444D01*
X166242032Y-75344649D01*
X166398222Y-75345975D01*
X166540988Y-75347228D01*
X166686058Y-75348651D01*
X166811973Y-75350176D01*
X166920564Y-75351933D01*
X167013666Y-75354051D01*
X167093109Y-75356660D01*
X167160727Y-75359890D01*
X167218351Y-75363869D01*
X167267815Y-75368728D01*
X167310950Y-75374597D01*
X167349590Y-75381604D01*
X167385566Y-75389880D01*
X167420711Y-75399554D01*
X167456858Y-75410756D01*
X167495839Y-75423616D01*
X167538909Y-75439090D01*
X167631129Y-75481994D01*
X167710901Y-75535735D01*
X167785035Y-75604576D01*
X167848595Y-75682185D01*
X167910275Y-75786761D01*
X167957798Y-75906244D01*
X167991433Y-76041508D01*
X168011448Y-76193426D01*
X168018111Y-76362872D01*
X168017713Y-76420890D01*
X168015665Y-76486398D01*
X168011296Y-76547693D01*
X168003965Y-76609097D01*
X167993031Y-76674932D01*
X167977853Y-76749520D01*
X167957791Y-76837184D01*
X167932203Y-76942245D01*
X167925180Y-76970806D01*
X167907224Y-77046054D01*
X167891180Y-77116388D01*
X167877972Y-77177567D01*
X167868526Y-77225354D01*
X167863769Y-77255511D01*
X167860090Y-77283783D01*
X167854813Y-77310060D01*
X167850058Y-77320059D01*
X167841219Y-77316952D01*
X167813928Y-77306194D01*
X167771094Y-77288864D01*
X167715575Y-77266126D01*
X167650228Y-77239147D01*
X167577911Y-77209090D01*
X167562121Y-77202493D01*
X167471516Y-77163907D01*
X167401783Y-77132768D01*
X167352595Y-77108917D01*
X167323626Y-77092198D01*
X167314548Y-77082454D01*
X167316595Y-77074766D01*
X167326240Y-77048415D01*
X167341810Y-77009982D01*
X167361185Y-76964822D01*
X167399186Y-76870293D01*
X167440220Y-76733480D01*
X167465388Y-76592289D01*
X167469389Y-76554314D01*
X167471553Y-76451059D01*
X167458378Y-76363952D01*
X167429244Y-76292129D01*
X167383534Y-76234731D01*
X167320628Y-76190896D01*
X167239908Y-76159762D01*
X167140755Y-76140470D01*
X167081776Y-76133050D01*
X167088555Y-76294936D01*
X167090187Y-76421495D01*
X167083806Y-76572951D01*
X167069223Y-76721396D01*
X167047118Y-76857578D01*
X167032179Y-76922245D01*
X166989259Y-77054490D01*
X166932660Y-77176762D01*
X166863983Y-77286685D01*
X166784830Y-77381883D01*
X166696804Y-77459980D01*
X166601507Y-77518599D01*
X166549136Y-77542595D01*
X166478410Y-77568232D01*
X166407188Y-77584478D01*
X166328288Y-77592822D01*
X166237718Y-77594690D01*
X166234533Y-77594755D01*
G37*
X166234533Y-77594755D02*
X166200637Y-77594261D01*
X166125798Y-77590632D01*
X166063599Y-77583022D01*
X166007016Y-77570688D01*
X165880924Y-77526313D01*
X165766321Y-77463400D01*
X165665432Y-77383238D01*
X165579076Y-77286740D01*
X165508068Y-77174822D01*
X165453224Y-77048397D01*
X165415362Y-76908378D01*
X165409649Y-76872149D01*
X165403687Y-76793155D01*
X165403354Y-76704841D01*
X165408341Y-76615075D01*
X165418334Y-76531722D01*
X165423453Y-76507648D01*
X165966617Y-76507648D01*
X165969460Y-76583011D01*
X165981380Y-76643743D01*
X166003963Y-76695452D01*
X166038789Y-76743746D01*
X166043202Y-76748803D01*
X166098840Y-76797272D01*
X166162667Y-76825459D01*
X166237718Y-76834752D01*
X166309307Y-76827520D01*
X166372355Y-76802796D01*
X166430242Y-76758249D01*
X166477192Y-76703319D01*
X166517039Y-76630894D01*
X166544737Y-76544340D01*
X166560904Y-76441670D01*
X166566158Y-76320894D01*
X166566143Y-76312007D01*
X166565345Y-76256660D01*
X166563512Y-76209736D01*
X166560889Y-76175953D01*
X166557726Y-76160028D01*
X166551259Y-76155943D01*
X166529125Y-76151572D01*
X166490012Y-76148604D01*
X166432061Y-76146914D01*
X166353414Y-76146378D01*
X166157538Y-76146378D01*
X166101027Y-76191048D01*
X166085788Y-76203785D01*
X166043156Y-76250604D01*
X166007328Y-76311255D01*
X166002150Y-76321897D01*
X165985255Y-76360676D01*
X165975091Y-76395692D01*
X165969675Y-76435722D01*
X165967022Y-76489541D01*
X165966617Y-76507648D01*
X165423453Y-76507648D01*
X165433022Y-76462651D01*
X165463251Y-76376187D01*
X165517943Y-76266286D01*
X165585457Y-76168956D01*
X165636444Y-76106867D01*
X165540378Y-76103605D01*
X165444311Y-76100343D01*
X165444311Y-75677450D01*
X165444314Y-75666543D01*
X165444620Y-75572056D01*
X165445384Y-75485331D01*
X165446549Y-75408837D01*
X165448058Y-75345043D01*
X165449853Y-75296418D01*
X165451879Y-75265433D01*
X165454078Y-75254556D01*
X165454537Y-75254578D01*
X165470090Y-75261614D01*
X165492929Y-75277434D01*
X165498362Y-75281734D01*
X165512394Y-75292777D01*
X165525814Y-75302311D01*
X165540278Y-75310461D01*
X165557444Y-75317352D01*
X165578966Y-75323111D01*
X165606502Y-75327862D01*
X165641708Y-75331731D01*
X165686240Y-75334844D01*
X165741754Y-75337325D01*
X165809907Y-75339300D01*
X165892355Y-75340894D01*
X165990754Y-75342234D01*
X166106761Y-75343444D01*
X166242032Y-75344649D01*
X166398222Y-75345975D01*
X166540988Y-75347228D01*
X166686058Y-75348651D01*
X166811973Y-75350176D01*
X166920564Y-75351933D01*
X167013666Y-75354051D01*
X167093109Y-75356660D01*
X167160727Y-75359890D01*
X167218351Y-75363869D01*
X167267815Y-75368728D01*
X167310950Y-75374597D01*
X167349590Y-75381604D01*
X167385566Y-75389880D01*
X167420711Y-75399554D01*
X167456858Y-75410756D01*
X167495839Y-75423616D01*
X167538909Y-75439090D01*
X167631129Y-75481994D01*
X167710901Y-75535735D01*
X167785035Y-75604576D01*
X167848595Y-75682185D01*
X167910275Y-75786761D01*
X167957798Y-75906244D01*
X167991433Y-76041508D01*
X168011448Y-76193426D01*
X168018111Y-76362872D01*
X168017713Y-76420890D01*
X168015665Y-76486398D01*
X168011296Y-76547693D01*
X168003965Y-76609097D01*
X167993031Y-76674932D01*
X167977853Y-76749520D01*
X167957791Y-76837184D01*
X167932203Y-76942245D01*
X167925180Y-76970806D01*
X167907224Y-77046054D01*
X167891180Y-77116388D01*
X167877972Y-77177567D01*
X167868526Y-77225354D01*
X167863769Y-77255511D01*
X167860090Y-77283783D01*
X167854813Y-77310060D01*
X167850058Y-77320059D01*
X167841219Y-77316952D01*
X167813928Y-77306194D01*
X167771094Y-77288864D01*
X167715575Y-77266126D01*
X167650228Y-77239147D01*
X167577911Y-77209090D01*
X167562121Y-77202493D01*
X167471516Y-77163907D01*
X167401783Y-77132768D01*
X167352595Y-77108917D01*
X167323626Y-77092198D01*
X167314548Y-77082454D01*
X167316595Y-77074766D01*
X167326240Y-77048415D01*
X167341810Y-77009982D01*
X167361185Y-76964822D01*
X167399186Y-76870293D01*
X167440220Y-76733480D01*
X167465388Y-76592289D01*
X167469389Y-76554314D01*
X167471553Y-76451059D01*
X167458378Y-76363952D01*
X167429244Y-76292129D01*
X167383534Y-76234731D01*
X167320628Y-76190896D01*
X167239908Y-76159762D01*
X167140755Y-76140470D01*
X167081776Y-76133050D01*
X167088555Y-76294936D01*
X167090187Y-76421495D01*
X167083806Y-76572951D01*
X167069223Y-76721396D01*
X167047118Y-76857578D01*
X167032179Y-76922245D01*
X166989259Y-77054490D01*
X166932660Y-77176762D01*
X166863983Y-77286685D01*
X166784830Y-77381883D01*
X166696804Y-77459980D01*
X166601507Y-77518599D01*
X166549136Y-77542595D01*
X166478410Y-77568232D01*
X166407188Y-77584478D01*
X166328288Y-77592822D01*
X166237718Y-77594690D01*
X166234533Y-77594755D01*
G36*
X164317706Y-81768284D02*
G01*
X164395615Y-81768539D01*
X164455625Y-81769183D01*
X164500352Y-81770387D01*
X164532415Y-81772324D01*
X164554429Y-81775164D01*
X164569013Y-81779079D01*
X164578782Y-81784242D01*
X164586355Y-81790822D01*
X164605377Y-81820006D01*
X164604537Y-81853137D01*
X164581224Y-81887291D01*
X164553515Y-81915000D01*
X164240463Y-81915000D01*
X164156433Y-81914959D01*
X164082211Y-81914701D01*
X164025459Y-81914030D01*
X163983488Y-81912752D01*
X163953611Y-81910673D01*
X163933139Y-81907599D01*
X163919386Y-81903334D01*
X163909663Y-81897684D01*
X163901283Y-81890455D01*
X163879819Y-81858991D01*
X163878053Y-81823826D01*
X163897733Y-81790822D01*
X163903602Y-81785516D01*
X163912686Y-81780066D01*
X163926027Y-81775900D01*
X163946243Y-81772846D01*
X163975951Y-81770732D01*
X164017768Y-81769386D01*
X164074311Y-81768638D01*
X164148198Y-81768314D01*
X164242044Y-81768245D01*
X164317706Y-81768284D01*
G37*
X164317706Y-81768284D02*
X164395615Y-81768539D01*
X164455625Y-81769183D01*
X164500352Y-81770387D01*
X164532415Y-81772324D01*
X164554429Y-81775164D01*
X164569013Y-81779079D01*
X164578782Y-81784242D01*
X164586355Y-81790822D01*
X164605377Y-81820006D01*
X164604537Y-81853137D01*
X164581224Y-81887291D01*
X164553515Y-81915000D01*
X164240463Y-81915000D01*
X164156433Y-81914959D01*
X164082211Y-81914701D01*
X164025459Y-81914030D01*
X163983488Y-81912752D01*
X163953611Y-81910673D01*
X163933139Y-81907599D01*
X163919386Y-81903334D01*
X163909663Y-81897684D01*
X163901283Y-81890455D01*
X163879819Y-81858991D01*
X163878053Y-81823826D01*
X163897733Y-81790822D01*
X163903602Y-81785516D01*
X163912686Y-81780066D01*
X163926027Y-81775900D01*
X163946243Y-81772846D01*
X163975951Y-81770732D01*
X164017768Y-81769386D01*
X164074311Y-81768638D01*
X164148198Y-81768314D01*
X164242044Y-81768245D01*
X164317706Y-81768284D01*
G36*
X165734016Y-77602076D02*
G01*
X165753921Y-77613250D01*
X165789580Y-77634134D01*
X165838541Y-77663265D01*
X165898354Y-77699181D01*
X165966567Y-77740420D01*
X166040729Y-77785517D01*
X166337992Y-77966785D01*
X166293461Y-78013315D01*
X166215135Y-78104723D01*
X166140561Y-78218334D01*
X166086526Y-78336122D01*
X166053710Y-78456559D01*
X166042789Y-78578117D01*
X166044132Y-78619585D01*
X166062388Y-78737080D01*
X166101383Y-78847089D01*
X166160330Y-78948430D01*
X166238443Y-79039921D01*
X166334936Y-79120380D01*
X166449022Y-79188627D01*
X166483276Y-79204908D01*
X166606760Y-79250982D01*
X166745082Y-79286106D01*
X166894439Y-79310197D01*
X167051027Y-79323173D01*
X167211044Y-79324949D01*
X167370686Y-79315443D01*
X167526150Y-79294572D01*
X167673634Y-79262252D01*
X167809333Y-79218399D01*
X167895924Y-79180982D01*
X168009312Y-79116185D01*
X168102930Y-79040772D01*
X168177041Y-78954418D01*
X168231906Y-78856795D01*
X168267788Y-78747577D01*
X168284949Y-78626439D01*
X168286120Y-78557038D01*
X168271859Y-78434168D01*
X168236759Y-78318664D01*
X168181318Y-78211953D01*
X168106036Y-78115464D01*
X168091560Y-78099720D01*
X168065038Y-78069150D01*
X168047862Y-78046809D01*
X168043213Y-78036691D01*
X168045403Y-78034706D01*
X168064279Y-78020241D01*
X168097603Y-77996400D01*
X168142620Y-77965029D01*
X168196575Y-77927974D01*
X168256715Y-77887083D01*
X168320282Y-77844202D01*
X168384524Y-77801178D01*
X168446685Y-77759857D01*
X168504009Y-77722086D01*
X168553743Y-77689712D01*
X168593132Y-77664582D01*
X168619420Y-77648542D01*
X168629853Y-77643439D01*
X168634059Y-77648050D01*
X168639067Y-77667267D01*
X168641614Y-77676838D01*
X168652751Y-77704809D01*
X168671198Y-77746448D01*
X168695275Y-77797995D01*
X168723301Y-77855690D01*
X168728846Y-77866957D01*
X168808111Y-78044687D01*
X168867615Y-78214490D01*
X168907755Y-78378430D01*
X168928929Y-78538571D01*
X168931534Y-78696977D01*
X168915967Y-78855711D01*
X168898477Y-78951268D01*
X168853436Y-79115558D01*
X168790344Y-79269589D01*
X168708085Y-79415509D01*
X168605543Y-79555466D01*
X168481601Y-79691608D01*
X168436339Y-79735473D01*
X168304135Y-79847758D01*
X168166168Y-79940972D01*
X168018250Y-80017719D01*
X167856197Y-80080603D01*
X167844609Y-80084420D01*
X167658608Y-80134507D01*
X167462479Y-80167899D01*
X167260432Y-80184584D01*
X167056675Y-80184551D01*
X166855419Y-80167791D01*
X166660872Y-80134292D01*
X166477244Y-80084044D01*
X166359947Y-80040190D01*
X166197049Y-79962348D01*
X166043134Y-79868828D01*
X165901329Y-79761822D01*
X165774761Y-79643519D01*
X165666559Y-79516111D01*
X165613880Y-79438606D01*
X165544250Y-79311725D01*
X165485532Y-79174243D01*
X165440413Y-79032716D01*
X165411578Y-78893702D01*
X165409894Y-78879597D01*
X165406566Y-78836153D01*
X165403725Y-78778723D01*
X165401627Y-78713122D01*
X165400532Y-78645167D01*
X165402860Y-78518378D01*
X165415864Y-78370673D01*
X165440867Y-78232779D01*
X165478682Y-78099014D01*
X165487111Y-78075562D01*
X165506592Y-78027612D01*
X165531527Y-77971140D01*
X165560278Y-77909379D01*
X165591210Y-77845563D01*
X165622685Y-77782926D01*
X165653066Y-77724703D01*
X165680717Y-77674127D01*
X165704001Y-77634433D01*
X165721282Y-77608854D01*
X165730921Y-77600625D01*
X165734016Y-77602076D01*
G37*
X165734016Y-77602076D02*
X165753921Y-77613250D01*
X165789580Y-77634134D01*
X165838541Y-77663265D01*
X165898354Y-77699181D01*
X165966567Y-77740420D01*
X166040729Y-77785517D01*
X166337992Y-77966785D01*
X166293461Y-78013315D01*
X166215135Y-78104723D01*
X166140561Y-78218334D01*
X166086526Y-78336122D01*
X166053710Y-78456559D01*
X166042789Y-78578117D01*
X166044132Y-78619585D01*
X166062388Y-78737080D01*
X166101383Y-78847089D01*
X166160330Y-78948430D01*
X166238443Y-79039921D01*
X166334936Y-79120380D01*
X166449022Y-79188627D01*
X166483276Y-79204908D01*
X166606760Y-79250982D01*
X166745082Y-79286106D01*
X166894439Y-79310197D01*
X167051027Y-79323173D01*
X167211044Y-79324949D01*
X167370686Y-79315443D01*
X167526150Y-79294572D01*
X167673634Y-79262252D01*
X167809333Y-79218399D01*
X167895924Y-79180982D01*
X168009312Y-79116185D01*
X168102930Y-79040772D01*
X168177041Y-78954418D01*
X168231906Y-78856795D01*
X168267788Y-78747577D01*
X168284949Y-78626439D01*
X168286120Y-78557038D01*
X168271859Y-78434168D01*
X168236759Y-78318664D01*
X168181318Y-78211953D01*
X168106036Y-78115464D01*
X168091560Y-78099720D01*
X168065038Y-78069150D01*
X168047862Y-78046809D01*
X168043213Y-78036691D01*
X168045403Y-78034706D01*
X168064279Y-78020241D01*
X168097603Y-77996400D01*
X168142620Y-77965029D01*
X168196575Y-77927974D01*
X168256715Y-77887083D01*
X168320282Y-77844202D01*
X168384524Y-77801178D01*
X168446685Y-77759857D01*
X168504009Y-77722086D01*
X168553743Y-77689712D01*
X168593132Y-77664582D01*
X168619420Y-77648542D01*
X168629853Y-77643439D01*
X168634059Y-77648050D01*
X168639067Y-77667267D01*
X168641614Y-77676838D01*
X168652751Y-77704809D01*
X168671198Y-77746448D01*
X168695275Y-77797995D01*
X168723301Y-77855690D01*
X168728846Y-77866957D01*
X168808111Y-78044687D01*
X168867615Y-78214490D01*
X168907755Y-78378430D01*
X168928929Y-78538571D01*
X168931534Y-78696977D01*
X168915967Y-78855711D01*
X168898477Y-78951268D01*
X168853436Y-79115558D01*
X168790344Y-79269589D01*
X168708085Y-79415509D01*
X168605543Y-79555466D01*
X168481601Y-79691608D01*
X168436339Y-79735473D01*
X168304135Y-79847758D01*
X168166168Y-79940972D01*
X168018250Y-80017719D01*
X167856197Y-80080603D01*
X167844609Y-80084420D01*
X167658608Y-80134507D01*
X167462479Y-80167899D01*
X167260432Y-80184584D01*
X167056675Y-80184551D01*
X166855419Y-80167791D01*
X166660872Y-80134292D01*
X166477244Y-80084044D01*
X166359947Y-80040190D01*
X166197049Y-79962348D01*
X166043134Y-79868828D01*
X165901329Y-79761822D01*
X165774761Y-79643519D01*
X165666559Y-79516111D01*
X165613880Y-79438606D01*
X165544250Y-79311725D01*
X165485532Y-79174243D01*
X165440413Y-79032716D01*
X165411578Y-78893702D01*
X165409894Y-78879597D01*
X165406566Y-78836153D01*
X165403725Y-78778723D01*
X165401627Y-78713122D01*
X165400532Y-78645167D01*
X165402860Y-78518378D01*
X165415864Y-78370673D01*
X165440867Y-78232779D01*
X165478682Y-78099014D01*
X165487111Y-78075562D01*
X165506592Y-78027612D01*
X165531527Y-77971140D01*
X165560278Y-77909379D01*
X165591210Y-77845563D01*
X165622685Y-77782926D01*
X165653066Y-77724703D01*
X165680717Y-77674127D01*
X165704001Y-77634433D01*
X165721282Y-77608854D01*
X165730921Y-77600625D01*
X165734016Y-77602076D01*
G36*
X163964825Y-78050163D02*
G01*
X163941905Y-78047235D01*
X163926103Y-78043158D01*
X163914681Y-78037743D01*
X163904900Y-78030803D01*
X163875155Y-78007406D01*
X163875554Y-77896156D01*
X164021911Y-77896156D01*
X164462178Y-77896156D01*
X164461730Y-77808667D01*
X164459254Y-77741747D01*
X164448002Y-77649349D01*
X164428463Y-77570034D01*
X164401489Y-77508060D01*
X164380760Y-77477120D01*
X164350994Y-77449000D01*
X164308566Y-77425660D01*
X164292600Y-77418533D01*
X164260098Y-77406709D01*
X164235667Y-77404279D01*
X164210939Y-77409892D01*
X164195061Y-77415618D01*
X164135153Y-77448548D01*
X164089400Y-77495886D01*
X164056264Y-77559652D01*
X164034210Y-77641861D01*
X164033708Y-77644655D01*
X164027745Y-77690940D01*
X164023517Y-77747336D01*
X164021911Y-77802274D01*
X164021911Y-77896156D01*
X163875554Y-77896156D01*
X163875749Y-77841714D01*
X163876047Y-77806918D01*
X163879478Y-77708435D01*
X163887161Y-77627473D01*
X163899718Y-77560379D01*
X163917773Y-77503496D01*
X163941948Y-77453169D01*
X163943865Y-77449810D01*
X163980583Y-77391998D01*
X164017549Y-77349644D01*
X164061034Y-77316828D01*
X164117311Y-77287628D01*
X164126927Y-77283346D01*
X164190113Y-77260769D01*
X164245491Y-77253797D01*
X164300517Y-77262399D01*
X164362649Y-77286541D01*
X164364342Y-77287337D01*
X164433764Y-77327788D01*
X164490362Y-77378473D01*
X164534930Y-77441198D01*
X164568259Y-77517774D01*
X164591139Y-77610009D01*
X164604364Y-77719712D01*
X164608725Y-77848691D01*
X164608730Y-77852263D01*
X164608590Y-77912283D01*
X164607554Y-77954214D01*
X164604960Y-77982328D01*
X164600147Y-78000897D01*
X164592456Y-78014194D01*
X164581224Y-78026491D01*
X164553515Y-78054200D01*
X164244080Y-78054200D01*
X164182474Y-78054175D01*
X164103689Y-78053950D01*
X164042979Y-78053332D01*
X164021911Y-78052775D01*
X163997604Y-78052133D01*
X163964825Y-78050163D01*
G37*
X163964825Y-78050163D02*
X163941905Y-78047235D01*
X163926103Y-78043158D01*
X163914681Y-78037743D01*
X163904900Y-78030803D01*
X163875155Y-78007406D01*
X163875554Y-77896156D01*
X164021911Y-77896156D01*
X164462178Y-77896156D01*
X164461730Y-77808667D01*
X164459254Y-77741747D01*
X164448002Y-77649349D01*
X164428463Y-77570034D01*
X164401489Y-77508060D01*
X164380760Y-77477120D01*
X164350994Y-77449000D01*
X164308566Y-77425660D01*
X164292600Y-77418533D01*
X164260098Y-77406709D01*
X164235667Y-77404279D01*
X164210939Y-77409892D01*
X164195061Y-77415618D01*
X164135153Y-77448548D01*
X164089400Y-77495886D01*
X164056264Y-77559652D01*
X164034210Y-77641861D01*
X164033708Y-77644655D01*
X164027745Y-77690940D01*
X164023517Y-77747336D01*
X164021911Y-77802274D01*
X164021911Y-77896156D01*
X163875554Y-77896156D01*
X163875749Y-77841714D01*
X163876047Y-77806918D01*
X163879478Y-77708435D01*
X163887161Y-77627473D01*
X163899718Y-77560379D01*
X163917773Y-77503496D01*
X163941948Y-77453169D01*
X163943865Y-77449810D01*
X163980583Y-77391998D01*
X164017549Y-77349644D01*
X164061034Y-77316828D01*
X164117311Y-77287628D01*
X164126927Y-77283346D01*
X164190113Y-77260769D01*
X164245491Y-77253797D01*
X164300517Y-77262399D01*
X164362649Y-77286541D01*
X164364342Y-77287337D01*
X164433764Y-77327788D01*
X164490362Y-77378473D01*
X164534930Y-77441198D01*
X164568259Y-77517774D01*
X164591139Y-77610009D01*
X164604364Y-77719712D01*
X164608725Y-77848691D01*
X164608730Y-77852263D01*
X164608590Y-77912283D01*
X164607554Y-77954214D01*
X164604960Y-77982328D01*
X164600147Y-78000897D01*
X164592456Y-78014194D01*
X164581224Y-78026491D01*
X164553515Y-78054200D01*
X164244080Y-78054200D01*
X164182474Y-78054175D01*
X164103689Y-78053950D01*
X164042979Y-78053332D01*
X164021911Y-78052775D01*
X163997604Y-78052133D01*
X163964825Y-78050163D01*
G36*
X164170162Y-80595060D02*
G01*
X164217544Y-80599780D01*
X164249647Y-80611470D01*
X164269200Y-80633239D01*
X164278930Y-80668198D01*
X164281567Y-80719456D01*
X164279839Y-80790123D01*
X164276827Y-80838743D01*
X164268634Y-80888939D01*
X164254581Y-80921433D01*
X164233346Y-80938892D01*
X164203606Y-80943983D01*
X164199064Y-80943877D01*
X164164270Y-80935175D01*
X164140853Y-80911165D01*
X164127653Y-80869900D01*
X164123511Y-80809431D01*
X164123511Y-80740956D01*
X164085159Y-80740956D01*
X164076024Y-80741006D01*
X164058773Y-80743227D01*
X164048479Y-80752494D01*
X164041541Y-80773875D01*
X164034359Y-80812436D01*
X164033425Y-80817910D01*
X164023522Y-80914860D01*
X164026441Y-81004852D01*
X164041171Y-81085760D01*
X164066701Y-81155459D01*
X164102022Y-81211824D01*
X164146121Y-81252729D01*
X164197988Y-81276051D01*
X164256612Y-81279663D01*
X164285506Y-81274145D01*
X164341396Y-81247461D01*
X164387055Y-81201273D01*
X164421892Y-81136291D01*
X164445310Y-81053229D01*
X164449759Y-81028555D01*
X164460258Y-80939226D01*
X164459029Y-80859419D01*
X164446094Y-80781326D01*
X164439304Y-80746183D01*
X164438287Y-80700745D01*
X164450818Y-80669430D01*
X164477605Y-80649277D01*
X164505852Y-80642893D01*
X164537076Y-80652379D01*
X164550501Y-80661708D01*
X164574033Y-80695943D01*
X164591905Y-80748565D01*
X164603401Y-80817081D01*
X164607808Y-80899000D01*
X164603821Y-80996150D01*
X164587506Y-81102157D01*
X164559455Y-81195969D01*
X164520548Y-81274765D01*
X164471666Y-81335719D01*
X164438805Y-81361789D01*
X164389606Y-81391297D01*
X164335748Y-81416568D01*
X164284581Y-81434218D01*
X164243456Y-81440858D01*
X164223741Y-81439298D01*
X164172408Y-81426357D01*
X164115882Y-81403194D01*
X164061965Y-81373302D01*
X164018461Y-81340173D01*
X164008113Y-81329977D01*
X163956338Y-81262892D01*
X163916446Y-81182766D01*
X163892044Y-81096556D01*
X163883932Y-81041592D01*
X163877327Y-80948139D01*
X163879414Y-80858358D01*
X163889660Y-80775869D01*
X163907530Y-80704286D01*
X163932492Y-80647228D01*
X163964012Y-80608311D01*
X163965988Y-80606936D01*
X163991214Y-80599848D01*
X164038465Y-80595609D01*
X164107929Y-80594200D01*
X164170162Y-80595060D01*
G37*
X164170162Y-80595060D02*
X164217544Y-80599780D01*
X164249647Y-80611470D01*
X164269200Y-80633239D01*
X164278930Y-80668198D01*
X164281567Y-80719456D01*
X164279839Y-80790123D01*
X164276827Y-80838743D01*
X164268634Y-80888939D01*
X164254581Y-80921433D01*
X164233346Y-80938892D01*
X164203606Y-80943983D01*
X164199064Y-80943877D01*
X164164270Y-80935175D01*
X164140853Y-80911165D01*
X164127653Y-80869900D01*
X164123511Y-80809431D01*
X164123511Y-80740956D01*
X164085159Y-80740956D01*
X164076024Y-80741006D01*
X164058773Y-80743227D01*
X164048479Y-80752494D01*
X164041541Y-80773875D01*
X164034359Y-80812436D01*
X164033425Y-80817910D01*
X164023522Y-80914860D01*
X164026441Y-81004852D01*
X164041171Y-81085760D01*
X164066701Y-81155459D01*
X164102022Y-81211824D01*
X164146121Y-81252729D01*
X164197988Y-81276051D01*
X164256612Y-81279663D01*
X164285506Y-81274145D01*
X164341396Y-81247461D01*
X164387055Y-81201273D01*
X164421892Y-81136291D01*
X164445310Y-81053229D01*
X164449759Y-81028555D01*
X164460258Y-80939226D01*
X164459029Y-80859419D01*
X164446094Y-80781326D01*
X164439304Y-80746183D01*
X164438287Y-80700745D01*
X164450818Y-80669430D01*
X164477605Y-80649277D01*
X164505852Y-80642893D01*
X164537076Y-80652379D01*
X164550501Y-80661708D01*
X164574033Y-80695943D01*
X164591905Y-80748565D01*
X164603401Y-80817081D01*
X164607808Y-80899000D01*
X164603821Y-80996150D01*
X164587506Y-81102157D01*
X164559455Y-81195969D01*
X164520548Y-81274765D01*
X164471666Y-81335719D01*
X164438805Y-81361789D01*
X164389606Y-81391297D01*
X164335748Y-81416568D01*
X164284581Y-81434218D01*
X164243456Y-81440858D01*
X164223741Y-81439298D01*
X164172408Y-81426357D01*
X164115882Y-81403194D01*
X164061965Y-81373302D01*
X164018461Y-81340173D01*
X164008113Y-81329977D01*
X163956338Y-81262892D01*
X163916446Y-81182766D01*
X163892044Y-81096556D01*
X163883932Y-81041592D01*
X163877327Y-80948139D01*
X163879414Y-80858358D01*
X163889660Y-80775869D01*
X163907530Y-80704286D01*
X163932492Y-80647228D01*
X163964012Y-80608311D01*
X163965988Y-80606936D01*
X163991214Y-80599848D01*
X164038465Y-80595609D01*
X164107929Y-80594200D01*
X164170162Y-80595060D01*
G36*
X164581224Y-72606798D02*
G01*
X164603467Y-72638177D01*
X164606156Y-72671406D01*
X164586355Y-72703267D01*
X164576585Y-72711553D01*
X164560693Y-72718965D01*
X164536725Y-72723302D01*
X164499852Y-72725338D01*
X164445244Y-72725845D01*
X164326711Y-72725845D01*
X164326711Y-73222556D01*
X164442224Y-73222556D01*
X164493922Y-73222994D01*
X164528446Y-73224958D01*
X164551022Y-73229474D01*
X164566874Y-73237567D01*
X164581224Y-73250265D01*
X164603467Y-73281643D01*
X164606156Y-73314872D01*
X164586355Y-73346734D01*
X164580165Y-73352366D01*
X164571959Y-73357456D01*
X164560183Y-73361543D01*
X164542724Y-73364721D01*
X164517470Y-73367087D01*
X164482310Y-73368738D01*
X164435131Y-73369769D01*
X164373823Y-73370277D01*
X164296273Y-73370359D01*
X164200369Y-73370109D01*
X164084000Y-73369625D01*
X164069825Y-73369557D01*
X164008063Y-73368971D01*
X163964380Y-73367648D01*
X163934999Y-73365103D01*
X163916145Y-73360848D01*
X163904041Y-73354396D01*
X163894911Y-73345262D01*
X163877494Y-73311804D01*
X163880396Y-73276856D01*
X163904900Y-73245953D01*
X163918103Y-73236944D01*
X163936639Y-73229492D01*
X163962667Y-73225124D01*
X164001213Y-73223069D01*
X164057300Y-73222556D01*
X164179955Y-73222556D01*
X164179955Y-72725845D01*
X164045129Y-72725845D01*
X164009338Y-72725772D01*
X163963008Y-72725009D01*
X163932474Y-72722833D01*
X163913443Y-72718536D01*
X163901626Y-72711412D01*
X163892729Y-72700755D01*
X163877659Y-72668504D01*
X163880327Y-72633217D01*
X163904900Y-72602486D01*
X163911155Y-72597831D01*
X163921679Y-72591895D01*
X163935609Y-72587364D01*
X163955683Y-72584048D01*
X163984640Y-72581759D01*
X164025220Y-72580308D01*
X164080160Y-72579505D01*
X164152201Y-72579162D01*
X164244080Y-72579089D01*
X164553515Y-72579089D01*
X164581224Y-72606798D01*
G37*
X164581224Y-72606798D02*
X164603467Y-72638177D01*
X164606156Y-72671406D01*
X164586355Y-72703267D01*
X164576585Y-72711553D01*
X164560693Y-72718965D01*
X164536725Y-72723302D01*
X164499852Y-72725338D01*
X164445244Y-72725845D01*
X164326711Y-72725845D01*
X164326711Y-73222556D01*
X164442224Y-73222556D01*
X164493922Y-73222994D01*
X164528446Y-73224958D01*
X164551022Y-73229474D01*
X164566874Y-73237567D01*
X164581224Y-73250265D01*
X164603467Y-73281643D01*
X164606156Y-73314872D01*
X164586355Y-73346734D01*
X164580165Y-73352366D01*
X164571959Y-73357456D01*
X164560183Y-73361543D01*
X164542724Y-73364721D01*
X164517470Y-73367087D01*
X164482310Y-73368738D01*
X164435131Y-73369769D01*
X164373823Y-73370277D01*
X164296273Y-73370359D01*
X164200369Y-73370109D01*
X164084000Y-73369625D01*
X164069825Y-73369557D01*
X164008063Y-73368971D01*
X163964380Y-73367648D01*
X163934999Y-73365103D01*
X163916145Y-73360848D01*
X163904041Y-73354396D01*
X163894911Y-73345262D01*
X163877494Y-73311804D01*
X163880396Y-73276856D01*
X163904900Y-73245953D01*
X163918103Y-73236944D01*
X163936639Y-73229492D01*
X163962667Y-73225124D01*
X164001213Y-73223069D01*
X164057300Y-73222556D01*
X164179955Y-73222556D01*
X164179955Y-72725845D01*
X164045129Y-72725845D01*
X164009338Y-72725772D01*
X163963008Y-72725009D01*
X163932474Y-72722833D01*
X163913443Y-72718536D01*
X163901626Y-72711412D01*
X163892729Y-72700755D01*
X163877659Y-72668504D01*
X163880327Y-72633217D01*
X163904900Y-72602486D01*
X163911155Y-72597831D01*
X163921679Y-72591895D01*
X163935609Y-72587364D01*
X163955683Y-72584048D01*
X163984640Y-72581759D01*
X164025220Y-72580308D01*
X164080160Y-72579505D01*
X164152201Y-72579162D01*
X164244080Y-72579089D01*
X164553515Y-72579089D01*
X164581224Y-72606798D01*
G36*
X164587353Y-74654673D02*
G01*
X164602123Y-74678386D01*
X164608933Y-74701400D01*
X164603051Y-74722406D01*
X164587353Y-74748127D01*
X164565773Y-74774778D01*
X163918316Y-74774778D01*
X163896736Y-74748127D01*
X163879261Y-74716767D01*
X163878425Y-74680966D01*
X163898918Y-74649528D01*
X163903584Y-74645652D01*
X163913051Y-74640186D01*
X163926733Y-74635979D01*
X163947252Y-74632867D01*
X163977232Y-74630687D01*
X164019296Y-74629276D01*
X164076068Y-74628471D01*
X164150170Y-74628107D01*
X164244227Y-74628022D01*
X164565773Y-74628022D01*
X164587353Y-74654673D01*
G37*
X164587353Y-74654673D02*
X164602123Y-74678386D01*
X164608933Y-74701400D01*
X164603051Y-74722406D01*
X164587353Y-74748127D01*
X164565773Y-74774778D01*
X163918316Y-74774778D01*
X163896736Y-74748127D01*
X163879261Y-74716767D01*
X163878425Y-74680966D01*
X163898918Y-74649528D01*
X163903584Y-74645652D01*
X163913051Y-74640186D01*
X163926733Y-74635979D01*
X163947252Y-74632867D01*
X163977232Y-74630687D01*
X164019296Y-74629276D01*
X164076068Y-74628471D01*
X164150170Y-74628107D01*
X164244227Y-74628022D01*
X164565773Y-74628022D01*
X164587353Y-74654673D01*
G36*
X164539030Y-78392873D02*
G01*
X164559061Y-78394027D01*
X164574854Y-78398824D01*
X164586910Y-78409632D01*
X164595733Y-78428817D01*
X164601825Y-78458745D01*
X164605689Y-78501783D01*
X164607826Y-78560299D01*
X164608740Y-78636657D01*
X164608933Y-78733226D01*
X164608933Y-79023406D01*
X164579189Y-79046803D01*
X164572505Y-79051752D01*
X164561934Y-79057596D01*
X164547847Y-79062057D01*
X164527522Y-79065321D01*
X164498235Y-79067574D01*
X164457263Y-79069002D01*
X164401883Y-79069792D01*
X164329372Y-79070129D01*
X164237006Y-79070200D01*
X164171089Y-79070171D01*
X164092772Y-79069939D01*
X164032504Y-79069319D01*
X163987607Y-79068126D01*
X163955398Y-79066179D01*
X163933200Y-79063294D01*
X163918331Y-79059288D01*
X163908111Y-79053979D01*
X163899862Y-79047183D01*
X163895205Y-79042668D01*
X163888718Y-79034438D01*
X163883806Y-79023078D01*
X163880251Y-79005810D01*
X163877833Y-78979855D01*
X163876333Y-78942436D01*
X163875533Y-78890773D01*
X163875213Y-78822089D01*
X163875155Y-78733606D01*
X163875162Y-78713931D01*
X163875428Y-78626906D01*
X163876194Y-78559254D01*
X163877608Y-78508299D01*
X163879820Y-78471367D01*
X163882978Y-78445783D01*
X163887231Y-78428871D01*
X163892729Y-78417957D01*
X163902715Y-78407464D01*
X163933832Y-78394203D01*
X163969720Y-78395386D01*
X164001267Y-78411550D01*
X164003543Y-78413739D01*
X164009811Y-78422427D01*
X164014477Y-78435769D01*
X164017773Y-78456752D01*
X164019932Y-78488363D01*
X164021186Y-78533590D01*
X164021769Y-78595420D01*
X164021911Y-78676839D01*
X164021911Y-78923445D01*
X164179955Y-78923445D01*
X164179955Y-78761006D01*
X164180036Y-78725338D01*
X164180833Y-78669568D01*
X164182838Y-78630430D01*
X164186479Y-78603976D01*
X164192188Y-78586259D01*
X164200393Y-78573329D01*
X164203577Y-78569686D01*
X164234552Y-78551278D01*
X164270888Y-78550644D01*
X164304507Y-78568183D01*
X164304576Y-78568245D01*
X164313202Y-78577916D01*
X164319258Y-78591209D01*
X164323189Y-78611917D01*
X164325444Y-78643828D01*
X164326469Y-78690734D01*
X164326711Y-78756424D01*
X164326711Y-78924571D01*
X164391622Y-78921186D01*
X164456533Y-78917800D01*
X164459586Y-78675723D01*
X164459914Y-78650707D01*
X164461394Y-78569087D01*
X164463778Y-78506768D01*
X164467773Y-78461154D01*
X164474087Y-78429652D01*
X164483426Y-78409667D01*
X164496497Y-78398604D01*
X164514008Y-78393869D01*
X164536665Y-78392867D01*
X164539030Y-78392873D01*
G37*
X164539030Y-78392873D02*
X164559061Y-78394027D01*
X164574854Y-78398824D01*
X164586910Y-78409632D01*
X164595733Y-78428817D01*
X164601825Y-78458745D01*
X164605689Y-78501783D01*
X164607826Y-78560299D01*
X164608740Y-78636657D01*
X164608933Y-78733226D01*
X164608933Y-79023406D01*
X164579189Y-79046803D01*
X164572505Y-79051752D01*
X164561934Y-79057596D01*
X164547847Y-79062057D01*
X164527522Y-79065321D01*
X164498235Y-79067574D01*
X164457263Y-79069002D01*
X164401883Y-79069792D01*
X164329372Y-79070129D01*
X164237006Y-79070200D01*
X164171089Y-79070171D01*
X164092772Y-79069939D01*
X164032504Y-79069319D01*
X163987607Y-79068126D01*
X163955398Y-79066179D01*
X163933200Y-79063294D01*
X163918331Y-79059288D01*
X163908111Y-79053979D01*
X163899862Y-79047183D01*
X163895205Y-79042668D01*
X163888718Y-79034438D01*
X163883806Y-79023078D01*
X163880251Y-79005810D01*
X163877833Y-78979855D01*
X163876333Y-78942436D01*
X163875533Y-78890773D01*
X163875213Y-78822089D01*
X163875155Y-78733606D01*
X163875162Y-78713931D01*
X163875428Y-78626906D01*
X163876194Y-78559254D01*
X163877608Y-78508299D01*
X163879820Y-78471367D01*
X163882978Y-78445783D01*
X163887231Y-78428871D01*
X163892729Y-78417957D01*
X163902715Y-78407464D01*
X163933832Y-78394203D01*
X163969720Y-78395386D01*
X164001267Y-78411550D01*
X164003543Y-78413739D01*
X164009811Y-78422427D01*
X164014477Y-78435769D01*
X164017773Y-78456752D01*
X164019932Y-78488363D01*
X164021186Y-78533590D01*
X164021769Y-78595420D01*
X164021911Y-78676839D01*
X164021911Y-78923445D01*
X164179955Y-78923445D01*
X164179955Y-78761006D01*
X164180036Y-78725338D01*
X164180833Y-78669568D01*
X164182838Y-78630430D01*
X164186479Y-78603976D01*
X164192188Y-78586259D01*
X164200393Y-78573329D01*
X164203577Y-78569686D01*
X164234552Y-78551278D01*
X164270888Y-78550644D01*
X164304507Y-78568183D01*
X164304576Y-78568245D01*
X164313202Y-78577916D01*
X164319258Y-78591209D01*
X164323189Y-78611917D01*
X164325444Y-78643828D01*
X164326469Y-78690734D01*
X164326711Y-78756424D01*
X164326711Y-78924571D01*
X164391622Y-78921186D01*
X164456533Y-78917800D01*
X164459586Y-78675723D01*
X164459914Y-78650707D01*
X164461394Y-78569087D01*
X164463778Y-78506768D01*
X164467773Y-78461154D01*
X164474087Y-78429652D01*
X164483426Y-78409667D01*
X164496497Y-78398604D01*
X164514008Y-78393869D01*
X164536665Y-78392867D01*
X164539030Y-78392873D01*
G36*
X163972440Y-83331610D02*
G01*
X163999333Y-83348689D01*
X164003941Y-83353668D01*
X164010228Y-83363443D01*
X164014854Y-83377559D01*
X164018070Y-83399054D01*
X164020130Y-83430968D01*
X164021288Y-83476342D01*
X164021798Y-83538213D01*
X164021911Y-83619622D01*
X164021911Y-83867978D01*
X164179955Y-83867978D01*
X164179955Y-83706801D01*
X164180101Y-83670983D01*
X164181824Y-83605359D01*
X164186259Y-83558118D01*
X164194363Y-83526383D01*
X164207094Y-83507277D01*
X164225408Y-83497923D01*
X164250262Y-83495445D01*
X164270518Y-83496242D01*
X164292344Y-83501494D01*
X164307696Y-83514288D01*
X164317691Y-83537628D01*
X164323447Y-83574517D01*
X164326081Y-83627959D01*
X164326711Y-83700958D01*
X164326711Y-83869105D01*
X164391622Y-83865719D01*
X164456533Y-83862334D01*
X164459582Y-83614617D01*
X164460461Y-83552026D01*
X164461905Y-83483565D01*
X164463836Y-83432661D01*
X164466486Y-83396408D01*
X164470090Y-83371901D01*
X164474879Y-83356235D01*
X164481087Y-83346506D01*
X164487490Y-83340491D01*
X164519172Y-83327482D01*
X164554858Y-83331043D01*
X164585916Y-83350818D01*
X164588839Y-83354069D01*
X164595190Y-83363049D01*
X164600043Y-83375153D01*
X164603597Y-83393159D01*
X164606054Y-83419847D01*
X164607615Y-83457997D01*
X164608482Y-83510386D01*
X164608854Y-83579794D01*
X164608933Y-83669001D01*
X164608917Y-83723734D01*
X164608725Y-83800831D01*
X164608140Y-83859777D01*
X164606949Y-83903364D01*
X164604936Y-83934383D01*
X164601888Y-83955625D01*
X164597591Y-83969882D01*
X164591828Y-83979945D01*
X164584388Y-83988606D01*
X164582707Y-83990391D01*
X164575168Y-83997635D01*
X164566150Y-84003277D01*
X164553016Y-84007517D01*
X164533128Y-84010556D01*
X164503849Y-84012594D01*
X164462542Y-84013830D01*
X164406569Y-84014465D01*
X164333293Y-84014700D01*
X164240077Y-84014734D01*
X164167287Y-84014697D01*
X164089111Y-84014448D01*
X164028897Y-84013812D01*
X163984018Y-84012615D01*
X163951848Y-84010684D01*
X163929761Y-84007846D01*
X163915130Y-84003927D01*
X163905330Y-83998755D01*
X163897733Y-83992156D01*
X163894556Y-83988822D01*
X163888446Y-83980300D01*
X163883771Y-83968298D01*
X163880341Y-83950087D01*
X163877964Y-83922940D01*
X163876448Y-83884129D01*
X163875602Y-83830924D01*
X163875235Y-83760598D01*
X163875155Y-83670422D01*
X163875167Y-83628314D01*
X163875349Y-83547167D01*
X163875902Y-83484675D01*
X163877018Y-83438109D01*
X163878887Y-83404741D01*
X163881702Y-83381844D01*
X163885654Y-83366688D01*
X163890934Y-83356546D01*
X163897733Y-83348689D01*
X163919333Y-83333963D01*
X163948533Y-83326111D01*
X163972440Y-83331610D01*
G37*
X163972440Y-83331610D02*
X163999333Y-83348689D01*
X164003941Y-83353668D01*
X164010228Y-83363443D01*
X164014854Y-83377559D01*
X164018070Y-83399054D01*
X164020130Y-83430968D01*
X164021288Y-83476342D01*
X164021798Y-83538213D01*
X164021911Y-83619622D01*
X164021911Y-83867978D01*
X164179955Y-83867978D01*
X164179955Y-83706801D01*
X164180101Y-83670983D01*
X164181824Y-83605359D01*
X164186259Y-83558118D01*
X164194363Y-83526383D01*
X164207094Y-83507277D01*
X164225408Y-83497923D01*
X164250262Y-83495445D01*
X164270518Y-83496242D01*
X164292344Y-83501494D01*
X164307696Y-83514288D01*
X164317691Y-83537628D01*
X164323447Y-83574517D01*
X164326081Y-83627959D01*
X164326711Y-83700958D01*
X164326711Y-83869105D01*
X164391622Y-83865719D01*
X164456533Y-83862334D01*
X164459582Y-83614617D01*
X164460461Y-83552026D01*
X164461905Y-83483565D01*
X164463836Y-83432661D01*
X164466486Y-83396408D01*
X164470090Y-83371901D01*
X164474879Y-83356235D01*
X164481087Y-83346506D01*
X164487490Y-83340491D01*
X164519172Y-83327482D01*
X164554858Y-83331043D01*
X164585916Y-83350818D01*
X164588839Y-83354069D01*
X164595190Y-83363049D01*
X164600043Y-83375153D01*
X164603597Y-83393159D01*
X164606054Y-83419847D01*
X164607615Y-83457997D01*
X164608482Y-83510386D01*
X164608854Y-83579794D01*
X164608933Y-83669001D01*
X164608917Y-83723734D01*
X164608725Y-83800831D01*
X164608140Y-83859777D01*
X164606949Y-83903364D01*
X164604936Y-83934383D01*
X164601888Y-83955625D01*
X164597591Y-83969882D01*
X164591828Y-83979945D01*
X164584388Y-83988606D01*
X164582707Y-83990391D01*
X164575168Y-83997635D01*
X164566150Y-84003277D01*
X164553016Y-84007517D01*
X164533128Y-84010556D01*
X164503849Y-84012594D01*
X164462542Y-84013830D01*
X164406569Y-84014465D01*
X164333293Y-84014700D01*
X164240077Y-84014734D01*
X164167287Y-84014697D01*
X164089111Y-84014448D01*
X164028897Y-84013812D01*
X163984018Y-84012615D01*
X163951848Y-84010684D01*
X163929761Y-84007846D01*
X163915130Y-84003927D01*
X163905330Y-83998755D01*
X163897733Y-83992156D01*
X163894556Y-83988822D01*
X163888446Y-83980300D01*
X163883771Y-83968298D01*
X163880341Y-83950087D01*
X163877964Y-83922940D01*
X163876448Y-83884129D01*
X163875602Y-83830924D01*
X163875235Y-83760598D01*
X163875155Y-83670422D01*
X163875167Y-83628314D01*
X163875349Y-83547167D01*
X163875902Y-83484675D01*
X163877018Y-83438109D01*
X163878887Y-83404741D01*
X163881702Y-83381844D01*
X163885654Y-83366688D01*
X163890934Y-83356546D01*
X163897733Y-83348689D01*
X163919333Y-83333963D01*
X163948533Y-83326111D01*
X163972440Y-83331610D01*
G36*
X164158221Y-79455435D02*
G01*
X164250849Y-79456352D01*
X164565801Y-79459667D01*
X164587367Y-79486318D01*
X164603559Y-79512383D01*
X164606330Y-79545241D01*
X164587377Y-79579772D01*
X164583792Y-79584084D01*
X164575263Y-79592216D01*
X164563671Y-79598245D01*
X164545765Y-79602606D01*
X164518294Y-79605734D01*
X164478006Y-79608063D01*
X164421649Y-79610029D01*
X164345971Y-79612067D01*
X164126122Y-79617711D01*
X164289916Y-79798334D01*
X164368549Y-79885072D01*
X164436942Y-79960843D01*
X164492292Y-80022980D01*
X164535662Y-80073078D01*
X164568119Y-80112735D01*
X164590727Y-80143548D01*
X164604552Y-80167114D01*
X164610657Y-80185030D01*
X164610108Y-80198893D01*
X164603971Y-80210301D01*
X164593309Y-80220850D01*
X164579189Y-80232136D01*
X164573228Y-80236589D01*
X164562732Y-80242588D01*
X164548907Y-80247167D01*
X164529002Y-80250519D01*
X164500268Y-80252833D01*
X164459955Y-80254301D01*
X164405313Y-80255113D01*
X164333593Y-80255460D01*
X164242044Y-80255534D01*
X164183514Y-80255511D01*
X164104427Y-80255292D01*
X164043484Y-80254683D01*
X163997938Y-80253492D01*
X163965037Y-80251529D01*
X163942032Y-80248603D01*
X163926174Y-80244523D01*
X163914714Y-80239097D01*
X163904900Y-80232136D01*
X163880507Y-80201708D01*
X163877628Y-80166765D01*
X163896718Y-80129784D01*
X163900193Y-80125600D01*
X163908721Y-80117424D01*
X163920272Y-80111364D01*
X163938104Y-80106981D01*
X163965476Y-80103839D01*
X164005646Y-80101502D01*
X164061872Y-80099531D01*
X164137411Y-80097489D01*
X164356542Y-80091845D01*
X164115901Y-79826556D01*
X164049125Y-79752722D01*
X163991009Y-79687542D01*
X163946051Y-79635348D01*
X163913129Y-79594273D01*
X163891121Y-79562455D01*
X163878906Y-79538026D01*
X163875361Y-79519124D01*
X163879364Y-79503883D01*
X163889793Y-79490439D01*
X163905526Y-79476927D01*
X163914009Y-79470682D01*
X163924587Y-79465050D01*
X163938745Y-79460839D01*
X163959197Y-79457887D01*
X163988658Y-79456032D01*
X164029839Y-79455113D01*
X164085456Y-79454968D01*
X164158221Y-79455435D01*
G37*
X164158221Y-79455435D02*
X164250849Y-79456352D01*
X164565801Y-79459667D01*
X164587367Y-79486318D01*
X164603559Y-79512383D01*
X164606330Y-79545241D01*
X164587377Y-79579772D01*
X164583792Y-79584084D01*
X164575263Y-79592216D01*
X164563671Y-79598245D01*
X164545765Y-79602606D01*
X164518294Y-79605734D01*
X164478006Y-79608063D01*
X164421649Y-79610029D01*
X164345971Y-79612067D01*
X164126122Y-79617711D01*
X164289916Y-79798334D01*
X164368549Y-79885072D01*
X164436942Y-79960843D01*
X164492292Y-80022980D01*
X164535662Y-80073078D01*
X164568119Y-80112735D01*
X164590727Y-80143548D01*
X164604552Y-80167114D01*
X164610657Y-80185030D01*
X164610108Y-80198893D01*
X164603971Y-80210301D01*
X164593309Y-80220850D01*
X164579189Y-80232136D01*
X164573228Y-80236589D01*
X164562732Y-80242588D01*
X164548907Y-80247167D01*
X164529002Y-80250519D01*
X164500268Y-80252833D01*
X164459955Y-80254301D01*
X164405313Y-80255113D01*
X164333593Y-80255460D01*
X164242044Y-80255534D01*
X164183514Y-80255511D01*
X164104427Y-80255292D01*
X164043484Y-80254683D01*
X163997938Y-80253492D01*
X163965037Y-80251529D01*
X163942032Y-80248603D01*
X163926174Y-80244523D01*
X163914714Y-80239097D01*
X163904900Y-80232136D01*
X163880507Y-80201708D01*
X163877628Y-80166765D01*
X163896718Y-80129784D01*
X163900193Y-80125600D01*
X163908721Y-80117424D01*
X163920272Y-80111364D01*
X163938104Y-80106981D01*
X163965476Y-80103839D01*
X164005646Y-80101502D01*
X164061872Y-80099531D01*
X164137411Y-80097489D01*
X164356542Y-80091845D01*
X164115901Y-79826556D01*
X164049125Y-79752722D01*
X163991009Y-79687542D01*
X163946051Y-79635348D01*
X163913129Y-79594273D01*
X163891121Y-79562455D01*
X163878906Y-79538026D01*
X163875361Y-79519124D01*
X163879364Y-79503883D01*
X163889793Y-79490439D01*
X163905526Y-79476927D01*
X163914009Y-79470682D01*
X163924587Y-79465050D01*
X163938745Y-79460839D01*
X163959197Y-79457887D01*
X163988658Y-79456032D01*
X164029839Y-79455113D01*
X164085456Y-79454968D01*
X164158221Y-79455435D01*
G36*
X169464470Y-80750136D02*
G01*
X169560780Y-80776399D01*
X169649506Y-80821418D01*
X169724581Y-80882373D01*
X169784359Y-80957184D01*
X169827191Y-81043768D01*
X169851429Y-81140043D01*
X169855424Y-81243928D01*
X169845150Y-81321562D01*
X169817947Y-81404313D01*
X169772516Y-81479406D01*
X169706698Y-81551298D01*
X169662433Y-81589846D01*
X169604039Y-81629256D01*
X169543414Y-81654446D01*
X169474135Y-81667861D01*
X169389778Y-81671948D01*
X169343693Y-81671669D01*
X169302550Y-81669460D01*
X169270418Y-81663894D01*
X169239878Y-81653586D01*
X169203511Y-81637148D01*
X169176272Y-81623200D01*
X169090571Y-81564665D01*
X169021383Y-81492619D01*
X168970259Y-81408947D01*
X168938750Y-81315531D01*
X168931775Y-81282434D01*
X168924906Y-81241960D01*
X168923081Y-81208999D01*
X168926053Y-81174698D01*
X168933574Y-81130200D01*
X168945998Y-81078934D01*
X168983888Y-80988434D01*
X169038164Y-80909345D01*
X169106230Y-80843528D01*
X169185489Y-80792840D01*
X169273346Y-80759140D01*
X169367205Y-80744286D01*
X169464470Y-80750136D01*
G37*
X169464470Y-80750136D02*
X169560780Y-80776399D01*
X169649506Y-80821418D01*
X169724581Y-80882373D01*
X169784359Y-80957184D01*
X169827191Y-81043768D01*
X169851429Y-81140043D01*
X169855424Y-81243928D01*
X169845150Y-81321562D01*
X169817947Y-81404313D01*
X169772516Y-81479406D01*
X169706698Y-81551298D01*
X169662433Y-81589846D01*
X169604039Y-81629256D01*
X169543414Y-81654446D01*
X169474135Y-81667861D01*
X169389778Y-81671948D01*
X169343693Y-81671669D01*
X169302550Y-81669460D01*
X169270418Y-81663894D01*
X169239878Y-81653586D01*
X169203511Y-81637148D01*
X169176272Y-81623200D01*
X169090571Y-81564665D01*
X169021383Y-81492619D01*
X168970259Y-81408947D01*
X168938750Y-81315531D01*
X168931775Y-81282434D01*
X168924906Y-81241960D01*
X168923081Y-81208999D01*
X168926053Y-81174698D01*
X168933574Y-81130200D01*
X168945998Y-81078934D01*
X168983888Y-80988434D01*
X169038164Y-80909345D01*
X169106230Y-80843528D01*
X169185489Y-80792840D01*
X169273346Y-80759140D01*
X169367205Y-80744286D01*
X169464470Y-80750136D01*
G36*
X168766208Y-85142614D02*
G01*
X168634989Y-85143059D01*
X168487784Y-85143362D01*
X168323651Y-85143548D01*
X168141648Y-85143642D01*
X167940835Y-85143671D01*
X167720268Y-85143661D01*
X167479008Y-85143636D01*
X167216111Y-85143622D01*
X167173960Y-85143622D01*
X166913332Y-85143646D01*
X166674204Y-85143685D01*
X166455640Y-85143708D01*
X166256705Y-85143687D01*
X166076465Y-85143593D01*
X165913985Y-85143395D01*
X165768330Y-85143063D01*
X165638566Y-85142569D01*
X165523757Y-85141883D01*
X165422970Y-85140976D01*
X165335270Y-85139817D01*
X165259721Y-85138378D01*
X165195389Y-85136629D01*
X165141339Y-85134540D01*
X165096637Y-85132083D01*
X165060348Y-85129227D01*
X165031537Y-85125943D01*
X165009269Y-85122202D01*
X164992610Y-85117974D01*
X164980625Y-85113229D01*
X164972379Y-85107939D01*
X164966938Y-85102073D01*
X164963366Y-85095602D01*
X164960730Y-85088497D01*
X164958094Y-85080728D01*
X164954523Y-85072266D01*
X164952855Y-85067908D01*
X164950889Y-85059395D01*
X164949089Y-85046694D01*
X164947445Y-85028885D01*
X164945953Y-85005049D01*
X164944603Y-84974266D01*
X164943389Y-84935617D01*
X164942303Y-84888182D01*
X164941444Y-84837296D01*
X165455600Y-84837296D01*
X165513217Y-84798523D01*
X165522107Y-84792432D01*
X165536931Y-84781976D01*
X165550578Y-84772579D01*
X165564235Y-84764183D01*
X165579089Y-84756733D01*
X165596330Y-84750173D01*
X165617145Y-84744446D01*
X165642720Y-84739495D01*
X165674245Y-84735266D01*
X165712907Y-84731701D01*
X165759893Y-84728744D01*
X165816392Y-84726340D01*
X165883591Y-84724431D01*
X165962678Y-84722962D01*
X166054840Y-84721876D01*
X166161266Y-84721118D01*
X166283143Y-84720630D01*
X166421659Y-84720358D01*
X166578001Y-84720243D01*
X166753358Y-84720231D01*
X166948918Y-84720265D01*
X167165867Y-84720289D01*
X167288487Y-84720280D01*
X167493553Y-84720243D01*
X167677884Y-84720227D01*
X167842666Y-84720288D01*
X167989084Y-84720484D01*
X168118326Y-84720870D01*
X168231578Y-84721505D01*
X168330025Y-84722444D01*
X168414856Y-84723745D01*
X168487256Y-84725464D01*
X168548411Y-84727659D01*
X168599508Y-84730385D01*
X168641733Y-84733701D01*
X168676273Y-84737662D01*
X168704314Y-84742325D01*
X168727042Y-84747747D01*
X168745644Y-84753986D01*
X168761307Y-84761097D01*
X168775216Y-84769138D01*
X168788559Y-84778166D01*
X168802521Y-84788236D01*
X168818289Y-84799407D01*
X168876133Y-84839197D01*
X168876133Y-83779314D01*
X168813034Y-83817311D01*
X168787995Y-83831993D01*
X168760414Y-83846531D01*
X168732300Y-83858627D01*
X168701449Y-83868532D01*
X168665656Y-83876494D01*
X168622717Y-83882761D01*
X168570426Y-83887582D01*
X168506581Y-83891206D01*
X168428975Y-83893881D01*
X168335406Y-83895857D01*
X168223667Y-83897382D01*
X168091555Y-83898704D01*
X167971566Y-83899613D01*
X167854937Y-83900020D01*
X167759469Y-83899767D01*
X167685444Y-83898857D01*
X167633145Y-83897293D01*
X167602851Y-83895079D01*
X167594844Y-83892220D01*
X167598142Y-83889161D01*
X167619592Y-83871006D01*
X167656111Y-83841275D01*
X167705558Y-83801639D01*
X167765793Y-83753771D01*
X167834673Y-83699343D01*
X167910057Y-83640027D01*
X167989804Y-83577495D01*
X168071772Y-83513421D01*
X168153820Y-83449475D01*
X168233806Y-83387331D01*
X168309589Y-83328661D01*
X168379027Y-83275137D01*
X168439979Y-83228430D01*
X168490304Y-83190214D01*
X168527860Y-83162161D01*
X168550505Y-83145943D01*
X168622788Y-83100635D01*
X168702537Y-83060661D01*
X168770812Y-83039130D01*
X168828156Y-83035827D01*
X168876133Y-83041116D01*
X168875883Y-81909356D01*
X168845278Y-81948867D01*
X168837911Y-81958248D01*
X168783562Y-82021183D01*
X168715741Y-82089997D01*
X168632484Y-82166596D01*
X168531822Y-82252888D01*
X168511153Y-82270052D01*
X168461591Y-82310833D01*
X168400674Y-82360588D01*
X168330102Y-82417955D01*
X168251576Y-82481569D01*
X168166796Y-82550069D01*
X168077463Y-82622090D01*
X167985278Y-82696270D01*
X167966298Y-82711517D01*
X167891940Y-82771246D01*
X167799152Y-82845653D01*
X167708612Y-82918131D01*
X167622022Y-82987314D01*
X167541082Y-83051841D01*
X167467494Y-83110347D01*
X167402956Y-83161470D01*
X167349171Y-83203847D01*
X167307838Y-83236115D01*
X167280658Y-83256910D01*
X167269332Y-83264869D01*
X167265229Y-83263111D01*
X167244666Y-83250230D01*
X167208439Y-83225885D01*
X167158176Y-83191247D01*
X167095508Y-83147486D01*
X167022064Y-83095775D01*
X166939473Y-83037284D01*
X166849364Y-82973184D01*
X166753369Y-82904646D01*
X166653115Y-82832843D01*
X166550232Y-82758944D01*
X166446350Y-82684121D01*
X166343099Y-82609545D01*
X166242108Y-82536387D01*
X166145006Y-82465819D01*
X166053423Y-82399011D01*
X165968989Y-82337135D01*
X165893333Y-82281361D01*
X165828084Y-82232862D01*
X165774872Y-82192807D01*
X165735327Y-82162369D01*
X165709974Y-82141944D01*
X165655705Y-82095899D01*
X165599225Y-82045612D01*
X165549331Y-81998815D01*
X165455600Y-81907651D01*
X165455600Y-83062090D01*
X165531800Y-83061456D01*
X165573840Y-83062574D01*
X165609666Y-83068304D01*
X165647228Y-83080890D01*
X165695423Y-83102568D01*
X165702103Y-83105789D01*
X165751641Y-83131188D01*
X165799631Y-83157996D01*
X165836534Y-83180917D01*
X165843166Y-83185485D01*
X165874407Y-83207516D01*
X165919346Y-83239693D01*
X165975853Y-83280457D01*
X166041796Y-83328245D01*
X166115043Y-83381498D01*
X166193464Y-83438655D01*
X166274928Y-83498155D01*
X166357302Y-83558437D01*
X166438456Y-83617940D01*
X166516258Y-83675105D01*
X166588577Y-83728370D01*
X166653282Y-83776174D01*
X166708241Y-83816957D01*
X166751324Y-83849158D01*
X166780398Y-83871216D01*
X166793333Y-83881571D01*
X166797649Y-83886044D01*
X166799688Y-83890236D01*
X166797074Y-83893643D01*
X166788014Y-83896325D01*
X166770715Y-83898341D01*
X166743386Y-83899748D01*
X166704235Y-83900605D01*
X166651467Y-83900970D01*
X166583293Y-83900903D01*
X166497918Y-83900460D01*
X166393551Y-83899702D01*
X166268400Y-83898685D01*
X166223700Y-83898308D01*
X166102605Y-83897169D01*
X166001312Y-83895972D01*
X165917738Y-83894636D01*
X165849796Y-83893077D01*
X165795401Y-83891215D01*
X165752468Y-83888966D01*
X165718911Y-83886248D01*
X165692645Y-83882979D01*
X165671584Y-83879078D01*
X165653643Y-83874461D01*
X165627230Y-83866192D01*
X165565228Y-83842583D01*
X165512427Y-83816685D01*
X165475355Y-83791535D01*
X165473925Y-83790339D01*
X165469576Y-83788168D01*
X165465974Y-83790328D01*
X165463049Y-83798644D01*
X165460731Y-83814940D01*
X165458949Y-83841041D01*
X165457633Y-83878771D01*
X165456714Y-83929956D01*
X165456122Y-83996420D01*
X165455785Y-84079987D01*
X165455635Y-84182483D01*
X165455600Y-84305732D01*
X165455600Y-84837296D01*
X164941444Y-84837296D01*
X164941339Y-84831043D01*
X164940489Y-84763279D01*
X164939747Y-84683971D01*
X164939103Y-84592199D01*
X164938553Y-84487044D01*
X164938087Y-84367587D01*
X164937700Y-84232908D01*
X164937384Y-84082088D01*
X164937131Y-83914206D01*
X164936934Y-83728345D01*
X164936787Y-83523583D01*
X164936682Y-83299002D01*
X164936611Y-83053682D01*
X164936568Y-82786704D01*
X164936563Y-82748321D01*
X164936520Y-82482922D01*
X164936475Y-82239050D01*
X164936452Y-82015783D01*
X164936476Y-81812196D01*
X164936570Y-81627367D01*
X164936757Y-81460373D01*
X164937061Y-81310290D01*
X164937396Y-81209445D01*
X165455600Y-81209445D01*
X165455651Y-81278356D01*
X165455909Y-81376607D01*
X165456363Y-81466030D01*
X165456990Y-81544333D01*
X165457765Y-81609223D01*
X165458665Y-81658411D01*
X165459666Y-81689604D01*
X165460743Y-81700511D01*
X165463963Y-81699322D01*
X165481548Y-81689176D01*
X165507842Y-81672040D01*
X165520309Y-81663540D01*
X165534378Y-81654329D01*
X165548649Y-81646233D01*
X165564521Y-81639185D01*
X165583391Y-81633117D01*
X165606659Y-81627961D01*
X165635722Y-81623651D01*
X165671979Y-81620119D01*
X165716830Y-81617297D01*
X165771672Y-81615118D01*
X165837903Y-81613514D01*
X165916923Y-81612419D01*
X166010129Y-81611765D01*
X166118921Y-81611484D01*
X166244697Y-81611509D01*
X166388855Y-81611772D01*
X166552793Y-81612206D01*
X166737911Y-81612745D01*
X166916768Y-81613279D01*
X167075626Y-81613805D01*
X167214684Y-81614350D01*
X167335335Y-81614945D01*
X167438972Y-81615619D01*
X167526989Y-81616403D01*
X167600777Y-81617326D01*
X167661731Y-81618419D01*
X167711243Y-81619712D01*
X167750707Y-81621235D01*
X167781516Y-81623019D01*
X167805062Y-81625092D01*
X167822740Y-81627486D01*
X167835941Y-81630230D01*
X167846060Y-81633356D01*
X167854489Y-81636892D01*
X167862625Y-81640791D01*
X167899456Y-81660438D01*
X167929609Y-81679225D01*
X167931092Y-81680272D01*
X167953341Y-81694602D01*
X167966298Y-81700511D01*
X167966751Y-81699504D01*
X167968197Y-81682305D01*
X167969520Y-81645656D01*
X167970684Y-81591962D01*
X167971653Y-81523630D01*
X167972389Y-81443064D01*
X167972858Y-81352670D01*
X167973022Y-81254853D01*
X167973022Y-80809195D01*
X166796155Y-80806120D01*
X165619289Y-80803045D01*
X165560378Y-80776407D01*
X165535817Y-80764485D01*
X165505566Y-80747246D01*
X165488440Y-80734074D01*
X165480409Y-80726076D01*
X165465507Y-80718378D01*
X165464235Y-80722260D01*
X165462209Y-80745520D01*
X165460374Y-80787874D01*
X165458773Y-80847132D01*
X165457451Y-80921107D01*
X165456452Y-81007610D01*
X165455820Y-81104452D01*
X165455600Y-81209445D01*
X164937396Y-81209445D01*
X164937506Y-81176196D01*
X164938115Y-81057166D01*
X164938911Y-80952279D01*
X164939920Y-80860610D01*
X164941163Y-80781237D01*
X164942665Y-80713237D01*
X164944449Y-80655686D01*
X164946539Y-80607662D01*
X164948958Y-80568240D01*
X164951730Y-80536499D01*
X164954879Y-80511514D01*
X164958428Y-80492364D01*
X164962402Y-80478123D01*
X164966822Y-80467871D01*
X164971714Y-80460682D01*
X164977100Y-80455635D01*
X164983004Y-80451805D01*
X164989451Y-80448271D01*
X164996463Y-80444108D01*
X164998313Y-80443025D01*
X165003820Y-80440813D01*
X165012132Y-80438786D01*
X165024191Y-80436938D01*
X165040937Y-80435261D01*
X165063313Y-80433745D01*
X165092260Y-80432383D01*
X165128720Y-80431167D01*
X165173633Y-80430089D01*
X165227943Y-80429140D01*
X165292590Y-80428312D01*
X165368516Y-80427597D01*
X165456662Y-80426987D01*
X165557971Y-80426474D01*
X165673383Y-80426050D01*
X165803840Y-80425706D01*
X165950284Y-80425434D01*
X166113656Y-80425227D01*
X166294899Y-80425076D01*
X166494952Y-80424972D01*
X166714759Y-80424908D01*
X166955261Y-80424876D01*
X167217398Y-80424867D01*
X169408969Y-80424867D01*
X169447351Y-80463249D01*
X169471089Y-80490355D01*
X169482889Y-80517253D01*
X169485733Y-80553560D01*
X169485733Y-80605489D01*
X169397794Y-80605489D01*
X169347898Y-80607427D01*
X169237477Y-80626199D01*
X169136013Y-80663217D01*
X169044848Y-80716369D01*
X168965327Y-80783546D01*
X168898795Y-80862638D01*
X168846594Y-80951534D01*
X168810070Y-81048125D01*
X168790566Y-81150300D01*
X168789427Y-81255950D01*
X168807995Y-81362964D01*
X168847616Y-81469232D01*
X168905484Y-81566219D01*
X168980316Y-81651293D01*
X169068385Y-81720015D01*
X169167384Y-81770918D01*
X169275007Y-81802535D01*
X169388946Y-81813400D01*
X169485733Y-81813400D01*
X169485733Y-83433753D01*
X169485720Y-83644897D01*
X169485670Y-83849020D01*
X169485570Y-84032686D01*
X169485408Y-84196991D01*
X169485171Y-84343029D01*
X169484847Y-84471894D01*
X169484425Y-84584683D01*
X169483891Y-84682488D01*
X169483233Y-84766404D01*
X169482439Y-84837527D01*
X169481496Y-84896950D01*
X169480392Y-84945768D01*
X169479116Y-84985077D01*
X169477653Y-85015969D01*
X169475993Y-85039541D01*
X169474122Y-85056886D01*
X169472028Y-85069099D01*
X169469700Y-85077275D01*
X169467124Y-85082508D01*
X169463555Y-85088504D01*
X169460022Y-85095279D01*
X169456512Y-85101478D01*
X169452082Y-85107126D01*
X169445792Y-85112247D01*
X169436699Y-85116869D01*
X169423861Y-85121015D01*
X169406338Y-85124713D01*
X169383187Y-85127987D01*
X169353466Y-85130863D01*
X169316235Y-85133367D01*
X169270551Y-85135524D01*
X169215473Y-85137360D01*
X169150059Y-85138900D01*
X169073367Y-85140170D01*
X168984456Y-85141195D01*
X168882383Y-85142001D01*
X168876133Y-85142034D01*
X168766208Y-85142614D01*
G37*
X168766208Y-85142614D02*
X168634989Y-85143059D01*
X168487784Y-85143362D01*
X168323651Y-85143548D01*
X168141648Y-85143642D01*
X167940835Y-85143671D01*
X167720268Y-85143661D01*
X167479008Y-85143636D01*
X167216111Y-85143622D01*
X167173960Y-85143622D01*
X166913332Y-85143646D01*
X166674204Y-85143685D01*
X166455640Y-85143708D01*
X166256705Y-85143687D01*
X166076465Y-85143593D01*
X165913985Y-85143395D01*
X165768330Y-85143063D01*
X165638566Y-85142569D01*
X165523757Y-85141883D01*
X165422970Y-85140976D01*
X165335270Y-85139817D01*
X165259721Y-85138378D01*
X165195389Y-85136629D01*
X165141339Y-85134540D01*
X165096637Y-85132083D01*
X165060348Y-85129227D01*
X165031537Y-85125943D01*
X165009269Y-85122202D01*
X164992610Y-85117974D01*
X164980625Y-85113229D01*
X164972379Y-85107939D01*
X164966938Y-85102073D01*
X164963366Y-85095602D01*
X164960730Y-85088497D01*
X164958094Y-85080728D01*
X164954523Y-85072266D01*
X164952855Y-85067908D01*
X164950889Y-85059395D01*
X164949089Y-85046694D01*
X164947445Y-85028885D01*
X164945953Y-85005049D01*
X164944603Y-84974266D01*
X164943389Y-84935617D01*
X164942303Y-84888182D01*
X164941444Y-84837296D01*
X165455600Y-84837296D01*
X165513217Y-84798523D01*
X165522107Y-84792432D01*
X165536931Y-84781976D01*
X165550578Y-84772579D01*
X165564235Y-84764183D01*
X165579089Y-84756733D01*
X165596330Y-84750173D01*
X165617145Y-84744446D01*
X165642720Y-84739495D01*
X165674245Y-84735266D01*
X165712907Y-84731701D01*
X165759893Y-84728744D01*
X165816392Y-84726340D01*
X165883591Y-84724431D01*
X165962678Y-84722962D01*
X166054840Y-84721876D01*
X166161266Y-84721118D01*
X166283143Y-84720630D01*
X166421659Y-84720358D01*
X166578001Y-84720243D01*
X166753358Y-84720231D01*
X166948918Y-84720265D01*
X167165867Y-84720289D01*
X167288487Y-84720280D01*
X167493553Y-84720243D01*
X167677884Y-84720227D01*
X167842666Y-84720288D01*
X167989084Y-84720484D01*
X168118326Y-84720870D01*
X168231578Y-84721505D01*
X168330025Y-84722444D01*
X168414856Y-84723745D01*
X168487256Y-84725464D01*
X168548411Y-84727659D01*
X168599508Y-84730385D01*
X168641733Y-84733701D01*
X168676273Y-84737662D01*
X168704314Y-84742325D01*
X168727042Y-84747747D01*
X168745644Y-84753986D01*
X168761307Y-84761097D01*
X168775216Y-84769138D01*
X168788559Y-84778166D01*
X168802521Y-84788236D01*
X168818289Y-84799407D01*
X168876133Y-84839197D01*
X168876133Y-83779314D01*
X168813034Y-83817311D01*
X168787995Y-83831993D01*
X168760414Y-83846531D01*
X168732300Y-83858627D01*
X168701449Y-83868532D01*
X168665656Y-83876494D01*
X168622717Y-83882761D01*
X168570426Y-83887582D01*
X168506581Y-83891206D01*
X168428975Y-83893881D01*
X168335406Y-83895857D01*
X168223667Y-83897382D01*
X168091555Y-83898704D01*
X167971566Y-83899613D01*
X167854937Y-83900020D01*
X167759469Y-83899767D01*
X167685444Y-83898857D01*
X167633145Y-83897293D01*
X167602851Y-83895079D01*
X167594844Y-83892220D01*
X167598142Y-83889161D01*
X167619592Y-83871006D01*
X167656111Y-83841275D01*
X167705558Y-83801639D01*
X167765793Y-83753771D01*
X167834673Y-83699343D01*
X167910057Y-83640027D01*
X167989804Y-83577495D01*
X168071772Y-83513421D01*
X168153820Y-83449475D01*
X168233806Y-83387331D01*
X168309589Y-83328661D01*
X168379027Y-83275137D01*
X168439979Y-83228430D01*
X168490304Y-83190214D01*
X168527860Y-83162161D01*
X168550505Y-83145943D01*
X168622788Y-83100635D01*
X168702537Y-83060661D01*
X168770812Y-83039130D01*
X168828156Y-83035827D01*
X168876133Y-83041116D01*
X168875883Y-81909356D01*
X168845278Y-81948867D01*
X168837911Y-81958248D01*
X168783562Y-82021183D01*
X168715741Y-82089997D01*
X168632484Y-82166596D01*
X168531822Y-82252888D01*
X168511153Y-82270052D01*
X168461591Y-82310833D01*
X168400674Y-82360588D01*
X168330102Y-82417955D01*
X168251576Y-82481569D01*
X168166796Y-82550069D01*
X168077463Y-82622090D01*
X167985278Y-82696270D01*
X167966298Y-82711517D01*
X167891940Y-82771246D01*
X167799152Y-82845653D01*
X167708612Y-82918131D01*
X167622022Y-82987314D01*
X167541082Y-83051841D01*
X167467494Y-83110347D01*
X167402956Y-83161470D01*
X167349171Y-83203847D01*
X167307838Y-83236115D01*
X167280658Y-83256910D01*
X167269332Y-83264869D01*
X167265229Y-83263111D01*
X167244666Y-83250230D01*
X167208439Y-83225885D01*
X167158176Y-83191247D01*
X167095508Y-83147486D01*
X167022064Y-83095775D01*
X166939473Y-83037284D01*
X166849364Y-82973184D01*
X166753369Y-82904646D01*
X166653115Y-82832843D01*
X166550232Y-82758944D01*
X166446350Y-82684121D01*
X166343099Y-82609545D01*
X166242108Y-82536387D01*
X166145006Y-82465819D01*
X166053423Y-82399011D01*
X165968989Y-82337135D01*
X165893333Y-82281361D01*
X165828084Y-82232862D01*
X165774872Y-82192807D01*
X165735327Y-82162369D01*
X165709974Y-82141944D01*
X165655705Y-82095899D01*
X165599225Y-82045612D01*
X165549331Y-81998815D01*
X165455600Y-81907651D01*
X165455600Y-83062090D01*
X165531800Y-83061456D01*
X165573840Y-83062574D01*
X165609666Y-83068304D01*
X165647228Y-83080890D01*
X165695423Y-83102568D01*
X165702103Y-83105789D01*
X165751641Y-83131188D01*
X165799631Y-83157996D01*
X165836534Y-83180917D01*
X165843166Y-83185485D01*
X165874407Y-83207516D01*
X165919346Y-83239693D01*
X165975853Y-83280457D01*
X166041796Y-83328245D01*
X166115043Y-83381498D01*
X166193464Y-83438655D01*
X166274928Y-83498155D01*
X166357302Y-83558437D01*
X166438456Y-83617940D01*
X166516258Y-83675105D01*
X166588577Y-83728370D01*
X166653282Y-83776174D01*
X166708241Y-83816957D01*
X166751324Y-83849158D01*
X166780398Y-83871216D01*
X166793333Y-83881571D01*
X166797649Y-83886044D01*
X166799688Y-83890236D01*
X166797074Y-83893643D01*
X166788014Y-83896325D01*
X166770715Y-83898341D01*
X166743386Y-83899748D01*
X166704235Y-83900605D01*
X166651467Y-83900970D01*
X166583293Y-83900903D01*
X166497918Y-83900460D01*
X166393551Y-83899702D01*
X166268400Y-83898685D01*
X166223700Y-83898308D01*
X166102605Y-83897169D01*
X166001312Y-83895972D01*
X165917738Y-83894636D01*
X165849796Y-83893077D01*
X165795401Y-83891215D01*
X165752468Y-83888966D01*
X165718911Y-83886248D01*
X165692645Y-83882979D01*
X165671584Y-83879078D01*
X165653643Y-83874461D01*
X165627230Y-83866192D01*
X165565228Y-83842583D01*
X165512427Y-83816685D01*
X165475355Y-83791535D01*
X165473925Y-83790339D01*
X165469576Y-83788168D01*
X165465974Y-83790328D01*
X165463049Y-83798644D01*
X165460731Y-83814940D01*
X165458949Y-83841041D01*
X165457633Y-83878771D01*
X165456714Y-83929956D01*
X165456122Y-83996420D01*
X165455785Y-84079987D01*
X165455635Y-84182483D01*
X165455600Y-84305732D01*
X165455600Y-84837296D01*
X164941444Y-84837296D01*
X164941339Y-84831043D01*
X164940489Y-84763279D01*
X164939747Y-84683971D01*
X164939103Y-84592199D01*
X164938553Y-84487044D01*
X164938087Y-84367587D01*
X164937700Y-84232908D01*
X164937384Y-84082088D01*
X164937131Y-83914206D01*
X164936934Y-83728345D01*
X164936787Y-83523583D01*
X164936682Y-83299002D01*
X164936611Y-83053682D01*
X164936568Y-82786704D01*
X164936563Y-82748321D01*
X164936520Y-82482922D01*
X164936475Y-82239050D01*
X164936452Y-82015783D01*
X164936476Y-81812196D01*
X164936570Y-81627367D01*
X164936757Y-81460373D01*
X164937061Y-81310290D01*
X164937396Y-81209445D01*
X165455600Y-81209445D01*
X165455651Y-81278356D01*
X165455909Y-81376607D01*
X165456363Y-81466030D01*
X165456990Y-81544333D01*
X165457765Y-81609223D01*
X165458665Y-81658411D01*
X165459666Y-81689604D01*
X165460743Y-81700511D01*
X165463963Y-81699322D01*
X165481548Y-81689176D01*
X165507842Y-81672040D01*
X165520309Y-81663540D01*
X165534378Y-81654329D01*
X165548649Y-81646233D01*
X165564521Y-81639185D01*
X165583391Y-81633117D01*
X165606659Y-81627961D01*
X165635722Y-81623651D01*
X165671979Y-81620119D01*
X165716830Y-81617297D01*
X165771672Y-81615118D01*
X165837903Y-81613514D01*
X165916923Y-81612419D01*
X166010129Y-81611765D01*
X166118921Y-81611484D01*
X166244697Y-81611509D01*
X166388855Y-81611772D01*
X166552793Y-81612206D01*
X166737911Y-81612745D01*
X166916768Y-81613279D01*
X167075626Y-81613805D01*
X167214684Y-81614350D01*
X167335335Y-81614945D01*
X167438972Y-81615619D01*
X167526989Y-81616403D01*
X167600777Y-81617326D01*
X167661731Y-81618419D01*
X167711243Y-81619712D01*
X167750707Y-81621235D01*
X167781516Y-81623019D01*
X167805062Y-81625092D01*
X167822740Y-81627486D01*
X167835941Y-81630230D01*
X167846060Y-81633356D01*
X167854489Y-81636892D01*
X167862625Y-81640791D01*
X167899456Y-81660438D01*
X167929609Y-81679225D01*
X167931092Y-81680272D01*
X167953341Y-81694602D01*
X167966298Y-81700511D01*
X167966751Y-81699504D01*
X167968197Y-81682305D01*
X167969520Y-81645656D01*
X167970684Y-81591962D01*
X167971653Y-81523630D01*
X167972389Y-81443064D01*
X167972858Y-81352670D01*
X167973022Y-81254853D01*
X167973022Y-80809195D01*
X166796155Y-80806120D01*
X165619289Y-80803045D01*
X165560378Y-80776407D01*
X165535817Y-80764485D01*
X165505566Y-80747246D01*
X165488440Y-80734074D01*
X165480409Y-80726076D01*
X165465507Y-80718378D01*
X165464235Y-80722260D01*
X165462209Y-80745520D01*
X165460374Y-80787874D01*
X165458773Y-80847132D01*
X165457451Y-80921107D01*
X165456452Y-81007610D01*
X165455820Y-81104452D01*
X165455600Y-81209445D01*
X164937396Y-81209445D01*
X164937506Y-81176196D01*
X164938115Y-81057166D01*
X164938911Y-80952279D01*
X164939920Y-80860610D01*
X164941163Y-80781237D01*
X164942665Y-80713237D01*
X164944449Y-80655686D01*
X164946539Y-80607662D01*
X164948958Y-80568240D01*
X164951730Y-80536499D01*
X164954879Y-80511514D01*
X164958428Y-80492364D01*
X164962402Y-80478123D01*
X164966822Y-80467871D01*
X164971714Y-80460682D01*
X164977100Y-80455635D01*
X164983004Y-80451805D01*
X164989451Y-80448271D01*
X164996463Y-80444108D01*
X164998313Y-80443025D01*
X165003820Y-80440813D01*
X165012132Y-80438786D01*
X165024191Y-80436938D01*
X165040937Y-80435261D01*
X165063313Y-80433745D01*
X165092260Y-80432383D01*
X165128720Y-80431167D01*
X165173633Y-80430089D01*
X165227943Y-80429140D01*
X165292590Y-80428312D01*
X165368516Y-80427597D01*
X165456662Y-80426987D01*
X165557971Y-80426474D01*
X165673383Y-80426050D01*
X165803840Y-80425706D01*
X165950284Y-80425434D01*
X166113656Y-80425227D01*
X166294899Y-80425076D01*
X166494952Y-80424972D01*
X166714759Y-80424908D01*
X166955261Y-80424876D01*
X167217398Y-80424867D01*
X169408969Y-80424867D01*
X169447351Y-80463249D01*
X169471089Y-80490355D01*
X169482889Y-80517253D01*
X169485733Y-80553560D01*
X169485733Y-80605489D01*
X169397794Y-80605489D01*
X169347898Y-80607427D01*
X169237477Y-80626199D01*
X169136013Y-80663217D01*
X169044848Y-80716369D01*
X168965327Y-80783546D01*
X168898795Y-80862638D01*
X168846594Y-80951534D01*
X168810070Y-81048125D01*
X168790566Y-81150300D01*
X168789427Y-81255950D01*
X168807995Y-81362964D01*
X168847616Y-81469232D01*
X168905484Y-81566219D01*
X168980316Y-81651293D01*
X169068385Y-81720015D01*
X169167384Y-81770918D01*
X169275007Y-81802535D01*
X169388946Y-81813400D01*
X169485733Y-81813400D01*
X169485733Y-83433753D01*
X169485720Y-83644897D01*
X169485670Y-83849020D01*
X169485570Y-84032686D01*
X169485408Y-84196991D01*
X169485171Y-84343029D01*
X169484847Y-84471894D01*
X169484425Y-84584683D01*
X169483891Y-84682488D01*
X169483233Y-84766404D01*
X169482439Y-84837527D01*
X169481496Y-84896950D01*
X169480392Y-84945768D01*
X169479116Y-84985077D01*
X169477653Y-85015969D01*
X169475993Y-85039541D01*
X169474122Y-85056886D01*
X169472028Y-85069099D01*
X169469700Y-85077275D01*
X169467124Y-85082508D01*
X169463555Y-85088504D01*
X169460022Y-85095279D01*
X169456512Y-85101478D01*
X169452082Y-85107126D01*
X169445792Y-85112247D01*
X169436699Y-85116869D01*
X169423861Y-85121015D01*
X169406338Y-85124713D01*
X169383187Y-85127987D01*
X169353466Y-85130863D01*
X169316235Y-85133367D01*
X169270551Y-85135524D01*
X169215473Y-85137360D01*
X169150059Y-85138900D01*
X169073367Y-85140170D01*
X168984456Y-85141195D01*
X168882383Y-85142001D01*
X168876133Y-85142034D01*
X168766208Y-85142614D01*
G36*
X164558439Y-75060730D02*
G01*
X164579322Y-75075387D01*
X164599623Y-75101990D01*
X164599965Y-75102745D01*
X164606966Y-75122335D01*
X164607496Y-75139790D01*
X164599522Y-75156702D01*
X164581011Y-75174663D01*
X164549929Y-75195263D01*
X164504244Y-75220095D01*
X164441922Y-75250750D01*
X164360929Y-75288820D01*
X164329546Y-75303454D01*
X164266362Y-75333203D01*
X164211756Y-75359297D01*
X164168710Y-75380292D01*
X164140207Y-75394739D01*
X164129230Y-75401191D01*
X164129811Y-75402550D01*
X164143758Y-75412542D01*
X164173296Y-75429833D01*
X164214913Y-75452430D01*
X164265097Y-75478338D01*
X164296586Y-75494311D01*
X164351939Y-75523261D01*
X164390956Y-75545749D01*
X164416434Y-75563965D01*
X164431169Y-75580096D01*
X164437958Y-75596330D01*
X164439600Y-75614857D01*
X164439125Y-75625360D01*
X164434918Y-75641476D01*
X164424054Y-75656790D01*
X164403781Y-75673388D01*
X164371346Y-75693357D01*
X164323996Y-75718783D01*
X164258978Y-75751752D01*
X164239723Y-75761485D01*
X164193054Y-75785943D01*
X164156891Y-75806178D01*
X164134503Y-75820311D01*
X164129155Y-75826460D01*
X164132427Y-75827827D01*
X164153336Y-75837202D01*
X164190275Y-75854062D01*
X164240126Y-75876979D01*
X164299774Y-75904520D01*
X164366102Y-75935255D01*
X164423323Y-75961970D01*
X164485312Y-75991593D01*
X164531051Y-76014664D01*
X164563092Y-76032643D01*
X164583986Y-76046990D01*
X164596282Y-76059166D01*
X164602534Y-76070632D01*
X164605426Y-76080042D01*
X164605575Y-76105147D01*
X164590232Y-76132290D01*
X164589247Y-76133590D01*
X164566612Y-76155674D01*
X164544387Y-76166723D01*
X164543747Y-76166769D01*
X164526085Y-76162228D01*
X164491519Y-76149364D01*
X164443174Y-76129605D01*
X164384175Y-76104381D01*
X164317645Y-76075119D01*
X164246709Y-76043250D01*
X164174493Y-76010201D01*
X164104120Y-75977401D01*
X164038715Y-75946280D01*
X163981403Y-75918265D01*
X163935308Y-75894786D01*
X163903554Y-75877272D01*
X163889267Y-75867151D01*
X163875898Y-75832743D01*
X163882259Y-75791046D01*
X163886956Y-75785681D01*
X163909107Y-75769852D01*
X163945868Y-75747650D01*
X163993585Y-75721233D01*
X164048607Y-75692760D01*
X164207850Y-75612986D01*
X164061258Y-75539799D01*
X164041968Y-75530103D01*
X163989620Y-75503125D01*
X163944830Y-75479096D01*
X163911846Y-75460332D01*
X163894911Y-75449146D01*
X163893668Y-75448000D01*
X163878381Y-75419879D01*
X163876698Y-75384817D01*
X163889267Y-75353776D01*
X163892116Y-75351350D01*
X163912741Y-75339090D01*
X163950292Y-75319352D01*
X164002120Y-75293448D01*
X164065577Y-75262685D01*
X164138015Y-75228375D01*
X164216784Y-75191825D01*
X164260907Y-75171585D01*
X164341635Y-75134812D01*
X164405313Y-75106355D01*
X164454248Y-75085331D01*
X164490743Y-75070854D01*
X164517105Y-75062039D01*
X164535639Y-75058004D01*
X164548648Y-75057862D01*
X164558439Y-75060730D01*
G37*
X164558439Y-75060730D02*
X164579322Y-75075387D01*
X164599623Y-75101990D01*
X164599965Y-75102745D01*
X164606966Y-75122335D01*
X164607496Y-75139790D01*
X164599522Y-75156702D01*
X164581011Y-75174663D01*
X164549929Y-75195263D01*
X164504244Y-75220095D01*
X164441922Y-75250750D01*
X164360929Y-75288820D01*
X164329546Y-75303454D01*
X164266362Y-75333203D01*
X164211756Y-75359297D01*
X164168710Y-75380292D01*
X164140207Y-75394739D01*
X164129230Y-75401191D01*
X164129811Y-75402550D01*
X164143758Y-75412542D01*
X164173296Y-75429833D01*
X164214913Y-75452430D01*
X164265097Y-75478338D01*
X164296586Y-75494311D01*
X164351939Y-75523261D01*
X164390956Y-75545749D01*
X164416434Y-75563965D01*
X164431169Y-75580096D01*
X164437958Y-75596330D01*
X164439600Y-75614857D01*
X164439125Y-75625360D01*
X164434918Y-75641476D01*
X164424054Y-75656790D01*
X164403781Y-75673388D01*
X164371346Y-75693357D01*
X164323996Y-75718783D01*
X164258978Y-75751752D01*
X164239723Y-75761485D01*
X164193054Y-75785943D01*
X164156891Y-75806178D01*
X164134503Y-75820311D01*
X164129155Y-75826460D01*
X164132427Y-75827827D01*
X164153336Y-75837202D01*
X164190275Y-75854062D01*
X164240126Y-75876979D01*
X164299774Y-75904520D01*
X164366102Y-75935255D01*
X164423323Y-75961970D01*
X164485312Y-75991593D01*
X164531051Y-76014664D01*
X164563092Y-76032643D01*
X164583986Y-76046990D01*
X164596282Y-76059166D01*
X164602534Y-76070632D01*
X164605426Y-76080042D01*
X164605575Y-76105147D01*
X164590232Y-76132290D01*
X164589247Y-76133590D01*
X164566612Y-76155674D01*
X164544387Y-76166723D01*
X164543747Y-76166769D01*
X164526085Y-76162228D01*
X164491519Y-76149364D01*
X164443174Y-76129605D01*
X164384175Y-76104381D01*
X164317645Y-76075119D01*
X164246709Y-76043250D01*
X164174493Y-76010201D01*
X164104120Y-75977401D01*
X164038715Y-75946280D01*
X163981403Y-75918265D01*
X163935308Y-75894786D01*
X163903554Y-75877272D01*
X163889267Y-75867151D01*
X163875898Y-75832743D01*
X163882259Y-75791046D01*
X163886956Y-75785681D01*
X163909107Y-75769852D01*
X163945868Y-75747650D01*
X163993585Y-75721233D01*
X164048607Y-75692760D01*
X164207850Y-75612986D01*
X164061258Y-75539799D01*
X164041968Y-75530103D01*
X163989620Y-75503125D01*
X163944830Y-75479096D01*
X163911846Y-75460332D01*
X163894911Y-75449146D01*
X163893668Y-75448000D01*
X163878381Y-75419879D01*
X163876698Y-75384817D01*
X163889267Y-75353776D01*
X163892116Y-75351350D01*
X163912741Y-75339090D01*
X163950292Y-75319352D01*
X164002120Y-75293448D01*
X164065577Y-75262685D01*
X164138015Y-75228375D01*
X164216784Y-75191825D01*
X164260907Y-75171585D01*
X164341635Y-75134812D01*
X164405313Y-75106355D01*
X164454248Y-75085331D01*
X164490743Y-75070854D01*
X164517105Y-75062039D01*
X164535639Y-75058004D01*
X164548648Y-75057862D01*
X164558439Y-75060730D01*
G36*
X164423573Y-85143817D02*
G01*
X164342959Y-85143870D01*
X164242044Y-85143622D01*
X164166383Y-85143583D01*
X164088474Y-85143328D01*
X164028464Y-85142684D01*
X163983736Y-85141480D01*
X163951674Y-85139543D01*
X163929660Y-85136703D01*
X163915076Y-85132788D01*
X163905306Y-85127626D01*
X163897733Y-85121045D01*
X163891499Y-85114077D01*
X163884199Y-85101079D01*
X163879446Y-85081931D01*
X163876708Y-85052528D01*
X163875455Y-85008762D01*
X163875398Y-84996867D01*
X164021911Y-84996867D01*
X164462178Y-84996867D01*
X164462192Y-84920667D01*
X164462183Y-84917639D01*
X164460218Y-84866519D01*
X164455493Y-84806416D01*
X164448965Y-84749708D01*
X164439669Y-84699750D01*
X164413400Y-84624998D01*
X164374101Y-84567489D01*
X164321067Y-84525988D01*
X164269800Y-84504771D01*
X164221974Y-84503353D01*
X164171039Y-84521635D01*
X164125122Y-84551305D01*
X164082713Y-84598002D01*
X164052910Y-84659392D01*
X164033774Y-84738538D01*
X164033536Y-84740028D01*
X164027744Y-84788999D01*
X164023604Y-84847693D01*
X164021996Y-84903734D01*
X164021911Y-84996867D01*
X163875398Y-84996867D01*
X163875155Y-84946528D01*
X163875531Y-84897582D01*
X163879959Y-84790722D01*
X163890047Y-84701494D01*
X163906635Y-84626696D01*
X163930565Y-84563125D01*
X163962679Y-84507579D01*
X164003818Y-84456854D01*
X164009670Y-84450866D01*
X164058179Y-84413999D01*
X164118987Y-84382899D01*
X164183231Y-84361417D01*
X164242044Y-84353400D01*
X164263261Y-84354679D01*
X164320677Y-84366991D01*
X164380587Y-84389520D01*
X164434637Y-84418750D01*
X164474468Y-84451167D01*
X164491490Y-84470708D01*
X164530678Y-84525420D01*
X164560807Y-84585723D01*
X164582768Y-84654919D01*
X164597450Y-84736311D01*
X164605741Y-84833200D01*
X164608533Y-84948889D01*
X164608934Y-84988371D01*
X164609347Y-85034082D01*
X164607543Y-85069883D01*
X164601261Y-85096974D01*
X164588241Y-85116556D01*
X164566222Y-85129830D01*
X164532945Y-85137998D01*
X164486149Y-85142260D01*
X164462178Y-85142857D01*
X164423573Y-85143817D01*
G37*
X164423573Y-85143817D02*
X164342959Y-85143870D01*
X164242044Y-85143622D01*
X164166383Y-85143583D01*
X164088474Y-85143328D01*
X164028464Y-85142684D01*
X163983736Y-85141480D01*
X163951674Y-85139543D01*
X163929660Y-85136703D01*
X163915076Y-85132788D01*
X163905306Y-85127626D01*
X163897733Y-85121045D01*
X163891499Y-85114077D01*
X163884199Y-85101079D01*
X163879446Y-85081931D01*
X163876708Y-85052528D01*
X163875455Y-85008762D01*
X163875398Y-84996867D01*
X164021911Y-84996867D01*
X164462178Y-84996867D01*
X164462192Y-84920667D01*
X164462183Y-84917639D01*
X164460218Y-84866519D01*
X164455493Y-84806416D01*
X164448965Y-84749708D01*
X164439669Y-84699750D01*
X164413400Y-84624998D01*
X164374101Y-84567489D01*
X164321067Y-84525988D01*
X164269800Y-84504771D01*
X164221974Y-84503353D01*
X164171039Y-84521635D01*
X164125122Y-84551305D01*
X164082713Y-84598002D01*
X164052910Y-84659392D01*
X164033774Y-84738538D01*
X164033536Y-84740028D01*
X164027744Y-84788999D01*
X164023604Y-84847693D01*
X164021996Y-84903734D01*
X164021911Y-84996867D01*
X163875398Y-84996867D01*
X163875155Y-84946528D01*
X163875531Y-84897582D01*
X163879959Y-84790722D01*
X163890047Y-84701494D01*
X163906635Y-84626696D01*
X163930565Y-84563125D01*
X163962679Y-84507579D01*
X164003818Y-84456854D01*
X164009670Y-84450866D01*
X164058179Y-84413999D01*
X164118987Y-84382899D01*
X164183231Y-84361417D01*
X164242044Y-84353400D01*
X164263261Y-84354679D01*
X164320677Y-84366991D01*
X164380587Y-84389520D01*
X164434637Y-84418750D01*
X164474468Y-84451167D01*
X164491490Y-84470708D01*
X164530678Y-84525420D01*
X164560807Y-84585723D01*
X164582768Y-84654919D01*
X164597450Y-84736311D01*
X164605741Y-84833200D01*
X164608533Y-84948889D01*
X164608934Y-84988371D01*
X164609347Y-85034082D01*
X164607543Y-85069883D01*
X164601261Y-85096974D01*
X164588241Y-85116556D01*
X164566222Y-85129830D01*
X164532945Y-85137998D01*
X164486149Y-85142260D01*
X164462178Y-85142857D01*
X164423573Y-85143817D01*
G36*
X164556642Y-73605543D02*
G01*
X164589178Y-73631187D01*
X164592895Y-73636129D01*
X164597731Y-73646338D01*
X164601494Y-73661764D01*
X164604317Y-73684886D01*
X164606330Y-73718183D01*
X164607667Y-73764137D01*
X164608458Y-73825228D01*
X164608837Y-73903935D01*
X164608933Y-74002740D01*
X164608932Y-74022767D01*
X164608842Y-74116890D01*
X164608502Y-74191405D01*
X164607761Y-74248811D01*
X164606465Y-74291611D01*
X164604463Y-74322304D01*
X164601604Y-74343391D01*
X164597734Y-74357373D01*
X164592702Y-74366750D01*
X164586355Y-74374022D01*
X164553638Y-74392828D01*
X164516061Y-74394275D01*
X164482822Y-74377917D01*
X164481369Y-74376557D01*
X164473008Y-74365354D01*
X164467453Y-74348252D01*
X164464160Y-74321082D01*
X164462582Y-74279678D01*
X164462178Y-74219873D01*
X164462178Y-74080511D01*
X164198411Y-74080511D01*
X164122583Y-74080436D01*
X164055917Y-74080028D01*
X164006133Y-74079046D01*
X163970216Y-74077250D01*
X163945150Y-74074399D01*
X163927919Y-74070253D01*
X163915508Y-74064571D01*
X163904900Y-74057114D01*
X163902094Y-74054824D01*
X163879452Y-74023646D01*
X163877888Y-73989266D01*
X163897733Y-73956334D01*
X163905809Y-73949355D01*
X163916407Y-73943883D01*
X163932251Y-73939863D01*
X163956227Y-73937072D01*
X163991226Y-73935288D01*
X164040136Y-73934289D01*
X164105846Y-73933852D01*
X164191244Y-73933756D01*
X164462178Y-73933756D01*
X164462178Y-73787820D01*
X164462179Y-73776720D01*
X164462404Y-73720202D01*
X164463543Y-73681358D01*
X164466343Y-73655965D01*
X164471550Y-73639804D01*
X164479911Y-73628652D01*
X164492174Y-73618289D01*
X164522862Y-73602441D01*
X164556642Y-73605543D01*
G37*
X164556642Y-73605543D02*
X164589178Y-73631187D01*
X164592895Y-73636129D01*
X164597731Y-73646338D01*
X164601494Y-73661764D01*
X164604317Y-73684886D01*
X164606330Y-73718183D01*
X164607667Y-73764137D01*
X164608458Y-73825228D01*
X164608837Y-73903935D01*
X164608933Y-74002740D01*
X164608932Y-74022767D01*
X164608842Y-74116890D01*
X164608502Y-74191405D01*
X164607761Y-74248811D01*
X164606465Y-74291611D01*
X164604463Y-74322304D01*
X164601604Y-74343391D01*
X164597734Y-74357373D01*
X164592702Y-74366750D01*
X164586355Y-74374022D01*
X164553638Y-74392828D01*
X164516061Y-74394275D01*
X164482822Y-74377917D01*
X164481369Y-74376557D01*
X164473008Y-74365354D01*
X164467453Y-74348252D01*
X164464160Y-74321082D01*
X164462582Y-74279678D01*
X164462178Y-74219873D01*
X164462178Y-74080511D01*
X164198411Y-74080511D01*
X164122583Y-74080436D01*
X164055917Y-74080028D01*
X164006133Y-74079046D01*
X163970216Y-74077250D01*
X163945150Y-74074399D01*
X163927919Y-74070253D01*
X163915508Y-74064571D01*
X163904900Y-74057114D01*
X163902094Y-74054824D01*
X163879452Y-74023646D01*
X163877888Y-73989266D01*
X163897733Y-73956334D01*
X163905809Y-73949355D01*
X163916407Y-73943883D01*
X163932251Y-73939863D01*
X163956227Y-73937072D01*
X163991226Y-73935288D01*
X164040136Y-73934289D01*
X164105846Y-73933852D01*
X164191244Y-73933756D01*
X164462178Y-73933756D01*
X164462178Y-73787820D01*
X164462179Y-73776720D01*
X164462404Y-73720202D01*
X164463543Y-73681358D01*
X164466343Y-73655965D01*
X164471550Y-73639804D01*
X164479911Y-73628652D01*
X164492174Y-73618289D01*
X164522862Y-73602441D01*
X164556642Y-73605543D01*
G36*
X166635289Y-75052994D02*
G01*
X166557842Y-75052268D01*
X166406406Y-75043689D01*
X166269717Y-75024833D01*
X166143724Y-74994837D01*
X166024375Y-74952836D01*
X165907619Y-74897969D01*
X165796821Y-74831167D01*
X165683261Y-74740363D01*
X165587789Y-74636708D01*
X165510927Y-74520887D01*
X165453203Y-74393586D01*
X165415142Y-74255489D01*
X165409334Y-74217793D01*
X165403604Y-74138752D01*
X165403417Y-74050629D01*
X165408461Y-73961236D01*
X165418422Y-73878384D01*
X165423112Y-73856331D01*
X166016459Y-73856331D01*
X166024635Y-73940900D01*
X166052195Y-74014219D01*
X166099358Y-74076637D01*
X166166342Y-74128502D01*
X166253367Y-74170160D01*
X166360650Y-74201962D01*
X166372991Y-74204545D01*
X166434228Y-74213000D01*
X166511308Y-74218663D01*
X166598998Y-74221576D01*
X166692066Y-74221783D01*
X166785280Y-74219330D01*
X166873406Y-74214261D01*
X166951212Y-74206619D01*
X167013467Y-74196448D01*
X167019334Y-74195167D01*
X167129879Y-74166126D01*
X167220425Y-74131610D01*
X167293047Y-74090456D01*
X167349819Y-74041499D01*
X167392816Y-73983574D01*
X167408385Y-73951620D01*
X167427278Y-73878784D01*
X167430535Y-73797443D01*
X167418611Y-73712319D01*
X167391960Y-73628133D01*
X167351038Y-73549608D01*
X167307470Y-73482200D01*
X166157279Y-73482200D01*
X166110911Y-73552756D01*
X166087209Y-73593417D01*
X166061361Y-73647546D01*
X166043171Y-73696689D01*
X166027449Y-73760165D01*
X166016459Y-73856331D01*
X165423112Y-73856331D01*
X165432988Y-73809887D01*
X165442636Y-73779035D01*
X165472877Y-73701730D01*
X165510383Y-73624679D01*
X165551386Y-73555200D01*
X165592121Y-73500615D01*
X165611495Y-73477916D01*
X165629338Y-73455201D01*
X165636222Y-73443779D01*
X165634576Y-73442537D01*
X165616795Y-73439728D01*
X165583630Y-73437776D01*
X165540267Y-73437045D01*
X165444311Y-73437045D01*
X165444311Y-72578896D01*
X165505026Y-72613161D01*
X165514132Y-72618355D01*
X165528751Y-72626715D01*
X165542827Y-72634288D01*
X165557460Y-72641112D01*
X165573751Y-72647227D01*
X165592802Y-72652673D01*
X165615714Y-72657487D01*
X165643587Y-72661708D01*
X165677522Y-72665377D01*
X165718621Y-72668531D01*
X165767985Y-72671211D01*
X165826714Y-72673454D01*
X165895910Y-72675299D01*
X165976674Y-72676787D01*
X166070106Y-72677955D01*
X166177308Y-72678844D01*
X166299380Y-72679491D01*
X166437424Y-72679936D01*
X166592541Y-72680218D01*
X166765832Y-72680375D01*
X166958397Y-72680448D01*
X167171338Y-72680474D01*
X167405755Y-72680493D01*
X169090622Y-72680689D01*
X169090622Y-73586017D01*
X169053933Y-73561585D01*
X169044353Y-73555318D01*
X168998019Y-73529208D01*
X168950898Y-73511469D01*
X168895749Y-73499908D01*
X168825333Y-73492331D01*
X168818350Y-73491839D01*
X168780359Y-73490062D01*
X168726424Y-73488444D01*
X168659297Y-73486999D01*
X168581729Y-73485740D01*
X168496472Y-73484680D01*
X168406276Y-73483829D01*
X168313893Y-73483203D01*
X168222075Y-73482812D01*
X168133573Y-73482670D01*
X168051138Y-73482790D01*
X167977521Y-73483183D01*
X167915474Y-73483862D01*
X167867749Y-73484841D01*
X167837096Y-73486132D01*
X167826267Y-73487747D01*
X167830667Y-73495957D01*
X167845638Y-73517647D01*
X167867552Y-73547014D01*
X167901764Y-73595879D01*
X167948286Y-73684125D01*
X167981954Y-73782916D01*
X168003769Y-73895510D01*
X168014735Y-74025164D01*
X168015781Y-74117670D01*
X168005986Y-74239011D01*
X167981826Y-74349099D01*
X167942215Y-74452389D01*
X167886068Y-74553338D01*
X167855117Y-74598503D01*
X167763885Y-74703911D01*
X167654894Y-74795538D01*
X167528274Y-74873332D01*
X167384155Y-74937241D01*
X167222668Y-74987214D01*
X167043941Y-75023198D01*
X166848105Y-75045143D01*
X166692066Y-75050900D01*
X166635289Y-75052994D01*
G37*
X166635289Y-75052994D02*
X166557842Y-75052268D01*
X166406406Y-75043689D01*
X166269717Y-75024833D01*
X166143724Y-74994837D01*
X166024375Y-74952836D01*
X165907619Y-74897969D01*
X165796821Y-74831167D01*
X165683261Y-74740363D01*
X165587789Y-74636708D01*
X165510927Y-74520887D01*
X165453203Y-74393586D01*
X165415142Y-74255489D01*
X165409334Y-74217793D01*
X165403604Y-74138752D01*
X165403417Y-74050629D01*
X165408461Y-73961236D01*
X165418422Y-73878384D01*
X165423112Y-73856331D01*
X166016459Y-73856331D01*
X166024635Y-73940900D01*
X166052195Y-74014219D01*
X166099358Y-74076637D01*
X166166342Y-74128502D01*
X166253367Y-74170160D01*
X166360650Y-74201962D01*
X166372991Y-74204545D01*
X166434228Y-74213000D01*
X166511308Y-74218663D01*
X166598998Y-74221576D01*
X166692066Y-74221783D01*
X166785280Y-74219330D01*
X166873406Y-74214261D01*
X166951212Y-74206619D01*
X167013467Y-74196448D01*
X167019334Y-74195167D01*
X167129879Y-74166126D01*
X167220425Y-74131610D01*
X167293047Y-74090456D01*
X167349819Y-74041499D01*
X167392816Y-73983574D01*
X167408385Y-73951620D01*
X167427278Y-73878784D01*
X167430535Y-73797443D01*
X167418611Y-73712319D01*
X167391960Y-73628133D01*
X167351038Y-73549608D01*
X167307470Y-73482200D01*
X166157279Y-73482200D01*
X166110911Y-73552756D01*
X166087209Y-73593417D01*
X166061361Y-73647546D01*
X166043171Y-73696689D01*
X166027449Y-73760165D01*
X166016459Y-73856331D01*
X165423112Y-73856331D01*
X165432988Y-73809887D01*
X165442636Y-73779035D01*
X165472877Y-73701730D01*
X165510383Y-73624679D01*
X165551386Y-73555200D01*
X165592121Y-73500615D01*
X165611495Y-73477916D01*
X165629338Y-73455201D01*
X165636222Y-73443779D01*
X165634576Y-73442537D01*
X165616795Y-73439728D01*
X165583630Y-73437776D01*
X165540267Y-73437045D01*
X165444311Y-73437045D01*
X165444311Y-72578896D01*
X165505026Y-72613161D01*
X165514132Y-72618355D01*
X165528751Y-72626715D01*
X165542827Y-72634288D01*
X165557460Y-72641112D01*
X165573751Y-72647227D01*
X165592802Y-72652673D01*
X165615714Y-72657487D01*
X165643587Y-72661708D01*
X165677522Y-72665377D01*
X165718621Y-72668531D01*
X165767985Y-72671211D01*
X165826714Y-72673454D01*
X165895910Y-72675299D01*
X165976674Y-72676787D01*
X166070106Y-72677955D01*
X166177308Y-72678844D01*
X166299380Y-72679491D01*
X166437424Y-72679936D01*
X166592541Y-72680218D01*
X166765832Y-72680375D01*
X166958397Y-72680448D01*
X167171338Y-72680474D01*
X167405755Y-72680493D01*
X169090622Y-72680689D01*
X169090622Y-73586017D01*
X169053933Y-73561585D01*
X169044353Y-73555318D01*
X168998019Y-73529208D01*
X168950898Y-73511469D01*
X168895749Y-73499908D01*
X168825333Y-73492331D01*
X168818350Y-73491839D01*
X168780359Y-73490062D01*
X168726424Y-73488444D01*
X168659297Y-73486999D01*
X168581729Y-73485740D01*
X168496472Y-73484680D01*
X168406276Y-73483829D01*
X168313893Y-73483203D01*
X168222075Y-73482812D01*
X168133573Y-73482670D01*
X168051138Y-73482790D01*
X167977521Y-73483183D01*
X167915474Y-73483862D01*
X167867749Y-73484841D01*
X167837096Y-73486132D01*
X167826267Y-73487747D01*
X167830667Y-73495957D01*
X167845638Y-73517647D01*
X167867552Y-73547014D01*
X167901764Y-73595879D01*
X167948286Y-73684125D01*
X167981954Y-73782916D01*
X168003769Y-73895510D01*
X168014735Y-74025164D01*
X168015781Y-74117670D01*
X168005986Y-74239011D01*
X167981826Y-74349099D01*
X167942215Y-74452389D01*
X167886068Y-74553338D01*
X167855117Y-74598503D01*
X167763885Y-74703911D01*
X167654894Y-74795538D01*
X167528274Y-74873332D01*
X167384155Y-74937241D01*
X167222668Y-74987214D01*
X167043941Y-75023198D01*
X166848105Y-75045143D01*
X166692066Y-75050900D01*
X166635289Y-75052994D01*
D12*
%TO.C,SW11*%
X160930000Y-95225000D02*
X160930000Y-88925000D01*
X154280000Y-88925000D02*
X154030000Y-88925000D01*
X156180000Y-95225000D02*
X158780000Y-95225000D01*
X158780000Y-88925000D02*
X156180000Y-88925000D01*
X154030000Y-95225000D02*
X154280000Y-95225000D01*
X160680000Y-95225000D02*
X160930000Y-95225000D01*
X154030000Y-88925000D02*
X154030000Y-95225000D01*
X160930000Y-88925000D02*
X160680000Y-88925000D01*
%TO.C,SW10*%
X156180000Y-68555000D02*
X158780000Y-68555000D01*
X160930000Y-68555000D02*
X160930000Y-62255000D01*
X154030000Y-62255000D02*
X154030000Y-68555000D01*
X160680000Y-68555000D02*
X160930000Y-68555000D01*
X160930000Y-62255000D02*
X160680000Y-62255000D01*
X154030000Y-68555000D02*
X154280000Y-68555000D01*
X154280000Y-62255000D02*
X154030000Y-62255000D01*
X158780000Y-62255000D02*
X156180000Y-62255000D01*
%TO.C,SW7*%
X142600000Y-88925000D02*
X142600000Y-95225000D01*
X144750000Y-95225000D02*
X147350000Y-95225000D01*
X142600000Y-95225000D02*
X142850000Y-95225000D01*
X149500000Y-95225000D02*
X149500000Y-88925000D01*
X142850000Y-88925000D02*
X142600000Y-88925000D01*
X149500000Y-88925000D02*
X149250000Y-88925000D01*
X147350000Y-88925000D02*
X144750000Y-88925000D01*
X149250000Y-95225000D02*
X149500000Y-95225000D01*
%TO.C,DIR1*%
X106900000Y-80015000D02*
X106900000Y-80015000D01*
X106770000Y-77475000D02*
X106770000Y-77475000D01*
X106770000Y-77475000D02*
X106900000Y-77475000D01*
X106770000Y-75785000D02*
X105650000Y-75785000D01*
X106770000Y-76185000D02*
X100610000Y-76185000D01*
X106900000Y-77475000D02*
X106770000Y-77475000D01*
X106770000Y-81305000D02*
X106770000Y-76185000D01*
X106770000Y-76185000D02*
X106770000Y-75785000D01*
X106900000Y-80015000D02*
X106770000Y-80015000D01*
X105650000Y-75785000D02*
X105650000Y-76185000D01*
X106770000Y-81305000D02*
X100610000Y-81305000D01*
X106770000Y-80015000D02*
X106770000Y-80015000D01*
X106770000Y-80015000D02*
X106900000Y-80015000D01*
X105650000Y-76185000D02*
X106770000Y-76185000D01*
X106900000Y-77475000D02*
X106900000Y-77475000D01*
X100610000Y-76185000D02*
G75*
G03*
X100610000Y-81305000I0J-2560000D01*
G01*
%TO.C,SW5*%
X107040000Y-95225000D02*
X107290000Y-95225000D01*
X111790000Y-88925000D02*
X109190000Y-88925000D01*
X109190000Y-95225000D02*
X111790000Y-95225000D01*
X113690000Y-95225000D02*
X113940000Y-95225000D01*
X113940000Y-88925000D02*
X113690000Y-88925000D01*
X107040000Y-88925000D02*
X107040000Y-95225000D01*
X113940000Y-95225000D02*
X113940000Y-88925000D01*
X107290000Y-88925000D02*
X107040000Y-88925000D01*
%TO.C,SW8*%
X149500000Y-75590000D02*
X149250000Y-75590000D01*
X144750000Y-81890000D02*
X147350000Y-81890000D01*
X147350000Y-75590000D02*
X144750000Y-75590000D01*
X149500000Y-81890000D02*
X149500000Y-75590000D01*
X142600000Y-75590000D02*
X142600000Y-81890000D01*
X142600000Y-81890000D02*
X142850000Y-81890000D01*
X149250000Y-81890000D02*
X149500000Y-81890000D01*
X142850000Y-75590000D02*
X142600000Y-75590000D01*
%TO.C,SW2*%
X113690000Y-68555000D02*
X113940000Y-68555000D01*
X113940000Y-68555000D02*
X113940000Y-62255000D01*
X111790000Y-62255000D02*
X109190000Y-62255000D01*
X107290000Y-62255000D02*
X107040000Y-62255000D01*
X109190000Y-68555000D02*
X111790000Y-68555000D01*
X107040000Y-62255000D02*
X107040000Y-68555000D01*
X107040000Y-68555000D02*
X107290000Y-68555000D01*
X113940000Y-62255000D02*
X113690000Y-62255000D01*
%TO.C,SW4*%
X130450000Y-95225000D02*
X130450000Y-88925000D01*
X130200000Y-95225000D02*
X130450000Y-95225000D01*
X125700000Y-95225000D02*
X128300000Y-95225000D01*
X130450000Y-88925000D02*
X130200000Y-88925000D01*
X123800000Y-88925000D02*
X123550000Y-88925000D01*
X128300000Y-88925000D02*
X125700000Y-88925000D01*
X123550000Y-95225000D02*
X123800000Y-95225000D01*
X123550000Y-88925000D02*
X123550000Y-95225000D01*
%TO.C,SW3*%
X122580000Y-81890000D02*
X122830000Y-81890000D01*
X118080000Y-81890000D02*
X120680000Y-81890000D01*
X116180000Y-75590000D02*
X115930000Y-75590000D01*
X115930000Y-81890000D02*
X116180000Y-81890000D01*
X120680000Y-75590000D02*
X118080000Y-75590000D01*
X122830000Y-81890000D02*
X122830000Y-75590000D01*
X122830000Y-75590000D02*
X122580000Y-75590000D01*
X115930000Y-75590000D02*
X115930000Y-81890000D01*
%TO.C,SW12*%
X154030000Y-81890000D02*
X154280000Y-81890000D01*
X160680000Y-81890000D02*
X160930000Y-81890000D01*
X160930000Y-75590000D02*
X160680000Y-75590000D01*
X154280000Y-75590000D02*
X154030000Y-75590000D01*
X156180000Y-81890000D02*
X158780000Y-81890000D01*
X158780000Y-75590000D02*
X156180000Y-75590000D01*
X154030000Y-75590000D02*
X154030000Y-81890000D01*
X160930000Y-81890000D02*
X160930000Y-75590000D01*
%TO.C,SW1*%
X130450000Y-62255000D02*
X130200000Y-62255000D01*
X125700000Y-68555000D02*
X128300000Y-68555000D01*
X123550000Y-68555000D02*
X123800000Y-68555000D01*
X130450000Y-68555000D02*
X130450000Y-62255000D01*
X123550000Y-62255000D02*
X123550000Y-68555000D01*
X123800000Y-62255000D02*
X123550000Y-62255000D01*
X130200000Y-68555000D02*
X130450000Y-68555000D01*
X128300000Y-62255000D02*
X125700000Y-62255000D01*
%TO.C,DSTATUS1*%
X112742000Y-80305000D02*
X112586000Y-80305000D01*
X110426000Y-80305000D02*
X110270000Y-80305000D01*
X110426163Y-77703870D02*
G75*
G03*
X110426000Y-79785961I1079837J-1041130D01*
G01*
X110427392Y-77072665D02*
G75*
G03*
X110270484Y-80305000I1078608J-1672335D01*
G01*
X112741516Y-80305000D02*
G75*
G03*
X112584608Y-77072665I-1235516J1560000D01*
G01*
X112586000Y-79785961D02*
G75*
G03*
X112585837Y-77703870I-1080000J1040961D01*
G01*
%TO.C,SW9*%
X142850000Y-62255000D02*
X142600000Y-62255000D01*
X142600000Y-62255000D02*
X142600000Y-68555000D01*
X144750000Y-68555000D02*
X147350000Y-68555000D01*
X149500000Y-68555000D02*
X149500000Y-62255000D01*
X149250000Y-68555000D02*
X149500000Y-68555000D01*
X149500000Y-62255000D02*
X149250000Y-62255000D01*
X142600000Y-68555000D02*
X142850000Y-68555000D01*
X147350000Y-62255000D02*
X144750000Y-62255000D01*
%TO.C,SW6*%
X131420000Y-75590000D02*
X131170000Y-75590000D01*
X137820000Y-81890000D02*
X138070000Y-81890000D01*
X131170000Y-81890000D02*
X131420000Y-81890000D01*
X131170000Y-75590000D02*
X131170000Y-81890000D01*
X138070000Y-81890000D02*
X138070000Y-75590000D01*
X135920000Y-75590000D02*
X133320000Y-75590000D01*
X138070000Y-75590000D02*
X137820000Y-75590000D01*
X133320000Y-81890000D02*
X135920000Y-81890000D01*
%TD*%
M02*
