%TF.GenerationSoftware,KiCad,Pcbnew,(6.0.6-0)*%
%TF.CreationDate,2022-12-31T16:02:41+01:00*%
%TF.ProjectId,rc5_remote,7263355f-7265-46d6-9f74-652e6b696361,rev?*%
%TF.SameCoordinates,Original*%
%TF.FileFunction,Soldermask,Top*%
%TF.FilePolarity,Negative*%
%FSLAX46Y46*%
G04 Gerber Fmt 4.6, Leading zero omitted, Abs format (unit mm)*
G04 Created by KiCad (PCBNEW (6.0.6-0)) date 2022-12-31 16:02:41*
%MOMM*%
%LPD*%
G01*
G04 APERTURE LIST*
G04 Aperture macros list*
%AMRoundRect*
0 Rectangle with rounded corners*
0 $1 Rounding radius*
0 $2 $3 $4 $5 $6 $7 $8 $9 X,Y pos of 4 corners*
0 Add a 4 corners polygon primitive as box body*
4,1,4,$2,$3,$4,$5,$6,$7,$8,$9,$2,$3,0*
0 Add four circle primitives for the rounded corners*
1,1,$1+$1,$2,$3*
1,1,$1+$1,$4,$5*
1,1,$1+$1,$6,$7*
1,1,$1+$1,$8,$9*
0 Add four rect primitives between the rounded corners*
20,1,$1+$1,$2,$3,$4,$5,0*
20,1,$1+$1,$4,$5,$6,$7,0*
20,1,$1+$1,$6,$7,$8,$9,0*
20,1,$1+$1,$8,$9,$2,$3,0*%
%AMFreePoly0*
4,1,22,0.500000,-0.750000,0.000000,-0.750000,0.000000,-0.745033,-0.079941,-0.743568,-0.215256,-0.701293,-0.333266,-0.622738,-0.424486,-0.514219,-0.481581,-0.384460,-0.499164,-0.250000,-0.500000,-0.250000,-0.500000,0.250000,-0.499164,0.250000,-0.499963,0.256109,-0.478152,0.396186,-0.417904,0.524511,-0.324060,0.630769,-0.204165,0.706417,-0.067858,0.745374,0.000000,0.744959,0.000000,0.750000,
0.500000,0.750000,0.500000,-0.750000,0.500000,-0.750000,$1*%
%AMFreePoly1*
4,1,20,0.000000,0.744959,0.073905,0.744508,0.209726,0.703889,0.328688,0.626782,0.421226,0.519385,0.479903,0.390333,0.500000,0.250000,0.500000,-0.250000,0.499851,-0.262216,0.476331,-0.402017,0.414519,-0.529596,0.319384,-0.634700,0.198574,-0.708877,0.061801,-0.746166,0.000000,-0.745033,0.000000,-0.750000,-0.500000,-0.750000,-0.500000,0.750000,0.000000,0.750000,0.000000,0.744959,
0.000000,0.744959,$1*%
G04 Aperture macros list end*
%ADD10C,2.500000*%
%ADD11FreePoly0,90.000000*%
%ADD12FreePoly1,90.000000*%
%ADD13RoundRect,0.250000X0.625000X-0.312500X0.625000X0.312500X-0.625000X0.312500X-0.625000X-0.312500X0*%
%ADD14RoundRect,0.250000X0.925000X-0.412500X0.925000X0.412500X-0.925000X0.412500X-0.925000X-0.412500X0*%
%ADD15R,3.600000X2.600000*%
%ADD16C,3.000000*%
%ADD17RoundRect,0.250000X-0.312500X-0.625000X0.312500X-0.625000X0.312500X0.625000X-0.312500X0.625000X0*%
%ADD18RoundRect,0.150000X0.150000X-0.875000X0.150000X0.875000X-0.150000X0.875000X-0.150000X-0.875000X0*%
%ADD19RoundRect,0.381000X0.762000X0.381000X-0.762000X0.381000X-0.762000X-0.381000X0.762000X-0.381000X0*%
%ADD20RoundRect,0.150000X0.587500X0.150000X-0.587500X0.150000X-0.587500X-0.150000X0.587500X-0.150000X0*%
%ADD21R,1.800000X1.800000*%
%ADD22C,1.800000*%
G04 APERTURE END LIST*
D10*
%TO.C,TP-1*%
X172720000Y-83820000D03*
%TD*%
%TO.C,TP+1*%
X172720000Y-73660000D03*
%TD*%
D11*
%TO.C,JP4*%
X141605000Y-95265000D03*
D12*
X141605000Y-93965000D03*
%TD*%
D11*
%TO.C,JP7*%
X132080000Y-95265000D03*
D12*
X132080000Y-93965000D03*
%TD*%
D11*
%TO.C,JP2*%
X146685000Y-95265000D03*
D12*
X146685000Y-93965000D03*
%TD*%
D11*
%TO.C,JP1*%
X149225000Y-95265000D03*
D12*
X149225000Y-93965000D03*
%TD*%
D13*
%TO.C,R5*%
X146050000Y-68645500D03*
X146050000Y-65720500D03*
%TD*%
D14*
%TO.C,C1*%
X125095000Y-74295000D03*
X125095000Y-71220000D03*
%TD*%
D15*
%TO.C,BT1*%
X160655000Y-64090000D03*
X160655000Y-93390000D03*
%TD*%
D16*
%TO.C,H2*%
X171450000Y-95250000D03*
%TD*%
%TO.C,H3*%
X171450000Y-62230000D03*
%TD*%
%TO.C,H1*%
X118745000Y-62230000D03*
%TD*%
D17*
%TO.C,R2*%
X117729000Y-77470000D03*
X120654000Y-77470000D03*
%TD*%
D13*
%TO.C,R1*%
X125095000Y-84012500D03*
X125095000Y-81087500D03*
%TD*%
D18*
%TO.C,U1*%
X131445000Y-83390000D03*
X132715000Y-83390000D03*
X133985000Y-83390000D03*
X135255000Y-83390000D03*
X136525000Y-83390000D03*
X137795000Y-83390000D03*
X139065000Y-83390000D03*
X140335000Y-83390000D03*
X141605000Y-83390000D03*
X142875000Y-83390000D03*
X144145000Y-83390000D03*
X145415000Y-83390000D03*
X146685000Y-83390000D03*
X147955000Y-83390000D03*
X147955000Y-74090000D03*
X146685000Y-74090000D03*
X145415000Y-74090000D03*
X144145000Y-74090000D03*
X142875000Y-74090000D03*
X141605000Y-74090000D03*
X140335000Y-74090000D03*
X139065000Y-74090000D03*
X137795000Y-74090000D03*
X136525000Y-74090000D03*
X135255000Y-74090000D03*
X133985000Y-74090000D03*
X132715000Y-74090000D03*
X131445000Y-74090000D03*
%TD*%
D16*
%TO.C,H4*%
X118745000Y-95250000D03*
%TD*%
D17*
%TO.C,R3*%
X117729000Y-80010000D03*
X120654000Y-80010000D03*
%TD*%
D11*
%TO.C,JP5*%
X139065000Y-95265000D03*
D12*
X139065000Y-93965000D03*
%TD*%
D17*
%TO.C,R4*%
X117725000Y-82550000D03*
X120650000Y-82550000D03*
%TD*%
D11*
%TO.C,JP3*%
X144145000Y-95265000D03*
D12*
X144145000Y-93965000D03*
%TD*%
D11*
%TO.C,JP6*%
X134620000Y-95280000D03*
D12*
X134620000Y-93980000D03*
%TD*%
D19*
%TO.C,Q1*%
X141571500Y-69723000D03*
X141571500Y-64643000D03*
%TD*%
D20*
%TO.C,U2*%
X124762500Y-78420000D03*
X124762500Y-76520000D03*
X122887500Y-77470000D03*
%TD*%
D21*
%TO.C,DIR1*%
X107980000Y-80015000D03*
D22*
X107980000Y-77475000D03*
%TD*%
D21*
%TO.C,DSTATUS1*%
X111506000Y-80015000D03*
D22*
X111506000Y-77475000D03*
%TD*%
M02*
