%TF.GenerationSoftware,KiCad,Pcbnew,(6.0.6-0)*%
%TF.CreationDate,2022-12-31T16:02:41+01:00*%
%TF.ProjectId,rc5_remote,7263355f-7265-46d6-9f74-652e6b696361,rev?*%
%TF.SameCoordinates,Original*%
%TF.FileFunction,Soldermask,Bot*%
%TF.FilePolarity,Negative*%
%FSLAX46Y46*%
G04 Gerber Fmt 4.6, Leading zero omitted, Abs format (unit mm)*
G04 Created by KiCad (PCBNEW (6.0.6-0)) date 2022-12-31 16:02:41*
%MOMM*%
%LPD*%
G01*
G04 APERTURE LIST*
%ADD10C,2.500000*%
%ADD11C,3.000000*%
%ADD12R,1.300000X1.550000*%
%ADD13R,1.800000X1.800000*%
%ADD14C,1.800000*%
G04 APERTURE END LIST*
D10*
%TO.C,TP-1*%
X172720000Y-83820000D03*
%TD*%
%TO.C,TP+1*%
X172720000Y-73660000D03*
%TD*%
D11*
%TO.C,H2*%
X171450000Y-95250000D03*
%TD*%
%TO.C,H3*%
X171450000Y-62230000D03*
%TD*%
%TO.C,H1*%
X118745000Y-62230000D03*
%TD*%
%TO.C,H4*%
X118745000Y-95250000D03*
%TD*%
D12*
%TO.C,SW11*%
X155230000Y-88100000D03*
X155230000Y-96050000D03*
X159730000Y-88100000D03*
X159730000Y-96050000D03*
%TD*%
%TO.C,SW10*%
X155230000Y-61430000D03*
X155230000Y-69380000D03*
X159730000Y-61430000D03*
X159730000Y-69380000D03*
%TD*%
%TO.C,SW7*%
X148300000Y-88100000D03*
X148300000Y-96050000D03*
X143800000Y-88100000D03*
X143800000Y-96050000D03*
%TD*%
D13*
%TO.C,DIR1*%
X107980000Y-80015000D03*
D14*
X107980000Y-77475000D03*
%TD*%
D12*
%TO.C,SW5*%
X108240000Y-88100000D03*
X108240000Y-96050000D03*
X112740000Y-96050000D03*
X112740000Y-88100000D03*
%TD*%
%TO.C,SW8*%
X143800000Y-82715000D03*
X143800000Y-74765000D03*
X148300000Y-82715000D03*
X148300000Y-74765000D03*
%TD*%
%TO.C,SW2*%
X108240000Y-61430000D03*
X108240000Y-69380000D03*
X112740000Y-61430000D03*
X112740000Y-69380000D03*
%TD*%
%TO.C,SW4*%
X124750000Y-96050000D03*
X124750000Y-88100000D03*
X129250000Y-96050000D03*
X129250000Y-88100000D03*
%TD*%
%TO.C,SW3*%
X117130000Y-74765000D03*
X117130000Y-82715000D03*
X121630000Y-74765000D03*
X121630000Y-82715000D03*
%TD*%
%TO.C,SW12*%
X155230000Y-74765000D03*
X155230000Y-82715000D03*
X159730000Y-74765000D03*
X159730000Y-82715000D03*
%TD*%
%TO.C,SW1*%
X124750000Y-69380000D03*
X124750000Y-61430000D03*
X129250000Y-69380000D03*
X129250000Y-61430000D03*
%TD*%
D13*
%TO.C,DSTATUS1*%
X111506000Y-80015000D03*
D14*
X111506000Y-77475000D03*
%TD*%
D12*
%TO.C,SW9*%
X143800000Y-61430000D03*
X143800000Y-69380000D03*
X148300000Y-61430000D03*
X148300000Y-69380000D03*
%TD*%
%TO.C,SW6*%
X132370000Y-82715000D03*
X132370000Y-74765000D03*
X136870000Y-74765000D03*
X136870000Y-82715000D03*
%TD*%
M02*
