%TF.GenerationSoftware,KiCad,Pcbnew,(6.0.6-0)*%
%TF.CreationDate,2022-12-31T16:02:41+01:00*%
%TF.ProjectId,rc5_remote,7263355f-7265-46d6-9f74-652e6b696361,rev?*%
%TF.SameCoordinates,Original*%
%TF.FileFunction,Copper,L1,Top*%
%TF.FilePolarity,Positive*%
%FSLAX46Y46*%
G04 Gerber Fmt 4.6, Leading zero omitted, Abs format (unit mm)*
G04 Created by KiCad (PCBNEW (6.0.6-0)) date 2022-12-31 16:02:41*
%MOMM*%
%LPD*%
G01*
G04 APERTURE LIST*
G04 Aperture macros list*
%AMRoundRect*
0 Rectangle with rounded corners*
0 $1 Rounding radius*
0 $2 $3 $4 $5 $6 $7 $8 $9 X,Y pos of 4 corners*
0 Add a 4 corners polygon primitive as box body*
4,1,4,$2,$3,$4,$5,$6,$7,$8,$9,$2,$3,0*
0 Add four circle primitives for the rounded corners*
1,1,$1+$1,$2,$3*
1,1,$1+$1,$4,$5*
1,1,$1+$1,$6,$7*
1,1,$1+$1,$8,$9*
0 Add four rect primitives between the rounded corners*
20,1,$1+$1,$2,$3,$4,$5,0*
20,1,$1+$1,$4,$5,$6,$7,0*
20,1,$1+$1,$6,$7,$8,$9,0*
20,1,$1+$1,$8,$9,$2,$3,0*%
%AMFreePoly0*
4,1,22,0.500000,-0.750000,0.000000,-0.750000,0.000000,-0.745033,-0.079941,-0.743568,-0.215256,-0.701293,-0.333266,-0.622738,-0.424486,-0.514219,-0.481581,-0.384460,-0.499164,-0.250000,-0.500000,-0.250000,-0.500000,0.250000,-0.499164,0.250000,-0.499963,0.256109,-0.478152,0.396186,-0.417904,0.524511,-0.324060,0.630769,-0.204165,0.706417,-0.067858,0.745374,0.000000,0.744959,0.000000,0.750000,
0.500000,0.750000,0.500000,-0.750000,0.500000,-0.750000,$1*%
%AMFreePoly1*
4,1,20,0.000000,0.744959,0.073905,0.744508,0.209726,0.703889,0.328688,0.626782,0.421226,0.519385,0.479903,0.390333,0.500000,0.250000,0.500000,-0.250000,0.499851,-0.262216,0.476331,-0.402017,0.414519,-0.529596,0.319384,-0.634700,0.198574,-0.708877,0.061801,-0.746166,0.000000,-0.745033,0.000000,-0.750000,-0.500000,-0.750000,-0.500000,0.750000,0.000000,0.750000,0.000000,0.744959,
0.000000,0.744959,$1*%
G04 Aperture macros list end*
%TA.AperFunction,ComponentPad*%
%ADD10C,2.500000*%
%TD*%
%TA.AperFunction,SMDPad,CuDef*%
%ADD11FreePoly0,90.000000*%
%TD*%
%TA.AperFunction,SMDPad,CuDef*%
%ADD12FreePoly1,90.000000*%
%TD*%
%TA.AperFunction,SMDPad,CuDef*%
%ADD13RoundRect,0.250000X0.625000X-0.312500X0.625000X0.312500X-0.625000X0.312500X-0.625000X-0.312500X0*%
%TD*%
%TA.AperFunction,SMDPad,CuDef*%
%ADD14RoundRect,0.250000X0.925000X-0.412500X0.925000X0.412500X-0.925000X0.412500X-0.925000X-0.412500X0*%
%TD*%
%TA.AperFunction,SMDPad,CuDef*%
%ADD15R,3.600000X2.600000*%
%TD*%
%TA.AperFunction,SMDPad,CuDef*%
%ADD16RoundRect,0.250000X-0.312500X-0.625000X0.312500X-0.625000X0.312500X0.625000X-0.312500X0.625000X0*%
%TD*%
%TA.AperFunction,SMDPad,CuDef*%
%ADD17RoundRect,0.150000X0.150000X-0.875000X0.150000X0.875000X-0.150000X0.875000X-0.150000X-0.875000X0*%
%TD*%
%TA.AperFunction,SMDPad,CuDef*%
%ADD18RoundRect,0.381000X0.762000X0.381000X-0.762000X0.381000X-0.762000X-0.381000X0.762000X-0.381000X0*%
%TD*%
%TA.AperFunction,SMDPad,CuDef*%
%ADD19RoundRect,0.150000X0.587500X0.150000X-0.587500X0.150000X-0.587500X-0.150000X0.587500X-0.150000X0*%
%TD*%
%TA.AperFunction,ComponentPad*%
%ADD20R,1.800000X1.800000*%
%TD*%
%TA.AperFunction,ComponentPad*%
%ADD21C,1.800000*%
%TD*%
%TA.AperFunction,ViaPad*%
%ADD22C,0.800000*%
%TD*%
%TA.AperFunction,Conductor*%
%ADD23C,0.250000*%
%TD*%
%TA.AperFunction,Conductor*%
%ADD24C,0.254000*%
%TD*%
G04 APERTURE END LIST*
%TO.C,JP4*%
G36*
X141905000Y-94865000D02*
G01*
X141305000Y-94865000D01*
X141305000Y-94365000D01*
X141905000Y-94365000D01*
X141905000Y-94865000D01*
G37*
%TO.C,JP7*%
G36*
X132380000Y-94865000D02*
G01*
X131780000Y-94865000D01*
X131780000Y-94365000D01*
X132380000Y-94365000D01*
X132380000Y-94865000D01*
G37*
%TO.C,JP2*%
G36*
X146985000Y-94865000D02*
G01*
X146385000Y-94865000D01*
X146385000Y-94365000D01*
X146985000Y-94365000D01*
X146985000Y-94865000D01*
G37*
%TO.C,JP1*%
G36*
X149525000Y-94865000D02*
G01*
X148925000Y-94865000D01*
X148925000Y-94365000D01*
X149525000Y-94365000D01*
X149525000Y-94865000D01*
G37*
%TO.C,JP5*%
G36*
X139365000Y-94865000D02*
G01*
X138765000Y-94865000D01*
X138765000Y-94365000D01*
X139365000Y-94365000D01*
X139365000Y-94865000D01*
G37*
%TO.C,JP3*%
G36*
X144445000Y-94865000D02*
G01*
X143845000Y-94865000D01*
X143845000Y-94365000D01*
X144445000Y-94365000D01*
X144445000Y-94865000D01*
G37*
%TO.C,JP6*%
G36*
X134920000Y-94880000D02*
G01*
X134320000Y-94880000D01*
X134320000Y-94380000D01*
X134920000Y-94380000D01*
X134920000Y-94880000D01*
G37*
%TD*%
D10*
%TO.P,TP-1,1,1*%
%TO.N,GND*%
X172720000Y-83820000D03*
%TD*%
%TO.P,TP+1,1,1*%
%TO.N,Net-(BT1-Pad1)*%
X172720000Y-73660000D03*
%TD*%
D11*
%TO.P,JP4,1,A*%
%TO.N,Net-(JP1-Pad1)*%
X141605000Y-95265000D03*
D12*
%TO.P,JP4,2,B*%
%TO.N,Net-(JP4-Pad2)*%
X141605000Y-93965000D03*
%TD*%
D11*
%TO.P,JP7,1,A*%
%TO.N,Net-(JP1-Pad1)*%
X132080000Y-95265000D03*
D12*
%TO.P,JP7,2,B*%
%TO.N,Net-(JP7-Pad2)*%
X132080000Y-93965000D03*
%TD*%
D11*
%TO.P,JP2,1,A*%
%TO.N,Net-(JP1-Pad1)*%
X146685000Y-95265000D03*
D12*
%TO.P,JP2,2,B*%
%TO.N,Net-(JP2-Pad2)*%
X146685000Y-93965000D03*
%TD*%
D11*
%TO.P,JP1,1,A*%
%TO.N,Net-(JP1-Pad1)*%
X149225000Y-95265000D03*
D12*
%TO.P,JP1,2,B*%
%TO.N,Net-(JP1-Pad2)*%
X149225000Y-93965000D03*
%TD*%
D13*
%TO.P,R5,1*%
%TO.N,Net-(R5-Pad1)*%
X146050000Y-68645500D03*
%TO.P,R5,2*%
%TO.N,Net-(Q1-Pad2)*%
X146050000Y-65720500D03*
%TD*%
D14*
%TO.P,C1,1*%
%TO.N,Net-(BT1-Pad1)*%
X125095000Y-74295000D03*
%TO.P,C1,2*%
%TO.N,GND*%
X125095000Y-71220000D03*
%TD*%
D15*
%TO.P,BT1,1,+*%
%TO.N,Net-(BT1-Pad1)*%
X160655000Y-64090000D03*
%TO.P,BT1,2,-*%
%TO.N,GND*%
X160655000Y-93390000D03*
%TD*%
D16*
%TO.P,R2,1*%
%TO.N,Net-(DSTATUS1-Pad1)*%
X117729000Y-77470000D03*
%TO.P,R2,2*%
%TO.N,Net-(R2-Pad2)*%
X120654000Y-77470000D03*
%TD*%
D13*
%TO.P,R1,1*%
%TO.N,Net-(R1-Pad1)*%
X125095000Y-84012500D03*
%TO.P,R1,2*%
%TO.N,Net-(R1-Pad2)*%
X125095000Y-81087500D03*
%TD*%
D17*
%TO.P,U1,1,X7*%
%TO.N,unconnected-(U1-Pad1)*%
X131445000Y-83390000D03*
%TO.P,U1,2,SSM*%
%TO.N,Net-(BT1-Pad1)*%
X132715000Y-83390000D03*
%TO.P,U1,3,Z0*%
%TO.N,unconnected-(U1-Pad3)*%
X133985000Y-83390000D03*
%TO.P,U1,4,Z1*%
%TO.N,Net-(JP7-Pad2)*%
X135255000Y-83390000D03*
%TO.P,U1,5,Z2*%
%TO.N,Net-(JP6-Pad2)*%
X136525000Y-83390000D03*
%TO.P,U1,6,Z3*%
%TO.N,unconnected-(U1-Pad6)*%
X137795000Y-83390000D03*
%TO.P,U1,7,MDATA*%
%TO.N,Net-(R1-Pad1)*%
X139065000Y-83390000D03*
%TO.P,U1,8,DATA*%
%TO.N,unconnected-(U1-Pad8)*%
X140335000Y-83390000D03*
%TO.P,U1,9,DR7*%
%TO.N,Net-(JP5-Pad2)*%
X141605000Y-83390000D03*
%TO.P,U1,10,DR6*%
%TO.N,Net-(JP4-Pad2)*%
X142875000Y-83390000D03*
%TO.P,U1,11,DR5*%
%TO.N,Net-(JP3-Pad2)*%
X144145000Y-83390000D03*
%TO.P,U1,12,DR4*%
%TO.N,Net-(JP2-Pad2)*%
X145415000Y-83390000D03*
%TO.P,U1,13,DR3*%
%TO.N,Net-(JP1-Pad2)*%
X146685000Y-83390000D03*
%TO.P,U1,14,VSS*%
%TO.N,GND*%
X147955000Y-83390000D03*
%TO.P,U1,15,DR2*%
%TO.N,Net-(SW10-Pad1)*%
X147955000Y-74090000D03*
%TO.P,U1,16,DR1*%
%TO.N,Net-(SW2-Pad2)*%
X146685000Y-74090000D03*
%TO.P,U1,17,DR0*%
%TO.N,Net-(SW1-Pad2)*%
X145415000Y-74090000D03*
%TO.P,U1,18,OSC*%
%TO.N,Net-(R5-Pad1)*%
X144145000Y-74090000D03*
%TO.P,U1,19,TP2*%
%TO.N,GND*%
X142875000Y-74090000D03*
%TO.P,U1,20,TP1*%
X141605000Y-74090000D03*
%TO.P,U1,21,X0*%
%TO.N,Net-(SW1-Pad1)*%
X140335000Y-74090000D03*
%TO.P,U1,22,X1*%
%TO.N,Net-(SW10-Pad2)*%
X139065000Y-74090000D03*
%TO.P,U1,23,X2*%
%TO.N,unconnected-(U1-Pad23)*%
X137795000Y-74090000D03*
%TO.P,U1,24,X3*%
%TO.N,unconnected-(U1-Pad24)*%
X136525000Y-74090000D03*
%TO.P,U1,25,X4*%
%TO.N,unconnected-(U1-Pad25)*%
X135255000Y-74090000D03*
%TO.P,U1,26,X5*%
%TO.N,unconnected-(U1-Pad26)*%
X133985000Y-74090000D03*
%TO.P,U1,27,X6*%
%TO.N,unconnected-(U1-Pad27)*%
X132715000Y-74090000D03*
%TO.P,U1,28,VDD*%
%TO.N,Net-(BT1-Pad1)*%
X131445000Y-74090000D03*
%TD*%
D16*
%TO.P,R3,1*%
%TO.N,Net-(DIR1-Pad1)*%
X117729000Y-80010000D03*
%TO.P,R3,2*%
%TO.N,Net-(R2-Pad2)*%
X120654000Y-80010000D03*
%TD*%
D11*
%TO.P,JP5,1,A*%
%TO.N,Net-(JP1-Pad1)*%
X139065000Y-95265000D03*
D12*
%TO.P,JP5,2,B*%
%TO.N,Net-(JP5-Pad2)*%
X139065000Y-93965000D03*
%TD*%
D16*
%TO.P,R4,1*%
%TO.N,Net-(DIR1-Pad1)*%
X117725000Y-82550000D03*
%TO.P,R4,2*%
%TO.N,Net-(R2-Pad2)*%
X120650000Y-82550000D03*
%TD*%
D11*
%TO.P,JP3,1,A*%
%TO.N,Net-(JP1-Pad1)*%
X144145000Y-95265000D03*
D12*
%TO.P,JP3,2,B*%
%TO.N,Net-(JP3-Pad2)*%
X144145000Y-93965000D03*
%TD*%
D11*
%TO.P,JP6,1,A*%
%TO.N,Net-(JP1-Pad1)*%
X134620000Y-95280000D03*
D12*
%TO.P,JP6,2,B*%
%TO.N,Net-(JP6-Pad2)*%
X134620000Y-93980000D03*
%TD*%
D18*
%TO.P,Q1,1,1*%
%TO.N,GND*%
X141571500Y-69723000D03*
%TO.P,Q1,2,2*%
%TO.N,Net-(Q1-Pad2)*%
X141571500Y-64643000D03*
%TD*%
D19*
%TO.P,U2,1,B*%
%TO.N,Net-(R1-Pad2)*%
X124762500Y-78420000D03*
%TO.P,U2,2,E*%
%TO.N,GND*%
X124762500Y-76520000D03*
%TO.P,U2,3,C*%
%TO.N,Net-(R2-Pad2)*%
X122887500Y-77470000D03*
%TD*%
D20*
%TO.P,DIR1,1,K*%
%TO.N,Net-(DIR1-Pad1)*%
X107980000Y-80015000D03*
D21*
%TO.P,DIR1,2,A*%
%TO.N,Net-(BT1-Pad1)*%
X107980000Y-77475000D03*
%TD*%
D20*
%TO.P,DSTATUS1,1,K*%
%TO.N,Net-(DSTATUS1-Pad1)*%
X111506000Y-80015000D03*
D21*
%TO.P,DSTATUS1,2,A*%
%TO.N,Net-(BT1-Pad1)*%
X111506000Y-77475000D03*
%TD*%
D22*
%TO.N,Net-(JP1-Pad2)*%
X149225000Y-92075000D03*
X146685000Y-89535000D03*
%TO.N,Net-(JP2-Pad2)*%
X145415000Y-90805000D03*
%TO.N,Net-(JP3-Pad2)*%
X144145000Y-86360000D03*
%TO.N,Net-(JP4-Pad2)*%
X142875000Y-92710000D03*
X141605000Y-88265000D03*
%TO.N,Net-(JP5-Pad2)*%
X141605000Y-80645000D03*
%TO.N,Net-(R1-Pad1)*%
X132080000Y-86360000D03*
X139065000Y-87630000D03*
%TO.N,Net-(SW1-Pad2)*%
X145415000Y-71120000D03*
%TO.N,Net-(SW1-Pad1)*%
X140335000Y-76200000D03*
%TO.N,Net-(SW2-Pad2)*%
X146685000Y-77470000D03*
%TO.N,Net-(SW10-Pad1)*%
X147955000Y-79375000D03*
X147955000Y-72390000D03*
%TO.N,Net-(SW10-Pad2)*%
X139065000Y-72136000D03*
%TD*%
D23*
%TO.N,Net-(BT1-Pad1)*%
X160655000Y-64090000D02*
X160655000Y-69215000D01*
X160655000Y-69215000D02*
X165100000Y-73660000D01*
X165100000Y-73660000D02*
X172720000Y-73660000D01*
D24*
%TO.N,Net-(DIR1-Pad1)*%
X117725000Y-82550000D02*
X117725000Y-80014000D01*
X109220000Y-82550000D02*
X117725000Y-82550000D01*
X107950000Y-81280000D02*
X109220000Y-82550000D01*
X117725000Y-80014000D02*
X117729000Y-80010000D01*
X107950000Y-79375000D02*
X107950000Y-81280000D01*
%TO.N,Net-(DSTATUS1-Pad1)*%
X115570000Y-77470000D02*
X117729000Y-77470000D01*
D23*
X117729000Y-77470000D02*
X117724000Y-77465000D01*
D24*
X111506000Y-80015000D02*
X113025000Y-80015000D01*
X113025000Y-80015000D02*
X115570000Y-77470000D01*
%TO.N,Net-(JP1-Pad1)*%
X149225000Y-95265000D02*
X132080000Y-95265000D01*
%TO.N,Net-(BT1-Pad1)*%
X107980000Y-77475000D02*
X111506000Y-77475000D01*
X131445000Y-77470000D02*
X131445000Y-74090000D01*
X125095000Y-74295000D02*
X131240000Y-74295000D01*
X131240000Y-74295000D02*
X131445000Y-74090000D01*
X134620000Y-62230000D02*
X147955000Y-62230000D01*
X125095000Y-74295000D02*
X114686000Y-74295000D01*
X149785000Y-64060000D02*
X159967500Y-64060000D01*
X131445000Y-74090000D02*
X131445000Y-65405000D01*
X132715000Y-78740000D02*
X131445000Y-77470000D01*
X131445000Y-65405000D02*
X134620000Y-62230000D01*
X132715000Y-83390000D02*
X132715000Y-78740000D01*
X147955000Y-62230000D02*
X149785000Y-64060000D01*
X114686000Y-74295000D02*
X111506000Y-77475000D01*
%TO.N,Net-(JP1-Pad2)*%
X146685000Y-85598000D02*
X146685000Y-83390000D01*
X149225000Y-93965000D02*
X149225000Y-92075000D01*
X146685000Y-89535000D02*
X146685000Y-85598000D01*
X149225000Y-92075000D02*
X146685000Y-89535000D01*
%TO.N,Net-(JP2-Pad2)*%
X146685000Y-92075000D02*
X146685000Y-93965000D01*
X146685000Y-92075000D02*
X145415000Y-90805000D01*
X145415000Y-90805000D02*
X145415000Y-83390000D01*
%TO.N,Net-(JP3-Pad2)*%
X144145000Y-86360000D02*
X144145000Y-93965000D01*
X144145000Y-86360000D02*
X144145000Y-83390000D01*
%TO.N,Net-(JP4-Pad2)*%
X142875000Y-83390000D02*
X142875000Y-86995000D01*
X142875000Y-92710000D02*
X141605000Y-92710000D01*
X142875000Y-86995000D02*
X141605000Y-88265000D01*
X141605000Y-93965000D02*
X141605000Y-88265000D01*
%TO.N,Net-(JP6-Pad2)*%
X134620000Y-93980000D02*
X134620000Y-89535000D01*
X134620000Y-89535000D02*
X136525000Y-87630000D01*
X136525000Y-87630000D02*
X136525000Y-83390000D01*
%TO.N,Net-(JP7-Pad2)*%
X135255000Y-83390000D02*
X135255000Y-85725000D01*
X135255000Y-85725000D02*
X132080000Y-88900000D01*
X132080000Y-88900000D02*
X132080000Y-93965000D01*
%TO.N,Net-(JP5-Pad2)*%
X141605000Y-80645000D02*
X141605000Y-83390000D01*
X139065000Y-88900000D02*
X141605000Y-86360000D01*
X139065000Y-93965000D02*
X139065000Y-88900000D01*
X141605000Y-86360000D02*
X141605000Y-83390000D01*
%TO.N,Net-(R1-Pad1)*%
X127442500Y-86360000D02*
X132080000Y-86360000D01*
X125095000Y-84012500D02*
X127442500Y-86360000D01*
X139065000Y-87630000D02*
X139065000Y-83390000D01*
D23*
%TO.N,Net-(R1-Pad2)*%
X124762500Y-78420000D02*
X124762500Y-80755000D01*
X124762500Y-80755000D02*
X125095000Y-81087500D01*
%TO.N,Net-(R2-Pad2)*%
X120654000Y-77470000D02*
X122887500Y-77470000D01*
X120654000Y-77470000D02*
X120654000Y-82546000D01*
X120654000Y-82546000D02*
X120650000Y-82550000D01*
%TO.N,Net-(R5-Pad1)*%
X144145000Y-74090000D02*
X144145000Y-69215000D01*
X144145000Y-69215000D02*
X144780000Y-68580000D01*
X144780000Y-68580000D02*
X145984500Y-68580000D01*
X145984500Y-68580000D02*
X146050000Y-68645500D01*
%TO.N,Net-(Q1-Pad2)*%
X143383000Y-64643000D02*
X141571500Y-64643000D01*
X144460500Y-65720500D02*
X143383000Y-64643000D01*
X146050000Y-65720500D02*
X144460500Y-65720500D01*
D24*
%TO.N,Net-(SW1-Pad2)*%
X145415000Y-71120000D02*
X145415000Y-74090000D01*
%TO.N,Net-(SW1-Pad1)*%
X140335000Y-76200000D02*
X140335000Y-74090000D01*
%TO.N,Net-(SW2-Pad2)*%
X146685000Y-77470000D02*
X146685000Y-74090000D01*
%TO.N,Net-(SW10-Pad1)*%
X147955000Y-74090000D02*
X147955000Y-72390000D01*
X147955000Y-79375000D02*
X147955000Y-74090000D01*
%TO.N,Net-(SW10-Pad2)*%
X139065000Y-72136000D02*
X139065000Y-74090000D01*
%TD*%
%TA.AperFunction,Conductor*%
%TO.N,GND*%
G36*
X174567121Y-59075002D02*
G01*
X174613614Y-59128658D01*
X174625000Y-59181000D01*
X174625000Y-83196335D01*
X174604998Y-83264456D01*
X174551342Y-83310949D01*
X174481068Y-83321053D01*
X174416488Y-83291559D01*
X174381567Y-83242002D01*
X174312888Y-83065392D01*
X174308877Y-83056983D01*
X174183854Y-82838240D01*
X174178643Y-82830514D01*
X174141391Y-82783261D01*
X174129466Y-82774790D01*
X174117934Y-82781276D01*
X173092022Y-83807188D01*
X173084408Y-83821132D01*
X173084539Y-83822965D01*
X173088790Y-83829580D01*
X174119913Y-84860703D01*
X174132293Y-84867463D01*
X174140634Y-84861219D01*
X174266765Y-84665127D01*
X174271212Y-84656936D01*
X174374691Y-84427222D01*
X174379479Y-84414067D01*
X174380572Y-84414465D01*
X174415470Y-84358858D01*
X174479731Y-84328674D01*
X174550109Y-84338023D01*
X174604261Y-84383938D01*
X174625000Y-84453192D01*
X174625000Y-98299000D01*
X174604998Y-98367121D01*
X174551342Y-98413614D01*
X174499000Y-98425000D01*
X101091000Y-98425000D01*
X101022879Y-98404998D01*
X100976386Y-98351342D01*
X100965000Y-98299000D01*
X100965000Y-95357165D01*
X116992866Y-95357165D01*
X117027952Y-95614970D01*
X117100758Y-95864757D01*
X117102718Y-95869010D01*
X117102719Y-95869011D01*
X117115146Y-95895966D01*
X117209686Y-96101039D01*
X117212246Y-96104944D01*
X117212249Y-96104949D01*
X117349775Y-96314712D01*
X117349779Y-96314717D01*
X117352341Y-96318625D01*
X117525591Y-96512735D01*
X117725629Y-96679105D01*
X117948061Y-96814080D01*
X117952375Y-96815889D01*
X117952377Y-96815890D01*
X118183686Y-96912886D01*
X118183691Y-96912888D01*
X118188001Y-96914695D01*
X118192533Y-96915846D01*
X118192536Y-96915847D01*
X118317815Y-96947663D01*
X118440177Y-96978739D01*
X118656286Y-97000500D01*
X118811044Y-97000500D01*
X118813369Y-97000327D01*
X118813375Y-97000327D01*
X118999814Y-96986472D01*
X118999818Y-96986471D01*
X119004466Y-96986126D01*
X119258232Y-96928705D01*
X119262586Y-96927012D01*
X119496370Y-96836098D01*
X119496372Y-96836097D01*
X119500723Y-96834405D01*
X119536285Y-96814080D01*
X119584038Y-96786786D01*
X119726612Y-96705299D01*
X119930936Y-96544223D01*
X120109208Y-96354714D01*
X120257511Y-96140937D01*
X120275258Y-96104949D01*
X120370521Y-95911775D01*
X120370522Y-95911772D01*
X120372586Y-95907587D01*
X120378487Y-95889154D01*
X120450483Y-95664237D01*
X120451906Y-95659792D01*
X120474743Y-95519569D01*
X120492977Y-95407606D01*
X120492977Y-95407605D01*
X120493728Y-95402994D01*
X120494654Y-95332307D01*
X131125108Y-95332307D01*
X131125717Y-95336750D01*
X131125717Y-95336756D01*
X131128513Y-95357165D01*
X131132974Y-95389732D01*
X131134205Y-95394039D01*
X131134206Y-95394044D01*
X131152637Y-95458531D01*
X131172331Y-95527441D01*
X131195999Y-95580351D01*
X131198385Y-95584133D01*
X131198389Y-95584140D01*
X131240742Y-95651265D01*
X131272425Y-95701479D01*
X131309992Y-95745620D01*
X131313356Y-95748591D01*
X131330341Y-95763591D01*
X131417343Y-95840428D01*
X131465785Y-95872248D01*
X131469841Y-95874152D01*
X131469844Y-95874154D01*
X131501793Y-95889154D01*
X131595430Y-95933117D01*
X131599713Y-95934426D01*
X131599717Y-95934428D01*
X131638265Y-95946213D01*
X131650861Y-95950064D01*
X131655284Y-95950753D01*
X131655290Y-95950754D01*
X131787958Y-95971410D01*
X131787963Y-95971410D01*
X131792379Y-95972098D01*
X131796845Y-95972153D01*
X131796850Y-95972153D01*
X131823958Y-95972484D01*
X131850335Y-95972806D01*
X131854777Y-95972225D01*
X131854780Y-95972225D01*
X131868031Y-95970492D01*
X131884368Y-95969428D01*
X132265480Y-95969428D01*
X132284863Y-95970928D01*
X132286367Y-95971162D01*
X132292379Y-95972098D01*
X132296845Y-95972153D01*
X132296850Y-95972153D01*
X132323958Y-95972484D01*
X132350335Y-95972806D01*
X132354777Y-95972225D01*
X132354780Y-95972225D01*
X132419568Y-95963753D01*
X132492349Y-95954236D01*
X132496665Y-95953031D01*
X132496670Y-95953030D01*
X132521085Y-95946213D01*
X132548177Y-95938649D01*
X132560750Y-95933117D01*
X132675168Y-95882771D01*
X132675169Y-95882771D01*
X132679270Y-95880966D01*
X132720299Y-95855428D01*
X132724661Y-95852713D01*
X132724665Y-95852710D01*
X132728476Y-95850338D01*
X132731908Y-95847453D01*
X132731915Y-95847448D01*
X132834679Y-95761066D01*
X132834680Y-95761065D01*
X132838111Y-95758181D01*
X132866675Y-95726234D01*
X132873753Y-95718318D01*
X132873757Y-95718313D01*
X132876745Y-95714971D01*
X132883457Y-95704889D01*
X132920871Y-95648682D01*
X132975268Y-95603059D01*
X133025758Y-95592500D01*
X133664716Y-95592500D01*
X133732837Y-95612502D01*
X133771278Y-95651265D01*
X133812425Y-95716479D01*
X133815329Y-95719891D01*
X133839755Y-95748591D01*
X133849992Y-95760620D01*
X133853356Y-95763591D01*
X133943149Y-95842892D01*
X133957343Y-95855428D01*
X134005785Y-95887248D01*
X134009841Y-95889152D01*
X134009844Y-95889154D01*
X134049105Y-95907587D01*
X134135430Y-95948117D01*
X134139713Y-95949426D01*
X134139717Y-95949428D01*
X134183446Y-95962797D01*
X134190861Y-95965064D01*
X134195284Y-95965753D01*
X134195290Y-95965754D01*
X134327958Y-95986410D01*
X134327963Y-95986410D01*
X134332379Y-95987098D01*
X134336845Y-95987153D01*
X134336850Y-95987153D01*
X134363958Y-95987484D01*
X134390335Y-95987806D01*
X134394777Y-95987225D01*
X134394780Y-95987225D01*
X134408031Y-95985492D01*
X134424368Y-95984428D01*
X134805480Y-95984428D01*
X134824863Y-95985928D01*
X134826367Y-95986162D01*
X134832379Y-95987098D01*
X134836845Y-95987153D01*
X134836850Y-95987153D01*
X134863958Y-95987484D01*
X134890335Y-95987806D01*
X134894777Y-95987225D01*
X134894780Y-95987225D01*
X134955417Y-95979296D01*
X135032349Y-95969236D01*
X135036665Y-95968031D01*
X135036670Y-95968030D01*
X135060263Y-95961442D01*
X135088177Y-95953649D01*
X135094757Y-95950754D01*
X135215168Y-95897771D01*
X135215169Y-95897771D01*
X135219270Y-95895966D01*
X135250582Y-95876476D01*
X135264661Y-95867713D01*
X135264665Y-95867710D01*
X135268476Y-95865338D01*
X135271908Y-95862453D01*
X135271915Y-95862448D01*
X135374679Y-95776066D01*
X135374680Y-95776065D01*
X135378111Y-95773181D01*
X135389342Y-95760620D01*
X135413753Y-95733318D01*
X135413757Y-95733313D01*
X135416745Y-95729971D01*
X135429218Y-95711234D01*
X135469136Y-95651265D01*
X135470857Y-95648680D01*
X135525253Y-95603058D01*
X135575743Y-95592500D01*
X138119180Y-95592500D01*
X138187301Y-95612502D01*
X138225742Y-95651265D01*
X138255033Y-95697689D01*
X138255038Y-95697695D01*
X138257425Y-95701479D01*
X138260326Y-95704888D01*
X138260327Y-95704889D01*
X138270191Y-95716479D01*
X138294992Y-95745620D01*
X138298356Y-95748591D01*
X138315341Y-95763591D01*
X138402343Y-95840428D01*
X138450785Y-95872248D01*
X138454841Y-95874152D01*
X138454844Y-95874154D01*
X138486793Y-95889154D01*
X138580430Y-95933117D01*
X138584713Y-95934426D01*
X138584717Y-95934428D01*
X138623265Y-95946213D01*
X138635861Y-95950064D01*
X138640284Y-95950753D01*
X138640290Y-95950754D01*
X138772958Y-95971410D01*
X138772963Y-95971410D01*
X138777379Y-95972098D01*
X138781845Y-95972153D01*
X138781850Y-95972153D01*
X138808958Y-95972484D01*
X138835335Y-95972806D01*
X138839777Y-95972225D01*
X138839780Y-95972225D01*
X138853031Y-95970492D01*
X138869368Y-95969428D01*
X139250480Y-95969428D01*
X139269863Y-95970928D01*
X139271367Y-95971162D01*
X139277379Y-95972098D01*
X139281845Y-95972153D01*
X139281850Y-95972153D01*
X139308958Y-95972484D01*
X139335335Y-95972806D01*
X139339777Y-95972225D01*
X139339780Y-95972225D01*
X139404568Y-95963753D01*
X139477349Y-95954236D01*
X139481665Y-95953031D01*
X139481670Y-95953030D01*
X139506085Y-95946213D01*
X139533177Y-95938649D01*
X139545750Y-95933117D01*
X139660168Y-95882771D01*
X139660169Y-95882771D01*
X139664270Y-95880966D01*
X139705299Y-95855428D01*
X139709661Y-95852713D01*
X139709665Y-95852710D01*
X139713476Y-95850338D01*
X139716908Y-95847453D01*
X139716915Y-95847448D01*
X139819679Y-95761066D01*
X139819680Y-95761065D01*
X139823111Y-95758181D01*
X139851675Y-95726234D01*
X139858753Y-95718318D01*
X139858757Y-95718313D01*
X139861745Y-95714971D01*
X139868457Y-95704889D01*
X139905871Y-95648682D01*
X139960268Y-95603059D01*
X140010758Y-95592500D01*
X140659180Y-95592500D01*
X140727301Y-95612502D01*
X140765742Y-95651265D01*
X140795033Y-95697689D01*
X140795038Y-95697695D01*
X140797425Y-95701479D01*
X140800326Y-95704888D01*
X140800327Y-95704889D01*
X140810191Y-95716479D01*
X140834992Y-95745620D01*
X140838356Y-95748591D01*
X140855341Y-95763591D01*
X140942343Y-95840428D01*
X140990785Y-95872248D01*
X140994841Y-95874152D01*
X140994844Y-95874154D01*
X141026793Y-95889154D01*
X141120430Y-95933117D01*
X141124713Y-95934426D01*
X141124717Y-95934428D01*
X141163265Y-95946213D01*
X141175861Y-95950064D01*
X141180284Y-95950753D01*
X141180290Y-95950754D01*
X141312958Y-95971410D01*
X141312963Y-95971410D01*
X141317379Y-95972098D01*
X141321845Y-95972153D01*
X141321850Y-95972153D01*
X141348958Y-95972484D01*
X141375335Y-95972806D01*
X141379777Y-95972225D01*
X141379780Y-95972225D01*
X141393031Y-95970492D01*
X141409368Y-95969428D01*
X141790480Y-95969428D01*
X141809863Y-95970928D01*
X141811367Y-95971162D01*
X141817379Y-95972098D01*
X141821845Y-95972153D01*
X141821850Y-95972153D01*
X141848958Y-95972484D01*
X141875335Y-95972806D01*
X141879777Y-95972225D01*
X141879780Y-95972225D01*
X141944568Y-95963753D01*
X142017349Y-95954236D01*
X142021665Y-95953031D01*
X142021670Y-95953030D01*
X142046085Y-95946213D01*
X142073177Y-95938649D01*
X142085750Y-95933117D01*
X142200168Y-95882771D01*
X142200169Y-95882771D01*
X142204270Y-95880966D01*
X142245299Y-95855428D01*
X142249661Y-95852713D01*
X142249665Y-95852710D01*
X142253476Y-95850338D01*
X142256908Y-95847453D01*
X142256915Y-95847448D01*
X142359679Y-95761066D01*
X142359680Y-95761065D01*
X142363111Y-95758181D01*
X142391675Y-95726234D01*
X142398753Y-95718318D01*
X142398757Y-95718313D01*
X142401745Y-95714971D01*
X142408457Y-95704889D01*
X142445871Y-95648682D01*
X142500268Y-95603059D01*
X142550758Y-95592500D01*
X143199180Y-95592500D01*
X143267301Y-95612502D01*
X143305742Y-95651265D01*
X143335033Y-95697689D01*
X143335038Y-95697695D01*
X143337425Y-95701479D01*
X143340326Y-95704888D01*
X143340327Y-95704889D01*
X143350191Y-95716479D01*
X143374992Y-95745620D01*
X143378356Y-95748591D01*
X143395341Y-95763591D01*
X143482343Y-95840428D01*
X143530785Y-95872248D01*
X143534841Y-95874152D01*
X143534844Y-95874154D01*
X143566793Y-95889154D01*
X143660430Y-95933117D01*
X143664713Y-95934426D01*
X143664717Y-95934428D01*
X143703265Y-95946213D01*
X143715861Y-95950064D01*
X143720284Y-95950753D01*
X143720290Y-95950754D01*
X143852958Y-95971410D01*
X143852963Y-95971410D01*
X143857379Y-95972098D01*
X143861845Y-95972153D01*
X143861850Y-95972153D01*
X143888958Y-95972484D01*
X143915335Y-95972806D01*
X143919777Y-95972225D01*
X143919780Y-95972225D01*
X143933031Y-95970492D01*
X143949368Y-95969428D01*
X144330480Y-95969428D01*
X144349863Y-95970928D01*
X144351367Y-95971162D01*
X144357379Y-95972098D01*
X144361845Y-95972153D01*
X144361850Y-95972153D01*
X144388958Y-95972484D01*
X144415335Y-95972806D01*
X144419777Y-95972225D01*
X144419780Y-95972225D01*
X144484568Y-95963753D01*
X144557349Y-95954236D01*
X144561665Y-95953031D01*
X144561670Y-95953030D01*
X144586085Y-95946213D01*
X144613177Y-95938649D01*
X144625750Y-95933117D01*
X144740168Y-95882771D01*
X144740169Y-95882771D01*
X144744270Y-95880966D01*
X144785299Y-95855428D01*
X144789661Y-95852713D01*
X144789665Y-95852710D01*
X144793476Y-95850338D01*
X144796908Y-95847453D01*
X144796915Y-95847448D01*
X144899679Y-95761066D01*
X144899680Y-95761065D01*
X144903111Y-95758181D01*
X144931675Y-95726234D01*
X144938753Y-95718318D01*
X144938757Y-95718313D01*
X144941745Y-95714971D01*
X144948457Y-95704889D01*
X144985871Y-95648682D01*
X145040268Y-95603059D01*
X145090758Y-95592500D01*
X145739180Y-95592500D01*
X145807301Y-95612502D01*
X145845742Y-95651265D01*
X145875033Y-95697689D01*
X145875038Y-95697695D01*
X145877425Y-95701479D01*
X145880326Y-95704888D01*
X145880327Y-95704889D01*
X145890191Y-95716479D01*
X145914992Y-95745620D01*
X145918356Y-95748591D01*
X145935341Y-95763591D01*
X146022343Y-95840428D01*
X146070785Y-95872248D01*
X146074841Y-95874152D01*
X146074844Y-95874154D01*
X146106793Y-95889154D01*
X146200430Y-95933117D01*
X146204713Y-95934426D01*
X146204717Y-95934428D01*
X146243265Y-95946213D01*
X146255861Y-95950064D01*
X146260284Y-95950753D01*
X146260290Y-95950754D01*
X146392958Y-95971410D01*
X146392963Y-95971410D01*
X146397379Y-95972098D01*
X146401845Y-95972153D01*
X146401850Y-95972153D01*
X146428958Y-95972484D01*
X146455335Y-95972806D01*
X146459777Y-95972225D01*
X146459780Y-95972225D01*
X146473031Y-95970492D01*
X146489368Y-95969428D01*
X146870480Y-95969428D01*
X146889863Y-95970928D01*
X146891367Y-95971162D01*
X146897379Y-95972098D01*
X146901845Y-95972153D01*
X146901850Y-95972153D01*
X146928958Y-95972484D01*
X146955335Y-95972806D01*
X146959777Y-95972225D01*
X146959780Y-95972225D01*
X147024568Y-95963753D01*
X147097349Y-95954236D01*
X147101665Y-95953031D01*
X147101670Y-95953030D01*
X147126085Y-95946213D01*
X147153177Y-95938649D01*
X147165750Y-95933117D01*
X147280168Y-95882771D01*
X147280169Y-95882771D01*
X147284270Y-95880966D01*
X147325299Y-95855428D01*
X147329661Y-95852713D01*
X147329665Y-95852710D01*
X147333476Y-95850338D01*
X147336908Y-95847453D01*
X147336915Y-95847448D01*
X147439679Y-95761066D01*
X147439680Y-95761065D01*
X147443111Y-95758181D01*
X147471675Y-95726234D01*
X147478753Y-95718318D01*
X147478757Y-95718313D01*
X147481745Y-95714971D01*
X147488457Y-95704889D01*
X147525871Y-95648682D01*
X147580268Y-95603059D01*
X147630758Y-95592500D01*
X148279180Y-95592500D01*
X148347301Y-95612502D01*
X148385742Y-95651265D01*
X148415033Y-95697689D01*
X148415038Y-95697695D01*
X148417425Y-95701479D01*
X148420326Y-95704888D01*
X148420327Y-95704889D01*
X148430191Y-95716479D01*
X148454992Y-95745620D01*
X148458356Y-95748591D01*
X148475341Y-95763591D01*
X148562343Y-95840428D01*
X148610785Y-95872248D01*
X148614841Y-95874152D01*
X148614844Y-95874154D01*
X148646793Y-95889154D01*
X148740430Y-95933117D01*
X148744713Y-95934426D01*
X148744717Y-95934428D01*
X148783265Y-95946213D01*
X148795861Y-95950064D01*
X148800284Y-95950753D01*
X148800290Y-95950754D01*
X148932958Y-95971410D01*
X148932963Y-95971410D01*
X148937379Y-95972098D01*
X148941845Y-95972153D01*
X148941850Y-95972153D01*
X148968958Y-95972484D01*
X148995335Y-95972806D01*
X148999777Y-95972225D01*
X148999780Y-95972225D01*
X149013031Y-95970492D01*
X149029368Y-95969428D01*
X149410480Y-95969428D01*
X149429863Y-95970928D01*
X149431367Y-95971162D01*
X149437379Y-95972098D01*
X149441845Y-95972153D01*
X149441850Y-95972153D01*
X149468958Y-95972484D01*
X149495335Y-95972806D01*
X149499777Y-95972225D01*
X149499780Y-95972225D01*
X149564568Y-95963753D01*
X149637349Y-95954236D01*
X149641665Y-95953031D01*
X149641670Y-95953030D01*
X149666085Y-95946213D01*
X149693177Y-95938649D01*
X149705750Y-95933117D01*
X149820168Y-95882771D01*
X149820169Y-95882771D01*
X149824270Y-95880966D01*
X149865299Y-95855428D01*
X149869661Y-95852713D01*
X149869665Y-95852710D01*
X149873476Y-95850338D01*
X149876908Y-95847453D01*
X149876915Y-95847448D01*
X149979679Y-95761066D01*
X149979680Y-95761065D01*
X149983111Y-95758181D01*
X150011675Y-95726234D01*
X150018753Y-95718318D01*
X150018757Y-95718313D01*
X150021745Y-95714971D01*
X150028455Y-95704891D01*
X150098623Y-95599480D01*
X150098626Y-95599474D01*
X150101108Y-95595746D01*
X150126061Y-95543431D01*
X150168771Y-95406725D01*
X150176798Y-95357165D01*
X169697866Y-95357165D01*
X169732952Y-95614970D01*
X169805758Y-95864757D01*
X169807718Y-95869010D01*
X169807719Y-95869011D01*
X169820146Y-95895966D01*
X169914686Y-96101039D01*
X169917246Y-96104944D01*
X169917249Y-96104949D01*
X170054775Y-96314712D01*
X170054779Y-96314717D01*
X170057341Y-96318625D01*
X170230591Y-96512735D01*
X170430629Y-96679105D01*
X170653061Y-96814080D01*
X170657375Y-96815889D01*
X170657377Y-96815890D01*
X170888686Y-96912886D01*
X170888691Y-96912888D01*
X170893001Y-96914695D01*
X170897533Y-96915846D01*
X170897536Y-96915847D01*
X171022815Y-96947663D01*
X171145177Y-96978739D01*
X171361286Y-97000500D01*
X171516044Y-97000500D01*
X171518369Y-97000327D01*
X171518375Y-97000327D01*
X171704814Y-96986472D01*
X171704818Y-96986471D01*
X171709466Y-96986126D01*
X171963232Y-96928705D01*
X171967586Y-96927012D01*
X172201370Y-96836098D01*
X172201372Y-96836097D01*
X172205723Y-96834405D01*
X172241285Y-96814080D01*
X172289038Y-96786786D01*
X172431612Y-96705299D01*
X172635936Y-96544223D01*
X172814208Y-96354714D01*
X172962511Y-96140937D01*
X172980258Y-96104949D01*
X173075521Y-95911775D01*
X173075522Y-95911772D01*
X173077586Y-95907587D01*
X173083487Y-95889154D01*
X173155483Y-95664237D01*
X173156906Y-95659792D01*
X173179743Y-95519569D01*
X173197977Y-95407606D01*
X173197977Y-95407605D01*
X173198728Y-95402994D01*
X173200654Y-95255916D01*
X173202073Y-95147512D01*
X173202073Y-95147509D01*
X173202134Y-95142835D01*
X173167048Y-94885030D01*
X173165472Y-94879621D01*
X173133866Y-94771187D01*
X173094242Y-94635243D01*
X172985314Y-94398961D01*
X172956637Y-94355221D01*
X172845225Y-94185288D01*
X172845221Y-94185283D01*
X172842659Y-94181375D01*
X172715259Y-94038635D01*
X172672526Y-93990757D01*
X172672524Y-93990755D01*
X172669409Y-93987265D01*
X172469371Y-93820895D01*
X172246939Y-93685920D01*
X172214743Y-93672419D01*
X172011314Y-93587114D01*
X172011309Y-93587112D01*
X172006999Y-93585305D01*
X172002467Y-93584154D01*
X172002464Y-93584153D01*
X171869429Y-93550367D01*
X171754823Y-93521261D01*
X171538714Y-93499500D01*
X171383956Y-93499500D01*
X171381631Y-93499673D01*
X171381625Y-93499673D01*
X171195186Y-93513528D01*
X171195182Y-93513529D01*
X171190534Y-93513874D01*
X170936768Y-93571295D01*
X170932416Y-93572987D01*
X170932414Y-93572988D01*
X170698630Y-93663902D01*
X170698628Y-93663903D01*
X170694277Y-93665595D01*
X170690223Y-93667912D01*
X170690221Y-93667913D01*
X170654467Y-93688348D01*
X170468388Y-93794701D01*
X170264064Y-93955777D01*
X170085792Y-94145286D01*
X169937489Y-94359063D01*
X169935423Y-94363253D01*
X169935421Y-94363256D01*
X169827692Y-94581711D01*
X169822414Y-94592413D01*
X169743094Y-94840208D01*
X169701272Y-95097006D01*
X169699972Y-95196328D01*
X169699192Y-95255916D01*
X169697866Y-95357165D01*
X150176798Y-95357165D01*
X150178038Y-95349510D01*
X150180663Y-95206311D01*
X150180110Y-95201870D01*
X150179873Y-95197387D01*
X150179974Y-95197382D01*
X150179428Y-95188578D01*
X150179428Y-94765000D01*
X150174751Y-94741486D01*
X150173395Y-94734669D01*
X158347001Y-94734669D01*
X158347371Y-94741490D01*
X158352895Y-94792352D01*
X158356521Y-94807604D01*
X158401676Y-94928054D01*
X158410214Y-94943649D01*
X158486715Y-95045724D01*
X158499276Y-95058285D01*
X158601351Y-95134786D01*
X158616946Y-95143324D01*
X158737394Y-95188478D01*
X158752649Y-95192105D01*
X158803514Y-95197631D01*
X158810328Y-95198000D01*
X160382885Y-95198000D01*
X160398124Y-95193525D01*
X160399329Y-95192135D01*
X160401000Y-95184452D01*
X160401000Y-95179884D01*
X160909000Y-95179884D01*
X160913475Y-95195123D01*
X160914865Y-95196328D01*
X160922548Y-95197999D01*
X162499669Y-95197999D01*
X162506490Y-95197629D01*
X162557352Y-95192105D01*
X162572604Y-95188479D01*
X162693054Y-95143324D01*
X162708649Y-95134786D01*
X162810724Y-95058285D01*
X162823285Y-95045724D01*
X162899786Y-94943649D01*
X162908324Y-94928054D01*
X162953478Y-94807606D01*
X162957106Y-94792350D01*
X162962631Y-94741486D01*
X162963000Y-94734672D01*
X162963000Y-93662115D01*
X162958525Y-93646876D01*
X162957135Y-93645671D01*
X162949452Y-93644000D01*
X160927115Y-93644000D01*
X160911876Y-93648475D01*
X160910671Y-93649865D01*
X160909000Y-93657548D01*
X160909000Y-95179884D01*
X160401000Y-95179884D01*
X160401000Y-93662115D01*
X160396525Y-93646876D01*
X160395135Y-93645671D01*
X160387452Y-93644000D01*
X158365116Y-93644000D01*
X158349877Y-93648475D01*
X158348672Y-93649865D01*
X158347001Y-93657548D01*
X158347001Y-94734669D01*
X150173395Y-94734669D01*
X150166288Y-94698939D01*
X150166288Y-94698938D01*
X150163867Y-94686769D01*
X150156974Y-94676453D01*
X150152223Y-94664983D01*
X150155937Y-94663445D01*
X150141472Y-94617249D01*
X150156312Y-94566711D01*
X150152223Y-94565017D01*
X150156974Y-94553547D01*
X150163867Y-94543231D01*
X150179428Y-94465000D01*
X150179428Y-93974845D01*
X150179449Y-93972536D01*
X150180581Y-93910784D01*
X150180663Y-93906311D01*
X150173498Y-93848792D01*
X150135825Y-93710612D01*
X150126191Y-93688348D01*
X150114587Y-93661534D01*
X150114585Y-93661531D01*
X150112806Y-93657419D01*
X150037866Y-93535367D01*
X150035002Y-93531917D01*
X150003705Y-93494219D01*
X150003703Y-93494217D01*
X150000843Y-93490772D01*
X149894659Y-93394658D01*
X149855652Y-93368347D01*
X149850322Y-93364752D01*
X149850320Y-93364751D01*
X149846605Y-93362245D01*
X149717713Y-93299798D01*
X149662496Y-93282176D01*
X149658075Y-93281432D01*
X149658070Y-93281431D01*
X149657584Y-93281349D01*
X149657436Y-93281277D01*
X149653715Y-93280375D01*
X149653912Y-93279564D01*
X149593729Y-93250316D01*
X149556788Y-93189688D01*
X149552500Y-93157097D01*
X149552500Y-93117885D01*
X158347000Y-93117885D01*
X158351475Y-93133124D01*
X158352865Y-93134329D01*
X158360548Y-93136000D01*
X160382885Y-93136000D01*
X160398124Y-93131525D01*
X160399329Y-93130135D01*
X160401000Y-93122452D01*
X160401000Y-93117885D01*
X160909000Y-93117885D01*
X160913475Y-93133124D01*
X160914865Y-93134329D01*
X160922548Y-93136000D01*
X162944884Y-93136000D01*
X162960123Y-93131525D01*
X162961328Y-93130135D01*
X162962999Y-93122452D01*
X162962999Y-92045331D01*
X162962629Y-92038510D01*
X162957105Y-91987648D01*
X162953479Y-91972396D01*
X162908324Y-91851946D01*
X162899786Y-91836351D01*
X162823285Y-91734276D01*
X162810724Y-91721715D01*
X162708649Y-91645214D01*
X162693054Y-91636676D01*
X162572606Y-91591522D01*
X162557351Y-91587895D01*
X162506486Y-91582369D01*
X162499672Y-91582000D01*
X160927115Y-91582000D01*
X160911876Y-91586475D01*
X160910671Y-91587865D01*
X160909000Y-91595548D01*
X160909000Y-93117885D01*
X160401000Y-93117885D01*
X160401000Y-91600116D01*
X160396525Y-91584877D01*
X160395135Y-91583672D01*
X160387452Y-91582001D01*
X158810331Y-91582001D01*
X158803510Y-91582371D01*
X158752648Y-91587895D01*
X158737396Y-91591521D01*
X158616946Y-91636676D01*
X158601351Y-91645214D01*
X158499276Y-91721715D01*
X158486715Y-91734276D01*
X158410214Y-91836351D01*
X158401676Y-91851946D01*
X158356522Y-91972394D01*
X158352895Y-91987649D01*
X158347369Y-92038514D01*
X158347000Y-92045328D01*
X158347000Y-93117885D01*
X149552500Y-93117885D01*
X149552500Y-92642751D01*
X149572502Y-92574630D01*
X149601796Y-92542789D01*
X149646729Y-92508311D01*
X149646732Y-92508308D01*
X149653282Y-92503282D01*
X149749536Y-92377841D01*
X149810044Y-92231762D01*
X149830682Y-92075000D01*
X149810044Y-91918238D01*
X149749536Y-91772159D01*
X149653282Y-91646718D01*
X149527841Y-91550464D01*
X149381762Y-91489956D01*
X149225000Y-91469318D01*
X149160658Y-91477789D01*
X149090510Y-91466850D01*
X149055117Y-91441962D01*
X147318038Y-89704884D01*
X147284013Y-89642572D01*
X147282211Y-89599343D01*
X147289604Y-89543188D01*
X147290682Y-89535000D01*
X147270044Y-89378238D01*
X147209536Y-89232159D01*
X147113282Y-89106718D01*
X147106732Y-89101692D01*
X147106729Y-89101689D01*
X147061796Y-89067211D01*
X147019929Y-89009873D01*
X147012500Y-88967249D01*
X147012500Y-85229133D01*
X171675612Y-85229133D01*
X171684325Y-85240653D01*
X171782018Y-85312284D01*
X171789928Y-85317227D01*
X172012890Y-85434533D01*
X172021453Y-85438256D01*
X172259304Y-85521318D01*
X172268313Y-85523732D01*
X172515842Y-85570727D01*
X172525098Y-85571781D01*
X172776857Y-85581673D01*
X172786171Y-85581347D01*
X173036615Y-85553920D01*
X173045792Y-85552219D01*
X173289431Y-85488074D01*
X173298251Y-85485037D01*
X173529736Y-85385583D01*
X173538008Y-85381276D01*
X173752249Y-85248700D01*
X173759188Y-85243658D01*
X173767518Y-85231019D01*
X173761456Y-85220666D01*
X172732812Y-84192022D01*
X172718868Y-84184408D01*
X172717035Y-84184539D01*
X172710420Y-84188790D01*
X171682270Y-85216940D01*
X171675612Y-85229133D01*
X147012500Y-85229133D01*
X147012500Y-84678161D01*
X147032502Y-84610040D01*
X147086158Y-84563547D01*
X147156432Y-84553443D01*
X147221012Y-84582937D01*
X147246954Y-84614022D01*
X147276911Y-84664677D01*
X147286551Y-84677104D01*
X147392896Y-84783449D01*
X147405322Y-84793089D01*
X147534779Y-84869648D01*
X147549210Y-84875893D01*
X147683605Y-84914939D01*
X147697706Y-84914899D01*
X147701000Y-84907630D01*
X147701000Y-84901878D01*
X148209000Y-84901878D01*
X148212973Y-84915409D01*
X148220871Y-84916544D01*
X148360790Y-84875893D01*
X148375221Y-84869648D01*
X148504678Y-84793089D01*
X148517104Y-84783449D01*
X148623449Y-84677104D01*
X148633089Y-84664678D01*
X148709648Y-84535221D01*
X148715893Y-84520790D01*
X148758269Y-84374935D01*
X148760570Y-84362333D01*
X148762807Y-84333916D01*
X148763000Y-84328986D01*
X148763000Y-83778523D01*
X170957898Y-83778523D01*
X170969987Y-84030175D01*
X170971124Y-84039435D01*
X171020274Y-84286535D01*
X171022768Y-84295528D01*
X171107900Y-84532639D01*
X171111700Y-84541174D01*
X171230946Y-84763101D01*
X171235957Y-84770968D01*
X171299446Y-84855990D01*
X171310704Y-84864439D01*
X171323123Y-84857667D01*
X172347978Y-83832812D01*
X172355592Y-83818868D01*
X172355461Y-83817035D01*
X172351210Y-83810420D01*
X171321321Y-82780531D01*
X171308013Y-82773264D01*
X171297974Y-82780386D01*
X171287761Y-82792666D01*
X171282346Y-82800258D01*
X171151646Y-83015646D01*
X171147408Y-83023963D01*
X171049981Y-83256299D01*
X171047020Y-83265149D01*
X170985006Y-83509331D01*
X170983384Y-83518528D01*
X170958143Y-83769198D01*
X170957898Y-83778523D01*
X148763000Y-83778523D01*
X148763000Y-83662115D01*
X148758525Y-83646876D01*
X148757135Y-83645671D01*
X148749452Y-83644000D01*
X148227115Y-83644000D01*
X148211876Y-83648475D01*
X148210671Y-83649865D01*
X148209000Y-83657548D01*
X148209000Y-84901878D01*
X147701000Y-84901878D01*
X147701000Y-83117885D01*
X148209000Y-83117885D01*
X148213475Y-83133124D01*
X148214865Y-83134329D01*
X148222548Y-83136000D01*
X148744884Y-83136000D01*
X148760123Y-83131525D01*
X148761328Y-83130135D01*
X148762999Y-83122452D01*
X148762999Y-82451017D01*
X148762805Y-82446080D01*
X148760570Y-82417664D01*
X148758952Y-82408803D01*
X171673216Y-82408803D01*
X171677789Y-82418579D01*
X172707188Y-83447978D01*
X172721132Y-83455592D01*
X172722965Y-83455461D01*
X172729580Y-83451210D01*
X173758419Y-82422371D01*
X173764803Y-82410681D01*
X173755391Y-82398570D01*
X173618593Y-82303670D01*
X173610565Y-82298942D01*
X173384593Y-82187505D01*
X173375960Y-82184017D01*
X173135998Y-82107205D01*
X173126938Y-82105029D01*
X172878260Y-82064529D01*
X172868973Y-82063717D01*
X172617053Y-82060419D01*
X172607742Y-82060989D01*
X172358097Y-82094964D01*
X172348978Y-82096902D01*
X172107098Y-82167404D01*
X172098367Y-82170667D01*
X171869558Y-82276151D01*
X171861406Y-82280670D01*
X171682353Y-82398062D01*
X171673216Y-82408803D01*
X148758952Y-82408803D01*
X148758270Y-82405069D01*
X148715893Y-82259210D01*
X148709648Y-82244779D01*
X148633089Y-82115322D01*
X148623449Y-82102896D01*
X148517104Y-81996551D01*
X148504678Y-81986911D01*
X148375221Y-81910352D01*
X148360790Y-81904107D01*
X148226395Y-81865061D01*
X148212294Y-81865101D01*
X148209000Y-81872370D01*
X148209000Y-83117885D01*
X147701000Y-83117885D01*
X147701000Y-81878122D01*
X147697027Y-81864591D01*
X147689129Y-81863456D01*
X147549210Y-81904107D01*
X147534779Y-81910352D01*
X147405322Y-81986911D01*
X147392896Y-81996551D01*
X147286551Y-82102896D01*
X147276909Y-82115326D01*
X147230111Y-82194458D01*
X147178218Y-82242911D01*
X147108368Y-82255617D01*
X147048595Y-82232940D01*
X147041350Y-82225707D01*
X147031999Y-82221136D01*
X147031996Y-82221134D01*
X146963197Y-82187505D01*
X146936518Y-82174464D01*
X146906027Y-82170016D01*
X146872744Y-82165160D01*
X146872740Y-82165160D01*
X146868218Y-82164500D01*
X146501782Y-82164500D01*
X146497232Y-82165170D01*
X146497229Y-82165170D01*
X146442574Y-82173216D01*
X146442573Y-82173216D01*
X146432888Y-82174642D01*
X146382992Y-82199140D01*
X146337493Y-82221478D01*
X146337491Y-82221479D01*
X146328145Y-82226068D01*
X146245707Y-82308650D01*
X146194464Y-82413482D01*
X146184500Y-82481782D01*
X146184500Y-84298218D01*
X146185170Y-84302768D01*
X146185170Y-84302771D01*
X146193216Y-84357426D01*
X146194642Y-84367112D01*
X146246068Y-84471855D01*
X146303615Y-84529301D01*
X146320518Y-84546175D01*
X146354597Y-84608457D01*
X146357500Y-84635348D01*
X146357500Y-88967249D01*
X146337498Y-89035370D01*
X146308204Y-89067211D01*
X146263271Y-89101689D01*
X146263268Y-89101692D01*
X146256718Y-89106718D01*
X146160464Y-89232159D01*
X146099956Y-89378238D01*
X146079318Y-89535000D01*
X146099956Y-89691762D01*
X146160464Y-89837841D01*
X146256718Y-89963282D01*
X146382159Y-90059536D01*
X146528238Y-90120044D01*
X146685000Y-90140682D01*
X146749344Y-90132211D01*
X146819491Y-90143150D01*
X146854884Y-90168038D01*
X148591962Y-91905117D01*
X148625988Y-91967429D01*
X148627789Y-92010657D01*
X148619318Y-92075000D01*
X148639956Y-92231762D01*
X148700464Y-92377841D01*
X148796718Y-92503282D01*
X148803268Y-92508308D01*
X148803271Y-92508311D01*
X148848204Y-92542789D01*
X148890071Y-92600127D01*
X148897500Y-92642751D01*
X148897500Y-93156296D01*
X148877498Y-93224417D01*
X148823842Y-93270910D01*
X148804142Y-93277457D01*
X148804242Y-93277799D01*
X148748610Y-93294067D01*
X148711544Y-93310920D01*
X148622310Y-93351492D01*
X148622306Y-93351494D01*
X148618231Y-93353347D01*
X148569402Y-93384574D01*
X148566010Y-93387497D01*
X148566007Y-93387499D01*
X148543192Y-93407158D01*
X148460901Y-93478064D01*
X148457962Y-93481433D01*
X148457958Y-93481437D01*
X148446808Y-93494219D01*
X148422798Y-93521742D01*
X148344898Y-93641927D01*
X148320586Y-93694545D01*
X148319301Y-93698843D01*
X148319298Y-93698850D01*
X148291327Y-93792382D01*
X148279550Y-93831763D01*
X148270983Y-93889086D01*
X148270813Y-93916873D01*
X148270375Y-93988682D01*
X148270108Y-94032307D01*
X148270447Y-94034780D01*
X148270572Y-94038635D01*
X148270572Y-94465000D01*
X148286133Y-94543231D01*
X148293026Y-94553547D01*
X148297777Y-94565017D01*
X148294063Y-94566555D01*
X148308528Y-94612751D01*
X148293688Y-94663289D01*
X148297777Y-94664983D01*
X148293026Y-94676453D01*
X148286133Y-94686769D01*
X148283712Y-94698938D01*
X148283712Y-94698939D01*
X148275249Y-94741486D01*
X148270572Y-94765000D01*
X148270572Y-94811500D01*
X148250570Y-94879621D01*
X148196914Y-94926114D01*
X148144572Y-94937500D01*
X147765428Y-94937500D01*
X147697307Y-94917498D01*
X147650814Y-94863842D01*
X147639428Y-94811500D01*
X147639428Y-94765000D01*
X147634751Y-94741486D01*
X147626288Y-94698939D01*
X147626288Y-94698938D01*
X147623867Y-94686769D01*
X147616974Y-94676453D01*
X147612223Y-94664983D01*
X147615937Y-94663445D01*
X147601472Y-94617249D01*
X147616312Y-94566711D01*
X147612223Y-94565017D01*
X147616974Y-94553547D01*
X147623867Y-94543231D01*
X147639428Y-94465000D01*
X147639428Y-93974845D01*
X147639449Y-93972536D01*
X147640581Y-93910784D01*
X147640663Y-93906311D01*
X147633498Y-93848792D01*
X147595825Y-93710612D01*
X147586191Y-93688348D01*
X147574587Y-93661534D01*
X147574585Y-93661531D01*
X147572806Y-93657419D01*
X147497866Y-93535367D01*
X147495002Y-93531917D01*
X147463705Y-93494219D01*
X147463703Y-93494217D01*
X147460843Y-93490772D01*
X147354659Y-93394658D01*
X147315652Y-93368347D01*
X147310322Y-93364752D01*
X147310320Y-93364751D01*
X147306605Y-93362245D01*
X147177713Y-93299798D01*
X147122496Y-93282176D01*
X147118075Y-93281432D01*
X147118070Y-93281431D01*
X147117584Y-93281349D01*
X147117436Y-93281277D01*
X147113715Y-93280375D01*
X147113912Y-93279564D01*
X147053729Y-93250316D01*
X147016788Y-93189688D01*
X147012500Y-93157097D01*
X147012500Y-92094797D01*
X147012979Y-92083815D01*
X147015326Y-92056993D01*
X147015326Y-92056991D01*
X147016286Y-92046016D01*
X147006464Y-92009358D01*
X147004088Y-91998640D01*
X146999412Y-91972118D01*
X146999411Y-91972115D01*
X146997497Y-91961261D01*
X146991984Y-91951713D01*
X146990763Y-91948358D01*
X146989248Y-91945108D01*
X146986394Y-91934457D01*
X146964628Y-91903371D01*
X146958723Y-91894102D01*
X146945263Y-91870788D01*
X146945261Y-91870786D01*
X146939750Y-91861240D01*
X146910683Y-91836850D01*
X146902580Y-91829425D01*
X146475366Y-91402211D01*
X146048038Y-90974884D01*
X146014013Y-90912571D01*
X146012211Y-90869341D01*
X146019604Y-90813187D01*
X146020682Y-90805000D01*
X146000044Y-90648238D01*
X145939536Y-90502159D01*
X145843282Y-90376718D01*
X145836732Y-90371692D01*
X145836729Y-90371689D01*
X145791796Y-90337211D01*
X145749929Y-90279873D01*
X145742500Y-90237249D01*
X145742500Y-84635465D01*
X145762502Y-84567344D01*
X145779327Y-84546447D01*
X145846935Y-84478721D01*
X145846935Y-84478720D01*
X145854293Y-84471350D01*
X145905536Y-84366518D01*
X145915500Y-84298218D01*
X145915500Y-82481782D01*
X145906871Y-82423162D01*
X145906784Y-82422574D01*
X145906784Y-82422573D01*
X145905358Y-82412888D01*
X145853932Y-82308145D01*
X145771350Y-82225707D01*
X145742501Y-82211605D01*
X145693197Y-82187505D01*
X145666518Y-82174464D01*
X145636027Y-82170016D01*
X145602744Y-82165160D01*
X145602740Y-82165160D01*
X145598218Y-82164500D01*
X145231782Y-82164500D01*
X145227232Y-82165170D01*
X145227229Y-82165170D01*
X145172574Y-82173216D01*
X145172573Y-82173216D01*
X145162888Y-82174642D01*
X145112992Y-82199140D01*
X145067493Y-82221478D01*
X145067491Y-82221479D01*
X145058145Y-82226068D01*
X144975707Y-82308650D01*
X144924464Y-82413482D01*
X144914500Y-82481782D01*
X144914500Y-84298218D01*
X144915170Y-84302768D01*
X144915170Y-84302771D01*
X144923216Y-84357426D01*
X144924642Y-84367112D01*
X144976068Y-84471855D01*
X145033615Y-84529301D01*
X145050518Y-84546175D01*
X145084597Y-84608457D01*
X145087500Y-84635348D01*
X145087500Y-90237249D01*
X145067498Y-90305370D01*
X145038204Y-90337211D01*
X144993271Y-90371689D01*
X144993268Y-90371692D01*
X144986718Y-90376718D01*
X144890464Y-90502159D01*
X144829956Y-90648238D01*
X144809318Y-90805000D01*
X144829956Y-90961762D01*
X144890464Y-91107841D01*
X144986718Y-91233282D01*
X145112159Y-91329536D01*
X145258238Y-91390044D01*
X145415000Y-91410682D01*
X145479343Y-91402211D01*
X145549490Y-91413150D01*
X145584884Y-91438038D01*
X146320596Y-92173751D01*
X146354621Y-92236063D01*
X146357500Y-92262846D01*
X146357500Y-93156296D01*
X146337498Y-93224417D01*
X146283842Y-93270910D01*
X146264142Y-93277457D01*
X146264242Y-93277799D01*
X146208610Y-93294067D01*
X146171544Y-93310920D01*
X146082310Y-93351492D01*
X146082306Y-93351494D01*
X146078231Y-93353347D01*
X146029402Y-93384574D01*
X146026010Y-93387497D01*
X146026007Y-93387499D01*
X146003192Y-93407158D01*
X145920901Y-93478064D01*
X145917962Y-93481433D01*
X145917958Y-93481437D01*
X145906808Y-93494219D01*
X145882798Y-93521742D01*
X145804898Y-93641927D01*
X145780586Y-93694545D01*
X145779301Y-93698843D01*
X145779298Y-93698850D01*
X145751327Y-93792382D01*
X145739550Y-93831763D01*
X145730983Y-93889086D01*
X145730813Y-93916873D01*
X145730375Y-93988682D01*
X145730108Y-94032307D01*
X145730447Y-94034780D01*
X145730572Y-94038635D01*
X145730572Y-94465000D01*
X145746133Y-94543231D01*
X145753026Y-94553547D01*
X145757777Y-94565017D01*
X145754063Y-94566555D01*
X145768528Y-94612751D01*
X145753688Y-94663289D01*
X145757777Y-94664983D01*
X145753026Y-94676453D01*
X145746133Y-94686769D01*
X145743712Y-94698938D01*
X145743712Y-94698939D01*
X145735249Y-94741486D01*
X145730572Y-94765000D01*
X145730572Y-94811500D01*
X145710570Y-94879621D01*
X145656914Y-94926114D01*
X145604572Y-94937500D01*
X145225428Y-94937500D01*
X145157307Y-94917498D01*
X145110814Y-94863842D01*
X145099428Y-94811500D01*
X145099428Y-94765000D01*
X145094751Y-94741486D01*
X145086288Y-94698939D01*
X145086288Y-94698938D01*
X145083867Y-94686769D01*
X145076974Y-94676453D01*
X145072223Y-94664983D01*
X145075937Y-94663445D01*
X145061472Y-94617249D01*
X145076312Y-94566711D01*
X145072223Y-94565017D01*
X145076974Y-94553547D01*
X145083867Y-94543231D01*
X145099428Y-94465000D01*
X145099428Y-93974845D01*
X145099449Y-93972536D01*
X145100581Y-93910784D01*
X145100663Y-93906311D01*
X145093498Y-93848792D01*
X145055825Y-93710612D01*
X145046191Y-93688348D01*
X145034587Y-93661534D01*
X145034585Y-93661531D01*
X145032806Y-93657419D01*
X144957866Y-93535367D01*
X144955002Y-93531917D01*
X144923705Y-93494219D01*
X144923703Y-93494217D01*
X144920843Y-93490772D01*
X144814659Y-93394658D01*
X144775652Y-93368347D01*
X144770322Y-93364752D01*
X144770320Y-93364751D01*
X144766605Y-93362245D01*
X144637713Y-93299798D01*
X144582496Y-93282176D01*
X144578075Y-93281432D01*
X144578070Y-93281431D01*
X144577584Y-93281349D01*
X144577436Y-93281277D01*
X144573715Y-93280375D01*
X144573912Y-93279564D01*
X144513729Y-93250316D01*
X144476788Y-93189688D01*
X144472500Y-93157097D01*
X144472500Y-86927751D01*
X144492502Y-86859630D01*
X144521796Y-86827789D01*
X144566729Y-86793311D01*
X144566732Y-86793308D01*
X144573282Y-86788282D01*
X144578311Y-86781729D01*
X144621409Y-86725562D01*
X144669536Y-86662841D01*
X144730044Y-86516762D01*
X144750682Y-86360000D01*
X144730044Y-86203238D01*
X144669536Y-86057159D01*
X144621409Y-85994439D01*
X144578309Y-85938269D01*
X144578308Y-85938268D01*
X144573282Y-85931718D01*
X144566731Y-85926691D01*
X144566729Y-85926689D01*
X144521796Y-85892211D01*
X144479929Y-85834873D01*
X144472500Y-85792249D01*
X144472500Y-84635465D01*
X144492502Y-84567344D01*
X144509327Y-84546447D01*
X144576935Y-84478721D01*
X144576935Y-84478720D01*
X144584293Y-84471350D01*
X144635536Y-84366518D01*
X144645500Y-84298218D01*
X144645500Y-82481782D01*
X144636871Y-82423162D01*
X144636784Y-82422574D01*
X144636784Y-82422573D01*
X144635358Y-82412888D01*
X144583932Y-82308145D01*
X144501350Y-82225707D01*
X144472501Y-82211605D01*
X144423197Y-82187505D01*
X144396518Y-82174464D01*
X144366027Y-82170016D01*
X144332744Y-82165160D01*
X144332740Y-82165160D01*
X144328218Y-82164500D01*
X143961782Y-82164500D01*
X143957232Y-82165170D01*
X143957229Y-82165170D01*
X143902574Y-82173216D01*
X143902573Y-82173216D01*
X143892888Y-82174642D01*
X143842992Y-82199140D01*
X143797493Y-82221478D01*
X143797491Y-82221479D01*
X143788145Y-82226068D01*
X143705707Y-82308650D01*
X143654464Y-82413482D01*
X143644500Y-82481782D01*
X143644500Y-84298218D01*
X143645170Y-84302768D01*
X143645170Y-84302771D01*
X143653216Y-84357426D01*
X143654642Y-84367112D01*
X143706068Y-84471855D01*
X143763615Y-84529301D01*
X143780518Y-84546175D01*
X143814597Y-84608457D01*
X143817500Y-84635348D01*
X143817500Y-85792249D01*
X143797498Y-85860370D01*
X143768204Y-85892211D01*
X143723271Y-85926689D01*
X143723269Y-85926691D01*
X143716718Y-85931718D01*
X143711692Y-85938268D01*
X143711691Y-85938269D01*
X143668591Y-85994439D01*
X143620464Y-86057159D01*
X143559956Y-86203238D01*
X143539318Y-86360000D01*
X143559956Y-86516762D01*
X143620464Y-86662841D01*
X143668591Y-86725561D01*
X143711690Y-86781729D01*
X143716718Y-86788282D01*
X143723268Y-86793308D01*
X143723271Y-86793311D01*
X143768204Y-86827789D01*
X143810071Y-86885127D01*
X143817500Y-86927751D01*
X143817500Y-93156296D01*
X143797498Y-93224417D01*
X143743842Y-93270910D01*
X143724142Y-93277457D01*
X143724242Y-93277799D01*
X143668610Y-93294067D01*
X143631544Y-93310920D01*
X143542310Y-93351492D01*
X143542306Y-93351494D01*
X143538231Y-93353347D01*
X143489402Y-93384574D01*
X143486010Y-93387497D01*
X143486007Y-93387499D01*
X143463192Y-93407158D01*
X143380901Y-93478064D01*
X143377962Y-93481433D01*
X143377958Y-93481437D01*
X143366808Y-93494219D01*
X143342798Y-93521742D01*
X143264898Y-93641927D01*
X143240586Y-93694545D01*
X143239301Y-93698843D01*
X143239298Y-93698850D01*
X143211327Y-93792382D01*
X143199550Y-93831763D01*
X143190983Y-93889086D01*
X143190813Y-93916873D01*
X143190375Y-93988682D01*
X143190108Y-94032307D01*
X143190447Y-94034780D01*
X143190572Y-94038635D01*
X143190572Y-94465000D01*
X143206133Y-94543231D01*
X143213026Y-94553547D01*
X143217777Y-94565017D01*
X143214063Y-94566555D01*
X143228528Y-94612751D01*
X143213688Y-94663289D01*
X143217777Y-94664983D01*
X143213026Y-94676453D01*
X143206133Y-94686769D01*
X143203712Y-94698938D01*
X143203712Y-94698939D01*
X143195249Y-94741486D01*
X143190572Y-94765000D01*
X143190572Y-94811500D01*
X143170570Y-94879621D01*
X143116914Y-94926114D01*
X143064572Y-94937500D01*
X142685428Y-94937500D01*
X142617307Y-94917498D01*
X142570814Y-94863842D01*
X142559428Y-94811500D01*
X142559428Y-94765000D01*
X142554751Y-94741486D01*
X142546288Y-94698939D01*
X142546288Y-94698938D01*
X142543867Y-94686769D01*
X142536974Y-94676453D01*
X142532223Y-94664983D01*
X142535937Y-94663445D01*
X142521472Y-94617249D01*
X142536312Y-94566711D01*
X142532223Y-94565017D01*
X142536974Y-94553547D01*
X142543867Y-94543231D01*
X142559428Y-94465000D01*
X142559428Y-93974845D01*
X142559449Y-93972536D01*
X142560581Y-93910784D01*
X142560663Y-93906311D01*
X142553498Y-93848792D01*
X142515825Y-93710612D01*
X142506191Y-93688348D01*
X142494587Y-93661534D01*
X142494585Y-93661531D01*
X142492806Y-93657419D01*
X142417866Y-93535367D01*
X142415002Y-93531917D01*
X142383705Y-93494219D01*
X142383703Y-93494217D01*
X142380843Y-93490772D01*
X142274659Y-93394658D01*
X142235652Y-93368347D01*
X142230322Y-93364752D01*
X142230320Y-93364751D01*
X142226605Y-93362245D01*
X142097713Y-93299798D01*
X142046754Y-93283535D01*
X141987939Y-93243769D01*
X141959960Y-93178518D01*
X141971700Y-93108499D01*
X142019432Y-93055942D01*
X142085062Y-93037500D01*
X142307249Y-93037500D01*
X142375370Y-93057502D01*
X142407211Y-93086796D01*
X142441689Y-93131729D01*
X142441692Y-93131732D01*
X142446718Y-93138282D01*
X142572159Y-93234536D01*
X142718238Y-93295044D01*
X142726426Y-93296122D01*
X142728773Y-93296431D01*
X142875000Y-93315682D01*
X142883188Y-93314604D01*
X143023574Y-93296122D01*
X143031762Y-93295044D01*
X143177841Y-93234536D01*
X143303282Y-93138282D01*
X143399536Y-93012841D01*
X143460044Y-92866762D01*
X143480682Y-92710000D01*
X143460044Y-92553238D01*
X143399536Y-92407159D01*
X143303282Y-92281718D01*
X143278688Y-92262846D01*
X143227507Y-92223574D01*
X143177841Y-92185464D01*
X143031762Y-92124956D01*
X142875000Y-92104318D01*
X142718238Y-92124956D01*
X142572159Y-92185464D01*
X142522493Y-92223574D01*
X142471313Y-92262846D01*
X142446718Y-92281718D01*
X142441692Y-92288268D01*
X142441689Y-92288271D01*
X142407211Y-92333204D01*
X142349873Y-92375071D01*
X142307249Y-92382500D01*
X142058500Y-92382500D01*
X141990379Y-92362498D01*
X141943886Y-92308842D01*
X141932500Y-92256500D01*
X141932500Y-88832751D01*
X141952502Y-88764630D01*
X141981796Y-88732789D01*
X142026729Y-88698311D01*
X142026732Y-88698308D01*
X142033282Y-88693282D01*
X142129536Y-88567841D01*
X142190044Y-88421762D01*
X142210682Y-88265000D01*
X142202211Y-88200657D01*
X142213150Y-88130510D01*
X142238038Y-88095116D01*
X142650039Y-87683116D01*
X143092580Y-87240575D01*
X143100684Y-87233149D01*
X143121305Y-87215846D01*
X143129750Y-87208760D01*
X143136720Y-87196689D01*
X143148723Y-87175898D01*
X143154628Y-87166628D01*
X143170071Y-87144573D01*
X143176394Y-87135543D01*
X143179248Y-87124892D01*
X143180763Y-87121642D01*
X143181984Y-87118287D01*
X143187497Y-87108739D01*
X143189411Y-87097885D01*
X143189412Y-87097882D01*
X143194088Y-87071360D01*
X143196464Y-87060642D01*
X143206286Y-87023984D01*
X143202979Y-86986185D01*
X143202500Y-86975203D01*
X143202500Y-84635465D01*
X143222502Y-84567344D01*
X143239327Y-84546447D01*
X143306935Y-84478721D01*
X143306935Y-84478720D01*
X143314293Y-84471350D01*
X143365536Y-84366518D01*
X143375500Y-84298218D01*
X143375500Y-82481782D01*
X143366871Y-82423162D01*
X143366784Y-82422574D01*
X143366784Y-82422573D01*
X143365358Y-82412888D01*
X143313932Y-82308145D01*
X143231350Y-82225707D01*
X143202501Y-82211605D01*
X143153197Y-82187505D01*
X143126518Y-82174464D01*
X143096027Y-82170016D01*
X143062744Y-82165160D01*
X143062740Y-82165160D01*
X143058218Y-82164500D01*
X142691782Y-82164500D01*
X142687232Y-82165170D01*
X142687229Y-82165170D01*
X142632574Y-82173216D01*
X142632573Y-82173216D01*
X142622888Y-82174642D01*
X142572992Y-82199140D01*
X142527493Y-82221478D01*
X142527491Y-82221479D01*
X142518145Y-82226068D01*
X142435707Y-82308650D01*
X142384464Y-82413482D01*
X142374500Y-82481782D01*
X142374500Y-84298218D01*
X142375170Y-84302768D01*
X142375170Y-84302771D01*
X142383216Y-84357426D01*
X142384642Y-84367112D01*
X142436068Y-84471855D01*
X142493615Y-84529301D01*
X142510518Y-84546175D01*
X142544597Y-84608457D01*
X142547500Y-84635348D01*
X142547500Y-86807154D01*
X142527498Y-86875275D01*
X142510596Y-86896249D01*
X141774884Y-87631962D01*
X141712571Y-87665987D01*
X141669344Y-87667789D01*
X141605000Y-87659318D01*
X141448238Y-87679956D01*
X141302159Y-87740464D01*
X141176718Y-87836718D01*
X141080464Y-87962159D01*
X141019956Y-88108238D01*
X140999318Y-88265000D01*
X141019956Y-88421762D01*
X141080464Y-88567841D01*
X141176718Y-88693282D01*
X141183268Y-88698308D01*
X141183271Y-88698311D01*
X141228204Y-88732789D01*
X141270071Y-88790127D01*
X141277500Y-88832751D01*
X141277500Y-93156296D01*
X141257498Y-93224417D01*
X141203842Y-93270910D01*
X141184142Y-93277457D01*
X141184242Y-93277799D01*
X141128610Y-93294067D01*
X141091544Y-93310920D01*
X141002310Y-93351492D01*
X141002306Y-93351494D01*
X140998231Y-93353347D01*
X140949402Y-93384574D01*
X140946010Y-93387497D01*
X140946007Y-93387499D01*
X140923192Y-93407158D01*
X140840901Y-93478064D01*
X140837962Y-93481433D01*
X140837958Y-93481437D01*
X140826808Y-93494219D01*
X140802798Y-93521742D01*
X140724898Y-93641927D01*
X140700586Y-93694545D01*
X140699301Y-93698843D01*
X140699298Y-93698850D01*
X140671327Y-93792382D01*
X140659550Y-93831763D01*
X140650983Y-93889086D01*
X140650813Y-93916873D01*
X140650375Y-93988682D01*
X140650108Y-94032307D01*
X140650447Y-94034780D01*
X140650572Y-94038635D01*
X140650572Y-94465000D01*
X140666133Y-94543231D01*
X140673026Y-94553547D01*
X140677777Y-94565017D01*
X140674063Y-94566555D01*
X140688528Y-94612751D01*
X140673688Y-94663289D01*
X140677777Y-94664983D01*
X140673026Y-94676453D01*
X140666133Y-94686769D01*
X140663712Y-94698938D01*
X140663712Y-94698939D01*
X140655249Y-94741486D01*
X140650572Y-94765000D01*
X140650572Y-94811500D01*
X140630570Y-94879621D01*
X140576914Y-94926114D01*
X140524572Y-94937500D01*
X140145428Y-94937500D01*
X140077307Y-94917498D01*
X140030814Y-94863842D01*
X140019428Y-94811500D01*
X140019428Y-94765000D01*
X140014751Y-94741486D01*
X140006288Y-94698939D01*
X140006288Y-94698938D01*
X140003867Y-94686769D01*
X139996974Y-94676453D01*
X139992223Y-94664983D01*
X139995937Y-94663445D01*
X139981472Y-94617249D01*
X139996312Y-94566711D01*
X139992223Y-94565017D01*
X139996974Y-94553547D01*
X140003867Y-94543231D01*
X140019428Y-94465000D01*
X140019428Y-93974845D01*
X140019449Y-93972536D01*
X140020581Y-93910784D01*
X140020663Y-93906311D01*
X140013498Y-93848792D01*
X139975825Y-93710612D01*
X139966191Y-93688348D01*
X139954587Y-93661534D01*
X139954585Y-93661531D01*
X139952806Y-93657419D01*
X139877866Y-93535367D01*
X139875002Y-93531917D01*
X139843705Y-93494219D01*
X139843703Y-93494217D01*
X139840843Y-93490772D01*
X139734659Y-93394658D01*
X139695652Y-93368347D01*
X139690322Y-93364752D01*
X139690320Y-93364751D01*
X139686605Y-93362245D01*
X139557713Y-93299798D01*
X139502496Y-93282176D01*
X139498075Y-93281432D01*
X139498070Y-93281431D01*
X139497584Y-93281349D01*
X139497436Y-93281277D01*
X139493715Y-93280375D01*
X139493912Y-93279564D01*
X139433729Y-93250316D01*
X139396788Y-93189688D01*
X139392500Y-93157097D01*
X139392500Y-89087844D01*
X139412502Y-89019723D01*
X139429405Y-88998749D01*
X140617254Y-87810901D01*
X141822573Y-86605582D01*
X141830677Y-86598155D01*
X141845548Y-86585677D01*
X141859750Y-86573760D01*
X141878723Y-86540898D01*
X141884628Y-86531628D01*
X141900072Y-86509572D01*
X141900072Y-86509571D01*
X141906394Y-86500543D01*
X141909248Y-86489894D01*
X141910762Y-86486647D01*
X141911984Y-86483288D01*
X141917497Y-86473739D01*
X141924087Y-86436363D01*
X141926467Y-86425630D01*
X141933433Y-86399634D01*
X141933433Y-86399631D01*
X141936286Y-86388985D01*
X141932979Y-86351186D01*
X141932500Y-86340204D01*
X141932500Y-84635465D01*
X141952502Y-84567344D01*
X141969327Y-84546447D01*
X142036935Y-84478721D01*
X142036935Y-84478720D01*
X142044293Y-84471350D01*
X142095536Y-84366518D01*
X142105500Y-84298218D01*
X142105500Y-82481782D01*
X142096871Y-82423162D01*
X142096784Y-82422574D01*
X142096784Y-82422573D01*
X142095358Y-82412888D01*
X142043932Y-82308145D01*
X141969482Y-82233825D01*
X141935403Y-82171543D01*
X141932500Y-82144652D01*
X141932500Y-81212751D01*
X141952502Y-81144630D01*
X141981796Y-81112789D01*
X142026729Y-81078311D01*
X142026732Y-81078308D01*
X142033282Y-81073282D01*
X142043818Y-81059552D01*
X142106393Y-80978001D01*
X142129536Y-80947841D01*
X142190044Y-80801762D01*
X142210682Y-80645000D01*
X142190044Y-80488238D01*
X142129536Y-80342159D01*
X142033282Y-80216718D01*
X141907841Y-80120464D01*
X141761762Y-80059956D01*
X141605000Y-80039318D01*
X141448238Y-80059956D01*
X141302159Y-80120464D01*
X141176718Y-80216718D01*
X141080464Y-80342159D01*
X141019956Y-80488238D01*
X140999318Y-80645000D01*
X141019956Y-80801762D01*
X141080464Y-80947841D01*
X141103607Y-80978001D01*
X141166183Y-81059552D01*
X141176718Y-81073282D01*
X141183268Y-81078308D01*
X141183271Y-81078311D01*
X141228204Y-81112789D01*
X141270071Y-81170127D01*
X141277500Y-81212751D01*
X141277500Y-82144535D01*
X141257498Y-82212656D01*
X141240673Y-82233553D01*
X141218648Y-82255617D01*
X141165707Y-82308650D01*
X141114464Y-82413482D01*
X141104500Y-82481782D01*
X141104500Y-84298218D01*
X141105170Y-84302768D01*
X141105170Y-84302771D01*
X141113216Y-84357426D01*
X141114642Y-84367112D01*
X141166068Y-84471855D01*
X141223615Y-84529301D01*
X141240518Y-84546175D01*
X141274597Y-84608457D01*
X141277500Y-84635348D01*
X141277500Y-86172155D01*
X141257498Y-86240276D01*
X141240595Y-86261250D01*
X140441218Y-87060628D01*
X139874752Y-87627094D01*
X139812440Y-87661119D01*
X139741625Y-87656055D01*
X139684789Y-87613508D01*
X139660735Y-87554445D01*
X139651122Y-87481426D01*
X139650044Y-87473238D01*
X139589536Y-87327159D01*
X139493282Y-87201718D01*
X139486732Y-87196692D01*
X139486729Y-87196689D01*
X139441796Y-87162211D01*
X139399929Y-87104873D01*
X139392500Y-87062249D01*
X139392500Y-84635465D01*
X139412502Y-84567344D01*
X139429327Y-84546447D01*
X139496935Y-84478721D01*
X139496935Y-84478720D01*
X139504293Y-84471350D01*
X139555536Y-84366518D01*
X139565500Y-84298218D01*
X139834500Y-84298218D01*
X139835170Y-84302768D01*
X139835170Y-84302771D01*
X139843216Y-84357426D01*
X139844642Y-84367112D01*
X139896068Y-84471855D01*
X139978650Y-84554293D01*
X139988006Y-84558866D01*
X139988007Y-84558867D01*
X140020460Y-84574730D01*
X140083482Y-84605536D01*
X140103505Y-84608457D01*
X140147256Y-84614840D01*
X140147260Y-84614840D01*
X140151782Y-84615500D01*
X140518218Y-84615500D01*
X140522768Y-84614830D01*
X140522771Y-84614830D01*
X140577426Y-84606784D01*
X140577427Y-84606784D01*
X140587112Y-84605358D01*
X140637008Y-84580860D01*
X140682507Y-84558522D01*
X140682509Y-84558521D01*
X140691855Y-84553932D01*
X140774293Y-84471350D01*
X140825536Y-84366518D01*
X140835500Y-84298218D01*
X140835500Y-82481782D01*
X140826871Y-82423162D01*
X140826784Y-82422574D01*
X140826784Y-82422573D01*
X140825358Y-82412888D01*
X140773932Y-82308145D01*
X140691350Y-82225707D01*
X140662501Y-82211605D01*
X140613197Y-82187505D01*
X140586518Y-82174464D01*
X140556027Y-82170016D01*
X140522744Y-82165160D01*
X140522740Y-82165160D01*
X140518218Y-82164500D01*
X140151782Y-82164500D01*
X140147232Y-82165170D01*
X140147229Y-82165170D01*
X140092574Y-82173216D01*
X140092573Y-82173216D01*
X140082888Y-82174642D01*
X140032992Y-82199140D01*
X139987493Y-82221478D01*
X139987491Y-82221479D01*
X139978145Y-82226068D01*
X139895707Y-82308650D01*
X139844464Y-82413482D01*
X139834500Y-82481782D01*
X139834500Y-84298218D01*
X139565500Y-84298218D01*
X139565500Y-82481782D01*
X139556871Y-82423162D01*
X139556784Y-82422574D01*
X139556784Y-82422573D01*
X139555358Y-82412888D01*
X139503932Y-82308145D01*
X139421350Y-82225707D01*
X139392501Y-82211605D01*
X139343197Y-82187505D01*
X139316518Y-82174464D01*
X139286027Y-82170016D01*
X139252744Y-82165160D01*
X139252740Y-82165160D01*
X139248218Y-82164500D01*
X138881782Y-82164500D01*
X138877232Y-82165170D01*
X138877229Y-82165170D01*
X138822574Y-82173216D01*
X138822573Y-82173216D01*
X138812888Y-82174642D01*
X138762992Y-82199140D01*
X138717493Y-82221478D01*
X138717491Y-82221479D01*
X138708145Y-82226068D01*
X138625707Y-82308650D01*
X138574464Y-82413482D01*
X138564500Y-82481782D01*
X138564500Y-84298218D01*
X138565170Y-84302768D01*
X138565170Y-84302771D01*
X138573216Y-84357426D01*
X138574642Y-84367112D01*
X138626068Y-84471855D01*
X138683615Y-84529301D01*
X138700518Y-84546175D01*
X138734597Y-84608457D01*
X138737500Y-84635348D01*
X138737500Y-87062249D01*
X138717498Y-87130370D01*
X138688204Y-87162211D01*
X138643271Y-87196689D01*
X138643268Y-87196692D01*
X138636718Y-87201718D01*
X138540464Y-87327159D01*
X138479956Y-87473238D01*
X138459318Y-87630000D01*
X138479956Y-87786762D01*
X138540464Y-87932841D01*
X138636718Y-88058282D01*
X138762159Y-88154536D01*
X138908238Y-88215044D01*
X138916426Y-88216122D01*
X138989445Y-88225735D01*
X139054372Y-88254457D01*
X139093464Y-88313722D01*
X139094309Y-88384714D01*
X139062094Y-88439752D01*
X138847433Y-88654413D01*
X138839330Y-88661839D01*
X138810250Y-88686240D01*
X138804737Y-88695789D01*
X138791275Y-88719106D01*
X138785377Y-88728365D01*
X138763606Y-88759457D01*
X138760754Y-88770101D01*
X138759240Y-88773347D01*
X138758014Y-88776715D01*
X138752503Y-88786261D01*
X138750589Y-88797117D01*
X138745913Y-88823633D01*
X138743536Y-88834356D01*
X138733713Y-88871016D01*
X138734674Y-88881999D01*
X138737020Y-88908811D01*
X138737500Y-88919794D01*
X138737500Y-93156296D01*
X138717498Y-93224417D01*
X138663842Y-93270910D01*
X138644142Y-93277457D01*
X138644242Y-93277799D01*
X138588610Y-93294067D01*
X138551544Y-93310920D01*
X138462310Y-93351492D01*
X138462306Y-93351494D01*
X138458231Y-93353347D01*
X138409402Y-93384574D01*
X138406010Y-93387497D01*
X138406007Y-93387499D01*
X138383192Y-93407158D01*
X138300901Y-93478064D01*
X138297962Y-93481433D01*
X138297958Y-93481437D01*
X138286808Y-93494219D01*
X138262798Y-93521742D01*
X138184898Y-93641927D01*
X138160586Y-93694545D01*
X138159301Y-93698843D01*
X138159298Y-93698850D01*
X138131327Y-93792382D01*
X138119550Y-93831763D01*
X138110983Y-93889086D01*
X138110813Y-93916873D01*
X138110375Y-93988682D01*
X138110108Y-94032307D01*
X138110447Y-94034780D01*
X138110572Y-94038635D01*
X138110572Y-94465000D01*
X138126133Y-94543231D01*
X138133026Y-94553547D01*
X138137777Y-94565017D01*
X138134063Y-94566555D01*
X138148528Y-94612751D01*
X138133688Y-94663289D01*
X138137777Y-94664983D01*
X138133026Y-94676453D01*
X138126133Y-94686769D01*
X138123712Y-94698938D01*
X138123712Y-94698939D01*
X138115249Y-94741486D01*
X138110572Y-94765000D01*
X138110572Y-94811500D01*
X138090570Y-94879621D01*
X138036914Y-94926114D01*
X137984572Y-94937500D01*
X135700428Y-94937500D01*
X135632307Y-94917498D01*
X135585814Y-94863842D01*
X135574428Y-94811500D01*
X135574428Y-94780000D01*
X135558867Y-94701769D01*
X135551974Y-94691453D01*
X135547223Y-94679983D01*
X135550937Y-94678445D01*
X135536472Y-94632249D01*
X135551312Y-94581711D01*
X135547223Y-94580017D01*
X135551974Y-94568547D01*
X135558867Y-94558231D01*
X135564272Y-94531061D01*
X135573221Y-94486068D01*
X135574428Y-94480000D01*
X135574428Y-93989845D01*
X135574449Y-93987536D01*
X135575581Y-93925784D01*
X135575663Y-93921311D01*
X135568498Y-93863792D01*
X135530825Y-93725612D01*
X135526202Y-93714927D01*
X135509587Y-93676534D01*
X135509585Y-93676531D01*
X135507806Y-93672419D01*
X135432866Y-93550367D01*
X135430002Y-93546917D01*
X135398705Y-93509219D01*
X135398703Y-93509217D01*
X135395843Y-93505772D01*
X135289659Y-93409658D01*
X135241605Y-93377245D01*
X135112713Y-93314798D01*
X135057496Y-93297176D01*
X135053075Y-93296432D01*
X135053070Y-93296431D01*
X135052584Y-93296349D01*
X135052436Y-93296277D01*
X135048715Y-93295375D01*
X135048912Y-93294564D01*
X134988729Y-93265316D01*
X134951788Y-93204688D01*
X134947500Y-93172097D01*
X134947500Y-89722844D01*
X134967502Y-89654723D01*
X134984405Y-89633749D01*
X135847540Y-88770615D01*
X136742573Y-87875582D01*
X136750677Y-87868155D01*
X136771305Y-87850846D01*
X136779750Y-87843760D01*
X136798723Y-87810898D01*
X136804626Y-87801633D01*
X136820071Y-87779574D01*
X136820072Y-87779572D01*
X136826394Y-87770543D01*
X136829246Y-87759899D01*
X136830760Y-87756653D01*
X136831986Y-87753285D01*
X136837497Y-87743739D01*
X136844087Y-87706367D01*
X136846466Y-87695635D01*
X136850668Y-87679956D01*
X136856287Y-87658984D01*
X136852980Y-87621189D01*
X136852500Y-87610206D01*
X136852500Y-84635465D01*
X136872502Y-84567344D01*
X136889327Y-84546447D01*
X136956935Y-84478721D01*
X136956935Y-84478720D01*
X136964293Y-84471350D01*
X137015536Y-84366518D01*
X137025500Y-84298218D01*
X137294500Y-84298218D01*
X137295170Y-84302768D01*
X137295170Y-84302771D01*
X137303216Y-84357426D01*
X137304642Y-84367112D01*
X137356068Y-84471855D01*
X137438650Y-84554293D01*
X137448006Y-84558866D01*
X137448007Y-84558867D01*
X137480460Y-84574730D01*
X137543482Y-84605536D01*
X137563505Y-84608457D01*
X137607256Y-84614840D01*
X137607260Y-84614840D01*
X137611782Y-84615500D01*
X137978218Y-84615500D01*
X137982768Y-84614830D01*
X137982771Y-84614830D01*
X138037426Y-84606784D01*
X138037427Y-84606784D01*
X138047112Y-84605358D01*
X138097008Y-84580860D01*
X138142507Y-84558522D01*
X138142509Y-84558521D01*
X138151855Y-84553932D01*
X138234293Y-84471350D01*
X138285536Y-84366518D01*
X138295500Y-84298218D01*
X138295500Y-82481782D01*
X138286871Y-82423162D01*
X138286784Y-82422574D01*
X138286784Y-82422573D01*
X138285358Y-82412888D01*
X138233932Y-82308145D01*
X138151350Y-82225707D01*
X138122501Y-82211605D01*
X138073197Y-82187505D01*
X138046518Y-82174464D01*
X138016027Y-82170016D01*
X137982744Y-82165160D01*
X137982740Y-82165160D01*
X137978218Y-82164500D01*
X137611782Y-82164500D01*
X137607232Y-82165170D01*
X137607229Y-82165170D01*
X137552574Y-82173216D01*
X137552573Y-82173216D01*
X137542888Y-82174642D01*
X137492992Y-82199140D01*
X137447493Y-82221478D01*
X137447491Y-82221479D01*
X137438145Y-82226068D01*
X137355707Y-82308650D01*
X137304464Y-82413482D01*
X137294500Y-82481782D01*
X137294500Y-84298218D01*
X137025500Y-84298218D01*
X137025500Y-82481782D01*
X137016871Y-82423162D01*
X137016784Y-82422574D01*
X137016784Y-82422573D01*
X137015358Y-82412888D01*
X136963932Y-82308145D01*
X136881350Y-82225707D01*
X136852501Y-82211605D01*
X136803197Y-82187505D01*
X136776518Y-82174464D01*
X136746027Y-82170016D01*
X136712744Y-82165160D01*
X136712740Y-82165160D01*
X136708218Y-82164500D01*
X136341782Y-82164500D01*
X136337232Y-82165170D01*
X136337229Y-82165170D01*
X136282574Y-82173216D01*
X136282573Y-82173216D01*
X136272888Y-82174642D01*
X136222992Y-82199140D01*
X136177493Y-82221478D01*
X136177491Y-82221479D01*
X136168145Y-82226068D01*
X136085707Y-82308650D01*
X136034464Y-82413482D01*
X136024500Y-82481782D01*
X136024500Y-84298218D01*
X136025170Y-84302768D01*
X136025170Y-84302771D01*
X136033216Y-84357426D01*
X136034642Y-84367112D01*
X136086068Y-84471855D01*
X136143615Y-84529301D01*
X136160518Y-84546175D01*
X136194597Y-84608457D01*
X136197500Y-84635348D01*
X136197500Y-87442155D01*
X136177498Y-87510276D01*
X136160595Y-87531250D01*
X134402433Y-89289413D01*
X134394329Y-89296840D01*
X134365250Y-89321240D01*
X134359737Y-89330789D01*
X134346275Y-89354106D01*
X134340377Y-89363365D01*
X134318606Y-89394457D01*
X134315754Y-89405101D01*
X134314240Y-89408347D01*
X134313014Y-89411715D01*
X134307503Y-89421261D01*
X134305589Y-89432117D01*
X134300913Y-89458633D01*
X134298536Y-89469356D01*
X134288713Y-89506016D01*
X134289674Y-89516999D01*
X134292020Y-89543811D01*
X134292500Y-89554794D01*
X134292500Y-93171296D01*
X134272498Y-93239417D01*
X134218842Y-93285910D01*
X134199142Y-93292457D01*
X134199242Y-93292799D01*
X134143610Y-93309067D01*
X134129061Y-93315682D01*
X134017310Y-93366492D01*
X134017306Y-93366494D01*
X134013231Y-93368347D01*
X133964402Y-93399574D01*
X133961010Y-93402497D01*
X133961007Y-93402499D01*
X133862049Y-93487767D01*
X133855901Y-93493064D01*
X133852962Y-93496433D01*
X133852958Y-93496437D01*
X133847436Y-93502767D01*
X133817798Y-93536742D01*
X133815355Y-93540510D01*
X133815355Y-93540511D01*
X133787068Y-93584153D01*
X133739898Y-93656927D01*
X133715586Y-93709545D01*
X133714301Y-93713843D01*
X133714298Y-93713850D01*
X133683011Y-93818470D01*
X133674550Y-93846763D01*
X133665983Y-93904086D01*
X133665685Y-93952886D01*
X133665200Y-94032307D01*
X133665108Y-94047307D01*
X133665447Y-94049780D01*
X133665572Y-94053635D01*
X133665572Y-94480000D01*
X133666779Y-94486068D01*
X133675729Y-94531061D01*
X133681133Y-94558231D01*
X133688026Y-94568547D01*
X133692777Y-94580017D01*
X133689063Y-94581555D01*
X133703528Y-94627751D01*
X133688688Y-94678289D01*
X133692777Y-94679983D01*
X133688026Y-94691453D01*
X133681133Y-94701769D01*
X133665572Y-94780000D01*
X133665572Y-94811500D01*
X133645570Y-94879621D01*
X133591914Y-94926114D01*
X133539572Y-94937500D01*
X133160428Y-94937500D01*
X133092307Y-94917498D01*
X133045814Y-94863842D01*
X133034428Y-94811500D01*
X133034428Y-94765000D01*
X133029751Y-94741486D01*
X133021288Y-94698939D01*
X133021288Y-94698938D01*
X133018867Y-94686769D01*
X133011974Y-94676453D01*
X133007223Y-94664983D01*
X133010937Y-94663445D01*
X132996472Y-94617249D01*
X133011312Y-94566711D01*
X133007223Y-94565017D01*
X133011974Y-94553547D01*
X133018867Y-94543231D01*
X133034428Y-94465000D01*
X133034428Y-93974845D01*
X133034449Y-93972536D01*
X133035581Y-93910784D01*
X133035663Y-93906311D01*
X133028498Y-93848792D01*
X132990825Y-93710612D01*
X132981191Y-93688348D01*
X132969587Y-93661534D01*
X132969585Y-93661531D01*
X132967806Y-93657419D01*
X132892866Y-93535367D01*
X132890002Y-93531917D01*
X132858705Y-93494219D01*
X132858703Y-93494217D01*
X132855843Y-93490772D01*
X132749659Y-93394658D01*
X132710652Y-93368347D01*
X132705322Y-93364752D01*
X132705320Y-93364751D01*
X132701605Y-93362245D01*
X132572713Y-93299798D01*
X132517496Y-93282176D01*
X132513075Y-93281432D01*
X132513070Y-93281431D01*
X132512584Y-93281349D01*
X132512436Y-93281277D01*
X132508715Y-93280375D01*
X132508912Y-93279564D01*
X132448729Y-93250316D01*
X132411788Y-93189688D01*
X132407500Y-93157097D01*
X132407500Y-89087844D01*
X132427502Y-89019723D01*
X132444405Y-88998749D01*
X135472566Y-85970588D01*
X135480670Y-85963161D01*
X135501305Y-85945846D01*
X135509750Y-85938760D01*
X135528725Y-85905894D01*
X135534623Y-85896635D01*
X135556394Y-85865543D01*
X135559246Y-85854899D01*
X135560760Y-85851653D01*
X135561986Y-85848285D01*
X135567497Y-85838739D01*
X135574087Y-85801367D01*
X135576466Y-85790635D01*
X135580668Y-85774956D01*
X135586287Y-85753984D01*
X135582980Y-85716189D01*
X135582500Y-85705206D01*
X135582500Y-84635465D01*
X135602502Y-84567344D01*
X135619327Y-84546447D01*
X135686935Y-84478721D01*
X135686935Y-84478720D01*
X135694293Y-84471350D01*
X135745536Y-84366518D01*
X135755500Y-84298218D01*
X135755500Y-82481782D01*
X135746871Y-82423162D01*
X135746784Y-82422574D01*
X135746784Y-82422573D01*
X135745358Y-82412888D01*
X135693932Y-82308145D01*
X135611350Y-82225707D01*
X135582501Y-82211605D01*
X135533197Y-82187505D01*
X135506518Y-82174464D01*
X135476027Y-82170016D01*
X135442744Y-82165160D01*
X135442740Y-82165160D01*
X135438218Y-82164500D01*
X135071782Y-82164500D01*
X135067232Y-82165170D01*
X135067229Y-82165170D01*
X135012574Y-82173216D01*
X135012573Y-82173216D01*
X135002888Y-82174642D01*
X134952992Y-82199140D01*
X134907493Y-82221478D01*
X134907491Y-82221479D01*
X134898145Y-82226068D01*
X134815707Y-82308650D01*
X134764464Y-82413482D01*
X134754500Y-82481782D01*
X134754500Y-84298218D01*
X134755170Y-84302768D01*
X134755170Y-84302771D01*
X134763216Y-84357426D01*
X134764642Y-84367112D01*
X134816068Y-84471855D01*
X134873615Y-84529301D01*
X134890518Y-84546175D01*
X134924597Y-84608457D01*
X134927500Y-84635348D01*
X134927500Y-85537156D01*
X134907498Y-85605277D01*
X134890595Y-85626251D01*
X131862434Y-88654412D01*
X131854330Y-88661839D01*
X131825250Y-88686240D01*
X131819737Y-88695789D01*
X131806275Y-88719106D01*
X131800377Y-88728365D01*
X131778606Y-88759457D01*
X131775754Y-88770101D01*
X131774240Y-88773347D01*
X131773014Y-88776715D01*
X131767503Y-88786261D01*
X131765589Y-88797117D01*
X131760913Y-88823633D01*
X131758536Y-88834356D01*
X131748713Y-88871016D01*
X131749674Y-88881999D01*
X131752020Y-88908811D01*
X131752500Y-88919794D01*
X131752500Y-93156296D01*
X131732498Y-93224417D01*
X131678842Y-93270910D01*
X131659142Y-93277457D01*
X131659242Y-93277799D01*
X131603610Y-93294067D01*
X131566544Y-93310920D01*
X131477310Y-93351492D01*
X131477306Y-93351494D01*
X131473231Y-93353347D01*
X131424402Y-93384574D01*
X131421010Y-93387497D01*
X131421007Y-93387499D01*
X131398192Y-93407158D01*
X131315901Y-93478064D01*
X131312962Y-93481433D01*
X131312958Y-93481437D01*
X131301808Y-93494219D01*
X131277798Y-93521742D01*
X131199898Y-93641927D01*
X131175586Y-93694545D01*
X131174301Y-93698843D01*
X131174298Y-93698850D01*
X131146327Y-93792382D01*
X131134550Y-93831763D01*
X131125983Y-93889086D01*
X131125813Y-93916873D01*
X131125375Y-93988682D01*
X131125108Y-94032307D01*
X131125447Y-94034780D01*
X131125572Y-94038635D01*
X131125572Y-94465000D01*
X131141133Y-94543231D01*
X131148026Y-94553547D01*
X131152777Y-94565017D01*
X131149063Y-94566555D01*
X131163528Y-94612751D01*
X131148688Y-94663289D01*
X131152777Y-94664983D01*
X131148026Y-94676453D01*
X131141133Y-94686769D01*
X131138712Y-94698938D01*
X131138712Y-94698939D01*
X131130249Y-94741486D01*
X131125572Y-94765000D01*
X131125572Y-95255916D01*
X131125570Y-95256686D01*
X131125108Y-95332307D01*
X120494654Y-95332307D01*
X120495654Y-95255916D01*
X120497073Y-95147512D01*
X120497073Y-95147509D01*
X120497134Y-95142835D01*
X120462048Y-94885030D01*
X120460472Y-94879621D01*
X120428866Y-94771187D01*
X120389242Y-94635243D01*
X120280314Y-94398961D01*
X120251637Y-94355221D01*
X120140225Y-94185288D01*
X120140221Y-94185283D01*
X120137659Y-94181375D01*
X120010259Y-94038635D01*
X119967526Y-93990757D01*
X119967524Y-93990755D01*
X119964409Y-93987265D01*
X119764371Y-93820895D01*
X119541939Y-93685920D01*
X119509743Y-93672419D01*
X119306314Y-93587114D01*
X119306309Y-93587112D01*
X119301999Y-93585305D01*
X119297467Y-93584154D01*
X119297464Y-93584153D01*
X119164429Y-93550367D01*
X119049823Y-93521261D01*
X118833714Y-93499500D01*
X118678956Y-93499500D01*
X118676631Y-93499673D01*
X118676625Y-93499673D01*
X118490186Y-93513528D01*
X118490182Y-93513529D01*
X118485534Y-93513874D01*
X118231768Y-93571295D01*
X118227416Y-93572987D01*
X118227414Y-93572988D01*
X117993630Y-93663902D01*
X117993628Y-93663903D01*
X117989277Y-93665595D01*
X117985223Y-93667912D01*
X117985221Y-93667913D01*
X117949467Y-93688348D01*
X117763388Y-93794701D01*
X117559064Y-93955777D01*
X117380792Y-94145286D01*
X117232489Y-94359063D01*
X117230423Y-94363253D01*
X117230421Y-94363256D01*
X117122692Y-94581711D01*
X117117414Y-94592413D01*
X117038094Y-94840208D01*
X116996272Y-95097006D01*
X116994972Y-95196328D01*
X116994192Y-95255916D01*
X116992866Y-95357165D01*
X100965000Y-95357165D01*
X100965000Y-84378834D01*
X124019500Y-84378834D01*
X124022481Y-84410369D01*
X124067366Y-84538184D01*
X124072958Y-84545754D01*
X124072959Y-84545757D01*
X124088904Y-84567344D01*
X124147850Y-84647150D01*
X124155421Y-84652742D01*
X124249243Y-84722041D01*
X124249246Y-84722042D01*
X124256816Y-84727634D01*
X124384631Y-84772519D01*
X124392277Y-84773242D01*
X124392278Y-84773242D01*
X124398248Y-84773806D01*
X124416166Y-84775500D01*
X125342656Y-84775500D01*
X125410777Y-84795502D01*
X125431751Y-84812405D01*
X127196918Y-86577573D01*
X127204345Y-86585677D01*
X127228740Y-86614750D01*
X127238286Y-86620261D01*
X127238288Y-86620263D01*
X127261602Y-86633723D01*
X127270871Y-86639628D01*
X127301957Y-86661394D01*
X127312606Y-86664248D01*
X127315853Y-86665762D01*
X127319212Y-86666984D01*
X127328761Y-86672497D01*
X127358767Y-86677787D01*
X127366137Y-86679087D01*
X127376870Y-86681467D01*
X127402866Y-86688433D01*
X127402869Y-86688433D01*
X127413515Y-86691286D01*
X127451314Y-86687979D01*
X127462296Y-86687500D01*
X131512249Y-86687500D01*
X131580370Y-86707502D01*
X131612211Y-86736796D01*
X131646689Y-86781729D01*
X131646691Y-86781731D01*
X131651718Y-86788282D01*
X131658268Y-86793308D01*
X131658269Y-86793309D01*
X131703205Y-86827789D01*
X131777159Y-86884536D01*
X131923238Y-86945044D01*
X132080000Y-86965682D01*
X132088188Y-86964604D01*
X132228574Y-86946122D01*
X132236762Y-86945044D01*
X132382841Y-86884536D01*
X132472082Y-86816059D01*
X132501736Y-86793305D01*
X132508282Y-86788282D01*
X132604536Y-86662841D01*
X132665044Y-86516762D01*
X132685682Y-86360000D01*
X132665044Y-86203238D01*
X132604536Y-86057159D01*
X132508282Y-85931718D01*
X132382841Y-85835464D01*
X132236762Y-85774956D01*
X132080000Y-85754318D01*
X131923238Y-85774956D01*
X131777159Y-85835464D01*
X131756061Y-85851653D01*
X131685373Y-85905894D01*
X131651718Y-85931718D01*
X131646692Y-85938268D01*
X131646689Y-85938271D01*
X131612211Y-85983204D01*
X131554873Y-86025071D01*
X131512249Y-86032500D01*
X127630345Y-86032500D01*
X127562224Y-86012498D01*
X127541250Y-85995595D01*
X126168603Y-84622949D01*
X126134578Y-84560637D01*
X126138815Y-84492107D01*
X126167519Y-84410369D01*
X126170500Y-84378834D01*
X126170500Y-84298218D01*
X130944500Y-84298218D01*
X130945170Y-84302768D01*
X130945170Y-84302771D01*
X130953216Y-84357426D01*
X130954642Y-84367112D01*
X131006068Y-84471855D01*
X131088650Y-84554293D01*
X131098006Y-84558866D01*
X131098007Y-84558867D01*
X131130460Y-84574730D01*
X131193482Y-84605536D01*
X131213505Y-84608457D01*
X131257256Y-84614840D01*
X131257260Y-84614840D01*
X131261782Y-84615500D01*
X131628218Y-84615500D01*
X131632768Y-84614830D01*
X131632771Y-84614830D01*
X131687426Y-84606784D01*
X131687427Y-84606784D01*
X131697112Y-84605358D01*
X131747008Y-84580860D01*
X131792507Y-84558522D01*
X131792509Y-84558521D01*
X131801855Y-84553932D01*
X131884293Y-84471350D01*
X131935536Y-84366518D01*
X131945500Y-84298218D01*
X131945500Y-82481782D01*
X131936871Y-82423162D01*
X131936784Y-82422574D01*
X131936784Y-82422573D01*
X131935358Y-82412888D01*
X131883932Y-82308145D01*
X131801350Y-82225707D01*
X131772501Y-82211605D01*
X131723197Y-82187505D01*
X131696518Y-82174464D01*
X131666027Y-82170016D01*
X131632744Y-82165160D01*
X131632740Y-82165160D01*
X131628218Y-82164500D01*
X131261782Y-82164500D01*
X131257232Y-82165170D01*
X131257229Y-82165170D01*
X131202574Y-82173216D01*
X131202573Y-82173216D01*
X131192888Y-82174642D01*
X131142992Y-82199140D01*
X131097493Y-82221478D01*
X131097491Y-82221479D01*
X131088145Y-82226068D01*
X131005707Y-82308650D01*
X130954464Y-82413482D01*
X130944500Y-82481782D01*
X130944500Y-84298218D01*
X126170500Y-84298218D01*
X126170500Y-83646166D01*
X126168806Y-83628248D01*
X126168242Y-83622278D01*
X126168242Y-83622277D01*
X126167519Y-83614631D01*
X126122634Y-83486816D01*
X126117042Y-83479246D01*
X126117041Y-83479243D01*
X126047742Y-83385421D01*
X126042150Y-83377850D01*
X126025206Y-83365335D01*
X125940757Y-83302959D01*
X125940754Y-83302958D01*
X125933184Y-83297366D01*
X125805369Y-83252481D01*
X125797723Y-83251758D01*
X125797722Y-83251758D01*
X125791752Y-83251194D01*
X125773834Y-83249500D01*
X124416166Y-83249500D01*
X124398248Y-83251194D01*
X124392278Y-83251758D01*
X124392277Y-83251758D01*
X124384631Y-83252481D01*
X124256816Y-83297366D01*
X124249246Y-83302958D01*
X124249243Y-83302959D01*
X124164794Y-83365335D01*
X124147850Y-83377850D01*
X124142258Y-83385421D01*
X124072959Y-83479243D01*
X124072958Y-83479246D01*
X124067366Y-83486816D01*
X124022481Y-83614631D01*
X124021758Y-83622277D01*
X124021758Y-83622278D01*
X124021194Y-83628248D01*
X124019500Y-83646166D01*
X124019500Y-84378834D01*
X100965000Y-84378834D01*
X100965000Y-83311000D01*
X100985002Y-83242879D01*
X101038658Y-83196386D01*
X101091000Y-83185000D01*
X106680000Y-83185000D01*
X106680000Y-81092615D01*
X106700002Y-81024494D01*
X106753658Y-80978001D01*
X106823932Y-80967897D01*
X106888512Y-80997391D01*
X106910765Y-81022612D01*
X106935448Y-81059552D01*
X107001769Y-81103867D01*
X107013938Y-81106288D01*
X107013939Y-81106288D01*
X107046623Y-81112789D01*
X107060252Y-81115500D01*
X107496500Y-81115500D01*
X107564621Y-81135502D01*
X107611114Y-81189158D01*
X107622500Y-81241500D01*
X107622500Y-81260206D01*
X107622020Y-81271189D01*
X107618713Y-81308984D01*
X107621566Y-81319631D01*
X107628534Y-81345635D01*
X107630913Y-81356367D01*
X107637503Y-81393739D01*
X107643014Y-81403285D01*
X107644240Y-81406653D01*
X107645754Y-81409899D01*
X107648606Y-81420543D01*
X107670377Y-81451635D01*
X107676275Y-81460894D01*
X107695250Y-81493760D01*
X107703695Y-81500846D01*
X107724329Y-81518160D01*
X107732433Y-81525587D01*
X108974418Y-82767573D01*
X108981845Y-82775677D01*
X109006240Y-82804750D01*
X109015786Y-82810261D01*
X109015788Y-82810263D01*
X109039102Y-82823723D01*
X109048371Y-82829628D01*
X109079457Y-82851394D01*
X109090108Y-82854248D01*
X109093358Y-82855763D01*
X109096713Y-82856984D01*
X109106261Y-82862497D01*
X109117115Y-82864411D01*
X109117118Y-82864412D01*
X109137787Y-82868056D01*
X109143643Y-82869089D01*
X109154358Y-82871464D01*
X109191016Y-82881286D01*
X109201991Y-82880326D01*
X109201993Y-82880326D01*
X109228815Y-82877979D01*
X109239797Y-82877500D01*
X116836000Y-82877500D01*
X116904121Y-82897502D01*
X116950614Y-82951158D01*
X116962000Y-83003500D01*
X116962000Y-83228834D01*
X116962279Y-83231782D01*
X116963954Y-83249500D01*
X116964981Y-83260369D01*
X117009866Y-83388184D01*
X117015458Y-83395754D01*
X117015459Y-83395757D01*
X117077124Y-83479243D01*
X117090350Y-83497150D01*
X117097921Y-83502742D01*
X117191743Y-83572041D01*
X117191746Y-83572042D01*
X117199316Y-83577634D01*
X117327131Y-83622519D01*
X117334777Y-83623242D01*
X117334778Y-83623242D01*
X117340748Y-83623806D01*
X117358666Y-83625500D01*
X118091334Y-83625500D01*
X118109252Y-83623806D01*
X118115222Y-83623242D01*
X118115223Y-83623242D01*
X118122869Y-83622519D01*
X118250684Y-83577634D01*
X118258254Y-83572042D01*
X118258257Y-83572041D01*
X118352079Y-83502742D01*
X118359650Y-83497150D01*
X118372876Y-83479243D01*
X118434541Y-83395757D01*
X118434542Y-83395754D01*
X118440134Y-83388184D01*
X118485019Y-83260369D01*
X118486047Y-83249500D01*
X118487721Y-83231782D01*
X118488000Y-83228834D01*
X119887000Y-83228834D01*
X119887279Y-83231782D01*
X119888954Y-83249500D01*
X119889981Y-83260369D01*
X119934866Y-83388184D01*
X119940458Y-83395754D01*
X119940459Y-83395757D01*
X120002124Y-83479243D01*
X120015350Y-83497150D01*
X120022921Y-83502742D01*
X120116743Y-83572041D01*
X120116746Y-83572042D01*
X120124316Y-83577634D01*
X120252131Y-83622519D01*
X120259777Y-83623242D01*
X120259778Y-83623242D01*
X120265748Y-83623806D01*
X120283666Y-83625500D01*
X121016334Y-83625500D01*
X121034252Y-83623806D01*
X121040222Y-83623242D01*
X121040223Y-83623242D01*
X121047869Y-83622519D01*
X121175684Y-83577634D01*
X121183254Y-83572042D01*
X121183257Y-83572041D01*
X121277079Y-83502742D01*
X121284650Y-83497150D01*
X121297876Y-83479243D01*
X121359541Y-83395757D01*
X121359542Y-83395754D01*
X121365134Y-83388184D01*
X121410019Y-83260369D01*
X121411047Y-83249500D01*
X121412721Y-83231782D01*
X121413000Y-83228834D01*
X121413000Y-81871166D01*
X121411306Y-81853248D01*
X121410742Y-81847278D01*
X121410742Y-81847277D01*
X121410019Y-81839631D01*
X121365134Y-81711816D01*
X121359542Y-81704246D01*
X121359541Y-81704243D01*
X121290242Y-81610421D01*
X121284650Y-81602850D01*
X121267706Y-81590335D01*
X121183257Y-81527959D01*
X121183254Y-81527958D01*
X121175684Y-81522366D01*
X121063751Y-81483058D01*
X121006107Y-81441616D01*
X120980018Y-81375586D01*
X120979500Y-81364176D01*
X120979500Y-81197229D01*
X120999502Y-81129108D01*
X121053158Y-81082615D01*
X121063752Y-81078346D01*
X121097647Y-81066443D01*
X121179684Y-81037634D01*
X121187254Y-81032042D01*
X121187257Y-81032041D01*
X121281079Y-80962742D01*
X121288650Y-80957150D01*
X121301165Y-80940206D01*
X121363541Y-80855757D01*
X121363542Y-80855754D01*
X121369134Y-80848184D01*
X121414019Y-80720369D01*
X121417000Y-80688834D01*
X121417000Y-79331166D01*
X121414019Y-79299631D01*
X121369134Y-79171816D01*
X121363542Y-79164246D01*
X121363541Y-79164243D01*
X121294242Y-79070421D01*
X121288650Y-79062850D01*
X121266514Y-79046500D01*
X121187257Y-78987959D01*
X121187254Y-78987958D01*
X121179684Y-78982366D01*
X121063752Y-78941654D01*
X121006106Y-78900211D01*
X120980018Y-78834181D01*
X120979500Y-78822771D01*
X120979500Y-78657229D01*
X120995359Y-78603218D01*
X123824500Y-78603218D01*
X123825170Y-78607768D01*
X123825170Y-78607771D01*
X123833216Y-78662426D01*
X123834642Y-78672112D01*
X123886068Y-78776855D01*
X123893438Y-78784212D01*
X123959214Y-78849873D01*
X123968650Y-78859293D01*
X124073482Y-78910536D01*
X124100654Y-78914500D01*
X124137256Y-78919840D01*
X124137260Y-78919840D01*
X124141782Y-78920500D01*
X124311000Y-78920500D01*
X124379121Y-78940502D01*
X124425614Y-78994158D01*
X124437000Y-79046500D01*
X124437000Y-80219794D01*
X124416998Y-80287915D01*
X124363342Y-80334408D01*
X124352748Y-80338677D01*
X124256816Y-80372366D01*
X124249246Y-80377958D01*
X124249243Y-80377959D01*
X124164794Y-80440335D01*
X124147850Y-80452850D01*
X124142258Y-80460421D01*
X124072959Y-80554243D01*
X124072958Y-80554246D01*
X124067366Y-80561816D01*
X124022481Y-80689631D01*
X124019500Y-80721166D01*
X124019500Y-81453834D01*
X124021194Y-81471752D01*
X124021454Y-81474500D01*
X124022481Y-81485369D01*
X124067366Y-81613184D01*
X124072958Y-81620754D01*
X124072959Y-81620757D01*
X124134624Y-81704243D01*
X124147850Y-81722150D01*
X124155421Y-81727742D01*
X124249243Y-81797041D01*
X124249246Y-81797042D01*
X124256816Y-81802634D01*
X124384631Y-81847519D01*
X124392277Y-81848242D01*
X124392278Y-81848242D01*
X124398248Y-81848806D01*
X124416166Y-81850500D01*
X125773834Y-81850500D01*
X125791752Y-81848806D01*
X125797722Y-81848242D01*
X125797723Y-81848242D01*
X125805369Y-81847519D01*
X125933184Y-81802634D01*
X125940754Y-81797042D01*
X125940757Y-81797041D01*
X126034579Y-81727742D01*
X126042150Y-81722150D01*
X126055376Y-81704243D01*
X126117041Y-81620757D01*
X126117042Y-81620754D01*
X126122634Y-81613184D01*
X126167519Y-81485369D01*
X126168547Y-81474500D01*
X126168806Y-81471752D01*
X126170500Y-81453834D01*
X126170500Y-80721166D01*
X126167519Y-80689631D01*
X126122634Y-80561816D01*
X126117042Y-80554246D01*
X126117041Y-80554243D01*
X126047742Y-80460421D01*
X126042150Y-80452850D01*
X126025206Y-80440335D01*
X125940757Y-80377959D01*
X125940754Y-80377958D01*
X125933184Y-80372366D01*
X125805369Y-80327481D01*
X125797723Y-80326758D01*
X125797722Y-80326758D01*
X125791752Y-80326194D01*
X125773834Y-80324500D01*
X125214000Y-80324500D01*
X125145879Y-80304498D01*
X125099386Y-80250842D01*
X125088000Y-80198500D01*
X125088000Y-79046500D01*
X125108002Y-78978379D01*
X125161658Y-78931886D01*
X125214000Y-78920500D01*
X125383218Y-78920500D01*
X125387768Y-78919830D01*
X125387771Y-78919830D01*
X125442426Y-78911784D01*
X125442427Y-78911784D01*
X125452112Y-78910358D01*
X125546804Y-78863867D01*
X125547507Y-78863522D01*
X125547509Y-78863521D01*
X125556855Y-78858932D01*
X125639293Y-78776350D01*
X125690536Y-78671518D01*
X125694984Y-78641027D01*
X125699840Y-78607744D01*
X125699840Y-78607740D01*
X125700500Y-78603218D01*
X125700500Y-78236782D01*
X125694617Y-78196815D01*
X125691784Y-78177574D01*
X125691784Y-78177573D01*
X125690358Y-78167888D01*
X125655045Y-78095964D01*
X125643522Y-78072493D01*
X125643521Y-78072491D01*
X125638932Y-78063145D01*
X125570203Y-77994536D01*
X125563721Y-77988065D01*
X125563720Y-77988065D01*
X125556350Y-77980707D01*
X125534119Y-77969840D01*
X125505891Y-77956042D01*
X125451518Y-77929464D01*
X125410637Y-77923500D01*
X125387744Y-77920160D01*
X125387740Y-77920160D01*
X125383218Y-77919500D01*
X124141782Y-77919500D01*
X124137232Y-77920170D01*
X124137229Y-77920170D01*
X124082574Y-77928216D01*
X124082573Y-77928216D01*
X124072888Y-77929642D01*
X124022992Y-77954140D01*
X123977493Y-77976478D01*
X123977491Y-77976479D01*
X123968145Y-77981068D01*
X123885707Y-78063650D01*
X123881134Y-78073006D01*
X123881133Y-78073007D01*
X123869912Y-78095964D01*
X123834464Y-78168482D01*
X123824500Y-78236782D01*
X123824500Y-78603218D01*
X120995359Y-78603218D01*
X120999502Y-78589108D01*
X121053158Y-78542615D01*
X121063752Y-78538346D01*
X121071036Y-78535788D01*
X121179684Y-78497634D01*
X121187254Y-78492042D01*
X121187257Y-78492041D01*
X121281079Y-78422742D01*
X121288650Y-78417150D01*
X121314505Y-78382146D01*
X121363541Y-78315757D01*
X121363542Y-78315754D01*
X121369134Y-78308184D01*
X121414019Y-78180369D01*
X121417000Y-78148834D01*
X121417000Y-77921500D01*
X121437002Y-77853379D01*
X121490658Y-77806886D01*
X121543000Y-77795500D01*
X121927532Y-77795500D01*
X121995653Y-77815502D01*
X122016548Y-77832325D01*
X122093650Y-77909293D01*
X122103006Y-77913866D01*
X122103007Y-77913867D01*
X122132027Y-77928052D01*
X122198482Y-77960536D01*
X122228973Y-77964984D01*
X122262256Y-77969840D01*
X122262260Y-77969840D01*
X122266782Y-77970500D01*
X123508218Y-77970500D01*
X123512768Y-77969830D01*
X123512771Y-77969830D01*
X123567426Y-77961784D01*
X123567427Y-77961784D01*
X123577112Y-77960358D01*
X123631286Y-77933760D01*
X123672507Y-77913522D01*
X123672509Y-77913521D01*
X123681855Y-77908932D01*
X123764293Y-77826350D01*
X123815536Y-77721518D01*
X123821044Y-77683760D01*
X123824840Y-77657744D01*
X123824840Y-77657740D01*
X123825500Y-77653218D01*
X123825500Y-77421485D01*
X123845502Y-77353364D01*
X123899158Y-77306871D01*
X123969432Y-77296767D01*
X123986653Y-77300488D01*
X124065062Y-77323268D01*
X124077667Y-77325570D01*
X124106084Y-77327807D01*
X124111014Y-77328000D01*
X124490385Y-77328000D01*
X124505624Y-77323525D01*
X124506829Y-77322135D01*
X124508500Y-77314452D01*
X124508500Y-77309884D01*
X125016500Y-77309884D01*
X125020975Y-77325123D01*
X125022365Y-77326328D01*
X125030048Y-77327999D01*
X125413984Y-77327999D01*
X125418920Y-77327805D01*
X125447336Y-77325570D01*
X125459931Y-77323270D01*
X125605790Y-77280893D01*
X125620221Y-77274648D01*
X125749678Y-77198089D01*
X125762104Y-77188449D01*
X125868449Y-77082104D01*
X125878089Y-77069678D01*
X125954648Y-76940221D01*
X125960893Y-76925790D01*
X125999939Y-76791395D01*
X125999899Y-76777294D01*
X125992630Y-76774000D01*
X125034615Y-76774000D01*
X125019376Y-76778475D01*
X125018171Y-76779865D01*
X125016500Y-76787548D01*
X125016500Y-77309884D01*
X124508500Y-77309884D01*
X124508500Y-76792115D01*
X124504025Y-76776876D01*
X124502635Y-76775671D01*
X124494952Y-76774000D01*
X123538122Y-76774000D01*
X123524591Y-76777973D01*
X123523456Y-76785872D01*
X123529985Y-76808345D01*
X123529784Y-76879342D01*
X123491231Y-76938958D01*
X123426566Y-76968268D01*
X123408989Y-76969500D01*
X122266782Y-76969500D01*
X122262232Y-76970170D01*
X122262229Y-76970170D01*
X122207574Y-76978216D01*
X122207573Y-76978216D01*
X122197888Y-76979642D01*
X122151920Y-77002211D01*
X122102493Y-77026478D01*
X122102491Y-77026479D01*
X122093145Y-77031068D01*
X122085787Y-77038438D01*
X122085788Y-77038438D01*
X122016828Y-77107518D01*
X121954545Y-77141597D01*
X121927655Y-77144500D01*
X121543000Y-77144500D01*
X121474879Y-77124498D01*
X121428386Y-77070842D01*
X121417000Y-77018500D01*
X121417000Y-76791166D01*
X121414019Y-76759631D01*
X121369134Y-76631816D01*
X121363542Y-76624246D01*
X121363541Y-76624243D01*
X121294242Y-76530421D01*
X121288650Y-76522850D01*
X121261560Y-76502841D01*
X121187257Y-76447959D01*
X121187254Y-76447958D01*
X121179684Y-76442366D01*
X121051869Y-76397481D01*
X121044223Y-76396758D01*
X121044222Y-76396758D01*
X121038252Y-76396194D01*
X121020334Y-76394500D01*
X120287666Y-76394500D01*
X120269748Y-76396194D01*
X120263778Y-76396758D01*
X120263777Y-76396758D01*
X120256131Y-76397481D01*
X120128316Y-76442366D01*
X120120746Y-76447958D01*
X120120743Y-76447959D01*
X120046440Y-76502841D01*
X120019350Y-76522850D01*
X120013758Y-76530421D01*
X119944459Y-76624243D01*
X119944458Y-76624246D01*
X119938866Y-76631816D01*
X119893981Y-76759631D01*
X119891000Y-76791166D01*
X119891000Y-78148834D01*
X119893981Y-78180369D01*
X119938866Y-78308184D01*
X119944458Y-78315754D01*
X119944459Y-78315757D01*
X119993495Y-78382146D01*
X120019350Y-78417150D01*
X120026921Y-78422742D01*
X120120743Y-78492041D01*
X120120746Y-78492042D01*
X120128316Y-78497634D01*
X120236964Y-78535788D01*
X120244248Y-78538346D01*
X120301894Y-78579789D01*
X120327982Y-78645819D01*
X120328500Y-78657229D01*
X120328500Y-78822771D01*
X120308498Y-78890892D01*
X120254842Y-78937385D01*
X120244249Y-78941654D01*
X120128316Y-78982366D01*
X120120746Y-78987958D01*
X120120743Y-78987959D01*
X120041486Y-79046500D01*
X120019350Y-79062850D01*
X120013758Y-79070421D01*
X119944459Y-79164243D01*
X119944458Y-79164246D01*
X119938866Y-79171816D01*
X119893981Y-79299631D01*
X119891000Y-79331166D01*
X119891000Y-80688834D01*
X119893981Y-80720369D01*
X119938866Y-80848184D01*
X119944458Y-80855754D01*
X119944459Y-80855757D01*
X120006835Y-80940206D01*
X120019350Y-80957150D01*
X120026921Y-80962742D01*
X120120743Y-81032041D01*
X120120746Y-81032042D01*
X120128316Y-81037634D01*
X120210353Y-81066443D01*
X120244248Y-81078346D01*
X120301894Y-81119789D01*
X120327982Y-81185819D01*
X120328500Y-81197229D01*
X120328500Y-81361366D01*
X120308498Y-81429487D01*
X120254842Y-81475980D01*
X120244248Y-81480249D01*
X120229669Y-81485369D01*
X120124316Y-81522366D01*
X120116746Y-81527958D01*
X120116743Y-81527959D01*
X120032294Y-81590335D01*
X120015350Y-81602850D01*
X120009758Y-81610421D01*
X119940459Y-81704243D01*
X119940458Y-81704246D01*
X119934866Y-81711816D01*
X119889981Y-81839631D01*
X119889258Y-81847277D01*
X119889258Y-81847278D01*
X119888694Y-81853248D01*
X119887000Y-81871166D01*
X119887000Y-83228834D01*
X118488000Y-83228834D01*
X118488000Y-81871166D01*
X118486306Y-81853248D01*
X118485742Y-81847278D01*
X118485742Y-81847277D01*
X118485019Y-81839631D01*
X118440134Y-81711816D01*
X118434542Y-81704246D01*
X118434541Y-81704243D01*
X118365242Y-81610421D01*
X118359650Y-81602850D01*
X118342706Y-81590335D01*
X118258257Y-81527959D01*
X118258254Y-81527958D01*
X118250684Y-81522366D01*
X118136751Y-81482356D01*
X118079106Y-81440912D01*
X118053018Y-81374883D01*
X118052500Y-81363473D01*
X118052500Y-81197931D01*
X118072502Y-81129810D01*
X118126158Y-81083317D01*
X118136745Y-81079051D01*
X118254684Y-81037634D01*
X118262254Y-81032042D01*
X118262257Y-81032041D01*
X118356079Y-80962742D01*
X118363650Y-80957150D01*
X118376165Y-80940206D01*
X118438541Y-80855757D01*
X118438542Y-80855754D01*
X118444134Y-80848184D01*
X118489019Y-80720369D01*
X118492000Y-80688834D01*
X118492000Y-79331166D01*
X118489019Y-79299631D01*
X118444134Y-79171816D01*
X118438542Y-79164246D01*
X118438541Y-79164243D01*
X118369242Y-79070421D01*
X118363650Y-79062850D01*
X118341514Y-79046500D01*
X118262257Y-78987959D01*
X118262254Y-78987958D01*
X118254684Y-78982366D01*
X118126869Y-78937481D01*
X118119223Y-78936758D01*
X118119222Y-78936758D01*
X118113252Y-78936194D01*
X118095334Y-78934500D01*
X117362666Y-78934500D01*
X117344748Y-78936194D01*
X117338778Y-78936758D01*
X117338777Y-78936758D01*
X117331131Y-78937481D01*
X117203316Y-78982366D01*
X117195746Y-78987958D01*
X117195743Y-78987959D01*
X117116486Y-79046500D01*
X117094350Y-79062850D01*
X117088758Y-79070421D01*
X117019459Y-79164243D01*
X117019458Y-79164246D01*
X117013866Y-79171816D01*
X116968981Y-79299631D01*
X116966000Y-79331166D01*
X116966000Y-80688834D01*
X116968981Y-80720369D01*
X117013866Y-80848184D01*
X117019458Y-80855754D01*
X117019459Y-80855757D01*
X117081835Y-80940206D01*
X117094350Y-80957150D01*
X117101921Y-80962742D01*
X117195743Y-81032041D01*
X117195746Y-81032042D01*
X117203316Y-81037634D01*
X117285353Y-81066443D01*
X117313248Y-81076239D01*
X117370894Y-81117682D01*
X117396982Y-81183712D01*
X117397500Y-81195122D01*
X117397500Y-81363473D01*
X117377498Y-81431594D01*
X117323842Y-81478087D01*
X117313250Y-81482356D01*
X117199316Y-81522366D01*
X117191746Y-81527958D01*
X117191743Y-81527959D01*
X117107294Y-81590335D01*
X117090350Y-81602850D01*
X117084758Y-81610421D01*
X117015459Y-81704243D01*
X117015458Y-81704246D01*
X117009866Y-81711816D01*
X116964981Y-81839631D01*
X116964258Y-81847277D01*
X116964258Y-81847278D01*
X116963694Y-81853248D01*
X116962000Y-81871166D01*
X116962000Y-82096500D01*
X116941998Y-82164621D01*
X116888342Y-82211114D01*
X116836000Y-82222500D01*
X109407845Y-82222500D01*
X109339724Y-82202498D01*
X109318755Y-82185600D01*
X108463748Y-81330593D01*
X108429724Y-81268283D01*
X108434788Y-81197468D01*
X108477335Y-81140632D01*
X108543855Y-81115821D01*
X108552844Y-81115500D01*
X108899748Y-81115500D01*
X108913377Y-81112789D01*
X108946061Y-81106288D01*
X108946062Y-81106288D01*
X108958231Y-81103867D01*
X109024552Y-81059552D01*
X109068867Y-80993231D01*
X109071897Y-80978001D01*
X109079293Y-80940816D01*
X109080500Y-80934748D01*
X110405500Y-80934748D01*
X110406707Y-80940816D01*
X110414104Y-80978001D01*
X110417133Y-80993231D01*
X110461448Y-81059552D01*
X110527769Y-81103867D01*
X110539938Y-81106288D01*
X110539939Y-81106288D01*
X110572623Y-81112789D01*
X110586252Y-81115500D01*
X112425748Y-81115500D01*
X112439377Y-81112789D01*
X112472061Y-81106288D01*
X112472062Y-81106288D01*
X112484231Y-81103867D01*
X112550552Y-81059552D01*
X112594867Y-80993231D01*
X112597897Y-80978001D01*
X112605293Y-80940816D01*
X112606500Y-80934748D01*
X112606500Y-80468500D01*
X112626502Y-80400379D01*
X112680158Y-80353886D01*
X112732500Y-80342500D01*
X113005206Y-80342500D01*
X113016189Y-80342980D01*
X113042999Y-80345326D01*
X113043000Y-80345326D01*
X113053984Y-80346287D01*
X113090644Y-80336464D01*
X113101367Y-80334087D01*
X113103690Y-80333677D01*
X113138739Y-80327497D01*
X113148285Y-80321986D01*
X113151653Y-80320760D01*
X113154899Y-80319246D01*
X113165543Y-80316394D01*
X113196635Y-80294623D01*
X113205894Y-80288725D01*
X113229211Y-80275263D01*
X113238760Y-80269750D01*
X113263160Y-80240671D01*
X113270587Y-80232567D01*
X115668750Y-77834405D01*
X115731062Y-77800379D01*
X115757845Y-77797500D01*
X116840000Y-77797500D01*
X116908121Y-77817502D01*
X116954614Y-77871158D01*
X116966000Y-77923500D01*
X116966000Y-78148834D01*
X116968981Y-78180369D01*
X117013866Y-78308184D01*
X117019458Y-78315754D01*
X117019459Y-78315757D01*
X117068495Y-78382146D01*
X117094350Y-78417150D01*
X117101921Y-78422742D01*
X117195743Y-78492041D01*
X117195746Y-78492042D01*
X117203316Y-78497634D01*
X117331131Y-78542519D01*
X117338777Y-78543242D01*
X117338778Y-78543242D01*
X117344748Y-78543806D01*
X117362666Y-78545500D01*
X118095334Y-78545500D01*
X118113252Y-78543806D01*
X118119222Y-78543242D01*
X118119223Y-78543242D01*
X118126869Y-78542519D01*
X118254684Y-78497634D01*
X118262254Y-78492042D01*
X118262257Y-78492041D01*
X118356079Y-78422742D01*
X118363650Y-78417150D01*
X118389505Y-78382146D01*
X118438541Y-78315757D01*
X118438542Y-78315754D01*
X118444134Y-78308184D01*
X118489019Y-78180369D01*
X118492000Y-78148834D01*
X118492000Y-76791166D01*
X118489019Y-76759631D01*
X118444134Y-76631816D01*
X118438542Y-76624246D01*
X118438541Y-76624243D01*
X118369242Y-76530421D01*
X118363650Y-76522850D01*
X118336560Y-76502841D01*
X118262257Y-76447959D01*
X118262254Y-76447958D01*
X118254684Y-76442366D01*
X118126869Y-76397481D01*
X118119223Y-76396758D01*
X118119222Y-76396758D01*
X118113252Y-76396194D01*
X118095334Y-76394500D01*
X117362666Y-76394500D01*
X117344748Y-76396194D01*
X117338778Y-76396758D01*
X117338777Y-76396758D01*
X117331131Y-76397481D01*
X117203316Y-76442366D01*
X117195746Y-76447958D01*
X117195743Y-76447959D01*
X117121440Y-76502841D01*
X117094350Y-76522850D01*
X117088758Y-76530421D01*
X117019459Y-76624243D01*
X117019458Y-76624246D01*
X117013866Y-76631816D01*
X116968981Y-76759631D01*
X116966000Y-76791166D01*
X116966000Y-77016500D01*
X116945998Y-77084621D01*
X116892342Y-77131114D01*
X116840000Y-77142500D01*
X115589809Y-77142500D01*
X115578827Y-77142021D01*
X115551993Y-77139673D01*
X115551991Y-77139673D01*
X115541016Y-77138713D01*
X115504347Y-77148538D01*
X115493633Y-77150913D01*
X115456261Y-77157503D01*
X115446712Y-77163017D01*
X115443340Y-77164244D01*
X115440106Y-77165752D01*
X115429457Y-77168605D01*
X115398361Y-77190378D01*
X115389114Y-77196270D01*
X115356240Y-77215250D01*
X115349155Y-77223694D01*
X115331845Y-77244323D01*
X115324418Y-77252427D01*
X112926251Y-79650595D01*
X112863939Y-79684620D01*
X112837156Y-79687500D01*
X112732500Y-79687500D01*
X112664379Y-79667498D01*
X112617886Y-79613842D01*
X112606500Y-79561500D01*
X112606500Y-79095252D01*
X112601561Y-79070421D01*
X112597288Y-79048939D01*
X112597288Y-79048938D01*
X112594867Y-79036769D01*
X112550552Y-78970448D01*
X112484231Y-78926133D01*
X112472062Y-78923712D01*
X112472061Y-78923712D01*
X112431816Y-78915707D01*
X112425748Y-78914500D01*
X110586252Y-78914500D01*
X110580184Y-78915707D01*
X110539939Y-78923712D01*
X110539938Y-78923712D01*
X110527769Y-78926133D01*
X110461448Y-78970448D01*
X110417133Y-79036769D01*
X110414712Y-79048938D01*
X110414712Y-79048939D01*
X110410439Y-79070421D01*
X110405500Y-79095252D01*
X110405500Y-80934748D01*
X109080500Y-80934748D01*
X109080500Y-79095252D01*
X109075561Y-79070421D01*
X109071288Y-79048939D01*
X109071288Y-79048938D01*
X109068867Y-79036769D01*
X109024552Y-78970448D01*
X108958231Y-78926133D01*
X108946062Y-78923712D01*
X108946061Y-78923712D01*
X108905816Y-78915707D01*
X108899748Y-78914500D01*
X107060252Y-78914500D01*
X107054184Y-78915707D01*
X107013939Y-78923712D01*
X107013938Y-78923712D01*
X107001769Y-78926133D01*
X106935448Y-78970448D01*
X106928557Y-78980761D01*
X106910765Y-79007388D01*
X106856287Y-79052915D01*
X106785844Y-79061762D01*
X106721800Y-79031121D01*
X106684489Y-78970719D01*
X106680000Y-78937385D01*
X106680000Y-77835351D01*
X106700002Y-77767230D01*
X106753658Y-77720737D01*
X106823932Y-77710633D01*
X106888512Y-77740127D01*
X106928123Y-77804336D01*
X106936000Y-77835351D01*
X106938178Y-77843928D01*
X107022856Y-78027607D01*
X107026189Y-78032323D01*
X107128842Y-78177574D01*
X107139588Y-78192780D01*
X107143730Y-78196815D01*
X107184758Y-78236782D01*
X107284466Y-78333913D01*
X107452637Y-78446282D01*
X107457940Y-78448560D01*
X107457943Y-78448562D01*
X107633163Y-78523842D01*
X107638470Y-78526122D01*
X107791443Y-78560737D01*
X107825187Y-78568372D01*
X107835740Y-78570760D01*
X107841509Y-78570987D01*
X107841512Y-78570987D01*
X107917683Y-78573979D01*
X108037842Y-78578700D01*
X108140132Y-78563869D01*
X108232286Y-78550508D01*
X108232291Y-78550507D01*
X108238007Y-78549678D01*
X108243479Y-78547820D01*
X108243481Y-78547820D01*
X108424067Y-78486519D01*
X108424069Y-78486518D01*
X108429531Y-78484664D01*
X108606001Y-78385837D01*
X108668433Y-78333913D01*
X108757073Y-78260191D01*
X108761505Y-78256505D01*
X108890837Y-78101001D01*
X108989664Y-77924531D01*
X109002066Y-77887997D01*
X109042902Y-77829922D01*
X109108655Y-77803144D01*
X109121378Y-77802500D01*
X110364421Y-77802500D01*
X110432542Y-77822502D01*
X110478847Y-77875748D01*
X110518511Y-77961784D01*
X110548856Y-78027607D01*
X110552189Y-78032323D01*
X110654842Y-78177574D01*
X110665588Y-78192780D01*
X110669730Y-78196815D01*
X110710758Y-78236782D01*
X110810466Y-78333913D01*
X110978637Y-78446282D01*
X110983940Y-78448560D01*
X110983943Y-78448562D01*
X111159163Y-78523842D01*
X111164470Y-78526122D01*
X111317443Y-78560737D01*
X111351187Y-78568372D01*
X111361740Y-78570760D01*
X111367509Y-78570987D01*
X111367512Y-78570987D01*
X111443683Y-78573979D01*
X111563842Y-78578700D01*
X111666132Y-78563869D01*
X111758286Y-78550508D01*
X111758291Y-78550507D01*
X111764007Y-78549678D01*
X111769479Y-78547820D01*
X111769481Y-78547820D01*
X111950067Y-78486519D01*
X111950069Y-78486518D01*
X111955531Y-78484664D01*
X112132001Y-78385837D01*
X112194433Y-78333913D01*
X112283073Y-78260191D01*
X112287505Y-78256505D01*
X112416837Y-78101001D01*
X112515664Y-77924531D01*
X112522870Y-77903305D01*
X112578820Y-77738481D01*
X112578820Y-77738479D01*
X112580678Y-77733007D01*
X112581507Y-77727291D01*
X112581508Y-77727286D01*
X112609167Y-77536516D01*
X112609700Y-77532842D01*
X112611215Y-77475000D01*
X112592708Y-77273591D01*
X112569237Y-77190367D01*
X112555737Y-77142500D01*
X112537807Y-77078926D01*
X112527915Y-77058866D01*
X112520743Y-77044323D01*
X112508553Y-76974380D01*
X112536113Y-76908951D01*
X112544654Y-76899500D01*
X113195549Y-76248605D01*
X123525061Y-76248605D01*
X123525101Y-76262706D01*
X123532370Y-76266000D01*
X124490385Y-76266000D01*
X124505624Y-76261525D01*
X124506829Y-76260135D01*
X124508500Y-76252452D01*
X124508500Y-76247885D01*
X125016500Y-76247885D01*
X125020975Y-76263124D01*
X125022365Y-76264329D01*
X125030048Y-76266000D01*
X125986878Y-76266000D01*
X126000409Y-76262027D01*
X126001544Y-76254129D01*
X125960893Y-76114210D01*
X125954648Y-76099779D01*
X125878089Y-75970322D01*
X125868449Y-75957896D01*
X125762104Y-75851551D01*
X125749678Y-75841911D01*
X125620221Y-75765352D01*
X125605790Y-75759107D01*
X125459935Y-75716731D01*
X125447333Y-75714430D01*
X125418916Y-75712193D01*
X125413986Y-75712000D01*
X125034615Y-75712000D01*
X125019376Y-75716475D01*
X125018171Y-75717865D01*
X125016500Y-75725548D01*
X125016500Y-76247885D01*
X124508500Y-76247885D01*
X124508500Y-75730116D01*
X124504025Y-75714877D01*
X124502635Y-75713672D01*
X124494952Y-75712001D01*
X124111017Y-75712001D01*
X124106080Y-75712195D01*
X124077664Y-75714430D01*
X124065069Y-75716730D01*
X123919210Y-75759107D01*
X123904779Y-75765352D01*
X123775322Y-75841911D01*
X123762896Y-75851551D01*
X123656551Y-75957896D01*
X123646911Y-75970322D01*
X123570352Y-76099779D01*
X123564107Y-76114210D01*
X123525061Y-76248605D01*
X113195549Y-76248605D01*
X114784750Y-74659405D01*
X114847062Y-74625379D01*
X114873845Y-74622500D01*
X123593500Y-74622500D01*
X123661621Y-74642502D01*
X123708114Y-74696158D01*
X123719500Y-74748500D01*
X123719500Y-74761334D01*
X123722481Y-74792869D01*
X123767366Y-74920684D01*
X123772958Y-74928254D01*
X123772959Y-74928257D01*
X123821232Y-74993612D01*
X123847850Y-75029650D01*
X123855421Y-75035242D01*
X123949243Y-75104541D01*
X123949246Y-75104542D01*
X123956816Y-75110134D01*
X124084631Y-75155019D01*
X124092277Y-75155742D01*
X124092278Y-75155742D01*
X124098248Y-75156306D01*
X124116166Y-75158000D01*
X126073834Y-75158000D01*
X126091752Y-75156306D01*
X126097722Y-75155742D01*
X126097723Y-75155742D01*
X126105369Y-75155019D01*
X126233184Y-75110134D01*
X126240754Y-75104542D01*
X126240757Y-75104541D01*
X126334579Y-75035242D01*
X126342150Y-75029650D01*
X126368768Y-74993612D01*
X126417041Y-74928257D01*
X126417042Y-74928254D01*
X126422634Y-74920684D01*
X126467519Y-74792869D01*
X126470500Y-74761334D01*
X126470500Y-74748500D01*
X126490502Y-74680379D01*
X126544158Y-74633886D01*
X126596500Y-74622500D01*
X130818500Y-74622500D01*
X130886621Y-74642502D01*
X130933114Y-74696158D01*
X130944500Y-74748500D01*
X130944500Y-74998218D01*
X130945170Y-75002768D01*
X130945170Y-75002771D01*
X130953216Y-75057426D01*
X130954642Y-75067112D01*
X130979140Y-75117008D01*
X130999266Y-75158000D01*
X131006068Y-75171855D01*
X131013438Y-75179212D01*
X131080518Y-75246175D01*
X131114597Y-75308457D01*
X131117500Y-75335348D01*
X131117500Y-77450206D01*
X131117020Y-77461189D01*
X131115812Y-77475000D01*
X131113713Y-77498984D01*
X131122786Y-77532842D01*
X131123534Y-77535635D01*
X131125913Y-77546367D01*
X131132503Y-77583739D01*
X131138014Y-77593285D01*
X131139240Y-77596653D01*
X131140754Y-77599899D01*
X131143606Y-77610543D01*
X131165377Y-77641635D01*
X131171275Y-77650894D01*
X131190250Y-77683760D01*
X131198695Y-77690846D01*
X131219329Y-77708160D01*
X131227433Y-77715587D01*
X132350595Y-78838750D01*
X132384621Y-78901062D01*
X132387500Y-78927845D01*
X132387500Y-82144535D01*
X132367498Y-82212656D01*
X132350673Y-82233553D01*
X132328648Y-82255617D01*
X132275707Y-82308650D01*
X132224464Y-82413482D01*
X132214500Y-82481782D01*
X132214500Y-84298218D01*
X132215170Y-84302768D01*
X132215170Y-84302771D01*
X132223216Y-84357426D01*
X132224642Y-84367112D01*
X132276068Y-84471855D01*
X132358650Y-84554293D01*
X132368006Y-84558866D01*
X132368007Y-84558867D01*
X132400460Y-84574730D01*
X132463482Y-84605536D01*
X132483505Y-84608457D01*
X132527256Y-84614840D01*
X132527260Y-84614840D01*
X132531782Y-84615500D01*
X132898218Y-84615500D01*
X132902768Y-84614830D01*
X132902771Y-84614830D01*
X132957426Y-84606784D01*
X132957427Y-84606784D01*
X132967112Y-84605358D01*
X133017008Y-84580860D01*
X133062507Y-84558522D01*
X133062509Y-84558521D01*
X133071855Y-84553932D01*
X133154293Y-84471350D01*
X133205536Y-84366518D01*
X133215500Y-84298218D01*
X133484500Y-84298218D01*
X133485170Y-84302768D01*
X133485170Y-84302771D01*
X133493216Y-84357426D01*
X133494642Y-84367112D01*
X133546068Y-84471855D01*
X133628650Y-84554293D01*
X133638006Y-84558866D01*
X133638007Y-84558867D01*
X133670460Y-84574730D01*
X133733482Y-84605536D01*
X133753505Y-84608457D01*
X133797256Y-84614840D01*
X133797260Y-84614840D01*
X133801782Y-84615500D01*
X134168218Y-84615500D01*
X134172768Y-84614830D01*
X134172771Y-84614830D01*
X134227426Y-84606784D01*
X134227427Y-84606784D01*
X134237112Y-84605358D01*
X134287008Y-84580860D01*
X134332507Y-84558522D01*
X134332509Y-84558521D01*
X134341855Y-84553932D01*
X134424293Y-84471350D01*
X134475536Y-84366518D01*
X134485500Y-84298218D01*
X134485500Y-82481782D01*
X134476871Y-82423162D01*
X134476784Y-82422574D01*
X134476784Y-82422573D01*
X134475358Y-82412888D01*
X134423932Y-82308145D01*
X134341350Y-82225707D01*
X134312501Y-82211605D01*
X134263197Y-82187505D01*
X134236518Y-82174464D01*
X134206027Y-82170016D01*
X134172744Y-82165160D01*
X134172740Y-82165160D01*
X134168218Y-82164500D01*
X133801782Y-82164500D01*
X133797232Y-82165170D01*
X133797229Y-82165170D01*
X133742574Y-82173216D01*
X133742573Y-82173216D01*
X133732888Y-82174642D01*
X133682992Y-82199140D01*
X133637493Y-82221478D01*
X133637491Y-82221479D01*
X133628145Y-82226068D01*
X133545707Y-82308650D01*
X133494464Y-82413482D01*
X133484500Y-82481782D01*
X133484500Y-84298218D01*
X133215500Y-84298218D01*
X133215500Y-82481782D01*
X133206871Y-82423162D01*
X133206784Y-82422574D01*
X133206784Y-82422573D01*
X133205358Y-82412888D01*
X133153932Y-82308145D01*
X133079482Y-82233825D01*
X133045403Y-82171543D01*
X133042500Y-82144652D01*
X133042500Y-79375000D01*
X147349318Y-79375000D01*
X147369956Y-79531762D01*
X147430464Y-79677841D01*
X147526718Y-79803282D01*
X147652159Y-79899536D01*
X147798238Y-79960044D01*
X147955000Y-79980682D01*
X147963188Y-79979604D01*
X148103574Y-79961122D01*
X148111762Y-79960044D01*
X148257841Y-79899536D01*
X148383282Y-79803282D01*
X148479536Y-79677841D01*
X148540044Y-79531762D01*
X148560682Y-79375000D01*
X148540044Y-79218238D01*
X148479536Y-79072159D01*
X148383282Y-78946718D01*
X148376732Y-78941692D01*
X148376729Y-78941689D01*
X148331796Y-78907211D01*
X148289929Y-78849873D01*
X148282500Y-78807249D01*
X148282500Y-75335465D01*
X148302502Y-75267344D01*
X148319327Y-75246447D01*
X148386935Y-75178721D01*
X148386935Y-75178720D01*
X148394293Y-75171350D01*
X148401923Y-75155742D01*
X148426950Y-75104541D01*
X148445536Y-75066518D01*
X148453034Y-75015125D01*
X148454840Y-75002744D01*
X148454840Y-75002740D01*
X148455500Y-74998218D01*
X148455500Y-73181782D01*
X148446871Y-73123162D01*
X148446784Y-73122574D01*
X148446784Y-73122573D01*
X148445358Y-73112888D01*
X148393932Y-73008145D01*
X148386562Y-73000788D01*
X148386560Y-73000785D01*
X148382078Y-72996311D01*
X148347997Y-72934029D01*
X148352999Y-72863209D01*
X148380449Y-72820456D01*
X148383282Y-72818282D01*
X148479536Y-72692841D01*
X148533129Y-72563456D01*
X148536884Y-72554391D01*
X148540044Y-72546762D01*
X148560682Y-72390000D01*
X148540044Y-72233238D01*
X148479536Y-72087159D01*
X148383282Y-71961718D01*
X148257841Y-71865464D01*
X148111762Y-71804956D01*
X147955000Y-71784318D01*
X147798238Y-71804956D01*
X147652159Y-71865464D01*
X147526718Y-71961718D01*
X147430464Y-72087159D01*
X147369956Y-72233238D01*
X147349318Y-72390000D01*
X147369956Y-72546762D01*
X147373116Y-72554391D01*
X147376871Y-72563456D01*
X147430464Y-72692841D01*
X147526718Y-72818282D01*
X147529191Y-72820180D01*
X147562076Y-72880399D01*
X147557014Y-72951215D01*
X147528131Y-72996204D01*
X147515707Y-73008650D01*
X147464464Y-73113482D01*
X147454500Y-73181782D01*
X147454500Y-74998218D01*
X147455170Y-75002768D01*
X147455170Y-75002771D01*
X147463216Y-75057426D01*
X147464642Y-75067112D01*
X147489140Y-75117008D01*
X147509266Y-75158000D01*
X147516068Y-75171855D01*
X147523438Y-75179212D01*
X147590518Y-75246175D01*
X147624597Y-75308457D01*
X147627500Y-75335348D01*
X147627500Y-78807249D01*
X147607498Y-78875370D01*
X147578204Y-78907211D01*
X147533271Y-78941689D01*
X147533268Y-78941692D01*
X147526718Y-78946718D01*
X147430464Y-79072159D01*
X147369956Y-79218238D01*
X147349318Y-79375000D01*
X133042500Y-79375000D01*
X133042500Y-78759797D01*
X133042979Y-78748815D01*
X133045326Y-78721993D01*
X133045326Y-78721991D01*
X133046286Y-78711016D01*
X133036464Y-78674358D01*
X133034088Y-78663640D01*
X133029412Y-78637118D01*
X133029411Y-78637115D01*
X133027497Y-78626261D01*
X133021984Y-78616713D01*
X133020763Y-78613358D01*
X133019248Y-78610108D01*
X133016394Y-78599457D01*
X132994628Y-78568371D01*
X132988723Y-78559102D01*
X132975263Y-78535788D01*
X132975261Y-78535786D01*
X132969750Y-78526240D01*
X132940677Y-78501845D01*
X132932573Y-78494418D01*
X132371915Y-77933760D01*
X131908154Y-77470000D01*
X146079318Y-77470000D01*
X146099956Y-77626762D01*
X146160464Y-77772841D01*
X146256718Y-77898282D01*
X146382159Y-77994536D01*
X146528238Y-78055044D01*
X146536426Y-78056122D01*
X146593607Y-78063650D01*
X146685000Y-78075682D01*
X146693188Y-78074604D01*
X146833574Y-78056122D01*
X146841762Y-78055044D01*
X146987841Y-77994536D01*
X147113282Y-77898282D01*
X147209536Y-77772841D01*
X147270044Y-77626762D01*
X147290682Y-77470000D01*
X147271365Y-77323270D01*
X147271122Y-77321426D01*
X147270044Y-77313238D01*
X147209536Y-77167159D01*
X147141833Y-77078926D01*
X147118309Y-77048269D01*
X147118308Y-77048268D01*
X147113282Y-77041718D01*
X147106732Y-77036692D01*
X147106729Y-77036689D01*
X147061796Y-77002211D01*
X147019929Y-76944873D01*
X147012500Y-76902249D01*
X147012500Y-75335465D01*
X147032502Y-75267344D01*
X147049327Y-75246447D01*
X147116935Y-75178721D01*
X147116935Y-75178720D01*
X147124293Y-75171350D01*
X147131923Y-75155742D01*
X147156950Y-75104541D01*
X147175536Y-75066518D01*
X147183034Y-75015125D01*
X147184840Y-75002744D01*
X147184840Y-75002740D01*
X147185500Y-74998218D01*
X147185500Y-73181782D01*
X147176871Y-73123162D01*
X147176784Y-73122574D01*
X147176784Y-73122573D01*
X147175358Y-73112888D01*
X147123932Y-73008145D01*
X147056752Y-72941082D01*
X147048721Y-72933065D01*
X147048720Y-72933065D01*
X147041350Y-72925707D01*
X147029338Y-72919835D01*
X146977421Y-72894458D01*
X146936518Y-72874464D01*
X146901532Y-72869360D01*
X146872744Y-72865160D01*
X146872740Y-72865160D01*
X146868218Y-72864500D01*
X146501782Y-72864500D01*
X146497232Y-72865170D01*
X146497229Y-72865170D01*
X146442574Y-72873216D01*
X146442573Y-72873216D01*
X146432888Y-72874642D01*
X146390171Y-72895615D01*
X146337493Y-72921478D01*
X146337491Y-72921479D01*
X146328145Y-72926068D01*
X146245707Y-73008650D01*
X146194464Y-73113482D01*
X146184500Y-73181782D01*
X146184500Y-74998218D01*
X146185170Y-75002768D01*
X146185170Y-75002771D01*
X146193216Y-75057426D01*
X146194642Y-75067112D01*
X146219140Y-75117008D01*
X146239266Y-75158000D01*
X146246068Y-75171855D01*
X146253438Y-75179212D01*
X146320518Y-75246175D01*
X146354597Y-75308457D01*
X146357500Y-75335348D01*
X146357500Y-76902249D01*
X146337498Y-76970370D01*
X146308204Y-77002211D01*
X146263271Y-77036689D01*
X146263268Y-77036692D01*
X146256718Y-77041718D01*
X146251692Y-77048268D01*
X146251691Y-77048269D01*
X146228167Y-77078926D01*
X146160464Y-77167159D01*
X146099956Y-77313238D01*
X146098878Y-77321426D01*
X146098635Y-77323270D01*
X146079318Y-77470000D01*
X131908154Y-77470000D01*
X131809405Y-77371251D01*
X131775380Y-77308939D01*
X131772500Y-77282156D01*
X131772500Y-76200000D01*
X139729318Y-76200000D01*
X139749956Y-76356762D01*
X139810464Y-76502841D01*
X139906718Y-76628282D01*
X140032159Y-76724536D01*
X140178238Y-76785044D01*
X140335000Y-76805682D01*
X140343188Y-76804604D01*
X140483574Y-76786122D01*
X140491762Y-76785044D01*
X140637841Y-76724536D01*
X140763282Y-76628282D01*
X140859536Y-76502841D01*
X140920044Y-76356762D01*
X140940682Y-76200000D01*
X140920044Y-76043238D01*
X140859536Y-75897159D01*
X140763282Y-75771718D01*
X140756732Y-75766692D01*
X140756729Y-75766689D01*
X140711796Y-75732211D01*
X140669929Y-75674873D01*
X140662500Y-75632249D01*
X140662500Y-75378161D01*
X140682502Y-75310040D01*
X140736158Y-75263547D01*
X140806432Y-75253443D01*
X140871012Y-75282937D01*
X140896954Y-75314022D01*
X140926911Y-75364677D01*
X140936551Y-75377104D01*
X141042896Y-75483449D01*
X141055322Y-75493089D01*
X141184779Y-75569648D01*
X141199210Y-75575893D01*
X141333605Y-75614939D01*
X141347706Y-75614899D01*
X141351000Y-75607630D01*
X141351000Y-75601878D01*
X141859000Y-75601878D01*
X141862973Y-75615409D01*
X141870871Y-75616544D01*
X142010790Y-75575893D01*
X142025221Y-75569648D01*
X142154678Y-75493088D01*
X142162770Y-75486811D01*
X142228854Y-75460861D01*
X142298477Y-75474759D01*
X142317230Y-75486811D01*
X142325322Y-75493088D01*
X142454779Y-75569648D01*
X142469210Y-75575893D01*
X142603605Y-75614939D01*
X142617706Y-75614899D01*
X142621000Y-75607630D01*
X142621000Y-75601878D01*
X143129000Y-75601878D01*
X143132973Y-75615409D01*
X143140871Y-75616544D01*
X143280790Y-75575893D01*
X143295221Y-75569648D01*
X143424678Y-75493089D01*
X143437104Y-75483449D01*
X143543449Y-75377104D01*
X143553091Y-75364674D01*
X143599889Y-75285542D01*
X143651782Y-75237089D01*
X143721632Y-75224383D01*
X143781405Y-75247060D01*
X143788650Y-75254293D01*
X143798001Y-75258864D01*
X143798004Y-75258866D01*
X143847249Y-75282937D01*
X143893482Y-75305536D01*
X143913505Y-75308457D01*
X143957256Y-75314840D01*
X143957260Y-75314840D01*
X143961782Y-75315500D01*
X144328218Y-75315500D01*
X144332768Y-75314830D01*
X144332771Y-75314830D01*
X144387426Y-75306784D01*
X144387427Y-75306784D01*
X144397112Y-75305358D01*
X144447008Y-75280860D01*
X144492507Y-75258522D01*
X144492509Y-75258521D01*
X144501855Y-75253932D01*
X144584293Y-75171350D01*
X144591923Y-75155742D01*
X144616950Y-75104541D01*
X144635536Y-75066518D01*
X144643034Y-75015125D01*
X144644840Y-75002744D01*
X144644840Y-75002740D01*
X144645500Y-74998218D01*
X144645500Y-73181782D01*
X144636871Y-73123162D01*
X144636784Y-73122574D01*
X144636784Y-73122573D01*
X144635358Y-73112888D01*
X144583932Y-73008145D01*
X144516752Y-72941082D01*
X144507482Y-72931828D01*
X144473403Y-72869545D01*
X144470500Y-72842655D01*
X144470500Y-71120000D01*
X144809318Y-71120000D01*
X144829956Y-71276762D01*
X144890464Y-71422841D01*
X144986718Y-71548282D01*
X144993268Y-71553308D01*
X144993271Y-71553311D01*
X145038204Y-71587789D01*
X145080071Y-71645127D01*
X145087500Y-71687751D01*
X145087500Y-72844535D01*
X145067498Y-72912656D01*
X145050673Y-72933553D01*
X145028648Y-72955617D01*
X144975707Y-73008650D01*
X144924464Y-73113482D01*
X144914500Y-73181782D01*
X144914500Y-74998218D01*
X144915170Y-75002768D01*
X144915170Y-75002771D01*
X144923216Y-75057426D01*
X144924642Y-75067112D01*
X144949140Y-75117008D01*
X144969266Y-75158000D01*
X144976068Y-75171855D01*
X145058650Y-75254293D01*
X145068006Y-75258866D01*
X145068007Y-75258867D01*
X145100460Y-75274730D01*
X145163482Y-75305536D01*
X145183505Y-75308457D01*
X145227256Y-75314840D01*
X145227260Y-75314840D01*
X145231782Y-75315500D01*
X145598218Y-75315500D01*
X145602768Y-75314830D01*
X145602771Y-75314830D01*
X145657426Y-75306784D01*
X145657427Y-75306784D01*
X145667112Y-75305358D01*
X145717008Y-75280860D01*
X145762507Y-75258522D01*
X145762509Y-75258521D01*
X145771855Y-75253932D01*
X145854293Y-75171350D01*
X145861923Y-75155742D01*
X145886950Y-75104541D01*
X145905536Y-75066518D01*
X145913034Y-75015125D01*
X145914840Y-75002744D01*
X145914840Y-75002740D01*
X145915500Y-74998218D01*
X145915500Y-73181782D01*
X145906871Y-73123162D01*
X145906784Y-73122574D01*
X145906784Y-73122573D01*
X145905358Y-73112888D01*
X145853932Y-73008145D01*
X145779482Y-72933825D01*
X145745403Y-72871543D01*
X145742500Y-72844652D01*
X145742500Y-71687751D01*
X145762502Y-71619630D01*
X145791796Y-71587789D01*
X145836729Y-71553311D01*
X145836732Y-71553308D01*
X145843282Y-71548282D01*
X145939536Y-71422841D01*
X146000044Y-71276762D01*
X146020682Y-71120000D01*
X146000044Y-70963238D01*
X145939536Y-70817159D01*
X145843282Y-70691718D01*
X145717841Y-70595464D01*
X145571762Y-70534956D01*
X145415000Y-70514318D01*
X145258238Y-70534956D01*
X145112159Y-70595464D01*
X144986718Y-70691718D01*
X144890464Y-70817159D01*
X144829956Y-70963238D01*
X144809318Y-71120000D01*
X144470500Y-71120000D01*
X144470500Y-69402016D01*
X144490502Y-69333895D01*
X144507405Y-69312921D01*
X144783746Y-69036580D01*
X144846058Y-69002554D01*
X144916873Y-69007619D01*
X144973709Y-69050166D01*
X144991723Y-69083926D01*
X145022366Y-69171184D01*
X145027958Y-69178754D01*
X145027959Y-69178757D01*
X145049499Y-69207919D01*
X145102850Y-69280150D01*
X145110421Y-69285742D01*
X145204243Y-69355041D01*
X145204246Y-69355042D01*
X145211816Y-69360634D01*
X145339631Y-69405519D01*
X145347277Y-69406242D01*
X145347278Y-69406242D01*
X145353248Y-69406806D01*
X145371166Y-69408500D01*
X146728834Y-69408500D01*
X146746752Y-69406806D01*
X146752722Y-69406242D01*
X146752723Y-69406242D01*
X146760369Y-69405519D01*
X146888184Y-69360634D01*
X146895754Y-69355042D01*
X146895757Y-69355041D01*
X146989579Y-69285742D01*
X146997150Y-69280150D01*
X147050501Y-69207919D01*
X147072041Y-69178757D01*
X147072042Y-69178754D01*
X147077634Y-69171184D01*
X147122519Y-69043369D01*
X147125500Y-69011834D01*
X147125500Y-68279166D01*
X147122519Y-68247631D01*
X147077634Y-68119816D01*
X147072042Y-68112246D01*
X147072041Y-68112243D01*
X147002742Y-68018421D01*
X146997150Y-68010850D01*
X146980206Y-67998335D01*
X146895757Y-67935959D01*
X146895754Y-67935958D01*
X146888184Y-67930366D01*
X146760369Y-67885481D01*
X146752723Y-67884758D01*
X146752722Y-67884758D01*
X146746752Y-67884194D01*
X146728834Y-67882500D01*
X145371166Y-67882500D01*
X145353248Y-67884194D01*
X145347278Y-67884758D01*
X145347277Y-67884758D01*
X145339631Y-67885481D01*
X145211816Y-67930366D01*
X145204246Y-67935958D01*
X145204243Y-67935959D01*
X145119794Y-67998335D01*
X145102850Y-68010850D01*
X145097258Y-68018421D01*
X145027959Y-68112243D01*
X145027958Y-68112246D01*
X145022366Y-68119816D01*
X145019247Y-68128698D01*
X145004656Y-68170248D01*
X144963213Y-68227893D01*
X144897184Y-68253982D01*
X144885773Y-68254500D01*
X144799710Y-68254500D01*
X144788728Y-68254020D01*
X144762180Y-68251697D01*
X144762178Y-68251697D01*
X144751193Y-68250736D01*
X144714785Y-68260492D01*
X144704058Y-68262870D01*
X144700699Y-68263462D01*
X144666955Y-68269412D01*
X144657410Y-68274923D01*
X144654134Y-68276115D01*
X144650966Y-68277592D01*
X144640316Y-68280446D01*
X144631285Y-68286770D01*
X144609456Y-68302055D01*
X144600185Y-68307961D01*
X144577094Y-68321293D01*
X144567545Y-68326806D01*
X144560459Y-68335251D01*
X144543315Y-68355682D01*
X144535889Y-68363785D01*
X143928785Y-68970889D01*
X143920681Y-68978316D01*
X143891806Y-69002545D01*
X143886293Y-69012094D01*
X143872961Y-69035185D01*
X143867055Y-69044456D01*
X143845446Y-69075316D01*
X143842592Y-69085966D01*
X143841115Y-69089134D01*
X143839923Y-69092410D01*
X143834412Y-69101955D01*
X143828462Y-69135699D01*
X143827870Y-69139058D01*
X143825492Y-69149785D01*
X143815736Y-69186193D01*
X143816697Y-69197178D01*
X143816697Y-69197180D01*
X143819020Y-69223728D01*
X143819500Y-69234710D01*
X143819500Y-72805221D01*
X143799498Y-72873342D01*
X143745842Y-72919835D01*
X143675568Y-72929939D01*
X143610988Y-72900445D01*
X143585046Y-72869360D01*
X143553089Y-72815323D01*
X143543449Y-72802896D01*
X143437104Y-72696551D01*
X143424678Y-72686911D01*
X143295221Y-72610352D01*
X143280790Y-72604107D01*
X143146395Y-72565061D01*
X143132294Y-72565101D01*
X143129000Y-72572370D01*
X143129000Y-75601878D01*
X142621000Y-75601878D01*
X142621000Y-74362115D01*
X142616525Y-74346876D01*
X142615135Y-74345671D01*
X142607452Y-74344000D01*
X141877115Y-74344000D01*
X141861876Y-74348475D01*
X141860671Y-74349865D01*
X141859000Y-74357548D01*
X141859000Y-75601878D01*
X141351000Y-75601878D01*
X141351000Y-73817885D01*
X141859000Y-73817885D01*
X141863475Y-73833124D01*
X141864865Y-73834329D01*
X141872548Y-73836000D01*
X142602885Y-73836000D01*
X142618124Y-73831525D01*
X142619329Y-73830135D01*
X142621000Y-73822452D01*
X142621000Y-72578122D01*
X142617027Y-72564591D01*
X142609129Y-72563456D01*
X142469210Y-72604107D01*
X142454779Y-72610352D01*
X142325322Y-72686912D01*
X142317230Y-72693189D01*
X142251146Y-72719139D01*
X142181523Y-72705241D01*
X142162770Y-72693189D01*
X142154678Y-72686912D01*
X142025221Y-72610352D01*
X142010790Y-72604107D01*
X141876395Y-72565061D01*
X141862294Y-72565101D01*
X141859000Y-72572370D01*
X141859000Y-73817885D01*
X141351000Y-73817885D01*
X141351000Y-72578122D01*
X141347027Y-72564591D01*
X141339129Y-72563456D01*
X141199210Y-72604107D01*
X141184779Y-72610352D01*
X141055322Y-72686911D01*
X141042896Y-72696551D01*
X140936551Y-72802896D01*
X140926909Y-72815326D01*
X140880111Y-72894458D01*
X140828218Y-72942911D01*
X140758368Y-72955617D01*
X140698595Y-72932940D01*
X140691350Y-72925707D01*
X140681999Y-72921136D01*
X140681996Y-72921134D01*
X140624165Y-72892866D01*
X140586518Y-72874464D01*
X140551532Y-72869360D01*
X140522744Y-72865160D01*
X140522740Y-72865160D01*
X140518218Y-72864500D01*
X140151782Y-72864500D01*
X140147232Y-72865170D01*
X140147229Y-72865170D01*
X140092574Y-72873216D01*
X140092573Y-72873216D01*
X140082888Y-72874642D01*
X140040171Y-72895615D01*
X139987493Y-72921478D01*
X139987491Y-72921479D01*
X139978145Y-72926068D01*
X139895707Y-73008650D01*
X139844464Y-73113482D01*
X139834500Y-73181782D01*
X139834500Y-74998218D01*
X139835170Y-75002768D01*
X139835170Y-75002771D01*
X139843216Y-75057426D01*
X139844642Y-75067112D01*
X139869140Y-75117008D01*
X139889266Y-75158000D01*
X139896068Y-75171855D01*
X139903438Y-75179212D01*
X139970518Y-75246175D01*
X140004597Y-75308457D01*
X140007500Y-75335348D01*
X140007500Y-75632249D01*
X139987498Y-75700370D01*
X139958204Y-75732211D01*
X139913271Y-75766689D01*
X139913268Y-75766692D01*
X139906718Y-75771718D01*
X139810464Y-75897159D01*
X139749956Y-76043238D01*
X139729318Y-76200000D01*
X131772500Y-76200000D01*
X131772500Y-75335465D01*
X131792502Y-75267344D01*
X131809327Y-75246447D01*
X131876935Y-75178721D01*
X131876935Y-75178720D01*
X131884293Y-75171350D01*
X131891923Y-75155742D01*
X131916950Y-75104541D01*
X131935536Y-75066518D01*
X131943034Y-75015125D01*
X131944840Y-75002744D01*
X131944840Y-75002740D01*
X131945500Y-74998218D01*
X132214500Y-74998218D01*
X132215170Y-75002768D01*
X132215170Y-75002771D01*
X132223216Y-75057426D01*
X132224642Y-75067112D01*
X132249140Y-75117008D01*
X132269266Y-75158000D01*
X132276068Y-75171855D01*
X132358650Y-75254293D01*
X132368006Y-75258866D01*
X132368007Y-75258867D01*
X132400460Y-75274730D01*
X132463482Y-75305536D01*
X132483505Y-75308457D01*
X132527256Y-75314840D01*
X132527260Y-75314840D01*
X132531782Y-75315500D01*
X132898218Y-75315500D01*
X132902768Y-75314830D01*
X132902771Y-75314830D01*
X132957426Y-75306784D01*
X132957427Y-75306784D01*
X132967112Y-75305358D01*
X133017008Y-75280860D01*
X133062507Y-75258522D01*
X133062509Y-75258521D01*
X133071855Y-75253932D01*
X133154293Y-75171350D01*
X133161923Y-75155742D01*
X133186950Y-75104541D01*
X133205536Y-75066518D01*
X133213034Y-75015125D01*
X133214840Y-75002744D01*
X133214840Y-75002740D01*
X133215500Y-74998218D01*
X133484500Y-74998218D01*
X133485170Y-75002768D01*
X133485170Y-75002771D01*
X133493216Y-75057426D01*
X133494642Y-75067112D01*
X133519140Y-75117008D01*
X133539266Y-75158000D01*
X133546068Y-75171855D01*
X133628650Y-75254293D01*
X133638006Y-75258866D01*
X133638007Y-75258867D01*
X133670460Y-75274730D01*
X133733482Y-75305536D01*
X133753505Y-75308457D01*
X133797256Y-75314840D01*
X133797260Y-75314840D01*
X133801782Y-75315500D01*
X134168218Y-75315500D01*
X134172768Y-75314830D01*
X134172771Y-75314830D01*
X134227426Y-75306784D01*
X134227427Y-75306784D01*
X134237112Y-75305358D01*
X134287008Y-75280860D01*
X134332507Y-75258522D01*
X134332509Y-75258521D01*
X134341855Y-75253932D01*
X134424293Y-75171350D01*
X134431923Y-75155742D01*
X134456950Y-75104541D01*
X134475536Y-75066518D01*
X134483034Y-75015125D01*
X134484840Y-75002744D01*
X134484840Y-75002740D01*
X134485500Y-74998218D01*
X134754500Y-74998218D01*
X134755170Y-75002768D01*
X134755170Y-75002771D01*
X134763216Y-75057426D01*
X134764642Y-75067112D01*
X134789140Y-75117008D01*
X134809266Y-75158000D01*
X134816068Y-75171855D01*
X134898650Y-75254293D01*
X134908006Y-75258866D01*
X134908007Y-75258867D01*
X134940460Y-75274730D01*
X135003482Y-75305536D01*
X135023505Y-75308457D01*
X135067256Y-75314840D01*
X135067260Y-75314840D01*
X135071782Y-75315500D01*
X135438218Y-75315500D01*
X135442768Y-75314830D01*
X135442771Y-75314830D01*
X135497426Y-75306784D01*
X135497427Y-75306784D01*
X135507112Y-75305358D01*
X135557008Y-75280860D01*
X135602507Y-75258522D01*
X135602509Y-75258521D01*
X135611855Y-75253932D01*
X135694293Y-75171350D01*
X135701923Y-75155742D01*
X135726950Y-75104541D01*
X135745536Y-75066518D01*
X135753034Y-75015125D01*
X135754840Y-75002744D01*
X135754840Y-75002740D01*
X135755500Y-74998218D01*
X136024500Y-74998218D01*
X136025170Y-75002768D01*
X136025170Y-75002771D01*
X136033216Y-75057426D01*
X136034642Y-75067112D01*
X136059140Y-75117008D01*
X136079266Y-75158000D01*
X136086068Y-75171855D01*
X136168650Y-75254293D01*
X136178006Y-75258866D01*
X136178007Y-75258867D01*
X136210460Y-75274730D01*
X136273482Y-75305536D01*
X136293505Y-75308457D01*
X136337256Y-75314840D01*
X136337260Y-75314840D01*
X136341782Y-75315500D01*
X136708218Y-75315500D01*
X136712768Y-75314830D01*
X136712771Y-75314830D01*
X136767426Y-75306784D01*
X136767427Y-75306784D01*
X136777112Y-75305358D01*
X136827008Y-75280860D01*
X136872507Y-75258522D01*
X136872509Y-75258521D01*
X136881855Y-75253932D01*
X136964293Y-75171350D01*
X136971923Y-75155742D01*
X136996950Y-75104541D01*
X137015536Y-75066518D01*
X137023034Y-75015125D01*
X137024840Y-75002744D01*
X137024840Y-75002740D01*
X137025500Y-74998218D01*
X137294500Y-74998218D01*
X137295170Y-75002768D01*
X137295170Y-75002771D01*
X137303216Y-75057426D01*
X137304642Y-75067112D01*
X137329140Y-75117008D01*
X137349266Y-75158000D01*
X137356068Y-75171855D01*
X137438650Y-75254293D01*
X137448006Y-75258866D01*
X137448007Y-75258867D01*
X137480460Y-75274730D01*
X137543482Y-75305536D01*
X137563505Y-75308457D01*
X137607256Y-75314840D01*
X137607260Y-75314840D01*
X137611782Y-75315500D01*
X137978218Y-75315500D01*
X137982768Y-75314830D01*
X137982771Y-75314830D01*
X138037426Y-75306784D01*
X138037427Y-75306784D01*
X138047112Y-75305358D01*
X138097008Y-75280860D01*
X138142507Y-75258522D01*
X138142509Y-75258521D01*
X138151855Y-75253932D01*
X138234293Y-75171350D01*
X138241923Y-75155742D01*
X138266950Y-75104541D01*
X138285536Y-75066518D01*
X138293034Y-75015125D01*
X138294840Y-75002744D01*
X138294840Y-75002740D01*
X138295500Y-74998218D01*
X138295500Y-73181782D01*
X138286871Y-73123162D01*
X138286784Y-73122574D01*
X138286784Y-73122573D01*
X138285358Y-73112888D01*
X138233932Y-73008145D01*
X138166752Y-72941082D01*
X138158721Y-72933065D01*
X138158720Y-72933065D01*
X138151350Y-72925707D01*
X138139338Y-72919835D01*
X138087421Y-72894458D01*
X138046518Y-72874464D01*
X138011532Y-72869360D01*
X137982744Y-72865160D01*
X137982740Y-72865160D01*
X137978218Y-72864500D01*
X137611782Y-72864500D01*
X137607232Y-72865170D01*
X137607229Y-72865170D01*
X137552574Y-72873216D01*
X137552573Y-72873216D01*
X137542888Y-72874642D01*
X137500171Y-72895615D01*
X137447493Y-72921478D01*
X137447491Y-72921479D01*
X137438145Y-72926068D01*
X137355707Y-73008650D01*
X137304464Y-73113482D01*
X137294500Y-73181782D01*
X137294500Y-74998218D01*
X137025500Y-74998218D01*
X137025500Y-73181782D01*
X137016871Y-73123162D01*
X137016784Y-73122574D01*
X137016784Y-73122573D01*
X137015358Y-73112888D01*
X136963932Y-73008145D01*
X136896752Y-72941082D01*
X136888721Y-72933065D01*
X136888720Y-72933065D01*
X136881350Y-72925707D01*
X136869338Y-72919835D01*
X136817421Y-72894458D01*
X136776518Y-72874464D01*
X136741532Y-72869360D01*
X136712744Y-72865160D01*
X136712740Y-72865160D01*
X136708218Y-72864500D01*
X136341782Y-72864500D01*
X136337232Y-72865170D01*
X136337229Y-72865170D01*
X136282574Y-72873216D01*
X136282573Y-72873216D01*
X136272888Y-72874642D01*
X136230171Y-72895615D01*
X136177493Y-72921478D01*
X136177491Y-72921479D01*
X136168145Y-72926068D01*
X136085707Y-73008650D01*
X136034464Y-73113482D01*
X136024500Y-73181782D01*
X136024500Y-74998218D01*
X135755500Y-74998218D01*
X135755500Y-73181782D01*
X135746871Y-73123162D01*
X135746784Y-73122574D01*
X135746784Y-73122573D01*
X135745358Y-73112888D01*
X135693932Y-73008145D01*
X135626752Y-72941082D01*
X135618721Y-72933065D01*
X135618720Y-72933065D01*
X135611350Y-72925707D01*
X135599338Y-72919835D01*
X135547421Y-72894458D01*
X135506518Y-72874464D01*
X135471532Y-72869360D01*
X135442744Y-72865160D01*
X135442740Y-72865160D01*
X135438218Y-72864500D01*
X135071782Y-72864500D01*
X135067232Y-72865170D01*
X135067229Y-72865170D01*
X135012574Y-72873216D01*
X135012573Y-72873216D01*
X135002888Y-72874642D01*
X134960171Y-72895615D01*
X134907493Y-72921478D01*
X134907491Y-72921479D01*
X134898145Y-72926068D01*
X134815707Y-73008650D01*
X134764464Y-73113482D01*
X134754500Y-73181782D01*
X134754500Y-74998218D01*
X134485500Y-74998218D01*
X134485500Y-73181782D01*
X134476871Y-73123162D01*
X134476784Y-73122574D01*
X134476784Y-73122573D01*
X134475358Y-73112888D01*
X134423932Y-73008145D01*
X134356752Y-72941082D01*
X134348721Y-72933065D01*
X134348720Y-72933065D01*
X134341350Y-72925707D01*
X134329338Y-72919835D01*
X134277421Y-72894458D01*
X134236518Y-72874464D01*
X134201532Y-72869360D01*
X134172744Y-72865160D01*
X134172740Y-72865160D01*
X134168218Y-72864500D01*
X133801782Y-72864500D01*
X133797232Y-72865170D01*
X133797229Y-72865170D01*
X133742574Y-72873216D01*
X133742573Y-72873216D01*
X133732888Y-72874642D01*
X133690171Y-72895615D01*
X133637493Y-72921478D01*
X133637491Y-72921479D01*
X133628145Y-72926068D01*
X133545707Y-73008650D01*
X133494464Y-73113482D01*
X133484500Y-73181782D01*
X133484500Y-74998218D01*
X133215500Y-74998218D01*
X133215500Y-73181782D01*
X133206871Y-73123162D01*
X133206784Y-73122574D01*
X133206784Y-73122573D01*
X133205358Y-73112888D01*
X133153932Y-73008145D01*
X133086752Y-72941082D01*
X133078721Y-72933065D01*
X133078720Y-72933065D01*
X133071350Y-72925707D01*
X133059338Y-72919835D01*
X133007421Y-72894458D01*
X132966518Y-72874464D01*
X132931532Y-72869360D01*
X132902744Y-72865160D01*
X132902740Y-72865160D01*
X132898218Y-72864500D01*
X132531782Y-72864500D01*
X132527232Y-72865170D01*
X132527229Y-72865170D01*
X132472574Y-72873216D01*
X132472573Y-72873216D01*
X132462888Y-72874642D01*
X132420171Y-72895615D01*
X132367493Y-72921478D01*
X132367491Y-72921479D01*
X132358145Y-72926068D01*
X132275707Y-73008650D01*
X132224464Y-73113482D01*
X132214500Y-73181782D01*
X132214500Y-74998218D01*
X131945500Y-74998218D01*
X131945500Y-73181782D01*
X131936871Y-73123162D01*
X131936784Y-73122574D01*
X131936784Y-73122573D01*
X131935358Y-73112888D01*
X131883932Y-73008145D01*
X131809482Y-72933825D01*
X131775403Y-72871543D01*
X131772500Y-72844652D01*
X131772500Y-72136000D01*
X138459318Y-72136000D01*
X138479956Y-72292762D01*
X138540464Y-72438841D01*
X138545491Y-72445392D01*
X138616992Y-72538574D01*
X138636718Y-72564282D01*
X138643268Y-72569308D01*
X138643271Y-72569311D01*
X138688204Y-72603789D01*
X138730071Y-72661127D01*
X138737500Y-72703751D01*
X138737500Y-72844535D01*
X138717498Y-72912656D01*
X138700673Y-72933553D01*
X138678648Y-72955617D01*
X138625707Y-73008650D01*
X138574464Y-73113482D01*
X138564500Y-73181782D01*
X138564500Y-74998218D01*
X138565170Y-75002768D01*
X138565170Y-75002771D01*
X138573216Y-75057426D01*
X138574642Y-75067112D01*
X138599140Y-75117008D01*
X138619266Y-75158000D01*
X138626068Y-75171855D01*
X138708650Y-75254293D01*
X138718006Y-75258866D01*
X138718007Y-75258867D01*
X138750460Y-75274730D01*
X138813482Y-75305536D01*
X138833505Y-75308457D01*
X138877256Y-75314840D01*
X138877260Y-75314840D01*
X138881782Y-75315500D01*
X139248218Y-75315500D01*
X139252768Y-75314830D01*
X139252771Y-75314830D01*
X139307426Y-75306784D01*
X139307427Y-75306784D01*
X139317112Y-75305358D01*
X139367008Y-75280860D01*
X139412507Y-75258522D01*
X139412509Y-75258521D01*
X139421855Y-75253932D01*
X139504293Y-75171350D01*
X139511923Y-75155742D01*
X139536950Y-75104541D01*
X139555536Y-75066518D01*
X139563034Y-75015125D01*
X139564840Y-75002744D01*
X139564840Y-75002740D01*
X139565500Y-74998218D01*
X139565500Y-73181782D01*
X139556871Y-73123162D01*
X139556784Y-73122574D01*
X139556784Y-73122573D01*
X139555358Y-73112888D01*
X139503932Y-73008145D01*
X139429482Y-72933825D01*
X139395403Y-72871543D01*
X139392500Y-72844652D01*
X139392500Y-72703751D01*
X139412502Y-72635630D01*
X139441796Y-72603789D01*
X139486729Y-72569311D01*
X139486732Y-72569308D01*
X139493282Y-72564282D01*
X139513009Y-72538574D01*
X139584509Y-72445392D01*
X139589536Y-72438841D01*
X139650044Y-72292762D01*
X139670682Y-72136000D01*
X139650044Y-71979238D01*
X139589536Y-71833159D01*
X139493282Y-71707718D01*
X139367841Y-71611464D01*
X139221762Y-71550956D01*
X139065000Y-71530318D01*
X138908238Y-71550956D01*
X138762159Y-71611464D01*
X138636718Y-71707718D01*
X138540464Y-71833159D01*
X138479956Y-71979238D01*
X138459318Y-72136000D01*
X131772500Y-72136000D01*
X131772500Y-70163755D01*
X139920500Y-70163755D01*
X139920693Y-70168681D01*
X139926155Y-70238081D01*
X139928102Y-70249413D01*
X139973267Y-70417970D01*
X139977971Y-70430223D01*
X140056818Y-70584968D01*
X140063970Y-70595982D01*
X140173268Y-70730955D01*
X140182545Y-70740232D01*
X140317518Y-70849530D01*
X140328532Y-70856682D01*
X140483277Y-70935529D01*
X140495530Y-70940233D01*
X140664087Y-70985398D01*
X140675419Y-70987345D01*
X140744819Y-70992807D01*
X140749745Y-70993000D01*
X141299385Y-70993000D01*
X141314624Y-70988525D01*
X141315829Y-70987135D01*
X141317500Y-70979452D01*
X141317500Y-70974885D01*
X141825500Y-70974885D01*
X141829975Y-70990124D01*
X141831365Y-70991329D01*
X141839048Y-70993000D01*
X142393255Y-70993000D01*
X142398181Y-70992807D01*
X142467581Y-70987345D01*
X142478913Y-70985398D01*
X142647470Y-70940233D01*
X142659723Y-70935529D01*
X142814468Y-70856682D01*
X142825482Y-70849530D01*
X142960455Y-70740232D01*
X142969732Y-70730955D01*
X143079030Y-70595982D01*
X143086182Y-70584968D01*
X143165029Y-70430223D01*
X143169733Y-70417970D01*
X143214898Y-70249413D01*
X143216845Y-70238081D01*
X143222307Y-70168681D01*
X143222500Y-70163755D01*
X143222500Y-69995115D01*
X143218025Y-69979876D01*
X143216635Y-69978671D01*
X143208952Y-69977000D01*
X141843615Y-69977000D01*
X141828376Y-69981475D01*
X141827171Y-69982865D01*
X141825500Y-69990548D01*
X141825500Y-70974885D01*
X141317500Y-70974885D01*
X141317500Y-69995115D01*
X141313025Y-69979876D01*
X141311635Y-69978671D01*
X141303952Y-69977000D01*
X139938615Y-69977000D01*
X139923376Y-69981475D01*
X139922171Y-69982865D01*
X139920500Y-69990548D01*
X139920500Y-70163755D01*
X131772500Y-70163755D01*
X131772500Y-69450885D01*
X139920500Y-69450885D01*
X139924975Y-69466124D01*
X139926365Y-69467329D01*
X139934048Y-69469000D01*
X141299385Y-69469000D01*
X141314624Y-69464525D01*
X141315829Y-69463135D01*
X141317500Y-69455452D01*
X141317500Y-69450885D01*
X141825500Y-69450885D01*
X141829975Y-69466124D01*
X141831365Y-69467329D01*
X141839048Y-69469000D01*
X143204385Y-69469000D01*
X143219624Y-69464525D01*
X143220829Y-69463135D01*
X143222500Y-69455452D01*
X143222500Y-69282246D01*
X143222307Y-69277319D01*
X143216845Y-69207919D01*
X143214898Y-69196587D01*
X143169733Y-69028030D01*
X143165029Y-69015777D01*
X143086182Y-68861032D01*
X143079030Y-68850018D01*
X142969732Y-68715045D01*
X142960455Y-68705768D01*
X142825482Y-68596470D01*
X142814468Y-68589318D01*
X142659723Y-68510471D01*
X142647470Y-68505767D01*
X142478913Y-68460602D01*
X142467581Y-68458655D01*
X142398181Y-68453193D01*
X142393254Y-68453000D01*
X141843615Y-68453000D01*
X141828376Y-68457475D01*
X141827171Y-68458865D01*
X141825500Y-68466548D01*
X141825500Y-69450885D01*
X141317500Y-69450885D01*
X141317500Y-68471115D01*
X141313025Y-68455876D01*
X141311635Y-68454671D01*
X141303952Y-68453000D01*
X140749746Y-68453000D01*
X140744819Y-68453193D01*
X140675419Y-68458655D01*
X140664087Y-68460602D01*
X140495530Y-68505767D01*
X140483277Y-68510471D01*
X140328532Y-68589318D01*
X140317518Y-68596470D01*
X140182545Y-68705768D01*
X140173268Y-68715045D01*
X140063970Y-68850018D01*
X140056818Y-68861032D01*
X139977971Y-69015777D01*
X139973267Y-69028030D01*
X139928102Y-69196587D01*
X139926155Y-69207919D01*
X139920693Y-69277319D01*
X139920500Y-69282246D01*
X139920500Y-69450885D01*
X131772500Y-69450885D01*
X131772500Y-65592844D01*
X131792502Y-65524723D01*
X131809405Y-65503749D01*
X132251038Y-65062116D01*
X140228000Y-65062116D01*
X140242967Y-65175802D01*
X140301561Y-65317259D01*
X140394769Y-65438731D01*
X140516241Y-65531939D01*
X140523867Y-65535098D01*
X140523869Y-65535099D01*
X140539185Y-65541443D01*
X140657698Y-65590533D01*
X140665882Y-65591610D01*
X140665884Y-65591611D01*
X140767297Y-65604962D01*
X140771384Y-65605500D01*
X142371616Y-65605500D01*
X142375703Y-65604962D01*
X142477116Y-65591611D01*
X142477118Y-65591610D01*
X142485302Y-65590533D01*
X142603815Y-65541443D01*
X142619131Y-65535099D01*
X142619133Y-65535098D01*
X142626759Y-65531939D01*
X142748231Y-65438731D01*
X142841439Y-65317259D01*
X142900033Y-65175802D01*
X142912902Y-65078053D01*
X142941625Y-65013126D01*
X143000890Y-64974035D01*
X143037824Y-64968500D01*
X143195984Y-64968500D01*
X143264105Y-64988502D01*
X143285079Y-65005405D01*
X144216389Y-65936715D01*
X144223816Y-65944819D01*
X144248045Y-65973694D01*
X144257594Y-65979207D01*
X144280685Y-65992539D01*
X144289956Y-65998445D01*
X144320816Y-66020054D01*
X144331467Y-66022908D01*
X144334640Y-66024388D01*
X144337912Y-66025579D01*
X144347455Y-66031088D01*
X144384576Y-66037634D01*
X144395283Y-66040008D01*
X144431693Y-66049763D01*
X144442668Y-66048803D01*
X144442670Y-66048803D01*
X144469231Y-66046479D01*
X144480212Y-66046000D01*
X144862771Y-66046000D01*
X144930892Y-66066002D01*
X144977385Y-66119658D01*
X144981654Y-66130251D01*
X145022366Y-66246184D01*
X145027958Y-66253754D01*
X145027959Y-66253757D01*
X145090335Y-66338206D01*
X145102850Y-66355150D01*
X145110421Y-66360742D01*
X145204243Y-66430041D01*
X145204246Y-66430042D01*
X145211816Y-66435634D01*
X145339631Y-66480519D01*
X145347277Y-66481242D01*
X145347278Y-66481242D01*
X145353248Y-66481806D01*
X145371166Y-66483500D01*
X146728834Y-66483500D01*
X146746752Y-66481806D01*
X146752722Y-66481242D01*
X146752723Y-66481242D01*
X146760369Y-66480519D01*
X146888184Y-66435634D01*
X146895754Y-66430042D01*
X146895757Y-66430041D01*
X146989579Y-66360742D01*
X146997150Y-66355150D01*
X147009665Y-66338206D01*
X147072041Y-66253757D01*
X147072042Y-66253754D01*
X147077634Y-66246184D01*
X147122519Y-66118369D01*
X147125500Y-66086834D01*
X147125500Y-65354166D01*
X147122519Y-65322631D01*
X147077634Y-65194816D01*
X147072042Y-65187246D01*
X147072041Y-65187243D01*
X147002742Y-65093421D01*
X146997150Y-65085850D01*
X146959436Y-65057994D01*
X146895757Y-65010959D01*
X146895754Y-65010958D01*
X146888184Y-65005366D01*
X146760369Y-64960481D01*
X146752723Y-64959758D01*
X146752722Y-64959758D01*
X146746752Y-64959194D01*
X146728834Y-64957500D01*
X145371166Y-64957500D01*
X145353248Y-64959194D01*
X145347278Y-64959758D01*
X145347277Y-64959758D01*
X145339631Y-64960481D01*
X145211816Y-65005366D01*
X145204246Y-65010958D01*
X145204243Y-65010959D01*
X145140564Y-65057994D01*
X145102850Y-65085850D01*
X145097258Y-65093421D01*
X145027959Y-65187243D01*
X145027958Y-65187246D01*
X145022366Y-65194816D01*
X145010407Y-65228871D01*
X144981654Y-65310748D01*
X144940211Y-65368394D01*
X144874181Y-65394482D01*
X144862771Y-65395000D01*
X144647516Y-65395000D01*
X144579395Y-65374998D01*
X144558421Y-65358095D01*
X143627111Y-64426785D01*
X143619684Y-64418681D01*
X143602541Y-64398251D01*
X143602542Y-64398251D01*
X143595455Y-64389806D01*
X143585906Y-64384293D01*
X143562815Y-64370961D01*
X143553544Y-64365055D01*
X143531715Y-64349770D01*
X143522684Y-64343446D01*
X143512034Y-64340592D01*
X143508866Y-64339115D01*
X143505590Y-64337923D01*
X143496045Y-64332412D01*
X143462301Y-64326462D01*
X143458942Y-64325870D01*
X143448215Y-64323492D01*
X143411807Y-64313736D01*
X143400822Y-64314697D01*
X143400820Y-64314697D01*
X143374272Y-64317020D01*
X143363290Y-64317500D01*
X143037824Y-64317500D01*
X142969703Y-64297498D01*
X142923210Y-64243842D01*
X142912902Y-64207947D01*
X142910592Y-64190404D01*
X142900033Y-64110198D01*
X142841439Y-63968741D01*
X142748231Y-63847269D01*
X142626759Y-63754061D01*
X142619133Y-63750902D01*
X142619131Y-63750901D01*
X142492928Y-63698626D01*
X142492929Y-63698626D01*
X142485302Y-63695467D01*
X142477118Y-63694390D01*
X142477116Y-63694389D01*
X142375703Y-63681038D01*
X142375702Y-63681038D01*
X142371616Y-63680500D01*
X140771384Y-63680500D01*
X140767298Y-63681038D01*
X140767297Y-63681038D01*
X140665884Y-63694389D01*
X140665882Y-63694390D01*
X140657698Y-63695467D01*
X140650071Y-63698626D01*
X140650072Y-63698626D01*
X140523869Y-63750901D01*
X140523867Y-63750902D01*
X140516241Y-63754061D01*
X140394769Y-63847269D01*
X140301561Y-63968741D01*
X140242967Y-64110198D01*
X140228000Y-64223884D01*
X140228000Y-65062116D01*
X132251038Y-65062116D01*
X134718749Y-62594405D01*
X134781061Y-62560379D01*
X134807844Y-62557500D01*
X147767156Y-62557500D01*
X147835277Y-62577502D01*
X147856251Y-62594405D01*
X149539418Y-64277573D01*
X149546845Y-64285677D01*
X149571240Y-64314750D01*
X149604099Y-64333721D01*
X149613367Y-64339626D01*
X149635426Y-64355071D01*
X149635428Y-64355072D01*
X149644457Y-64361394D01*
X149655101Y-64364246D01*
X149658347Y-64365760D01*
X149661715Y-64366986D01*
X149671261Y-64372497D01*
X149706310Y-64378677D01*
X149708633Y-64379087D01*
X149719356Y-64381464D01*
X149756016Y-64391287D01*
X149767000Y-64390326D01*
X149767001Y-64390326D01*
X149793811Y-64387980D01*
X149804794Y-64387500D01*
X158528500Y-64387500D01*
X158596621Y-64407502D01*
X158643114Y-64461158D01*
X158654500Y-64513500D01*
X158654500Y-65409748D01*
X158666133Y-65468231D01*
X158710448Y-65534552D01*
X158776769Y-65578867D01*
X158788938Y-65581288D01*
X158788939Y-65581288D01*
X158829184Y-65589293D01*
X158835252Y-65590500D01*
X160203500Y-65590500D01*
X160271621Y-65610502D01*
X160318114Y-65664158D01*
X160329500Y-65716500D01*
X160329500Y-69195290D01*
X160329020Y-69206272D01*
X160325736Y-69243807D01*
X160328590Y-69254456D01*
X160335491Y-69280210D01*
X160337870Y-69290942D01*
X160344412Y-69328045D01*
X160349923Y-69337590D01*
X160351115Y-69340866D01*
X160352592Y-69344034D01*
X160355446Y-69354684D01*
X160377055Y-69385544D01*
X160382961Y-69394815D01*
X160396293Y-69417906D01*
X160401806Y-69427455D01*
X160410251Y-69434541D01*
X160430682Y-69451685D01*
X160438785Y-69459111D01*
X164855899Y-73876225D01*
X164863327Y-73884331D01*
X164887545Y-73913194D01*
X164897088Y-73918704D01*
X164897092Y-73918707D01*
X164920179Y-73932036D01*
X164929448Y-73937940D01*
X164960316Y-73959554D01*
X164970964Y-73962407D01*
X164974135Y-73963886D01*
X164977411Y-73965078D01*
X164986955Y-73970588D01*
X165024076Y-73977134D01*
X165034783Y-73979508D01*
X165071193Y-73989263D01*
X165082168Y-73988303D01*
X165082170Y-73988303D01*
X165108731Y-73985979D01*
X165119712Y-73985500D01*
X171205635Y-73985500D01*
X171273756Y-74005502D01*
X171320249Y-74059158D01*
X171328552Y-74083801D01*
X171331131Y-74095245D01*
X171333073Y-74100027D01*
X171333074Y-74100031D01*
X171371960Y-74195795D01*
X171420867Y-74316239D01*
X171545493Y-74519609D01*
X171701660Y-74699894D01*
X171885176Y-74852252D01*
X172091112Y-74972591D01*
X172313937Y-75057680D01*
X172319005Y-75058711D01*
X172319008Y-75058712D01*
X172360296Y-75067112D01*
X172547666Y-75105233D01*
X172552839Y-75105423D01*
X172552842Y-75105423D01*
X172780861Y-75113784D01*
X172780865Y-75113784D01*
X172786025Y-75113973D01*
X172791146Y-75113317D01*
X173017489Y-75084321D01*
X173017490Y-75084321D01*
X173022609Y-75083665D01*
X173251068Y-75015125D01*
X173465264Y-74910191D01*
X173546492Y-74852252D01*
X173655242Y-74774681D01*
X173659445Y-74771683D01*
X173828397Y-74603320D01*
X173967582Y-74409623D01*
X173997117Y-74349865D01*
X174070969Y-74200437D01*
X174070970Y-74200435D01*
X174073263Y-74195795D01*
X174134692Y-73993606D01*
X174141098Y-73972521D01*
X174141098Y-73972520D01*
X174142600Y-73967577D01*
X174144489Y-73953232D01*
X174173296Y-73734421D01*
X174173297Y-73734414D01*
X174173733Y-73731099D01*
X174175471Y-73660000D01*
X174160405Y-73476747D01*
X174156351Y-73427435D01*
X174156350Y-73427429D01*
X174155927Y-73422284D01*
X174097821Y-73190952D01*
X174085414Y-73162417D01*
X174004772Y-72976953D01*
X174004770Y-72976950D01*
X174002712Y-72972216D01*
X173873155Y-72771951D01*
X173844360Y-72740305D01*
X173716107Y-72599358D01*
X173716105Y-72599357D01*
X173712629Y-72595536D01*
X173708578Y-72592337D01*
X173708574Y-72592333D01*
X173529500Y-72450909D01*
X173529496Y-72450907D01*
X173525445Y-72447707D01*
X173495563Y-72431211D01*
X173418785Y-72388828D01*
X173316631Y-72332436D01*
X173311762Y-72330712D01*
X173311758Y-72330710D01*
X173096663Y-72254541D01*
X173096661Y-72254540D01*
X173091794Y-72252817D01*
X172942589Y-72226239D01*
X172862060Y-72211894D01*
X172862056Y-72211894D01*
X172856972Y-72210988D01*
X172773140Y-72209964D01*
X172623640Y-72208137D01*
X172623638Y-72208137D01*
X172618471Y-72208074D01*
X172382698Y-72244153D01*
X172155982Y-72318255D01*
X172151394Y-72320643D01*
X172151390Y-72320645D01*
X171949003Y-72426001D01*
X171944414Y-72428390D01*
X171940281Y-72431493D01*
X171940278Y-72431495D01*
X171762333Y-72565101D01*
X171753675Y-72571602D01*
X171588887Y-72744042D01*
X171454475Y-72941082D01*
X171428839Y-72996311D01*
X171369957Y-73123162D01*
X171354051Y-73157428D01*
X171330549Y-73242173D01*
X171293070Y-73302470D01*
X171228941Y-73332933D01*
X171209132Y-73334500D01*
X165287017Y-73334500D01*
X165218896Y-73314498D01*
X165197922Y-73297595D01*
X161017405Y-69117079D01*
X160983379Y-69054767D01*
X160980500Y-69027984D01*
X160980500Y-65716500D01*
X161000502Y-65648379D01*
X161054158Y-65601886D01*
X161106500Y-65590500D01*
X162474748Y-65590500D01*
X162480816Y-65589293D01*
X162521061Y-65581288D01*
X162521062Y-65581288D01*
X162533231Y-65578867D01*
X162599552Y-65534552D01*
X162643867Y-65468231D01*
X162655500Y-65409748D01*
X162655500Y-62770252D01*
X162643867Y-62711769D01*
X162599552Y-62645448D01*
X162533231Y-62601133D01*
X162521062Y-62598712D01*
X162521061Y-62598712D01*
X162480816Y-62590707D01*
X162474748Y-62589500D01*
X158835252Y-62589500D01*
X158829184Y-62590707D01*
X158788939Y-62598712D01*
X158788938Y-62598712D01*
X158776769Y-62601133D01*
X158710448Y-62645448D01*
X158666133Y-62711769D01*
X158654500Y-62770252D01*
X158654500Y-63606500D01*
X158634498Y-63674621D01*
X158580842Y-63721114D01*
X158528500Y-63732500D01*
X149972845Y-63732500D01*
X149904724Y-63712498D01*
X149883750Y-63695595D01*
X148525319Y-62337165D01*
X169697866Y-62337165D01*
X169732952Y-62594970D01*
X169805758Y-62844757D01*
X169914686Y-63081039D01*
X169917246Y-63084944D01*
X169917249Y-63084949D01*
X170054775Y-63294712D01*
X170054779Y-63294717D01*
X170057341Y-63298625D01*
X170230591Y-63492735D01*
X170430629Y-63659105D01*
X170653061Y-63794080D01*
X170657375Y-63795889D01*
X170657377Y-63795890D01*
X170888686Y-63892886D01*
X170888691Y-63892888D01*
X170893001Y-63894695D01*
X170897533Y-63895846D01*
X170897536Y-63895847D01*
X171022815Y-63927663D01*
X171145177Y-63958739D01*
X171361286Y-63980500D01*
X171516044Y-63980500D01*
X171518369Y-63980327D01*
X171518375Y-63980327D01*
X171704814Y-63966472D01*
X171704818Y-63966471D01*
X171709466Y-63966126D01*
X171963232Y-63908705D01*
X171967586Y-63907012D01*
X172201370Y-63816098D01*
X172201372Y-63816097D01*
X172205723Y-63814405D01*
X172241285Y-63794080D01*
X172349027Y-63732500D01*
X172431612Y-63685299D01*
X172635936Y-63524223D01*
X172814208Y-63334714D01*
X172962511Y-63120937D01*
X172980258Y-63084949D01*
X173075521Y-62891775D01*
X173075522Y-62891772D01*
X173077586Y-62887587D01*
X173156906Y-62639792D01*
X173198728Y-62382994D01*
X173202134Y-62122835D01*
X173167048Y-61865030D01*
X173094242Y-61615243D01*
X172985314Y-61378961D01*
X172956637Y-61335221D01*
X172845225Y-61165288D01*
X172845221Y-61165283D01*
X172842659Y-61161375D01*
X172669409Y-60967265D01*
X172469371Y-60800895D01*
X172246939Y-60665920D01*
X172242623Y-60664110D01*
X172011314Y-60567114D01*
X172011309Y-60567112D01*
X172006999Y-60565305D01*
X172002467Y-60564154D01*
X172002464Y-60564153D01*
X171877185Y-60532337D01*
X171754823Y-60501261D01*
X171538714Y-60479500D01*
X171383956Y-60479500D01*
X171381631Y-60479673D01*
X171381625Y-60479673D01*
X171195186Y-60493528D01*
X171195182Y-60493529D01*
X171190534Y-60493874D01*
X170936768Y-60551295D01*
X170932416Y-60552987D01*
X170932414Y-60552988D01*
X170698630Y-60643902D01*
X170698628Y-60643903D01*
X170694277Y-60645595D01*
X170690223Y-60647912D01*
X170690221Y-60647913D01*
X170654467Y-60668348D01*
X170468388Y-60774701D01*
X170264064Y-60935777D01*
X170085792Y-61125286D01*
X169937489Y-61339063D01*
X169935423Y-61343253D01*
X169935421Y-61343256D01*
X169915720Y-61383207D01*
X169822414Y-61572413D01*
X169743094Y-61820208D01*
X169701272Y-62077006D01*
X169697866Y-62337165D01*
X148525319Y-62337165D01*
X148200587Y-62012433D01*
X148193160Y-62004329D01*
X148175846Y-61983695D01*
X148168760Y-61975250D01*
X148135895Y-61956275D01*
X148126635Y-61950377D01*
X148095543Y-61928606D01*
X148084899Y-61925754D01*
X148081653Y-61924240D01*
X148078285Y-61923014D01*
X148068739Y-61917503D01*
X148031368Y-61910913D01*
X148020644Y-61908536D01*
X147983984Y-61898713D01*
X147973000Y-61899674D01*
X147972999Y-61899674D01*
X147946189Y-61902020D01*
X147935206Y-61902500D01*
X134639794Y-61902500D01*
X134628811Y-61902020D01*
X134602001Y-61899674D01*
X134602000Y-61899674D01*
X134591016Y-61898713D01*
X134554356Y-61908536D01*
X134543632Y-61910913D01*
X134506261Y-61917503D01*
X134496715Y-61923014D01*
X134493347Y-61924240D01*
X134490101Y-61925754D01*
X134479457Y-61928606D01*
X134448365Y-61950377D01*
X134439105Y-61956275D01*
X134406240Y-61975250D01*
X134399153Y-61983695D01*
X134399154Y-61983695D01*
X134381839Y-62004330D01*
X134374412Y-62012434D01*
X131227434Y-65159412D01*
X131219330Y-65166839D01*
X131190250Y-65191240D01*
X131184737Y-65200789D01*
X131171275Y-65224106D01*
X131165377Y-65233365D01*
X131143606Y-65264457D01*
X131140754Y-65275101D01*
X131139240Y-65278347D01*
X131138014Y-65281715D01*
X131132503Y-65291261D01*
X131126323Y-65326310D01*
X131125913Y-65328633D01*
X131123536Y-65339356D01*
X131113713Y-65376016D01*
X131114674Y-65386999D01*
X131117020Y-65413811D01*
X131117500Y-65424794D01*
X131117500Y-72844535D01*
X131097498Y-72912656D01*
X131080673Y-72933553D01*
X131058648Y-72955617D01*
X131005707Y-73008650D01*
X130954464Y-73113482D01*
X130944500Y-73181782D01*
X130944500Y-73841500D01*
X130924498Y-73909621D01*
X130870842Y-73956114D01*
X130818500Y-73967500D01*
X126596500Y-73967500D01*
X126528379Y-73947498D01*
X126481886Y-73893842D01*
X126470500Y-73841500D01*
X126470500Y-73828666D01*
X126467519Y-73797131D01*
X126422634Y-73669316D01*
X126417042Y-73661746D01*
X126417041Y-73661743D01*
X126347742Y-73567921D01*
X126342150Y-73560350D01*
X126325206Y-73547835D01*
X126240757Y-73485459D01*
X126240754Y-73485458D01*
X126233184Y-73479866D01*
X126105369Y-73434981D01*
X126097723Y-73434258D01*
X126097722Y-73434258D01*
X126091752Y-73433694D01*
X126073834Y-73432000D01*
X124116166Y-73432000D01*
X124098248Y-73433694D01*
X124092278Y-73434258D01*
X124092277Y-73434258D01*
X124084631Y-73434981D01*
X123956816Y-73479866D01*
X123949246Y-73485458D01*
X123949243Y-73485459D01*
X123864794Y-73547835D01*
X123847850Y-73560350D01*
X123842258Y-73567921D01*
X123772959Y-73661743D01*
X123772958Y-73661746D01*
X123767366Y-73669316D01*
X123722481Y-73797131D01*
X123719500Y-73828666D01*
X123719500Y-73841500D01*
X123699498Y-73909621D01*
X123645842Y-73956114D01*
X123593500Y-73967500D01*
X114705794Y-73967500D01*
X114694811Y-73967020D01*
X114668001Y-73964674D01*
X114668000Y-73964674D01*
X114657016Y-73963713D01*
X114620356Y-73973536D01*
X114609632Y-73975913D01*
X114572261Y-73982503D01*
X114562715Y-73988014D01*
X114559347Y-73989240D01*
X114556101Y-73990754D01*
X114545457Y-73993606D01*
X114536429Y-73999928D01*
X114536428Y-73999928D01*
X114514372Y-74015372D01*
X114505102Y-74021277D01*
X114481788Y-74034737D01*
X114481786Y-74034739D01*
X114472240Y-74040250D01*
X114465154Y-74048695D01*
X114447845Y-74069323D01*
X114440418Y-74077427D01*
X112080632Y-76437213D01*
X112018320Y-76471239D01*
X111944849Y-76465148D01*
X111819898Y-76415298D01*
X111621526Y-76375839D01*
X111615752Y-76375763D01*
X111615748Y-76375763D01*
X111513257Y-76374422D01*
X111419286Y-76373192D01*
X111413589Y-76374171D01*
X111413588Y-76374171D01*
X111225646Y-76406465D01*
X111225645Y-76406465D01*
X111219949Y-76407444D01*
X111030193Y-76477449D01*
X111025232Y-76480401D01*
X111025231Y-76480401D01*
X110953881Y-76522850D01*
X110856371Y-76580862D01*
X110704305Y-76714220D01*
X110579089Y-76873057D01*
X110484914Y-77052053D01*
X110483201Y-77057571D01*
X110483199Y-77057576D01*
X110482798Y-77058866D01*
X110482443Y-77059400D01*
X110480989Y-77062910D01*
X110480300Y-77062624D01*
X110443494Y-77117991D01*
X110378464Y-77146480D01*
X110362466Y-77147500D01*
X109123976Y-77147500D01*
X109055855Y-77127498D01*
X109010970Y-77077229D01*
X109002178Y-77059400D01*
X108922351Y-76897527D01*
X108904079Y-76873057D01*
X108804788Y-76740091D01*
X108804787Y-76740090D01*
X108801335Y-76735467D01*
X108797099Y-76731551D01*
X108657053Y-76602094D01*
X108657051Y-76602092D01*
X108652812Y-76598174D01*
X108625374Y-76580862D01*
X108486637Y-76493325D01*
X108481757Y-76490246D01*
X108293898Y-76415298D01*
X108095526Y-76375839D01*
X108089752Y-76375763D01*
X108089748Y-76375763D01*
X107987257Y-76374422D01*
X107893286Y-76373192D01*
X107887589Y-76374171D01*
X107887588Y-76374171D01*
X107699646Y-76406465D01*
X107699645Y-76406465D01*
X107693949Y-76407444D01*
X107504193Y-76477449D01*
X107499232Y-76480401D01*
X107499231Y-76480401D01*
X107427881Y-76522850D01*
X107330371Y-76580862D01*
X107178305Y-76714220D01*
X107053089Y-76873057D01*
X106958914Y-77052053D01*
X106941692Y-77107518D01*
X106926333Y-77156982D01*
X106887030Y-77216107D01*
X106822001Y-77244598D01*
X106751891Y-77233408D01*
X106698961Y-77186091D01*
X106680000Y-77119618D01*
X106680000Y-74295000D01*
X101091000Y-74295000D01*
X101022879Y-74274998D01*
X100976386Y-74221342D01*
X100965000Y-74169000D01*
X100965000Y-71679595D01*
X123412001Y-71679595D01*
X123412338Y-71686114D01*
X123422257Y-71781706D01*
X123425149Y-71795100D01*
X123476588Y-71949284D01*
X123482761Y-71962462D01*
X123568063Y-72100307D01*
X123577099Y-72111708D01*
X123691829Y-72226239D01*
X123703240Y-72235251D01*
X123841243Y-72320316D01*
X123854424Y-72326463D01*
X124008710Y-72377638D01*
X124022086Y-72380505D01*
X124116438Y-72390172D01*
X124122854Y-72390500D01*
X124822885Y-72390500D01*
X124838124Y-72386025D01*
X124839329Y-72384635D01*
X124841000Y-72376952D01*
X124841000Y-72372384D01*
X125349000Y-72372384D01*
X125353475Y-72387623D01*
X125354865Y-72388828D01*
X125362548Y-72390499D01*
X126067095Y-72390499D01*
X126073614Y-72390162D01*
X126169206Y-72380243D01*
X126182600Y-72377351D01*
X126336784Y-72325912D01*
X126349962Y-72319739D01*
X126487807Y-72234437D01*
X126499208Y-72225401D01*
X126613739Y-72110671D01*
X126622751Y-72099260D01*
X126707816Y-71961257D01*
X126713963Y-71948076D01*
X126765138Y-71793790D01*
X126768005Y-71780414D01*
X126777672Y-71686062D01*
X126778000Y-71679646D01*
X126778000Y-71492115D01*
X126773525Y-71476876D01*
X126772135Y-71475671D01*
X126764452Y-71474000D01*
X125367115Y-71474000D01*
X125351876Y-71478475D01*
X125350671Y-71479865D01*
X125349000Y-71487548D01*
X125349000Y-72372384D01*
X124841000Y-72372384D01*
X124841000Y-71492115D01*
X124836525Y-71476876D01*
X124835135Y-71475671D01*
X124827452Y-71474000D01*
X123430116Y-71474000D01*
X123414877Y-71478475D01*
X123413672Y-71479865D01*
X123412001Y-71487548D01*
X123412001Y-71679595D01*
X100965000Y-71679595D01*
X100965000Y-70947885D01*
X123412000Y-70947885D01*
X123416475Y-70963124D01*
X123417865Y-70964329D01*
X123425548Y-70966000D01*
X124822885Y-70966000D01*
X124838124Y-70961525D01*
X124839329Y-70960135D01*
X124841000Y-70952452D01*
X124841000Y-70947885D01*
X125349000Y-70947885D01*
X125353475Y-70963124D01*
X125354865Y-70964329D01*
X125362548Y-70966000D01*
X126759884Y-70966000D01*
X126775123Y-70961525D01*
X126776328Y-70960135D01*
X126777999Y-70952452D01*
X126777999Y-70760405D01*
X126777662Y-70753886D01*
X126767743Y-70658294D01*
X126764851Y-70644900D01*
X126713412Y-70490716D01*
X126707239Y-70477538D01*
X126621937Y-70339693D01*
X126612901Y-70328292D01*
X126498171Y-70213761D01*
X126486760Y-70204749D01*
X126348757Y-70119684D01*
X126335576Y-70113537D01*
X126181290Y-70062362D01*
X126167914Y-70059495D01*
X126073562Y-70049828D01*
X126067145Y-70049500D01*
X125367115Y-70049500D01*
X125351876Y-70053975D01*
X125350671Y-70055365D01*
X125349000Y-70063048D01*
X125349000Y-70947885D01*
X124841000Y-70947885D01*
X124841000Y-70067616D01*
X124836525Y-70052377D01*
X124835135Y-70051172D01*
X124827452Y-70049501D01*
X124122905Y-70049501D01*
X124116386Y-70049838D01*
X124020794Y-70059757D01*
X124007400Y-70062649D01*
X123853216Y-70114088D01*
X123840038Y-70120261D01*
X123702193Y-70205563D01*
X123690792Y-70214599D01*
X123576261Y-70329329D01*
X123567249Y-70340740D01*
X123482184Y-70478743D01*
X123476037Y-70491924D01*
X123424862Y-70646210D01*
X123421995Y-70659586D01*
X123412328Y-70753938D01*
X123412000Y-70760355D01*
X123412000Y-70947885D01*
X100965000Y-70947885D01*
X100965000Y-62337165D01*
X116992866Y-62337165D01*
X117027952Y-62594970D01*
X117100758Y-62844757D01*
X117209686Y-63081039D01*
X117212246Y-63084944D01*
X117212249Y-63084949D01*
X117349775Y-63294712D01*
X117349779Y-63294717D01*
X117352341Y-63298625D01*
X117525591Y-63492735D01*
X117725629Y-63659105D01*
X117948061Y-63794080D01*
X117952375Y-63795889D01*
X117952377Y-63795890D01*
X118183686Y-63892886D01*
X118183691Y-63892888D01*
X118188001Y-63894695D01*
X118192533Y-63895846D01*
X118192536Y-63895847D01*
X118317815Y-63927663D01*
X118440177Y-63958739D01*
X118656286Y-63980500D01*
X118811044Y-63980500D01*
X118813369Y-63980327D01*
X118813375Y-63980327D01*
X118999814Y-63966472D01*
X118999818Y-63966471D01*
X119004466Y-63966126D01*
X119258232Y-63908705D01*
X119262586Y-63907012D01*
X119496370Y-63816098D01*
X119496372Y-63816097D01*
X119500723Y-63814405D01*
X119536285Y-63794080D01*
X119644027Y-63732500D01*
X119726612Y-63685299D01*
X119930936Y-63524223D01*
X120109208Y-63334714D01*
X120257511Y-63120937D01*
X120275258Y-63084949D01*
X120370521Y-62891775D01*
X120370522Y-62891772D01*
X120372586Y-62887587D01*
X120451906Y-62639792D01*
X120493728Y-62382994D01*
X120497134Y-62122835D01*
X120462048Y-61865030D01*
X120389242Y-61615243D01*
X120280314Y-61378961D01*
X120251637Y-61335221D01*
X120140225Y-61165288D01*
X120140221Y-61165283D01*
X120137659Y-61161375D01*
X119964409Y-60967265D01*
X119764371Y-60800895D01*
X119541939Y-60665920D01*
X119537623Y-60664110D01*
X119306314Y-60567114D01*
X119306309Y-60567112D01*
X119301999Y-60565305D01*
X119297467Y-60564154D01*
X119297464Y-60564153D01*
X119172185Y-60532337D01*
X119049823Y-60501261D01*
X118833714Y-60479500D01*
X118678956Y-60479500D01*
X118676631Y-60479673D01*
X118676625Y-60479673D01*
X118490186Y-60493528D01*
X118490182Y-60493529D01*
X118485534Y-60493874D01*
X118231768Y-60551295D01*
X118227416Y-60552987D01*
X118227414Y-60552988D01*
X117993630Y-60643902D01*
X117993628Y-60643903D01*
X117989277Y-60645595D01*
X117985223Y-60647912D01*
X117985221Y-60647913D01*
X117949467Y-60668348D01*
X117763388Y-60774701D01*
X117559064Y-60935777D01*
X117380792Y-61125286D01*
X117232489Y-61339063D01*
X117230423Y-61343253D01*
X117230421Y-61343256D01*
X117210720Y-61383207D01*
X117117414Y-61572413D01*
X117038094Y-61820208D01*
X116996272Y-62077006D01*
X116992866Y-62337165D01*
X100965000Y-62337165D01*
X100965000Y-59181000D01*
X100985002Y-59112879D01*
X101038658Y-59066386D01*
X101091000Y-59055000D01*
X174499000Y-59055000D01*
X174567121Y-59075002D01*
G37*
%TD.AperFunction*%
%TD*%
M02*
