%TF.GenerationSoftware,KiCad,Pcbnew,(6.0.6-0)*%
%TF.CreationDate,2022-12-31T16:02:41+01:00*%
%TF.ProjectId,rc5_remote,7263355f-7265-46d6-9f74-652e6b696361,rev?*%
%TF.SameCoordinates,Original*%
%TF.FileFunction,Paste,Top*%
%TF.FilePolarity,Positive*%
%FSLAX46Y46*%
G04 Gerber Fmt 4.6, Leading zero omitted, Abs format (unit mm)*
G04 Created by KiCad (PCBNEW (6.0.6-0)) date 2022-12-31 16:02:41*
%MOMM*%
%LPD*%
G01*
G04 APERTURE LIST*
G04 Aperture macros list*
%AMRoundRect*
0 Rectangle with rounded corners*
0 $1 Rounding radius*
0 $2 $3 $4 $5 $6 $7 $8 $9 X,Y pos of 4 corners*
0 Add a 4 corners polygon primitive as box body*
4,1,4,$2,$3,$4,$5,$6,$7,$8,$9,$2,$3,0*
0 Add four circle primitives for the rounded corners*
1,1,$1+$1,$2,$3*
1,1,$1+$1,$4,$5*
1,1,$1+$1,$6,$7*
1,1,$1+$1,$8,$9*
0 Add four rect primitives between the rounded corners*
20,1,$1+$1,$2,$3,$4,$5,0*
20,1,$1+$1,$4,$5,$6,$7,0*
20,1,$1+$1,$6,$7,$8,$9,0*
20,1,$1+$1,$8,$9,$2,$3,0*%
G04 Aperture macros list end*
%ADD10RoundRect,0.250000X0.625000X-0.312500X0.625000X0.312500X-0.625000X0.312500X-0.625000X-0.312500X0*%
%ADD11RoundRect,0.250000X0.925000X-0.412500X0.925000X0.412500X-0.925000X0.412500X-0.925000X-0.412500X0*%
%ADD12R,3.600000X2.600000*%
%ADD13RoundRect,0.250000X-0.312500X-0.625000X0.312500X-0.625000X0.312500X0.625000X-0.312500X0.625000X0*%
%ADD14RoundRect,0.150000X0.150000X-0.875000X0.150000X0.875000X-0.150000X0.875000X-0.150000X-0.875000X0*%
%ADD15RoundRect,0.381000X0.762000X0.381000X-0.762000X0.381000X-0.762000X-0.381000X0.762000X-0.381000X0*%
%ADD16RoundRect,0.150000X0.587500X0.150000X-0.587500X0.150000X-0.587500X-0.150000X0.587500X-0.150000X0*%
G04 APERTURE END LIST*
D10*
%TO.C,R5*%
X146050000Y-68645500D03*
X146050000Y-65720500D03*
%TD*%
D11*
%TO.C,C1*%
X125095000Y-74295000D03*
X125095000Y-71220000D03*
%TD*%
D12*
%TO.C,BT1*%
X160655000Y-64090000D03*
X160655000Y-93390000D03*
%TD*%
D13*
%TO.C,R2*%
X117729000Y-77470000D03*
X120654000Y-77470000D03*
%TD*%
D10*
%TO.C,R1*%
X125095000Y-84012500D03*
X125095000Y-81087500D03*
%TD*%
D14*
%TO.C,U1*%
X131445000Y-83390000D03*
X132715000Y-83390000D03*
X133985000Y-83390000D03*
X135255000Y-83390000D03*
X136525000Y-83390000D03*
X137795000Y-83390000D03*
X139065000Y-83390000D03*
X140335000Y-83390000D03*
X141605000Y-83390000D03*
X142875000Y-83390000D03*
X144145000Y-83390000D03*
X145415000Y-83390000D03*
X146685000Y-83390000D03*
X147955000Y-83390000D03*
X147955000Y-74090000D03*
X146685000Y-74090000D03*
X145415000Y-74090000D03*
X144145000Y-74090000D03*
X142875000Y-74090000D03*
X141605000Y-74090000D03*
X140335000Y-74090000D03*
X139065000Y-74090000D03*
X137795000Y-74090000D03*
X136525000Y-74090000D03*
X135255000Y-74090000D03*
X133985000Y-74090000D03*
X132715000Y-74090000D03*
X131445000Y-74090000D03*
%TD*%
D13*
%TO.C,R3*%
X117729000Y-80010000D03*
X120654000Y-80010000D03*
%TD*%
%TO.C,R4*%
X117725000Y-82550000D03*
X120650000Y-82550000D03*
%TD*%
D15*
%TO.C,Q1*%
X141571500Y-69723000D03*
X141571500Y-64643000D03*
%TD*%
D16*
%TO.C,U2*%
X124762500Y-78420000D03*
X124762500Y-76520000D03*
X122887500Y-77470000D03*
%TD*%
M02*
